<svg width="35" height="17" viewBox="0 0 35 17" fill="none" xmlns="http://www.w3.org/2000/svg">
<path d="M1.61948 9.18182H33.3805C33.7225 9.18182 34 8.87636 34 8.5C34 8.12364 33.7225 7.81818 33.3805 7.81818H1.61948C1.27753 7.81818 1 8.12364 1 8.5C1 8.87636 1.27753 9.18182 1.61948 9.18182Z" fill="#1A1A18"/>
<path d="M26.1541 16C26.2314 16 26.3088 15.9718 26.368 15.916L33.9453 8.70203C34.0015 8.64794 34.0335 8.57487 34.0335 8.49835C34.0335 8.42182 34.0015 8.34875 33.9453 8.29467L26.3674 1.08415C26.2496 0.971951 26.058 0.971951 25.9401 1.08415C25.8222 1.19634 25.8222 1.37874 25.9401 1.49093L33.304 8.49835L25.9401 15.5086C25.8222 15.6208 25.8222 15.8032 25.9401 15.9154C25.9993 15.9718 26.0767 16 26.1541 16Z" fill="#1A1A18"/>
<path d="M1.61948 9.18182H33.3805C33.7225 9.18182 34 8.87636 34 8.5C34 8.12364 33.7225 7.81818 33.3805 7.81818H1.61948C1.27753 7.81818 1 8.12364 1 8.5C1 8.87636 1.27753 9.18182 1.61948 9.18182Z" stroke="#1A1A18" stroke-width="0.681818"/>
<path d="M26.1541 16C26.2314 16 26.3088 15.9718 26.368 15.916L33.9453 8.70203C34.0015 8.64794 34.0335 8.57487 34.0335 8.49835C34.0335 8.42182 34.0015 8.34875 33.9453 8.29467L26.3674 1.08415C26.2496 0.971951 26.058 0.971951 25.9401 1.08415C25.8222 1.19634 25.8222 1.37874 25.9401 1.49093L33.304 8.49835L25.9401 15.5086C25.8222 15.6208 25.8222 15.8032 25.9401 15.9154C25.9993 15.9718 26.0767 16 26.1541 16Z" stroke="#1A1A18" stroke-width="0.681818"/>
</svg>
