<svg width="22" height="35" viewBox="0 0 22 35" fill="none" xmlns="http://www.w3.org/2000/svg">
<path d="M12 34.3617L12 1.63826C12 1.28594 11.552 1 11 1C10.448 1 10 1.28594 10 1.63826L10 34.3617C10 34.7141 10.448 35 11 35C11.552 35 12 34.7141 12 34.3617Z" fill="white"/>
<path d="M21.407 11.759C21.407 11.6535 21.3685 11.548 21.2924 11.4673L11.4565 1.13594C11.3827 1.0593 11.2831 1.01563 11.1788 1.01563C11.0744 1.01563 10.9748 1.0593 10.9011 1.13594L1.06981 11.4681C0.916834 11.6288 0.916834 11.89 1.06981 12.0507C1.22279 12.2114 1.47147 12.2114 1.62445 12.0507L11.1788 2.01027L20.737 12.0507C20.89 12.2114 21.1387 12.2114 21.2917 12.0507C21.3685 11.9699 21.407 11.8645 21.407 11.759Z" fill="white" stroke="white" stroke-width="0.681818"/>
</svg>
