<svg width="15" height="177" viewBox="0 0 15 177" fill="none" xmlns="http://www.w3.org/2000/svg">
<path d="M0.119998 176.971L0.119998 168.715H11V169.771H1.08L1.08 175.915H11V176.971H0.119998Z" fill="#1A1A18"/>
<path d="M3.784 162.158C3.784 161.496 3.944 160.899 4.264 160.366C4.57333 159.832 5.00533 159.416 5.56 159.118C6.11466 158.819 6.73866 158.67 7.432 158.67C8.14666 158.67 8.78666 158.819 9.352 159.118C9.91733 159.416 10.36 159.832 10.68 160.366C11 160.899 11.16 161.502 11.16 162.174C11.16 162.75 11.0427 163.278 10.808 163.758C10.5627 164.238 10.2373 164.627 9.832 164.926C10.5573 164.904 11.192 164.894 11.736 164.894H14.52L14.52 165.87H3.928V165.134L5.112 164.926C4.696 164.616 4.37066 164.227 4.136 163.758C3.90133 163.278 3.784 162.744 3.784 162.158ZM10.248 162.238C10.248 161.736 10.1307 161.288 9.896 160.894C9.66133 160.499 9.336 160.195 8.92 159.982C8.49333 159.758 8.01333 159.646 7.48 159.646C6.94666 159.646 6.46666 159.758 6.04 159.982C5.61333 160.195 5.28266 160.499 5.048 160.894C4.81333 161.288 4.696 161.736 4.696 162.238C4.696 163.027 4.952 163.678 5.464 164.19C5.96533 164.691 6.62133 164.942 7.432 164.942C7.98666 164.942 8.47733 164.83 8.904 164.606C9.33066 164.371 9.66133 164.051 9.896 163.646C10.1307 163.23 10.248 162.76 10.248 162.238Z" fill="#1A1A18"/>
<path d="M3.928 150.73H11V151.706H6.68C6.31733 151.706 6.04533 151.701 5.864 151.69C6.16266 151.925 6.42933 152.149 6.664 152.362L11 156.314V156.666H3.928V155.69H8.12C8.344 155.69 8.65866 155.701 9.064 155.722C8.85066 155.552 8.54133 155.285 8.136 154.922L3.928 151.082V150.73Z" fill="#1A1A18"/>
<path d="M11 140.517V141.493L6.824 141.893C6.408 141.936 6.12 141.962 5.96 141.973C6.16266 142.101 6.344 142.234 6.504 142.373L6.824 142.613L9.208 144.421V144.661L6.936 146.389C6.488 146.73 6.15733 146.976 5.944 147.125C6.12533 147.136 6.45066 147.162 6.92 147.205L11 147.589V148.549L3.928 147.893V147.589L7.288 144.981C7.64 144.714 7.84266 144.565 7.896 144.533C7.84266 144.501 7.64 144.352 7.288 144.085L3.928 141.493V141.189L11 140.517Z" fill="#1A1A18"/>
<path d="M3.752 135.47C3.752 134.499 4.06133 133.737 4.68 133.182C5.29866 132.617 6.13066 132.334 7.176 132.334C7.38933 132.334 7.61866 132.35 7.864 132.382L7.864 138.046C8.6 137.971 9.18666 137.683 9.624 137.182C10.0507 136.681 10.264 136.089 10.264 135.406C10.264 134.926 10.1947 134.521 10.056 134.19C9.90666 133.849 9.688 133.534 9.4 133.246L10.104 132.686C10.8187 133.433 11.176 134.334 11.176 135.39C11.176 136.094 11.0213 136.723 10.712 137.278C10.392 137.833 9.94933 138.265 9.384 138.574C8.81866 138.883 8.17333 139.038 7.448 139.038C6.76533 139.038 6.14666 138.889 5.592 138.59C5.02666 138.281 4.57866 137.854 4.248 137.31C3.91733 136.766 3.752 136.153 3.752 135.47ZM4.664 135.486C4.664 136.137 4.87733 136.697 5.304 137.166C5.73066 137.635 6.296 137.923 7 138.03V133.294C6.264 133.315 5.69333 133.523 5.288 133.918C4.872 134.313 4.664 134.835 4.664 135.486Z" fill="#1A1A18"/>
<path d="M3.784 126.736C3.784 126.074 3.944 125.477 4.264 124.944C4.57333 124.41 5.00533 123.994 5.56 123.696C6.11466 123.397 6.73866 123.248 7.432 123.248C8.14666 123.248 8.78666 123.397 9.352 123.696C9.91733 123.994 10.36 124.41 10.68 124.944C11 125.477 11.16 126.08 11.16 126.752C11.16 127.328 11.0427 127.856 10.808 128.336C10.5627 128.816 10.2373 129.205 9.832 129.504C10.5573 129.482 11.192 129.472 11.736 129.472H14.52V130.448H3.928L3.928 129.712L5.112 129.504C4.696 129.194 4.37066 128.805 4.136 128.336C3.90133 127.856 3.784 127.322 3.784 126.736ZM10.248 126.816C10.248 126.314 10.1307 125.866 9.896 125.472C9.66133 125.077 9.336 124.773 8.92 124.56C8.49333 124.336 8.01333 124.224 7.48 124.224C6.94666 124.224 6.46666 124.336 6.04 124.56C5.61333 124.773 5.28266 125.077 5.048 125.472C4.81333 125.866 4.696 126.314 4.696 126.816C4.696 127.605 4.952 128.256 5.464 128.768C5.96533 129.269 6.62133 129.52 7.432 129.52C7.98666 129.52 8.47733 129.408 8.904 129.184C9.33066 128.949 9.66133 128.629 9.896 128.224C10.1307 127.808 10.248 127.338 10.248 126.816Z" fill="#1A1A18"/>
<path d="M11.16 115.092C11.16 115.743 11.016 116.351 10.728 116.916C10.4293 117.481 10.024 117.951 9.512 118.324L8.92 117.588C9.76266 116.873 10.184 116.041 10.184 115.092C10.184 114.281 9.976 113.636 9.56 113.156C9.144 112.665 8.616 112.42 7.976 112.42C7.25066 112.42 6.72266 112.676 6.392 113.188C6.05066 113.7 5.88 114.319 5.88 115.044V116.404H4.92V115.188C4.92 114.463 4.73333 113.913 4.36 113.54C3.98666 113.156 3.544 112.964 3.032 112.964C2.50933 112.964 2.07733 113.151 1.73599 113.524C1.39466 113.897 1.224 114.388 1.224 114.996C1.224 115.465 1.32 115.892 1.51199 116.276C1.70399 116.649 1.97066 117.007 2.312 117.348L1.704 117.988C0.743996 117.167 0.263996 116.159 0.263996 114.964C0.263996 114.356 0.381329 113.823 0.615995 113.364C0.850662 112.895 1.176 112.532 1.592 112.276C1.99733 112.02 2.45066 111.892 2.952 111.892C3.432 111.892 3.896 112.031 4.344 112.308C4.78133 112.575 5.112 112.964 5.336 113.476C5.528 112.772 5.88 112.244 6.392 111.892C6.89333 111.54 7.44266 111.364 8.04 111.364C8.62666 111.364 9.16 111.519 9.64 111.828C10.1093 112.127 10.4827 112.559 10.76 113.124C11.0267 113.689 11.16 114.345 11.16 115.092Z" fill="#1A1A18"/>
<path d="M0.119995 108.893L0.119995 105.405C0.119995 104.327 0.354662 103.367 0.823995 102.525C1.29333 101.682 1.94399 101.026 2.776 100.557C3.59733 100.087 4.53066 99.8526 5.57599 99.8526C6.62133 99.8526 7.55466 100.082 8.37599 100.541C9.19733 100.999 9.84266 101.65 10.312 102.493C10.7707 103.325 11 104.29 11 105.389V108.893H0.119995ZM10.04 105.389C10.04 104.503 9.84799 103.719 9.46399 103.037C9.06933 102.354 8.536 101.826 7.864 101.453C7.18133 101.079 6.41866 100.893 5.57599 100.893C4.73333 100.893 3.97066 101.079 3.28799 101.453C2.60533 101.826 2.06666 102.359 1.672 103.053C1.27733 103.735 1.08 104.519 1.08 105.405L1.08 107.837H10.04V105.389Z" fill="#1A1A18"/>
<path d="M6.91999 97.8737V93.7777H7.76799L7.76799 97.8737H6.91999Z" fill="#1A1A18"/>
<path d="M7.36799 87.1597C7.48533 86.7544 7.68799 86.4344 7.97599 86.1997C8.26399 85.9651 8.62666 85.8477 9.06399 85.8477C9.67199 85.8477 10.1467 86.0557 10.488 86.4717C10.8293 86.8877 11 87.4424 11 88.1357V91.4477H3.92799V88.4077C3.92799 87.7251 4.09866 87.1864 4.43999 86.7917C4.78133 86.3864 5.23466 86.1837 5.79999 86.1837C6.53599 86.1837 7.05866 86.5091 7.36799 87.1597ZM4.80799 90.4717H6.96799L6.96799 88.4237C6.96799 88.0077 6.86666 87.6931 6.66399 87.4797C6.46133 87.2664 6.19999 87.1597 5.87999 87.1597C5.57066 87.1597 5.31466 87.2664 5.11199 87.4797C4.90933 87.6931 4.80799 88.0077 4.80799 88.4237L4.80799 90.4717ZM10.12 88.1517C10.12 87.7144 10.0187 87.3837 9.81599 87.1597C9.60266 86.9357 9.32533 86.8237 8.98399 86.8237C8.64266 86.8237 8.37066 86.9357 8.16799 87.1597C7.95466 87.3837 7.84799 87.7144 7.84799 88.1517V90.4717H10.12V88.1517Z" fill="#1A1A18"/>
<path d="M3.92799 77.9336H11V78.9096H6.67999C6.31733 78.9096 6.04533 78.9043 5.86399 78.8936C6.16266 79.1283 6.42933 79.3523 6.66399 79.5656L11 83.5176V83.8696H3.92799V82.8936H8.11999C8.34399 82.8936 8.65866 82.9043 9.06399 82.9256C8.85066 82.7549 8.54133 82.4883 8.13599 82.1256L3.92799 78.2856V77.9336Z" fill="#1A1A18"/>
<path d="M11.128 73.5281C11.128 74.5201 10.856 75.4214 10.312 76.2321L9.52799 75.7841C9.98666 75.1228 10.216 74.3761 10.216 73.5441C10.216 72.9681 10.0987 72.5361 9.86399 72.2481C9.61866 71.9494 9.30933 71.8001 8.93599 71.8001C8.58399 71.8001 8.30133 71.9228 8.08799 72.1681C7.87466 72.4134 7.76799 72.7814 7.76799 73.2721V74.7441H6.87199V73.3201C6.87199 72.9468 6.78133 72.6588 6.59999 72.4561C6.40799 72.2428 6.15733 72.1361 5.84799 72.1361C5.53866 72.1361 5.28266 72.2641 5.07999 72.5201C4.86666 72.7654 4.75999 73.1388 4.75999 73.6401C4.75999 74.2694 4.93066 74.8988 5.27199 75.5281L4.47199 75.8961C4.05599 75.1281 3.84799 74.3548 3.84799 73.5761C3.84799 72.8828 4.02399 72.3068 4.37599 71.8481C4.71733 71.3894 5.19199 71.1601 5.79999 71.1601C6.11999 71.1601 6.41333 71.2454 6.67999 71.4161C6.94666 71.5868 7.13866 71.8268 7.25599 72.1361C7.37333 71.7094 7.59199 71.3841 7.91199 71.1601C8.22133 70.9361 8.57866 70.8241 8.98399 70.8241C9.64533 70.8241 10.168 71.0748 10.552 71.5761C10.936 72.0668 11.128 72.7174 11.128 73.5281Z" fill="#1A1A18"/>
<path d="M3.92799 63.2H3.95999L11.352 66.224C12.0027 66.4906 12.536 66.7573 12.952 67.024C13.368 67.28 13.7093 67.6 13.976 67.984C14.2533 68.368 14.4507 68.848 14.568 69.424L13.752 69.616C13.6667 69.1466 13.5067 68.7626 13.272 68.464C13.048 68.1653 12.7707 67.92 12.44 67.728C12.1093 67.5253 11.6667 67.312 11.112 67.088L10.888 66.992L3.95999 70.096H3.92799L3.92799 69.072L7.79999 67.376C8.49333 67.0666 9.19199 66.784 9.89599 66.528C9.30933 66.336 8.61066 66.08 7.79999 65.76L3.92799 64.224V63.2Z" fill="#1A1A18"/>
<path d="M3.84799 59.403C3.84799 58.5816 4.06133 57.931 4.48799 57.451C4.90399 56.9603 5.50666 56.715 6.29599 56.715H11V57.435L9.71999 57.611C10.1573 57.8776 10.504 58.2403 10.76 58.699C11.0053 59.147 11.128 59.675 11.128 60.283C11.128 60.9763 10.952 61.5256 10.6 61.931C10.248 62.3363 9.76799 62.539 9.15999 62.539C8.38133 62.539 7.77333 62.2136 7.33599 61.563C6.88799 60.9123 6.66399 60.059 6.66399 59.003C6.66399 58.4696 6.68533 58.0376 6.72799 57.707H6.24799C5.75733 57.707 5.38933 57.867 5.14399 58.187C4.88799 58.507 4.75999 58.9443 4.75999 59.499C4.75999 60.2136 4.95733 60.9923 5.35199 61.835L4.51999 62.171C4.07199 61.211 3.84799 60.2883 3.84799 59.403ZM10.216 60.123C10.216 59.3976 9.97599 58.8216 9.49599 58.395C9.00533 57.9576 8.35466 57.7283 7.54399 57.707C7.50133 58.0483 7.47999 58.4323 7.47999 58.859C7.47999 59.7016 7.62399 60.3576 7.91199 60.827C8.18933 61.2856 8.58399 61.515 9.09599 61.515C9.44799 61.515 9.72533 61.3923 9.92799 61.147C10.12 60.9016 10.216 60.5603 10.216 60.123Z" fill="#1A1A18"/>
<path d="M10.216 55.4427C10.152 54.8027 9.91733 54.3494 9.51199 54.0827C9.10666 53.8054 8.48799 53.6347 7.65599 53.5707L3.92799 53.2667V48.6907H11V49.6667H4.83999V52.3867L7.57599 52.6107C8.36533 52.6747 9.00533 52.8027 9.49599 52.9947C9.97599 53.1867 10.344 53.4694 10.6 53.8427C10.8453 54.2161 11.0107 54.7121 11.096 55.3307L10.216 55.4427Z" fill="#1A1A18"/>
<path d="M3.92799 40.2617H11V41.2377H6.67999C6.31733 41.2377 6.04533 41.2324 5.86399 41.2217C6.16266 41.4564 6.42933 41.6804 6.66399 41.8937L11 45.8457V46.1977H3.92799V45.2217H8.11999C8.34399 45.2217 8.65866 45.2324 9.06399 45.2537C8.85066 45.0831 8.54133 44.8164 8.13599 44.4537L3.92799 40.6137V40.2617Z" fill="#1A1A18"/>
<path d="M11.128 35.8562C11.128 36.8482 10.856 37.7496 10.312 38.5602L9.52799 38.1122C9.98666 37.4509 10.216 36.7042 10.216 35.8722C10.216 35.2962 10.0987 34.8642 9.86399 34.5762C9.61866 34.2776 9.30933 34.1282 8.93599 34.1282C8.58399 34.1282 8.30133 34.2509 8.08799 34.4962C7.87466 34.7416 7.76799 35.1096 7.76799 35.6002V37.0722H6.87199V35.6482C6.87199 35.2749 6.78133 34.9869 6.59999 34.7842C6.40799 34.5709 6.15732 34.4642 5.84799 34.4642C5.53866 34.4642 5.28266 34.5922 5.07999 34.8482C4.86666 35.0936 4.75999 35.4669 4.75999 35.9682C4.75999 36.5976 4.93066 37.2269 5.27199 37.8562L4.47199 38.2242C4.05599 37.4562 3.84799 36.6829 3.84799 35.9042C3.84799 35.2109 4.02399 34.6349 4.37599 34.1762C4.71732 33.7176 5.19199 33.4882 5.79999 33.4882C6.11999 33.4882 6.41332 33.5736 6.67999 33.7442C6.94666 33.9149 7.13866 34.1549 7.25599 34.4642C7.37333 34.0376 7.59199 33.7122 7.91199 33.4882C8.22133 33.2642 8.57866 33.1522 8.98399 33.1522C9.64532 33.1522 10.168 33.4029 10.552 33.9042C10.936 34.3949 11.128 35.0456 11.128 35.8562Z" fill="#1A1A18"/>
<path d="M3.84799 28.5905C3.84799 27.7691 4.06132 27.1185 4.48799 26.6385C4.90399 26.1478 5.50666 25.9025 6.29599 25.9025H11V26.6225L9.71999 26.7985C10.1573 27.0651 10.504 27.4278 10.76 27.8865C11.0053 28.3345 11.128 28.8625 11.128 29.4705C11.128 30.1638 10.952 30.7131 10.6 31.1185C10.248 31.5238 9.76799 31.7265 9.15999 31.7265C8.38133 31.7265 7.77333 31.4011 7.33599 30.7505C6.88799 30.0998 6.66399 29.2465 6.66399 28.1905C6.66399 27.6571 6.68532 27.2251 6.72799 26.8945H6.24799C5.75732 26.8945 5.38932 27.0545 5.14399 27.3745C4.88799 27.6945 4.75999 28.1318 4.75999 28.6865C4.75999 29.4011 4.95732 30.1798 5.35199 31.0225L4.51999 31.3585C4.07199 30.3985 3.84799 29.4758 3.84799 28.5905ZM10.216 29.3105C10.216 28.5851 9.97599 28.0091 9.49599 27.5825C9.00533 27.1451 8.35466 26.9158 7.54399 26.8945C7.50132 27.2358 7.47999 27.6198 7.47999 28.0465C7.47999 28.8891 7.62399 29.5451 7.91199 30.0145C8.18933 30.4731 8.58399 30.7025 9.09599 30.7025C9.44799 30.7025 9.72533 30.5798 9.92799 30.3345C10.12 30.0891 10.216 29.7478 10.216 29.3105Z" fill="#1A1A18"/>
<path d="M10.104 16.6462L12.872 16.6462V17.5902H11V23.5102H3.92799V22.5342H10.104V18.6462H3.92799V17.6702H10.104V16.6462Z" fill="#1A1A18"/>
<path d="M3.92799 9.12109H11V10.0971L6.67999 10.0971C6.31732 10.0971 6.04532 10.0918 5.86399 10.0811C6.16266 10.3158 6.42932 10.5398 6.66399 10.7531L11 14.7051V15.0571H3.92799V14.0811L8.11999 14.0811C8.34399 14.0811 8.65866 14.0918 9.06399 14.1131C8.85066 13.9424 8.54132 13.6758 8.13599 13.3131L3.92799 9.47309V9.12109Z" fill="#1A1A18"/>
<path d="M3.92799 0.683594L11 0.683594V1.65959L6.67999 1.65959C6.31732 1.65959 6.04532 1.65426 5.86399 1.64359C6.16266 1.87826 6.42932 2.10226 6.66399 2.31559L11 6.26759V6.61959L3.92799 6.61959V5.64359H8.11999C8.34399 5.64359 8.65866 5.65426 9.06399 5.67559C8.85066 5.50493 8.54132 5.23826 8.13599 4.87559L3.92799 1.03559V0.683594Z" fill="#1A1A18"/>
</svg>
