<svg width="181.000000" height="131.000000" viewBox="0 0 181 131" fill="none" xmlns="http://www.w3.org/2000/svg" xmlns:xlink="http://www.w3.org/1999/xlink">
	<desc>
			Created with Pixso.
	</desc>
	<defs/>
	<path id="path39 (Stroke)" d="M21.09 105.05C107.54 100.82 154.4 50.68 181 1.28L179.09 0C152.78 48.85 106.53 98.38 20.99 102.57L21.09 105.05Z" fill="#FFFFFF" fill-opacity="0.030000" fill-rule="evenodd"/>
	<path id="path41" d="M57.07 99.01C57.56 99.01 47.01 116.62 34.55 121.71L57.07 99.01Z" fill="#FFFFFF" fill-opacity="0.030000" fill-rule="evenodd"/>
	<path id="path41 (Stroke)" d="M57.75 98.01C57.51 97.82 57.26 97.76 57.07 97.76L57.07 100.25C56.88 100.25 56.64 100.19 56.41 100C56.18 99.82 56.07 99.57 56.02 99.4C55.94 99.1 55.98 98.87 55.99 98.83L55.99 98.82C56 98.76 56.02 98.71 56.02 98.68C56.02 98.69 56.02 98.69 56.02 98.69C55.99 98.75 55.93 98.9 55.8 99.13C55.56 99.58 55.15 100.27 54.61 101.11C53.52 102.8 51.88 105.13 49.85 107.61C45.75 112.6 40.14 118.1 34.16 120.54L34.93 122.87C41.41 120.23 47.32 114.37 51.49 109.29C53.59 106.73 55.28 104.33 56.42 102.57C56.98 101.68 57.42 100.94 57.71 100.42C57.85 100.16 57.97 99.92 58.05 99.72C58.08 99.64 58.14 99.48 58.18 99.29L58.18 99.29C58.19 99.22 58.23 98.96 58.14 98.64C58.09 98.46 57.98 98.21 57.75 98.01ZM56.03 98.67C56.03 98.67 56.02 98.68 56.02 98.68C56.03 98.67 56.03 98.67 56.03 98.67Z" fill="#FFFFFF" fill-opacity="0.030000" fill-rule="evenodd"/>
	<path id="path43" d="M35.5 121.29C35.53 122.19 34.65 131.78 21.99 129.93L35.5 121.29Z" fill="#FFFFFF" fill-opacity="0.030000" fill-rule="evenodd"/>
	<path id="path43 (Stroke)" d="M35.89 123.52C36.19 122.46 36.25 121.6 36.24 121.26L34.76 121.33C34.76 121.44 34.73 122.11 34.47 123.03C34.22 123.94 33.76 125.06 32.95 126.09C31.35 128.11 28.23 130.01 22.08 129.11L21.89 130.75C28.4 131.7 32.06 129.72 34.06 127.19C35.04 125.94 35.59 124.6 35.89 123.52Z" fill="#FFFFFF" fill-opacity="0.030000" fill-rule="evenodd"/>
	<path id="path45" d="M22.21 104.75C22.74 104.57 28.67 103.53 29.81 113.35L22.21 104.75Z" fill="#FFFFFF" fill-opacity="0.030000" fill-rule="evenodd"/>
	<path id="path45 (Stroke)" d="M23.47 104.43C22.8 104.4 22.31 104.5 22.15 104.55L22.27 104.96C22.37 104.92 22.82 104.82 23.45 104.85C24.08 104.88 24.88 105.03 25.69 105.49C27.32 106.4 29.06 108.52 29.62 113.38L30 113.33C29.42 108.36 27.63 106.1 25.86 105.11C24.99 104.62 24.14 104.46 23.47 104.43Z" fill="#FFFFFF" fill-opacity="0.030000" fill-rule="evenodd"/>
	<path id="path47" d="M24.93 103.07C24.71 102.68 22.59 98.51 28.64 95.74L24.93 103.07Z" fill="#FFFFFF" fill-opacity="0.030000" fill-rule="evenodd"/>
	<path id="path47 (Stroke)" d="M23.8 100.19C23.56 101.88 24.24 103.21 24.38 103.45L25.47 102.69C25.39 102.55 24.91 101.59 25.07 100.41C25.22 99.3 25.99 97.73 28.89 96.41L28.4 95.08C25.24 96.52 24.04 98.42 23.8 100.19Z" fill="#FFFFFF" fill-opacity="0.030000" fill-rule="evenodd"/>
	<path id="path49" d="M35.5 121.3C35.53 122.19 33.51 122.56 21.99 129.93L35.5 121.3Z" fill="#FFFFFF" fill-opacity="0.030000" fill-rule="evenodd"/>
	<path id="path49 (Stroke)" d="M35.44 122.67C35.82 122.38 36.27 121.96 36.24 121.26L34.76 121.33C34.75 121.21 34.8 121.14 34.81 121.12C34.8 121.14 34.74 121.19 34.61 121.3C34.29 121.54 33.72 121.87 32.73 122.45C32.6 122.52 32.47 122.6 32.32 122.69C30.32 123.84 27.01 125.77 21.62 129.21L22.36 130.65C27.72 127.22 31.02 125.31 33.01 124.16C33.15 124.07 33.29 124 33.42 123.92C34.37 123.37 35.03 122.98 35.44 122.67ZM34.81 121.12C34.81 121.12 34.81 121.12 34.81 121.12C34.81 121.12 34.81 121.12 34.81 121.12Z" fill="#FFFFFF" fill-opacity="0.030000" fill-rule="evenodd"/>
	<path id="path51" d="M22.21 104.75C22.74 104.57 23.33 106.02 29.81 113.35L22.21 104.75Z" fill="#FFFFFF" fill-opacity="0.030000" fill-rule="evenodd"/>
	<path id="path51 (Stroke)" d="M22.83 104.83C22.6 104.6 22.39 104.47 22.15 104.55L22.27 104.96C22.29 104.95 22.36 104.93 22.58 105.15C22.8 105.37 23.12 105.75 23.64 106.38C23.71 106.46 23.78 106.55 23.85 106.64C24.9 107.94 26.65 110.08 29.68 113.5L29.95 113.21C26.93 109.79 25.19 107.65 24.13 106.36C24.06 106.27 23.99 106.18 23.92 106.09C23.41 105.47 23.08 105.07 22.83 104.83Z" fill="#FFFFFF" fill-opacity="0.030000" fill-rule="evenodd"/>
	<path id="path53" d="M24.93 103.07C24.71 102.68 25.53 101.94 28.98 95.39L24.93 103.07Z" fill="#FFFFFF" fill-opacity="0.030000" fill-rule="evenodd"/>
	<path id="path53 (Stroke)" d="M24.4 102.31C24.3 102.55 24.13 103 24.38 103.45L25.47 102.69C25.56 102.85 25.54 102.99 25.53 103.02C25.53 103.01 25.54 102.98 25.56 102.94C25.64 102.77 25.8 102.47 26.12 101.93C26.16 101.86 26.2 101.79 26.25 101.71C26.87 100.62 27.92 98.82 29.53 95.76L28.42 95.03C26.82 98.07 25.79 99.85 25.16 100.93C25.12 101.01 25.08 101.08 25.03 101.15C24.74 101.66 24.52 102.04 24.4 102.31ZM25.53 103.03C25.53 103.03 25.53 103.03 25.53 103.02C25.53 103.03 25.53 103.03 25.53 103.03Z" fill="#FFFFFF" fill-opacity="0.030000" fill-rule="evenodd"/>
	<path id="path55" d="M35.5 121.3C35.53 122.19 25.69 116.29 21.99 129.93L35.5 121.3Z" fill="#FFFFFF" fill-opacity="0.030000" fill-rule="evenodd"/>
	<path id="path55 (Stroke)" d="M35.93 122.01C36.15 121.82 36.25 121.53 36.24 121.26L34.76 121.33C34.75 121.11 34.83 120.87 35.02 120.7C35.16 120.58 35.29 120.57 35.31 120.56L35.31 120.56C35.32 120.56 35.33 120.56 35.33 120.56C35.33 120.56 35.29 120.56 35.2 120.54C35.05 120.52 34.88 120.48 34.67 120.43C34.5 120.38 34.3 120.34 34.07 120.28C33.07 120.07 31.64 119.82 30.07 120.01C28.49 120.19 26.76 120.81 25.18 122.32C23.61 123.83 22.23 126.17 21.28 129.69L22.7 130.17C23.59 126.87 24.84 124.84 26.15 123.58C27.46 122.33 28.88 121.81 30.22 121.66C31.57 121.5 32.83 121.71 33.78 121.91C33.96 121.95 34.13 121.99 34.3 122.03C34.56 122.09 34.79 122.15 34.96 122.18C35.1 122.2 35.3 122.23 35.48 122.21C35.57 122.2 35.75 122.16 35.93 122.01Z" fill="#FFFFFF" fill-opacity="0.030000" fill-rule="evenodd"/>
	<path id="path57" d="M22.21 104.75C22.74 104.57 20.95 113 29.81 113.35L22.21 104.75Z" fill="#FFFFFF" fill-opacity="0.030000" fill-rule="evenodd"/>
	<path id="path57 (Stroke)" d="M22.37 104.59C22.3 104.53 22.22 104.52 22.15 104.55L22.27 104.95C22.23 104.97 22.18 104.96 22.14 104.93C22.11 104.91 22.11 104.89 22.11 104.89C22.11 104.89 22.11 104.89 22.11 104.89C22.12 104.91 22.13 104.97 22.14 105.07C22.15 105.19 22.15 105.35 22.16 105.53C22.17 105.66 22.17 105.81 22.18 105.98C22.23 106.76 22.33 107.83 22.71 108.93C23.08 110.02 23.73 111.14 24.85 112.01C25.97 112.87 27.56 113.47 29.81 113.56L29.82 113.14C27.63 113.05 26.12 112.47 25.07 111.66C24.02 110.85 23.42 109.81 23.06 108.78C22.71 107.74 22.61 106.72 22.56 105.95C22.56 105.8 22.55 105.66 22.54 105.52C22.53 105.33 22.53 105.16 22.51 105.03C22.5 104.93 22.49 104.82 22.46 104.74C22.45 104.69 22.42 104.64 22.37 104.59Z" fill="#FFFFFF" fill-opacity="0.030000" fill-rule="evenodd"/>
	<path id="path59" d="M24.93 103.07C24.71 102.68 30.43 101.95 28.98 94.82L24.93 103.07Z" fill="#FFFFFF" fill-opacity="0.030000" fill-rule="evenodd"/>
	<path id="path59 (Stroke)" d="M24.32 102.78C24.24 103 24.27 103.25 24.38 103.45L25.47 102.69C25.57 102.87 25.59 103.09 25.53 103.29C25.48 103.44 25.39 103.52 25.37 103.54C25.35 103.56 25.33 103.57 25.33 103.57C25.33 103.57 25.35 103.56 25.38 103.55C25.45 103.51 25.53 103.47 25.63 103.42C25.71 103.38 25.81 103.34 25.93 103.28C26.43 103.03 27.15 102.65 27.83 102.03C28.51 101.4 29.16 100.52 29.54 99.3C29.91 98.07 29.99 96.55 29.61 94.66L28.35 94.98C28.69 96.66 28.6 97.91 28.32 98.83C28.03 99.76 27.54 100.43 27.01 100.92C26.46 101.41 25.88 101.73 25.42 101.96C25.34 102 25.26 102.03 25.18 102.07C25.04 102.14 24.91 102.2 24.82 102.25C24.75 102.28 24.63 102.35 24.53 102.44C24.48 102.49 24.38 102.6 24.32 102.78Z" fill="#FFFFFF" fill-opacity="0.030000" fill-rule="evenodd"/>
	<path id="path61" d="M137.27 72.98C137.99 73.89 144.76 90.2 129.65 95.01L137.27 72.98Z" fill="#FFFFFF" fill-opacity="0.030000" fill-rule="evenodd"/>
	<path id="path61 (Stroke)" d="M137.97 73.01C137.88 72.84 137.79 72.67 137.7 72.55L136.84 73.41C136.84 73.41 136.84 73.41 136.84 73.41C136.84 73.41 136.85 73.42 136.87 73.46C136.89 73.5 136.93 73.56 136.97 73.64C137.04 73.79 137.14 74 137.24 74.26C137.46 74.78 137.72 75.49 137.96 76.33C138.44 78.01 138.87 80.21 138.82 82.52C138.77 84.82 138.24 87.19 136.85 89.28C135.46 91.37 133.17 93.22 129.49 94.39L129.8 95.63C133.68 94.4 136.21 92.41 137.78 90.05C139.34 87.7 139.92 85.04 139.97 82.55C140.03 80.06 139.57 77.71 139.05 75.93C138.8 75.04 138.53 74.29 138.29 73.72C138.17 73.44 138.07 73.2 137.97 73.01Z" fill="#FFFFFF" fill-opacity="0.030000" fill-rule="evenodd"/>
	<path id="path63" d="M21.04 102.19C20.32 103.11 6.72 112.71 0.49 96.6L21.04 102.19Z" fill="#FFFFFF" fill-opacity="0.030000" fill-rule="evenodd"/>
	<path id="path63 (Stroke)" d="M21.08 102.94C21.22 102.83 21.36 102.7 21.44 102.59L20.63 101.8C20.63 101.8 20.63 101.8 20.63 101.8C20.63 101.8 20.61 101.82 20.58 101.85C20.55 101.88 20.5 101.93 20.44 101.98C20.31 102.09 20.13 102.22 19.92 102.37C19.48 102.68 18.89 103.05 18.17 103.43C16.73 104.19 14.83 104.94 12.77 105.19C10.72 105.43 8.53 105.15 6.49 103.88C4.45 102.6 2.5 100.3 0.98 96.36L0 96.84C1.59 100.96 3.68 103.5 5.96 104.93C8.25 106.35 10.67 106.64 12.89 106.38C15.1 106.12 17.12 105.31 18.63 104.52C19.39 104.12 20.02 103.72 20.49 103.39C20.73 103.22 20.92 103.07 21.08 102.94Z" fill="#FFFFFF" fill-opacity="0.030000" fill-rule="evenodd"/>
	<path id="path65" d="M21.98 103C22.15 103.77 20.28 116.67 6.85 117.8L21.98 103Z" fill="#FFFFFF" fill-opacity="0.030000" fill-rule="evenodd"/>
	<path id="path65 (Stroke)" d="M22.66 103.33C22.67 103.19 22.68 102.99 22.64 102.81L21.31 103.19C21.3 103.15 21.3 103.13 21.3 103.13C21.3 103.13 21.3 103.16 21.3 103.23C21.29 103.34 21.28 103.5 21.25 103.69C21.2 104.08 21.09 104.62 20.92 105.26C20.58 106.53 19.97 108.18 18.95 109.84C16.93 113.12 13.29 116.49 6.8 117.03L6.9 118.56C13.84 117.98 17.85 114.34 20.08 110.69C21.19 108.89 21.85 107.09 22.23 105.7C22.42 105 22.54 104.39 22.6 103.93C22.63 103.7 22.65 103.5 22.66 103.33Z" fill="#FFFFFF" fill-opacity="0.030000" fill-rule="evenodd"/>
	<path id="path67" d="M25.11 103.45C24.41 103.6 13.02 101.24 12.71 86.2L25.11 103.45Z" fill="#FFFFFF" fill-opacity="0.030000" fill-rule="evenodd"/>
	<path id="path67 (Stroke)" d="M24.84 103.71C24.96 103.72 25.07 103.73 25.15 103.71L25.06 103.19C25.06 103.19 25.06 103.19 25.06 103.19C25.06 103.19 25.04 103.19 25.01 103.19C24.98 103.19 24.94 103.19 24.88 103.19C24.77 103.18 24.62 103.15 24.43 103.11C24.06 103.03 23.57 102.9 23 102.69C21.84 102.26 20.37 101.52 18.91 100.31C15.99 97.9 13.1 93.62 12.95 86.19L12.48 86.2C12.64 93.81 15.6 98.23 18.63 100.73C20.14 101.98 21.66 102.74 22.85 103.18C23.44 103.4 23.96 103.55 24.35 103.63C24.54 103.67 24.71 103.69 24.84 103.71Z" fill="#FFFFFF" fill-opacity="0.030000" fill-rule="evenodd"/>
	<path id="path69" d="M54.7 81.57C54.47 80.39 46.6 64.71 34.25 75.57L54.7 81.57Z" fill="#FFFFFF" fill-opacity="0.030000" fill-rule="evenodd"/>
	<path id="path69 (Stroke)" d="M54 81.74C54.01 81.75 54.01 81.75 54.01 81.75L55.4 81.39C55.37 81.23 55.3 81.03 55.22 80.85C55.14 80.65 55.03 80.41 54.89 80.14C54.61 79.58 54.22 78.89 53.72 78.13C52.73 76.62 51.28 74.81 49.42 73.39C47.56 71.97 45.27 70.91 42.61 70.96C39.95 71 36.99 72.14 33.81 74.94L34.69 76.19C37.68 73.57 40.34 72.59 42.63 72.56C44.93 72.52 46.93 73.42 48.61 74.71C50.3 76 51.63 77.66 52.57 79.08C53.03 79.79 53.39 80.43 53.64 80.92C53.76 81.17 53.86 81.37 53.92 81.53C53.97 81.65 54 81.72 54 81.74Z" fill="#FFFFFF" fill-opacity="0.030000" fill-rule="evenodd"/>
	<path id="path71" d="M137.27 72.98C137.99 73.89 136.14 76.23 129.65 95.01L137.27 72.98Z" fill="#FFFFFF" fill-opacity="0.030000" fill-rule="evenodd"/>
	<path id="path71 (Stroke)" d="M137.85 74.35C138.02 73.69 138.1 73.06 137.7 72.56L136.84 73.41C136.84 73.41 136.84 73.41 136.83 73.4C136.83 73.4 136.83 73.4 136.83 73.4C136.83 73.4 136.84 73.41 136.84 73.44C136.84 73.52 136.82 73.68 136.74 73.98C136.58 74.57 136.23 75.5 135.63 77.04C135.55 77.24 135.47 77.45 135.38 77.68C134.16 80.81 132.14 86 129.11 94.78L130.18 95.25C133.21 86.49 135.22 81.32 136.44 78.19C136.53 77.97 136.61 77.75 136.69 77.55C137.28 76.04 137.66 75.04 137.85 74.35Z" fill="#FFFFFF" fill-opacity="0.030000" fill-rule="evenodd"/>
	<path id="path73" d="M21.04 102.19C20.32 103.11 18.01 101.37 0.49 96.6L21.04 102.19Z" fill="#FFFFFF" fill-opacity="0.030000" fill-rule="evenodd"/>
	<path id="path73 (Stroke)" d="M19.9 102.97C20.51 103.08 21.06 103.08 21.44 102.59L20.63 101.8L20.63 101.8L20.63 101.8C20.63 101.8 20.63 101.8 20.63 101.8L19.9 102.97ZM19.9 102.97C19.27 102.85 18.33 102.56 16.92 102.1L19.9 102.97ZM16.92 102.1C16.73 102.04 16.53 101.98 16.32 101.91L16.92 102.1ZM16.32 101.91C13.38 100.97 8.53 99.41 0.36 97.18L16.32 101.91ZM0.36 97.18L0.62 96.01L0.36 97.18ZM0.62 96.01C8.8 98.24 13.67 99.81 16.61 100.76L0.62 96.01ZM16.61 100.76C16.82 100.82 17.02 100.89 17.22 100.95L16.61 100.76ZM17.22 100.95C18.66 101.41 19.52 101.68 20.08 101.78L17.22 100.95ZM20.08 101.78C20.35 101.84 20.5 101.84 20.58 101.82L20.08 101.78ZM20.58 101.82C20.61 101.81 20.63 101.8 20.63 101.8L20.58 101.82ZM20.63 101.8C20.63 101.8 20.63 101.8 20.63 101.8L20.63 101.8Z" fill="#FFFFFF" fill-opacity="0.030000" fill-rule="evenodd"/>
	<path id="path75" d="M154.09 23.44C153.81 24.51 150.09 24.31 126.94 29.33L154.09 23.44Z" fill="#FFFFFF" fill-opacity="0.030000" fill-rule="evenodd"/>
	<path id="path75 (Stroke)" d="M154.14 24.51C154.41 24.34 154.68 24.09 154.79 23.68L153.4 23.22C153.42 23.11 153.48 23.07 153.48 23.07C153.48 23.07 153.47 23.07 153.45 23.09C153.36 23.14 153.17 23.22 152.81 23.32C152.1 23.52 150.92 23.75 148.97 24.1C148.72 24.15 148.44 24.2 148.16 24.26C144.19 24.98 137.61 26.19 126.8 28.54L127.08 30.13C137.87 27.79 144.43 26.58 148.39 25.85C148.68 25.8 148.95 25.75 149.21 25.7C151.13 25.35 152.38 25.11 153.16 24.89C153.55 24.78 153.88 24.67 154.14 24.51Z" fill="#FFFFFF" fill-opacity="0.030000" fill-rule="evenodd"/>
	<path id="path77" d="M21.98 103C22.15 103.77 19.79 105.16 7.19 117.71L21.98 103Z" fill="#FFFFFF" fill-opacity="0.030000" fill-rule="evenodd"/>
	<path id="path77 (Stroke)" d="M22.49 103.73C22.62 103.49 22.72 103.17 22.64 102.81L21.31 103.19C21.28 103.04 21.32 102.94 21.32 102.94C21.32 102.94 21.32 102.94 21.32 102.95C21.29 103 21.22 103.11 21.03 103.32C20.66 103.73 20.01 104.34 18.93 105.35C18.79 105.49 18.64 105.63 18.48 105.78C16.28 107.85 12.62 111.28 6.73 117.14L7.64 118.28C13.52 112.44 17.16 109.02 19.36 106.95C19.52 106.8 19.67 106.66 19.81 106.52C20.88 105.53 21.57 104.86 21.99 104.4C22.2 104.17 22.38 103.95 22.49 103.73Z" fill="#FFFFFF" fill-opacity="0.030000" fill-rule="evenodd"/>
	<path id="path79" d="M25.11 103.45C24.41 103.6 23.28 100.91 12.71 86.2L25.11 103.45Z" fill="#FFFFFF" fill-opacity="0.030000" fill-rule="evenodd"/>
	<path id="path79 (Stroke)" d="M24.68 103.57C24.83 103.68 24.98 103.75 25.15 103.71L25.06 103.19L25.06 103.19C25.06 103.19 25.03 103.2 24.94 103.14C24.85 103.07 24.72 102.94 24.54 102.71C24.18 102.26 23.65 101.49 22.8 100.24C22.69 100.07 22.57 99.9 22.45 99.71C20.71 97.15 17.83 92.9 12.9 86.03L12.53 86.36C17.46 93.22 20.34 97.47 22.07 100.03C22.2 100.21 22.31 100.39 22.43 100.55C23.27 101.8 23.81 102.59 24.19 103.06C24.38 103.3 24.54 103.47 24.68 103.57Z" fill="#FFFFFF" fill-opacity="0.030000" fill-rule="evenodd"/>
	<path id="path81" d="M54.7 81.57C54.47 80.39 51.69 80.69 34.25 75.57L54.7 81.57Z" fill="#FFFFFF" fill-opacity="0.030000" fill-rule="evenodd"/>
	<path id="path81 (Stroke)" d="M54.03 81.82C54.02 81.8 54.01 81.78 54.01 81.75L55.4 81.39C55.25 80.65 54.68 80.32 54.09 80.1C53.48 79.86 52.52 79.62 51.08 79.26C50.89 79.22 50.68 79.17 50.47 79.12C47.49 78.39 42.56 77.18 34.43 74.79L34.07 76.34C42.22 78.74 47.17 79.95 50.16 80.68C50.38 80.73 50.58 80.78 50.77 80.83C52.24 81.19 53.11 81.41 53.63 81.61C53.9 81.71 54 81.79 54.03 81.82ZM54.04 81.83C54.04 81.83 54.04 81.82 54.03 81.82C54.04 81.82 54.04 81.83 54.04 81.83Z" fill="#FFFFFF" fill-opacity="0.030000" fill-rule="evenodd"/>
	<path id="path83" d="M137.27 72.98C137.29 89.25 135.75 86.27 129.65 95.01L137.27 72.98Z" fill="#FFFFFF" fill-opacity="0.030000" fill-rule="evenodd"/>
	<path id="path83 (Stroke)" d="M136.26 87.12C137.49 84.57 137.86 81.08 137.85 72.98L136.69 72.98C136.7 81.14 136.31 84.3 135.25 86.51C134.71 87.62 134 88.52 132.99 89.73C132.91 89.83 132.82 89.94 132.73 90.05C131.77 91.19 130.6 92.6 129.19 94.62L130.1 95.41C131.48 93.44 132.62 92.07 133.57 90.92C133.66 90.82 133.75 90.71 133.84 90.61C134.84 89.41 135.65 88.39 136.26 87.12Z" fill="#FFFFFF" fill-opacity="0.030000" fill-rule="evenodd"/>
	<path id="path85" d="M21.04 102.2C6.6 104.32 9.04 102.23 0.49 96.6L21.04 102.2Z" fill="#FFFFFF" fill-opacity="0.030000" fill-rule="evenodd"/>
	<path id="path85 (Stroke)" d="M8.36 102.87C10.78 103.89 13.91 103.85 21.11 102.79L20.97 101.6C13.72 102.66 10.86 102.64 8.75 101.74C7.69 101.29 6.79 100.61 5.59 99.66C5.49 99.57 5.38 99.49 5.27 99.4C4.13 98.5 2.74 97.38 0.76 96.08L0.22 97.12C2.15 98.39 3.51 99.48 4.65 100.38C4.76 100.47 4.86 100.55 4.96 100.64C6.16 101.59 7.16 102.35 8.36 102.87Z" fill="#FFFFFF" fill-opacity="0.030000" fill-rule="evenodd"/>
	<path id="path87" d="M154.09 23.44C138.63 32.26 140.21 29.43 126.94 29.33L154.09 23.44Z" fill="#FFFFFF" fill-opacity="0.030000" fill-rule="evenodd"/>
	<path id="path87 (Stroke)" d="M139.77 30.54C143.12 30.14 146.7 28.57 154.42 24.17L153.76 22.72C146.02 27.14 142.67 28.56 139.62 28.92C138.09 29.11 136.62 29.03 134.65 28.89C134.49 28.87 134.31 28.86 134.14 28.85C132.27 28.71 130 28.55 126.94 28.52L126.93 30.14C129.94 30.17 132.18 30.33 134.04 30.46C134.22 30.48 134.39 30.49 134.56 30.5C136.52 30.64 138.11 30.74 139.77 30.54Z" fill="#FFFFFF" fill-opacity="0.030000" fill-rule="evenodd"/>
	<path id="path89" d="M54.7 81.57C42.92 72.03 44.17 75.16 34.25 75.57L54.7 81.57Z" fill="#FFFFFF" fill-opacity="0.030000" fill-rule="evenodd"/>
	<path id="path89 (Stroke)" d="M43.68 75.63C45.87 75.96 48.36 77.42 54.28 82.22L55.13 80.92C49.26 76.17 46.48 74.43 43.87 74.04C42.57 73.85 41.34 74 39.89 74.2C39.76 74.21 39.63 74.23 39.5 74.25C38.11 74.44 36.46 74.67 34.22 74.76L34.28 76.37C36.57 76.27 38.29 76.03 39.68 75.84C39.81 75.82 39.94 75.8 40.06 75.78C41.53 75.58 42.58 75.47 43.68 75.63Z" fill="#FFFFFF" fill-opacity="0.030000" fill-rule="evenodd"/>
	<path id="path91" d="M137.27 72.98C135.51 81.6 127.58 79.56 129.65 95.01L137.27 72.98Z" fill="#FFFFFF" fill-opacity="0.030000" fill-rule="evenodd"/>
	<path id="path91 (Stroke)" d="M133.83 80.26C135.41 78.5 137.12 76.6 137.83 73.12L136.71 72.84C136.08 75.92 134.67 77.49 133.14 79.2C132.63 79.77 132.1 80.35 131.59 81.01C130.57 82.32 129.67 83.87 129.16 86.1C128.65 88.33 128.55 91.19 129.08 95.11L130.22 94.92C129.71 91.11 129.82 88.43 130.28 86.42C130.73 84.42 131.53 83.05 132.46 81.85C132.88 81.31 133.35 80.79 133.83 80.26Z" fill="#FFFFFF" fill-opacity="0.030000" fill-rule="evenodd"/>
	<path id="path93" d="M21.04 102.2C13.16 101.36 13.94 92.32 0.49 96.6L21.04 102.2Z" fill="#FFFFFF" fill-opacity="0.030000" fill-rule="evenodd"/>
	<path id="path93 (Stroke)" d="M14.16 99.3C15.92 100.82 17.82 102.46 20.99 102.8L21.09 101.6C18.26 101.3 16.67 99.93 14.96 98.45C14.39 97.96 13.8 97.46 13.15 96.98C11.87 96.02 10.38 95.23 8.33 94.95C6.3 94.68 3.75 94.94 0.34 96.02L0.64 97.18C3.96 96.12 6.36 95.9 8.2 96.15C10.04 96.39 11.37 97.1 12.56 97.98C13.1 98.38 13.62 98.83 14.16 99.3Z" fill="#FFFFFF" fill-opacity="0.030000" fill-rule="evenodd"/>
	<path id="path95" d="M154.09 23.44C144.46 26.72 139.97 19.34 126.94 29.33L154.09 23.44Z" fill="#FFFFFF" fill-opacity="0.030000" fill-rule="evenodd"/>
	<path id="path95 (Stroke)" d="M144.45 24.9C147.4 25.2 150.5 25.51 154.3 24.22L153.88 22.67C150.37 23.86 147.63 23.59 144.74 23.3C143.79 23.2 142.83 23.1 141.82 23.06C137.71 22.87 133.17 23.57 126.53 28.67L127.35 30C133.73 25.1 137.96 24.5 141.76 24.68C142.65 24.72 143.54 24.81 144.45 24.9Z" fill="#FFFFFF" fill-opacity="0.030000" fill-rule="evenodd"/>
	<path id="path97" d="M54.7 81.57C47.42 78.12 44.25 86.49 34.25 75.57L54.7 81.57Z" fill="#FFFFFF" fill-opacity="0.030000" fill-rule="evenodd"/>
	<path id="path97 (Stroke)" d="M47.82 81.82C49.95 81.44 51.86 81.09 54.42 82.31L54.98 80.83C52.01 79.42 49.57 79.87 47.36 80.27C46.7 80.39 46.06 80.51 45.43 80.57C44.04 80.71 42.6 80.63 40.91 79.88C39.2 79.13 37.21 77.68 34.75 75L33.75 76.14C36.29 78.92 38.45 80.51 40.38 81.37C42.32 82.23 44 82.32 45.56 82.17C46.36 82.08 47.1 81.95 47.82 81.82Z" fill="#FFFFFF" fill-opacity="0.030000" fill-rule="evenodd"/>
	<path id="path99" d="M137.27 72.98C137.99 73.89 120.77 81.12 129.65 95.01L137.27 72.98Z" fill="#FFFFFF" fill-opacity="0.030000" fill-rule="evenodd"/>
	<path id="path99 (Stroke)" d="M137.84 73.27C137.89 73.06 137.88 72.78 137.7 72.55L136.84 73.41C136.7 73.24 136.7 73.03 136.73 72.89C136.75 72.84 136.77 72.81 136.78 72.79C136.78 72.8 136.78 72.8 136.77 72.8C136.73 72.85 136.64 72.94 136.45 73.1C136.2 73.3 135.86 73.54 135.46 73.84C135.26 73.99 135.05 74.14 134.81 74.32C133.43 75.35 131.58 76.8 129.98 78.69C128.38 80.57 127 82.92 126.62 85.74C126.24 88.58 126.89 91.8 129.18 95.39L130.12 94.64C127.97 91.27 127.44 88.38 127.76 85.93C128.1 83.46 129.31 81.35 130.82 79.57C132.32 77.8 134.09 76.41 135.45 75.39C135.66 75.23 135.87 75.08 136.06 74.94C136.48 74.63 136.85 74.36 137.12 74.14C137.32 73.98 137.5 73.82 137.64 73.65C137.7 73.57 137.79 73.44 137.84 73.27ZM136.78 72.79C136.78 72.79 136.78 72.79 136.78 72.79C136.78 72.79 136.78 72.79 136.78 72.79Z" fill="#FFFFFF" fill-opacity="0.030000" fill-rule="evenodd"/>
	<path id="path101" d="M21.04 102.19C20.32 103.11 11.68 84.98 0.49 96.6L21.04 102.19Z" fill="#FFFFFF" fill-opacity="0.030000" fill-rule="evenodd"/>
	<path id="path101 (Stroke)" d="M20.86 102.82C21.04 102.85 21.27 102.81 21.44 102.59L20.63 101.8C20.75 101.64 20.93 101.61 21.04 101.64C21.08 101.64 21.11 101.66 21.12 101.66C21.12 101.66 21.12 101.66 21.11 101.66C21.06 101.62 20.96 101.52 20.8 101.33C20.59 101.08 20.33 100.74 20.01 100.33C19.86 100.13 19.69 99.91 19.5 99.68C18.41 98.28 16.88 96.42 15.01 94.9C13.13 93.37 10.87 92.16 8.33 92.1C5.77 92.05 3 93.17 0.12 96.16L0.86 97.04C3.57 94.22 6.08 93.25 8.31 93.3C10.55 93.35 12.6 94.43 14.37 95.87C16.15 97.31 17.61 99.08 18.69 100.47C18.86 100.68 19.02 100.89 19.17 101.09C19.5 101.51 19.79 101.88 20.02 102.16C20.18 102.35 20.35 102.53 20.51 102.66C20.58 102.71 20.71 102.79 20.86 102.82ZM21.13 101.67C21.13 101.67 21.12 101.67 21.12 101.66C21.12 101.67 21.13 101.67 21.13 101.67Z" fill="#FFFFFF" fill-opacity="0.030000" fill-rule="evenodd"/>
	<path id="path103" d="M154.09 23.44C153.81 24.5 132.54 15.76 126.53 30.3L154.09 23.44ZM154.09 23.44C153.81 24.5 143.16 38.62 126.32 29.27L154.09 23.44Z" fill="#FFFFFF" fill-opacity="0.030000" fill-rule="evenodd"/>
	<path id="path103 (Stroke)" d="M154.53 24.25C154.63 24.1 154.75 23.89 154.8 23.68L155.16 22.33L153.67 22.7C153.56 22.69 153.4 22.66 153.19 22.63C152.78 22.55 152.26 22.44 151.63 22.31C151.32 22.25 151 22.17 150.65 22.1C148.51 21.66 145.59 21.11 142.49 20.99C136.32 20.75 129.06 22.19 125.85 29.95L125.22 31.47L127.64 30.87C135.54 34.65 142.06 33.44 146.73 31.01C149.21 29.73 151.16 28.1 152.5 26.73C153.18 26.04 153.7 25.41 154.08 24.91C154.27 24.66 154.42 24.44 154.53 24.25ZM127.95 29.09C131.04 23.64 136.88 22.43 142.43 22.64C145.21 22.75 147.85 23.21 149.91 23.64L127.95 29.09ZM130.26 30.22C136.81 32.7 142.18 31.55 146.1 29.51C148.42 28.3 150.25 26.78 151.5 25.5C151.75 25.25 151.99 25 152.19 24.76L130.26 30.22Z" fill="#FFFFFF" fill-opacity="0.030000" fill-rule="evenodd"/>
	<path id="path105" d="M21.97 103C22.15 103.77 6.24 107.18 7.29 118.58L21.97 103Z" fill="#FFFFFF" fill-opacity="0.030000" fill-rule="evenodd"/>
	<path id="path105 (Stroke)" d="M22.44 103.6C22.51 103.52 22.73 103.23 22.64 102.81L21.31 103.19C21.23 102.82 21.43 102.58 21.45 102.55C21.47 102.53 21.49 102.52 21.5 102.51C21.49 102.51 21.49 102.52 21.48 102.52C21.42 102.56 21.3 102.62 21.09 102.71C20.82 102.84 20.47 102.98 20.04 103.16C19.83 103.25 19.61 103.34 19.37 103.44C17.91 104.05 15.93 104.92 13.97 106.14C10.1 108.54 6.04 112.47 6.61 118.66L7.97 118.5C7.49 113.29 10.86 109.81 14.63 107.47C16.5 106.31 18.4 105.47 19.84 104.87C20.07 104.78 20.28 104.69 20.48 104.6C20.93 104.42 21.31 104.26 21.61 104.13C21.82 104.03 22.02 103.93 22.17 103.84C22.24 103.79 22.35 103.71 22.44 103.6ZM21.5 102.51C21.5 102.51 21.5 102.51 21.5 102.51C21.5 102.51 21.5 102.51 21.5 102.51Z" fill="#FFFFFF" fill-opacity="0.030000" fill-rule="evenodd"/>
	<path id="path107" d="M25.11 103.45C24.41 103.6 22.97 85.61 12.71 86.2L25.11 103.45Z" fill="#FFFFFF" fill-opacity="0.030000" fill-rule="evenodd"/>
	<path id="path107 (Stroke)" d="M24.86 103.59C24.91 103.64 25.01 103.74 25.15 103.71L25.06 103.19C25.11 103.18 25.15 103.19 25.18 103.21C25.2 103.23 25.22 103.24 25.22 103.24L25.22 103.24C25.22 103.24 25.22 103.24 25.22 103.24C25.22 103.24 25.21 103.23 25.21 103.22C25.2 103.21 25.19 103.19 25.18 103.17C25.14 103.06 25.08 102.89 25.02 102.66C24.94 102.34 24.84 101.93 24.73 101.43C24.67 101.19 24.61 100.94 24.55 100.67C24.15 99.01 23.58 96.78 22.71 94.56C20.97 90.13 17.98 85.63 12.7 85.94L12.73 86.46C17.7 86.17 20.56 90.38 22.28 94.77C23.14 96.95 23.7 99.15 24.09 100.8C24.16 101.07 24.21 101.32 24.27 101.55C24.39 102.05 24.48 102.48 24.57 102.8C24.63 103.04 24.69 103.25 24.75 103.39C24.78 103.46 24.82 103.53 24.86 103.59Z" fill="#FFFFFF" fill-opacity="0.030000" fill-rule="evenodd"/>
	<path id="path109" d="M54.7 81.57C54.47 80.39 39.13 91.73 34.25 75.56L54.7 81.57Z" fill="#FFFFFF" fill-opacity="0.030000" fill-rule="evenodd"/>
	<path id="path109 (Stroke)" d="M54.41 82.25C54.26 82.2 54.06 82.03 54.01 81.75L55.4 81.4C55.33 81.04 55.09 80.82 54.87 80.74C54.69 80.67 54.52 80.68 54.42 80.69C54.21 80.71 53.96 80.79 53.73 80.88C53.41 81 52.99 81.17 52.52 81.37C52.31 81.46 52.08 81.56 51.84 81.66C50.31 82.3 48.28 83.07 46.12 83.4C43.97 83.72 41.75 83.58 39.8 82.45C37.87 81.33 36.1 79.2 34.93 75.31L33.57 75.82C34.84 80.02 36.82 82.53 39.14 83.87C41.45 85.2 44 85.33 46.31 84.98C48.63 84.64 50.79 83.81 52.35 83.16C52.61 83.05 52.85 82.94 53.08 82.85C53.53 82.66 53.89 82.5 54.18 82.4C54.4 82.32 54.52 82.29 54.56 82.28C54.54 82.28 54.48 82.28 54.41 82.25ZM54.56 82.28C54.56 82.28 54.56 82.28 54.56 82.28L54.56 82.28Z" fill="#FFFFFF" fill-opacity="0.030000" fill-rule="evenodd"/>
	<path id="path111" d="M95.47 102.95C95.76 104.4 96.93 120.42 75.67 121.71L95.47 102.95Z" fill="#FFFFFF" fill-opacity="0.030000" fill-rule="evenodd"/>
	<path id="path111 (Stroke)" d="M94.28 112.81C96.72 108.24 96.36 103.65 96.18 102.77L94.76 103.13C94.87 103.7 95.24 107.84 93.03 111.97C90.85 116.03 86.08 120.27 75.63 120.89L75.71 122.52C86.52 121.87 91.79 117.44 94.28 112.81Z" fill="#FFFFFF" fill-opacity="0.030000" fill-rule="evenodd"/>
	<path id="path113" d="M95.47 102.95C95.76 104.4 92.55 105.71 75.67 121.71L95.47 102.95Z" fill="#FFFFFF" fill-opacity="0.030000" fill-rule="evenodd"/>
	<path id="path113 (Stroke)" d="M95.38 104.82C95.92 104.23 96.35 103.59 96.18 102.77L94.76 103.13C94.76 103.13 94.75 103.12 94.76 103.11C94.76 103.11 94.76 103.11 94.76 103.11C94.76 103.11 94.75 103.12 94.74 103.15C94.7 103.23 94.6 103.39 94.36 103.66C93.87 104.19 93.01 104.96 91.56 106.23C91.37 106.39 91.16 106.57 90.95 106.76C87.99 109.34 83.08 113.61 75.2 121.09L76.14 122.33C84 114.87 88.9 110.61 91.85 108.04C92.06 107.85 92.26 107.68 92.46 107.51C93.88 106.27 94.82 105.44 95.38 104.82Z" fill="#FFFFFF" fill-opacity="0.030000" fill-rule="evenodd"/>
	<path id="path115" d="M91.88 106.99C85.57 106.86 83.45 106.43 82.2 106.43L91.88 106.99Z" fill="#FFFFFF" fill-opacity="0.030000" fill-rule="evenodd"/>
	<path id="path115 (Stroke)" d="M85.08 107.47C86.57 107.6 88.7 107.74 91.86 107.8L91.89 106.18C88.75 106.11 86.66 105.97 85.2 105.85C84.74 105.81 84.33 105.77 83.97 105.74C83.21 105.66 82.64 105.61 82.2 105.61L82.2 107.24C82.58 107.24 83.05 107.28 83.76 107.35C84.13 107.39 84.56 107.43 85.08 107.47Z" fill="#FFFFFF" fill-opacity="0.030000" fill-rule="evenodd"/>
	<path id="path117" d="M87.39 110.64C82 110.52 80.19 110.08 79.12 110.08L87.39 110.64Z" fill="#FFFFFF" fill-opacity="0.030000" fill-rule="evenodd"/>
	<path id="path117 (Stroke)" d="M81.57 111.12C82.85 111.25 84.67 111.39 87.38 111.45L87.41 109.83C84.73 109.77 82.94 109.63 81.7 109.51C81.32 109.47 80.97 109.43 80.67 109.4C80.01 109.32 79.51 109.27 79.12 109.27L79.12 110.89C79.44 110.89 79.82 110.93 80.42 111C80.74 111.03 81.11 111.07 81.57 111.12Z" fill="#FFFFFF" fill-opacity="0.030000" fill-rule="evenodd"/>
	<path id="path119" d="M83.06 114.86C79.16 114.73 77.84 114.3 77.07 114.3L83.06 114.86Z" fill="#FFFFFF" fill-opacity="0.030000" fill-rule="evenodd"/>
	<path id="path119 (Stroke)" d="M78.8 115.34C79.74 115.47 81.06 115.61 83.03 115.68L83.08 114.04C81.15 113.98 79.87 113.84 78.98 113.72C78.68 113.68 78.43 113.64 78.21 113.6C78.09 113.59 77.98 113.57 77.88 113.55C77.59 113.51 77.32 113.48 77.07 113.48L77.07 115.11C77.21 115.11 77.4 115.13 77.69 115.18C77.78 115.19 77.88 115.21 77.99 115.22C78.22 115.26 78.49 115.3 78.8 115.34Z" fill="#FFFFFF" fill-opacity="0.030000" fill-rule="evenodd"/>
	<path id="path121" d="M95.47 102.95C95.76 104.4 78.02 98.08 75.67 121.71L95.47 102.95Z" fill="#FFFFFF" fill-opacity="0.030000" fill-rule="evenodd"/>
	<path id="path121 (Stroke)" d="M95.99 103.6C96.18 103.36 96.24 103.05 96.18 102.77L94.76 103.13C94.72 102.94 94.75 102.71 94.9 102.52C94.95 102.45 95.01 102.41 95.04 102.39C95.08 102.37 95.1 102.36 95.11 102.36C95.11 102.36 95.09 102.37 95.03 102.37C94.97 102.38 94.89 102.39 94.78 102.39C94.52 102.4 94.21 102.39 93.83 102.38C93.54 102.37 93.21 102.36 92.84 102.35C91.15 102.34 88.8 102.42 86.35 103.23C83.89 104.05 81.33 105.6 79.23 108.5C77.13 111.41 75.54 115.6 74.94 121.62L76.39 121.8C76.97 116.01 78.48 112.13 80.36 109.53C82.24 106.93 84.54 105.53 86.77 104.8C89.01 104.05 91.19 103.97 92.82 103.99C93.14 103.99 93.45 104 93.73 104.01C94.16 104.02 94.53 104.03 94.82 104.02C95.05 104.01 95.31 104 95.53 103.92C95.64 103.88 95.83 103.8 95.99 103.6Z" fill="#FFFFFF" fill-opacity="0.030000" fill-rule="evenodd"/>
	<path id="path123" d="M116.9 73.6C117.4 73.6 105.65 96.97 94.38 103.81L116.9 73.6Z" fill="#FFFFFF" fill-opacity="0.030000" fill-rule="evenodd"/>
	<path id="path123 (Stroke)" d="M117.72 72.75C117.48 72.46 117.17 72.35 116.9 72.35L116.9 74.84C116.63 74.84 116.33 74.73 116.1 74.45C115.9 74.21 115.84 73.96 115.82 73.83C115.78 73.61 115.81 73.44 115.82 73.42L115.82 73.42C115.82 73.38 115.83 73.35 115.83 73.35C115.83 73.35 115.83 73.37 115.82 73.4C115.77 73.52 115.69 73.73 115.54 74.05C115.26 74.67 114.81 75.59 114.21 76.72C113.02 78.99 111.27 82.1 109.14 85.41C104.87 92.1 99.24 99.44 93.85 102.72L94.91 104.9C100.79 101.33 106.67 93.57 110.96 86.86C113.12 83.48 114.91 80.31 116.13 77.98C116.75 76.82 117.22 75.85 117.53 75.17C117.68 74.83 117.81 74.54 117.89 74.32C117.92 74.22 117.97 74.07 118 73.91L118 73.91C118.01 73.85 118.05 73.64 118.01 73.39C117.99 73.25 117.92 72.99 117.72 72.75Z" fill="#FFFFFF" fill-opacity="0.030000" fill-rule="evenodd"/>
	<path id="path125" d="M116.9 73.6C117.4 73.6 105.65 96.97 94.38 103.81L116.9 73.6Z" fill="#FFFFFF" fill-opacity="0.030000" fill-rule="evenodd"/>
	<path id="path125 (Stroke)" d="M117.72 72.75C117.48 72.46 117.17 72.35 116.9 72.35L116.9 74.84C116.63 74.84 116.33 74.73 116.1 74.45C115.9 74.21 115.84 73.96 115.82 73.83C115.78 73.61 115.81 73.44 115.82 73.42L115.82 73.42C115.82 73.38 115.83 73.35 115.83 73.35C115.83 73.35 115.83 73.37 115.82 73.4C115.77 73.52 115.69 73.73 115.54 74.05C115.26 74.67 114.81 75.59 114.21 76.72C113.02 78.99 111.27 82.1 109.14 85.41C104.87 92.1 99.24 99.44 93.85 102.72L94.91 104.9C100.79 101.33 106.67 93.57 110.96 86.86C113.12 83.48 114.91 80.31 116.13 77.98C116.75 76.82 117.22 75.85 117.53 75.17C117.68 74.83 117.81 74.54 117.89 74.32C117.92 74.22 117.97 74.07 118 73.91L118 73.91C118.01 73.85 118.05 73.64 118.01 73.39C117.99 73.25 117.92 72.99 117.72 72.75Z" fill="#FFFFFF" fill-opacity="0.030000" fill-rule="evenodd"/>
	<path id="path128" d="M148.81 46.19C149.31 46.19 143.24 59.89 137.54 73.6L148.81 46.19Z" fill="#FFFFFF" fill-opacity="0.030000" fill-rule="evenodd"/>
	<path id="path128 (Stroke)" d="M149.71 45.44C149.49 45.12 149.15 44.94 148.81 44.94L148.81 47.43C148.48 47.43 148.16 47.27 147.95 46.96C147.78 46.71 147.74 46.47 147.73 46.38C147.72 46.28 147.72 46.19 147.73 46.16C147.73 46.13 147.73 46.1 147.73 46.1C147.73 46.1 147.73 46.1 147.73 46.1C147.73 46.11 147.73 46.13 147.72 46.17C147.7 46.23 147.68 46.3 147.65 46.38C147.54 46.74 147.33 47.3 147.04 48.05C146.46 49.53 145.57 51.66 144.49 54.23C143.77 55.93 142.96 57.83 142.1 59.85C140.38 63.92 138.43 68.5 136.53 73.07L138.55 74.12C140.45 69.55 142.38 65 144.11 60.94C144.97 58.91 145.78 57 146.5 55.28C147.59 52.71 148.48 50.56 149.08 49.04C149.37 48.29 149.6 47.67 149.75 47.23C149.82 47.01 149.88 46.79 149.92 46.59C149.93 46.51 149.97 46.31 149.94 46.07C149.93 45.96 149.89 45.7 149.71 45.44Z" fill="#FFFFFF" fill-opacity="0.030000" fill-rule="evenodd"/>
	<path id="path130" d="M97.87 63.46C98.05 63.08 100.57 59.39 105.36 63.69L97.87 63.46Z" fill="#FFFFFF" fill-opacity="0.030000" fill-rule="evenodd"/>
	<path id="path130 (Stroke)" d="M99.7 61.14C98.26 61.64 97.47 62.8 97.31 63.11L98.42 63.8C98.42 63.8 98.42 63.8 98.42 63.8C98.43 63.78 98.46 63.73 98.53 63.63C98.61 63.53 98.72 63.4 98.86 63.26C99.15 62.98 99.55 62.67 100.08 62.49C101.08 62.14 102.69 62.19 104.97 64.24L105.76 63.14C103.24 60.87 101.2 60.62 99.7 61.14Z" fill="#FFFFFF" fill-opacity="0.030000" fill-rule="evenodd"/>
	<path id="path132" d="M99.27 59.07C99 58.99 96.16 57.68 98 53.06L99.27 59.07Z" fill="#FFFFFF" fill-opacity="0.030000" fill-rule="evenodd"/>
	<path id="path132 (Stroke)" d="M98.58 58.94C98.87 59.16 99.12 59.27 99.22 59.3L99.32 58.84C99.28 58.83 99.08 58.75 98.82 58.55C98.56 58.36 98.26 58.07 98.02 57.64C97.56 56.81 97.3 55.41 98.2 53.16L97.81 52.96C96.87 55.33 97.11 56.9 97.67 57.89C97.94 58.39 98.29 58.72 98.58 58.94Z" fill="#FFFFFF" fill-opacity="0.030000" fill-rule="evenodd"/>
	<path id="path134" d="M111.49 43.32C110.95 43.74 104.27 46.67 99.72 36.14L111.49 43.32Z" fill="#FFFFFF" fill-opacity="0.030000" fill-rule="evenodd"/>
	<path id="path134 (Stroke)" d="M111.15 43.99C111.41 43.88 111.61 43.77 111.72 43.68L111.25 42.94L111.25 42.94C111.25 42.94 111.25 42.95 111.24 42.95C111.24 42.96 111.23 42.96 111.22 42.96C111.2 42.98 111.17 42.99 111.14 43.01C111.07 43.05 110.98 43.09 110.87 43.14C110.65 43.23 110.35 43.33 109.98 43.41C109.25 43.57 108.28 43.64 107.19 43.39C105.03 42.89 102.32 41.1 100.08 35.94L99.35 36.33C101.67 41.71 104.58 43.72 107.03 44.28C108.24 44.56 109.33 44.48 110.14 44.3C110.55 44.21 110.89 44.1 111.15 43.99Z" fill="#FFFFFF" fill-opacity="0.030000" fill-rule="evenodd"/>
	<path id="path136" d="M97.87 63.46C98.05 63.08 98.97 63.49 105.36 63.69L97.87 63.46Z" fill="#FFFFFF" fill-opacity="0.030000" fill-rule="evenodd"/>
	<path id="path136 (Stroke)" d="M98.19 62.6C97.96 62.61 97.54 62.66 97.31 63.11L98.42 63.8C98.34 63.96 98.22 64.01 98.18 64.02C98.19 64.01 98.21 64.01 98.25 64.01C98.41 64 98.7 64.02 99.24 64.06C99.31 64.07 99.39 64.07 99.47 64.08C100.55 64.16 102.35 64.3 105.35 64.39L105.38 62.98C102.41 62.89 100.63 62.75 99.55 62.67C99.48 62.66 99.4 62.66 99.33 62.65C98.82 62.61 98.45 62.58 98.19 62.6ZM98.17 64.02C98.17 64.02 98.18 64.02 98.18 64.02C98.18 64.02 98.17 64.02 98.17 64.02Z" fill="#FFFFFF" fill-opacity="0.030000" fill-rule="evenodd"/>
	<path id="path138" d="M99.27 59.07C99 58.99 99.09 58.18 98 53.06L99.27 59.07Z" fill="#FFFFFF" fill-opacity="0.030000" fill-rule="evenodd"/>
	<path id="path138 (Stroke)" d="M98.91 58.89C98.96 59.06 99.03 59.25 99.22 59.3L99.32 58.84C99.34 58.84 99.35 58.85 99.35 58.85C99.35 58.85 99.33 58.82 99.31 58.75C99.27 58.59 99.22 58.34 99.15 57.91C99.14 57.85 99.13 57.79 99.12 57.73C98.97 56.85 98.72 55.4 98.21 53L97.8 53.11C98.3 55.5 98.55 56.94 98.7 57.82C98.71 57.88 98.72 57.94 98.73 58C98.81 58.42 98.86 58.71 98.91 58.89ZM99.35 58.86C99.35 58.86 99.35 58.86 99.35 58.85C99.35 58.86 99.35 58.86 99.35 58.86Z" fill="#FFFFFF" fill-opacity="0.030000" fill-rule="evenodd"/>
	<path id="path140" d="M111.49 43.32C110.95 43.74 109.81 42.35 100.1 36.83L111.49 43.32Z" fill="#FFFFFF" fill-opacity="0.030000" fill-rule="evenodd"/>
	<path id="path140 (Stroke)" d="M110.69 43.68C111.03 43.84 111.4 43.94 111.72 43.69L111.25 42.95C111.26 42.94 111.27 42.94 111.27 42.93C111.25 42.93 111.17 42.92 111 42.84C110.7 42.7 110.23 42.41 109.43 41.91C109.33 41.85 109.22 41.78 109.1 41.7C107.49 40.69 104.82 39.01 100.28 36.43L99.91 37.24C104.44 39.81 107.1 41.48 108.7 42.5C108.82 42.57 108.93 42.64 109.03 42.7C109.81 43.19 110.33 43.51 110.69 43.68ZM111.28 42.93C111.28 42.93 111.28 42.93 111.27 42.93C111.28 42.94 111.28 42.93 111.28 42.93Z" fill="#FFFFFF" fill-opacity="0.030000" fill-rule="evenodd"/>
	<path id="path142" d="M109.16 42.26C108.02 39.04 107.79 37.88 107.55 37.25L109.16 42.26Z" fill="#FFFFFF" fill-opacity="0.030000" fill-rule="evenodd"/>
	<path id="path142 (Stroke)" d="M107.63 38.92C107.86 39.71 108.21 40.81 108.78 42.43L109.54 42.09C108.97 40.49 108.63 39.41 108.4 38.64C108.33 38.4 108.27 38.19 108.22 38C108.1 37.6 108.02 37.3 107.93 37.07L107.18 37.42C107.25 37.61 107.32 37.85 107.43 38.23C107.48 38.42 107.55 38.65 107.63 38.92Z" fill="#FFFFFF" fill-opacity="0.030000" fill-rule="evenodd"/>
	<path id="path144" d="M106.83 40.68C105.85 37.92 105.69 36.92 105.48 36.38L106.83 40.68Z" fill="#FFFFFF" fill-opacity="0.030000" fill-rule="evenodd"/>
	<path id="path144 (Stroke)" d="M105.5 37.83C105.69 38.5 105.98 39.45 106.47 40.84L107.19 40.52C106.7 39.15 106.42 38.22 106.23 37.57C106.18 37.37 106.13 37.19 106.08 37.03C105.99 36.67 105.92 36.41 105.84 36.21L105.13 36.54C105.19 36.7 105.24 36.91 105.33 37.22C105.38 37.39 105.43 37.58 105.5 37.83Z" fill="#FFFFFF" fill-opacity="0.030000" fill-rule="evenodd"/>
	<path id="path146" d="M104.29 39.28C103.6 37.28 103.53 36.53 103.38 36.14L104.29 39.28Z" fill="#FFFFFF" fill-opacity="0.030000" fill-rule="evenodd"/>
	<path id="path146 (Stroke)" d="M103.28 37.21C103.41 37.71 103.6 38.41 103.95 39.42L104.62 39.14C104.28 38.15 104.1 37.47 103.98 37C103.94 36.84 103.91 36.71 103.88 36.58C103.86 36.52 103.85 36.46 103.83 36.41C103.8 36.25 103.76 36.11 103.71 35.98L103.05 36.29C103.08 36.36 103.1 36.46 103.14 36.62C103.15 36.67 103.17 36.72 103.18 36.78C103.21 36.91 103.24 37.05 103.28 37.21Z" fill="#FFFFFF" fill-opacity="0.030000" fill-rule="evenodd"/>
	<path id="path148" d="M97.87 63.46C98.05 63.08 100.78 68.26 105.36 63.69L97.87 63.46Z" fill="#FFFFFF" fill-opacity="0.030000" fill-rule="evenodd"/>
	<path id="path148 (Stroke)" d="M97.82 62.73C97.59 62.76 97.41 62.92 97.31 63.11L98.42 63.8C98.34 63.97 98.17 64.11 97.96 64.14C97.8 64.16 97.69 64.1 97.67 64.09C97.63 64.07 97.61 64.06 97.61 64.06C97.61 64.06 97.62 64.07 97.64 64.08C97.69 64.13 97.75 64.19 97.82 64.26C97.88 64.33 97.95 64.4 98.04 64.5C98.41 64.88 98.97 65.4 99.69 65.78C100.43 66.17 101.33 66.42 102.39 66.23C103.43 66.04 104.57 65.42 105.79 64.21L104.94 63.16C103.86 64.23 102.94 64.69 102.18 64.83C101.43 64.96 100.78 64.8 100.24 64.51C99.68 64.21 99.24 63.8 98.9 63.46C98.84 63.4 98.78 63.33 98.73 63.27C98.63 63.17 98.53 63.07 98.47 63.01C98.42 62.96 98.32 62.87 98.2 62.8C98.14 62.78 98 62.71 97.82 62.73Z" fill="#FFFFFF" fill-opacity="0.030000" fill-rule="evenodd"/>
	<path id="path150" d="M99.27 59.07C99 58.99 101.79 55.84 98 53.06L99.27 59.07Z" fill="#FFFFFF" fill-opacity="0.030000" fill-rule="evenodd"/>
	<path id="path150 (Stroke)" d="M99.06 59.14C99.09 59.22 99.15 59.28 99.22 59.3L99.32 58.84C99.38 58.85 99.43 58.9 99.45 58.96C99.47 59.01 99.46 59.05 99.46 59.06C99.46 59.06 99.46 59.06 99.46 59.06C99.46 59.06 99.46 59.06 99.46 59.06C99.46 59.06 99.47 59.05 99.48 59C99.51 58.95 99.54 58.89 99.58 58.81C99.61 58.75 99.64 58.68 99.68 58.6C99.84 58.24 100.06 57.73 100.16 57.12C100.26 56.51 100.25 55.8 99.95 55.07C99.66 54.33 99.09 53.58 98.12 52.86L97.89 53.25C98.81 53.93 99.31 54.62 99.57 55.26C99.82 55.89 99.84 56.5 99.75 57.03C99.66 57.57 99.46 58.03 99.3 58.38C99.27 58.44 99.24 58.51 99.21 58.57C99.17 58.66 99.13 58.74 99.1 58.8C99.08 58.85 99.06 58.91 99.05 58.98C99.04 59.01 99.04 59.07 99.06 59.14Z" fill="#FFFFFF" fill-opacity="0.030000" fill-rule="evenodd"/>
	<path id="path152" d="M111.49 43.32C110.95 43.74 110.5 33.36 100.44 36.65L111.49 43.32Z" fill="#FFFFFF" fill-opacity="0.030000" fill-rule="evenodd"/>
	<path id="path152 (Stroke)" d="M111.29 43.75C111.45 43.82 111.61 43.78 111.72 43.69L111.25 42.95C111.33 42.89 111.45 42.85 111.58 42.9C111.63 42.92 111.66 42.95 111.68 42.97C111.7 42.98 111.71 43 111.71 43C111.71 43 111.71 43 111.71 43C111.7 42.99 111.68 42.95 111.65 42.85C111.6 42.72 111.56 42.57 111.5 42.37C111.45 42.22 111.4 42.04 111.33 41.84C111.05 40.96 110.62 39.76 109.86 38.64C109.1 37.51 108.02 36.47 106.45 35.93C104.9 35.4 102.9 35.38 100.33 36.22L100.56 37.09C103.02 36.28 104.85 36.33 106.22 36.8C107.58 37.27 108.53 38.18 109.21 39.18C109.89 40.19 110.3 41.3 110.57 42.14C110.62 42.31 110.67 42.48 110.72 42.63C110.78 42.85 110.84 43.04 110.89 43.18C110.93 43.3 110.99 43.44 111.06 43.55C111.09 43.6 111.17 43.7 111.29 43.75Z" fill="#FFFFFF" fill-opacity="0.030000" fill-rule="evenodd"/>
	<path id="path154" d="M96.18 62.81C96.22 63.64 93.53 75.74 83.5 71.01L96.18 62.81Z" fill="#FFFFFF" fill-opacity="0.030000" fill-rule="evenodd"/>
	<path id="path154 (Stroke)" d="M96.89 63.23C96.91 63.09 96.93 62.92 96.92 62.77L95.44 62.84C95.44 62.83 95.44 62.82 95.44 62.82C95.44 62.82 95.44 62.86 95.42 62.95C95.41 63.06 95.38 63.21 95.34 63.39C95.26 63.76 95.12 64.25 94.93 64.81C94.55 65.93 93.94 67.28 93.05 68.46C92.16 69.63 91.01 70.61 89.53 71.03C88.06 71.46 86.18 71.37 83.79 70.24L83.21 71.77C85.84 73.01 88.06 73.17 89.91 72.64C91.75 72.1 93.15 70.89 94.18 69.53C95.21 68.17 95.9 66.64 96.32 65.4C96.53 64.78 96.68 64.23 96.78 63.79C96.83 63.58 96.86 63.39 96.89 63.23Z" fill="#FFFFFF" fill-opacity="0.030000" fill-rule="evenodd"/>
	<path id="path156" d="M97 62.71C97.41 63 102.16 70.23 95.92 77.98L97 62.71Z" fill="#FFFFFF" fill-opacity="0.030000" fill-rule="evenodd"/>
	<path id="path156 (Stroke)" d="M97.35 62.62C97.3 62.55 97.23 62.46 97.16 62.42L96.84 63C96.83 63 96.83 63 96.83 63C96.83 63 96.85 63.01 96.89 63.07C96.94 63.13 97 63.22 97.08 63.33C97.23 63.56 97.42 63.88 97.61 64.29C98.01 65.1 98.43 66.25 98.65 67.61C99.09 70.33 98.74 73.96 95.69 77.76L96.14 78.21C99.33 74.25 99.73 70.4 99.25 67.49C99.02 66.04 98.57 64.83 98.15 63.96C97.94 63.53 97.74 63.18 97.57 62.93C97.49 62.8 97.42 62.69 97.35 62.62Z" fill="#FFFFFF" fill-opacity="0.030000" fill-rule="evenodd"/>
	<path id="path158" d="M99.8 60.14C99.52 60.58 92.8 65.5 86.19 58.14L99.8 60.14Z" fill="#FFFFFF" fill-opacity="0.030000" fill-rule="evenodd"/>
	<path id="path158 (Stroke)" d="M100.08 60.84C100.14 60.78 100.25 60.68 100.33 60.56L99.26 59.73C99.29 59.69 99.31 59.67 99.31 59.67C99.31 59.67 99.3 59.68 99.27 59.71C99.22 59.75 99.15 59.8 99.05 59.88C98.85 60.02 98.56 60.21 98.2 60.4C97.48 60.78 96.47 61.18 95.28 61.35C92.93 61.69 89.8 61.14 86.65 57.63L85.73 58.66C89.19 62.51 92.72 63.18 95.45 62.79C96.8 62.6 97.94 62.15 98.76 61.71C99.17 61.49 99.51 61.28 99.76 61.09C99.88 61 99.99 60.92 100.08 60.84Z" fill="#FFFFFF" fill-opacity="0.030000" fill-rule="evenodd"/>
	<path id="path160" d="M96.18 62.8C96.22 63.64 94.31 64.01 83.5 71.01L96.18 62.8Z" fill="#FFFFFF" fill-opacity="0.030000" fill-rule="evenodd"/>
	<path id="path160 (Stroke)" d="M96.16 64.14C96.51 63.87 96.95 63.45 96.92 62.76L95.44 62.84C95.44 62.71 95.48 62.63 95.5 62.61C95.49 62.63 95.44 62.68 95.32 62.77C95.02 63 94.49 63.32 93.56 63.86C93.44 63.93 93.31 64.01 93.18 64.08C91.3 65.19 88.19 67.01 83.13 70.29L83.87 71.72C88.9 68.47 92 66.65 93.87 65.55C94 65.48 94.13 65.4 94.25 65.33C95.15 64.8 95.77 64.43 96.16 64.14ZM95.5 62.61C95.5 62.61 95.5 62.61 95.5 62.61C95.5 62.61 95.5 62.61 95.5 62.61Z" fill="#FFFFFF" fill-opacity="0.030000" fill-rule="evenodd"/>
	<path id="path162" d="M97 62.71C97.41 63 96.84 64.96 95.92 77.98L97 62.71Z" fill="#FFFFFF" fill-opacity="0.030000" fill-rule="evenodd"/>
	<path id="path162 (Stroke)" d="M97.41 62.83C97.37 62.67 97.3 62.52 97.16 62.42L96.84 63C96.81 62.98 96.8 62.96 96.8 62.96C96.8 62.96 96.81 62.97 96.81 62.99C96.82 63.05 96.83 63.17 96.83 63.37C96.82 63.78 96.76 64.45 96.65 65.53C96.64 65.67 96.63 65.83 96.61 65.99C96.4 68.2 96.04 71.87 95.61 77.96L96.22 78.01C96.65 71.94 97 68.27 97.22 66.06C97.23 65.9 97.25 65.75 97.26 65.6C97.37 64.53 97.43 63.84 97.44 63.39C97.45 63.17 97.44 62.98 97.41 62.83Z" fill="#FFFFFF" fill-opacity="0.030000" fill-rule="evenodd"/>
	<path id="path164" d="M99.8 60.14C99.52 60.59 97.79 59.84 86.19 58.14L99.8 60.14Z" fill="#FFFFFF" fill-opacity="0.030000" fill-rule="evenodd"/>
	<path id="path164 (Stroke)" d="M99.72 60.97C99.92 60.93 100.16 60.83 100.33 60.56L99.26 59.72C99.36 59.57 99.49 59.54 99.49 59.54C99.49 59.54 99.49 59.54 99.48 59.54C99.47 59.54 99.45 59.54 99.43 59.54C99.38 59.54 99.32 59.54 99.23 59.53C98.88 59.5 98.31 59.4 97.34 59.23C97.21 59.21 97.08 59.18 96.94 59.16C94.97 58.8 91.7 58.22 86.28 57.42L86.11 58.87C91.51 59.66 94.77 60.24 96.73 60.59C96.87 60.62 97.01 60.64 97.14 60.67C98.08 60.83 98.72 60.94 99.13 60.98C99.34 61 99.54 61 99.72 60.97Z" fill="#FFFFFF" fill-opacity="0.030000" fill-rule="evenodd"/>
	<path id="path166" d="M96.18 62.8C89.87 71.6 90.19 69.25 83.5 71.01L96.18 62.8Z" fill="#FFFFFF" fill-opacity="0.030000" fill-rule="evenodd"/>
	<path id="path166 (Stroke)" d="M90.28 70.3C92.02 69.48 93.63 67.69 96.76 63.32L95.6 62.28C92.43 66.71 91.04 68.14 89.7 68.78C89.02 69.1 88.33 69.23 87.31 69.4C87.22 69.41 87.14 69.42 87.05 69.44C86.08 69.59 84.89 69.79 83.33 70.2L83.67 71.81C85.17 71.42 86.3 71.23 87.26 71.08C87.35 71.07 87.44 71.05 87.53 71.04C88.53 70.87 89.4 70.72 90.28 70.3Z" fill="#FFFFFF" fill-opacity="0.030000" fill-rule="evenodd"/>
	<path id="path168" d="M96.18 62.8C91.88 66.6 88.39 61.66 83.5 71.01L96.18 62.8Z" fill="#FFFFFF" fill-opacity="0.030000" fill-rule="evenodd"/>
	<path id="path168 (Stroke)" d="M91.48 65.46C93.03 65.27 94.82 65.06 96.64 63.46L95.72 62.16C94.27 63.44 93.02 63.59 91.55 63.77C91.04 63.83 90.51 63.89 89.93 64.01C88.84 64.23 87.69 64.65 86.49 65.66C85.31 66.65 84.11 68.19 82.86 70.59L84.14 71.42C85.33 69.15 86.41 67.8 87.39 66.98C88.35 66.16 89.27 65.83 90.19 65.64C90.6 65.56 91.03 65.51 91.48 65.46Z" fill="#FFFFFF" fill-opacity="0.030000" fill-rule="evenodd"/>
	<path id="path170" d="M96.18 62.8C96.22 63.64 84.11 59.2 83.5 71.01L96.18 62.8Z" fill="#FFFFFF" fill-opacity="0.030000" fill-rule="evenodd"/>
	<path id="path170 (Stroke)" d="M96.57 63.55C96.76 63.41 96.94 63.14 96.92 62.77L95.44 62.84C95.43 62.53 95.59 62.3 95.74 62.18C95.8 62.14 95.85 62.11 95.88 62.1C95.9 62.09 95.92 62.09 95.93 62.09C95.93 62.09 95.93 62.09 95.93 62.09C95.93 62.09 95.92 62.09 95.88 62.09C95.84 62.09 95.78 62.09 95.71 62.08C95.5 62.07 95.24 62.05 94.92 62.01C94.75 62 94.57 61.98 94.37 61.96C93.22 61.84 91.62 61.73 89.98 61.97C88.35 62.22 86.61 62.84 85.24 64.25C83.85 65.68 82.92 67.83 82.76 70.96L84.24 71.05C84.38 68.27 85.19 66.56 86.25 65.47C87.31 64.37 88.72 63.84 90.18 63.62C91.65 63.39 93.11 63.5 94.24 63.6C94.4 63.62 94.57 63.64 94.73 63.66C95.08 63.69 95.4 63.73 95.64 63.74C95.8 63.75 96 63.76 96.18 63.72C96.26 63.71 96.41 63.67 96.57 63.55Z" fill="#FFFFFF" fill-opacity="0.030000" fill-rule="evenodd"/>
	<path id="path172" d="M97 62.71C97.41 63 90.49 72.84 95.92 77.98L97 62.71Z" fill="#FFFFFF" fill-opacity="0.030000" fill-rule="evenodd"/>
	<path id="path172 (Stroke)" d="M97.32 62.77C97.32 62.71 97.31 62.52 97.16 62.42L96.84 63C96.71 62.91 96.71 62.76 96.71 62.75C96.71 62.74 96.71 62.73 96.71 62.73C96.71 62.73 96.71 62.75 96.7 62.76C96.69 62.83 96.64 62.93 96.57 63.08C96.48 63.28 96.36 63.54 96.21 63.85C96.14 64 96.06 64.16 95.97 64.33C95.46 65.38 94.8 66.82 94.29 68.41C93.28 71.58 92.85 75.53 95.72 78.25L96.11 77.73C93.56 75.3 93.88 71.76 94.87 68.64C95.36 67.1 96.01 65.7 96.51 64.66C96.59 64.49 96.67 64.33 96.74 64.19C96.89 63.87 97.03 63.6 97.12 63.39C97.19 63.23 97.25 63.09 97.29 62.98C97.3 62.92 97.32 62.85 97.32 62.77Z" fill="#FFFFFF" fill-opacity="0.030000" fill-rule="evenodd"/>
	<path id="path174" d="M99.8 60.14C99.52 60.59 91.07 52.36 86.19 58.15L99.8 60.14Z" fill="#FFFFFF" fill-opacity="0.030000" fill-rule="evenodd"/>
	<path id="path174 (Stroke)" d="M99.69 60.88C99.79 60.89 100.12 60.89 100.33 60.55L99.26 59.72C99.46 59.41 99.75 59.42 99.8 59.43C99.85 59.43 99.88 59.44 99.89 59.45C99.89 59.45 99.89 59.45 99.89 59.45C99.86 59.43 99.79 59.4 99.66 59.31C99.48 59.2 99.27 59.05 99.01 58.87C98.87 58.78 98.73 58.69 98.58 58.58C97.66 57.96 96.39 57.13 94.97 56.47C92.16 55.17 88.45 54.4 85.72 57.64L86.67 58.64C88.8 56.1 91.76 56.56 94.47 57.81C95.8 58.43 97 59.21 97.9 59.82C98.04 59.92 98.17 60.01 98.3 60.1C98.57 60.28 98.82 60.45 99.01 60.57C99.15 60.66 99.29 60.75 99.42 60.8C99.47 60.83 99.58 60.87 99.69 60.88ZM99.89 59.45C99.89 59.45 99.89 59.45 99.89 59.45C99.89 59.45 99.89 59.45 99.89 59.45Z" fill="#FFFFFF" fill-opacity="0.030000" fill-rule="evenodd"/>
	<path id="path176" d="M148.81 46.19C149.31 46.19 106.24 48.66 100.54 62.37L148.81 46.19Z" fill="#FFFFFF" fill-opacity="0.030000" fill-rule="evenodd"/>
	<path id="path176 (Stroke)" d="M148.84 44.94L148.81 44.94L148.81 47.43L148.78 47.43C148.77 47.43 148.72 47.43 148.69 47.42C148.59 47.41 147.81 46.74 147.77 45.74C148.05 45.28 148.53 44.98 148.6 44.97C148.62 44.96 148.66 44.96 148.67 44.96L148.69 44.95L148.7 44.95L148.71 44.95C148.71 44.95 148.7 44.95 148.69 44.95L148.65 44.96L148.34 44.98C148.05 45 147.6 45.03 147.03 45.08C145.88 45.17 144.21 45.33 142.17 45.55C138.09 46 132.54 46.74 126.8 47.91C121.06 49.09 115.07 50.7 110.14 52.9C105.28 55.07 101.15 57.95 99.53 61.84L101.55 62.89C102.78 59.93 106.16 57.36 110.97 55.21C115.7 53.1 121.52 51.52 127.2 50.36C132.87 49.2 138.35 48.47 142.39 48.03C144.4 47.8 146.06 47.66 147.19 47.56C147.76 47.51 148.2 47.48 148.48 47.46L148.8 47.44C148.84 47.43 148.87 47.43 148.89 47.43L148.92 47.42L148.95 47.42C148.96 47.42 149 47.41 149.03 47.41C149.09 47.39 149.58 47.09 149.85 46.64C149.81 45.64 149.03 44.97 148.93 44.95C148.92 44.95 148.9 44.95 148.89 44.95C148.87 44.95 148.85 44.94 148.84 44.94Z" fill="#FFFFFF" fill-opacity="0.030000" fill-rule="evenodd"/>
	<path id="path178" d="M148.81 46.19C149.31 46.19 116.91 49.71 110.59 42.36L148.81 46.19Z" fill="#FFFFFF" fill-opacity="0.030000" fill-rule="evenodd"/>
	<path id="path178 (Stroke)" d="M148.92 44.95C148.86 44.94 148.82 44.94 148.81 44.94L148.81 47.43L148.81 47.43C148.8 47.43 148.75 47.43 148.7 47.42C148.66 47.42 148.55 47.4 148.47 47.37C148.28 47.28 147.75 46.57 147.74 45.87C147.89 45.48 148.26 45.11 148.37 45.05C148.42 45.03 148.49 45 148.52 44.99C148.56 44.98 148.6 44.97 148.6 44.97L148.6 44.97C148.62 44.96 148.63 44.96 148.64 44.96C148.63 44.96 148.63 44.96 148.62 44.96C148.59 44.97 148.52 44.98 148.42 44.99C148.21 45.01 147.89 45.05 147.47 45.08C146.63 45.17 145.39 45.28 143.87 45.38C140.82 45.6 136.64 45.81 132.26 45.79C127.87 45.77 123.31 45.52 119.48 44.83C117.56 44.49 115.85 44.04 114.45 43.47C113.04 42.89 112.02 42.23 111.4 41.5L109.79 43.22C110.75 44.33 112.12 45.17 113.69 45.8C115.27 46.45 117.12 46.93 119.12 47.29C123.12 48.01 127.82 48.26 132.25 48.28C136.7 48.3 140.92 48.08 144 47.87C145.55 47.76 146.8 47.65 147.66 47.57C148.09 47.52 148.42 47.49 148.64 47.46C148.75 47.45 148.84 47.44 148.89 47.43L148.9 47.43C148.92 47.43 148.96 47.42 149.01 47.41L149.01 47.41C149.02 47.41 149.06 47.4 149.1 47.39C149.13 47.38 149.21 47.35 149.26 47.33C149.36 47.27 149.73 46.89 149.89 46.5C149.87 45.81 149.35 45.1 149.15 45C149.08 44.98 148.96 44.96 148.92 44.95Z" fill="#FFFFFF" fill-opacity="0.030000" fill-rule="evenodd"/>
	<path id="path180" d="M90.94 87.86C91.43 87.86 60.85 89.72 52.72 80L90.94 87.86Z" fill="#FFFFFF" fill-opacity="0.030000" fill-rule="evenodd"/>
	<path id="path180 (Stroke)" d="M91 86.62C90.97 86.62 90.94 86.62 90.94 86.62L90.94 89.1L90.94 89.1C90.93 89.1 90.91 89.1 90.88 89.1C90.87 89.1 90.82 89.1 90.79 89.09C90.71 89.07 90.26 88.84 89.99 88.5C89.86 87.57 90.48 86.73 90.62 86.67C90.67 86.66 90.74 86.64 90.76 86.63C90.79 86.63 90.81 86.62 90.82 86.62L90.82 86.62C90.83 86.62 90.84 86.62 90.84 86.62C90.83 86.62 90.83 86.62 90.82 86.62C90.78 86.63 90.72 86.63 90.62 86.64C90.43 86.65 90.13 86.66 89.73 86.68C88.94 86.71 87.76 86.75 86.31 86.75C83.41 86.78 79.41 86.71 75.15 86.33C70.88 85.96 66.39 85.29 62.48 84.12C58.53 82.95 55.35 81.32 53.54 79.15L51.91 80.85C54.16 83.54 57.85 85.32 61.9 86.53C66 87.75 70.64 88.44 74.98 88.82C79.32 89.19 83.38 89.26 86.33 89.24C87.8 89.23 89 89.19 89.81 89.16C90.22 89.15 90.53 89.13 90.73 89.12C90.84 89.11 90.91 89.11 90.97 89.1C90.99 89.1 91.02 89.1 91.05 89.1L91.06 89.1C91.06 89.1 91.09 89.09 91.12 89.08C91.15 89.08 91.22 89.07 91.26 89.05C91.4 88.99 92.03 88.15 91.9 87.22C91.62 86.88 91.18 86.64 91.1 86.63C91.06 86.62 91.01 86.62 91 86.62Z" fill="#FFFFFF" fill-opacity="0.030000" fill-rule="evenodd"/>
	<path id="path182" d="M172.86 13.28C173.36 13.28 166.66 18.83 153.26 24.55L172.86 13.28Z" fill="#FFFFFF" fill-opacity="0.030000" fill-rule="evenodd"/>
	<path id="path182 (Stroke)" d="M173.43 12.2C173.18 12.05 172.96 12.04 172.86 12.04L172.86 14.52C172.78 14.52 172.56 14.51 172.33 14.37C172.04 14.19 171.84 13.86 171.79 13.49C171.74 13.19 171.81 12.96 171.84 12.87C171.88 12.76 171.92 12.69 171.94 12.66C171.97 12.6 172 12.57 172 12.57C172 12.57 171.99 12.58 171.96 12.6C171.85 12.72 171.62 12.93 171.25 13.22C170.52 13.8 169.34 14.66 167.72 15.69C164.48 17.76 159.51 20.55 152.87 23.38L153.66 25.71C160.41 22.82 165.49 19.98 168.83 17.85C170.49 16.78 171.73 15.89 172.54 15.25C172.93 14.94 173.25 14.66 173.46 14.45C173.54 14.37 173.69 14.21 173.8 14.03C173.83 13.98 173.88 13.89 173.92 13.76C173.96 13.66 174.03 13.41 173.99 13.1C173.93 12.72 173.72 12.39 173.43 12.2ZM172.01 12.56C172.01 12.56 172.01 12.56 172 12.57C172.01 12.56 172.01 12.56 172.01 12.56Z" fill="#FFFFFF" fill-opacity="0.030000" fill-rule="evenodd"/>
</svg>
