<svg width="468" height="352" viewBox="0 0 468 352" fill="none" xmlns="http://www.w3.org/2000/svg">
<path fill-rule="evenodd" clip-rule="evenodd" d="M55.3127 281.754C278.423 270.417 399.366 136.148 468 3.85944L463.074 0.427979C395.194 131.265 275.822 263.883 55.0609 275.101L55.3127 281.754Z" fill="#99A18E" fill-opacity="0.12"/>
<path fill-rule="evenodd" clip-rule="evenodd" d="M148.173 265.573C149.457 265.573 122.222 312.733 90.0535 326.359L148.173 265.573Z" fill="#99A18E" fill-opacity="0.12"/>
<path fill-rule="evenodd" clip-rule="evenodd" d="M149.925 262.918C149.321 262.392 148.669 262.241 148.173 262.241V268.901C147.697 268.901 147.061 268.756 146.471 268.241C145.889 267.734 145.604 267.089 145.474 266.613C145.261 265.835 145.368 265.198 145.387 265.087L145.389 265.079C145.419 264.898 145.457 264.765 145.476 264.709C145.474 264.714 145.472 264.72 145.469 264.726C145.403 264.897 145.229 265.279 144.903 265.905C144.271 267.119 143.234 268.936 141.824 271.209C139.011 275.743 134.793 281.961 129.539 288.604C118.97 301.972 104.498 316.693 89.0669 323.229L91.04 329.484C107.778 322.394 123.008 306.723 133.777 293.104C139.193 286.254 143.553 279.831 146.49 275.096C147.956 272.735 149.087 270.761 149.825 269.343C150.184 268.653 150.495 268.009 150.701 267.482C150.785 267.269 150.95 266.835 151.033 266.335L151.033 266.331C151.063 266.152 151.181 265.437 150.951 264.597C150.815 264.098 150.52 263.437 149.925 262.918ZM145.487 264.678C145.487 264.679 145.483 264.689 145.476 264.709C145.484 264.688 145.487 264.678 145.487 264.678Z" fill="#99A18E" fill-opacity="0.12"/>
<path fill-rule="evenodd" clip-rule="evenodd" d="M92.5138 325.243C92.5992 327.631 90.31 353.309 57.6392 348.376L92.5138 325.243Z" fill="#99A18E" fill-opacity="0.12"/>
<path fill-rule="evenodd" clip-rule="evenodd" d="M93.5249 331.22C94.2881 328.366 94.4601 326.057 94.4279 325.155L90.6 325.339C90.6105 325.631 90.5283 327.427 89.8654 329.906C89.2138 332.342 88.0299 335.324 85.9238 338.09C81.7988 343.508 73.7554 348.575 57.8868 346.179L57.3918 350.581C74.194 353.118 83.6307 347.812 88.7966 341.027C91.336 337.692 92.7503 334.116 93.5249 331.22Z" fill="#99A18E" fill-opacity="0.12"/>
<path fill-rule="evenodd" clip-rule="evenodd" d="M58.2133 280.959C59.5821 280.467 74.876 277.674 77.8368 303.984L58.2133 280.959Z" fill="#99A18E" fill-opacity="0.12"/>
<path fill-rule="evenodd" clip-rule="evenodd" d="M61.4599 280.081C59.7439 279.999 58.4735 280.27 58.0668 280.416L58.3578 281.503C58.6355 281.403 59.7902 281.14 61.4193 281.218C63.0387 281.296 65.1002 281.709 67.2074 282.93C71.3917 285.355 75.884 291.042 77.3488 304.059L78.3229 303.911C76.8269 290.617 72.1918 284.546 67.6467 281.912C65.3893 280.604 63.1856 280.164 61.4599 280.081Z" fill="#99A18E" fill-opacity="0.12"/>
<path fill-rule="evenodd" clip-rule="evenodd" d="M65.2261 276.453C64.665 275.416 59.1942 264.251 74.8165 256.832L65.2261 276.453Z" fill="#99A18E" fill-opacity="0.12"/>
<path fill-rule="evenodd" clip-rule="evenodd" d="M62.3081 268.736C61.7016 273.268 63.4586 276.812 63.8161 277.473L66.636 275.425C66.4324 275.048 65.1734 272.491 65.5968 269.327C65.9945 266.355 67.9826 262.157 75.4476 258.612L74.1857 255.043C66.0281 258.917 62.9403 264.011 62.3081 268.736Z" fill="#99A18E" fill-opacity="0.12"/>
<path fill-rule="evenodd" clip-rule="evenodd" d="M92.5136 325.25C92.599 327.638 87.3706 328.647 57.6392 348.383L92.5136 325.25Z" fill="#99A18E" fill-opacity="0.12"/>
<path fill-rule="evenodd" clip-rule="evenodd" d="M92.3545 328.935C93.3387 328.164 94.4946 327.036 94.4275 325.158L90.5996 325.342C90.5885 325.029 90.6946 324.837 90.7262 324.788C90.6933 324.83 90.5603 324.982 90.2083 325.258C89.3796 325.907 87.9244 326.806 85.3745 328.341C85.0392 328.543 84.6871 328.755 84.3175 328.977C79.1567 332.079 70.592 337.226 56.6869 346.456L58.5912 350.309C72.4278 341.124 80.9383 336.009 86.0833 332.917C86.4529 332.695 86.8051 332.483 87.1407 332.281C89.6037 330.798 91.2978 329.763 92.3545 328.935ZM90.7348 324.776C90.7346 324.776 90.7314 324.78 90.7262 324.788C90.7325 324.78 90.7351 324.776 90.7348 324.776Z" fill="#99A18E" fill-opacity="0.12"/>
<path fill-rule="evenodd" clip-rule="evenodd" d="M58.2133 280.959C59.5821 280.467 61.0989 284.357 77.8368 303.984L58.2133 280.959Z" fill="#99A18E" fill-opacity="0.12"/>
<path fill-rule="evenodd" clip-rule="evenodd" d="M59.8249 281.158C59.219 280.547 58.6798 280.193 58.0668 280.414L58.3578 281.501C58.4291 281.475 58.5929 281.424 59.1795 282.017C59.7491 282.592 60.5677 283.616 61.8974 285.308C62.0742 285.534 62.2597 285.77 62.4543 286.018C65.1693 289.479 69.6704 295.218 77.4864 304.383L78.1851 303.583C70.3833 294.434 65.8928 288.709 63.1808 285.252C62.9862 285.004 62.8007 284.767 62.6239 284.542C61.3111 282.871 60.4477 281.788 59.8249 281.158Z" fill="#99A18E" fill-opacity="0.12"/>
<path fill-rule="evenodd" clip-rule="evenodd" d="M65.2257 276.453C64.6646 275.415 66.7703 273.427 75.6785 255.893L65.2257 276.453Z" fill="#99A18E" fill-opacity="0.12"/>
<path fill-rule="evenodd" clip-rule="evenodd" d="M63.8769 274.412C63.6 275.064 63.1656 276.27 63.8157 277.473L66.636 275.425C66.8635 275.846 66.8063 276.223 66.7844 276.32C66.7944 276.288 66.8173 276.222 66.8624 276.116C67.0673 275.634 67.4913 274.851 68.2993 273.401C68.4043 273.212 68.5146 273.015 68.6304 272.807C70.2494 269.904 72.9391 265.082 77.1125 256.867L74.2447 254.911C70.106 263.057 67.445 267.828 65.8345 270.715C65.7187 270.923 65.6083 271.121 65.5032 271.31C64.7413 272.677 64.1874 273.682 63.8769 274.412ZM66.7779 276.344C66.7783 276.344 66.7809 276.336 66.7844 276.32C66.7792 276.337 66.7775 276.345 66.7779 276.344Z" fill="#99A18E" fill-opacity="0.12"/>
<path fill-rule="evenodd" clip-rule="evenodd" d="M92.5137 325.25C92.599 327.638 67.1972 311.849 57.6392 348.383L92.5137 325.25Z" fill="#99A18E" fill-opacity="0.12"/>
<path fill-rule="evenodd" clip-rule="evenodd" d="M93.6232 327.173C94.1987 326.655 94.4536 325.885 94.4275 325.155L90.5996 325.339C90.5789 324.757 90.7893 324.102 91.2732 323.666C91.6301 323.345 91.9688 323.301 92.0206 323.294L92.0225 323.293C92.0554 323.289 92.0745 323.288 92.0745 323.287C92.0745 323.285 91.9807 323.282 91.7368 323.237C91.3577 323.166 90.9167 323.058 90.3583 322.921C89.9234 322.814 89.4173 322.69 88.8139 322.553C86.2289 321.964 82.5424 321.307 78.4922 321.801C74.4159 322.298 69.9595 323.961 65.8866 328.002C61.8226 332.034 58.2747 338.299 55.8058 347.735L59.4721 349.023C61.7822 340.194 64.9938 334.732 68.3782 331.374C71.7537 328.026 75.4346 326.637 78.8928 326.216C82.3772 325.792 85.6226 326.351 88.0751 326.909C88.526 327.012 88.9822 327.123 89.4145 327.228C90.0759 327.389 90.6814 327.536 91.1264 327.619C91.4777 327.685 91.9859 327.767 92.4595 327.704C92.6882 327.674 93.17 327.581 93.6232 327.173Z" fill="#99A18E" fill-opacity="0.12"/>
<path fill-rule="evenodd" clip-rule="evenodd" d="M58.2133 280.959C59.5821 280.467 54.9551 303.054 77.8368 303.984L58.2133 280.959Z" fill="#99A18E" fill-opacity="0.12"/>
<path fill-rule="evenodd" clip-rule="evenodd" d="M58.6227 280.52C58.4538 280.371 58.2492 280.344 58.0677 280.409L58.3587 281.496C58.2628 281.531 58.132 281.518 58.0273 281.426C57.9676 281.373 57.9472 281.32 57.9474 281.32C57.9474 281.32 57.9485 281.322 57.9505 281.328C57.9701 281.386 57.9975 281.533 58.0222 281.819C58.05 282.143 58.0679 282.546 58.0895 283.032C58.1055 283.391 58.1235 283.796 58.149 284.249C58.2664 286.332 58.5354 289.205 59.4987 292.135C60.4643 295.072 62.1288 298.069 65.0311 300.387C67.9309 302.703 72.029 304.311 77.8195 304.547L77.854 303.409C72.2037 303.179 68.2995 301.615 65.5886 299.45C62.8801 297.287 61.3255 294.494 60.4166 291.729C59.5053 288.958 59.2443 286.218 59.1292 284.175C59.1063 283.768 59.0888 283.379 59.0727 283.02C59.0495 282.502 59.0292 282.05 58.9996 281.706C58.9751 281.421 58.9392 281.132 58.865 280.912C58.8287 280.805 58.7599 280.641 58.6227 280.52Z" fill="#99A18E" fill-opacity="0.12"/>
<path fill-rule="evenodd" clip-rule="evenodd" d="M65.2261 276.453C64.665 275.416 79.4319 273.449 75.6789 254.375L65.2261 276.453Z" fill="#99A18E" fill-opacity="0.12"/>
<path fill-rule="evenodd" clip-rule="evenodd" d="M63.6614 275.666C63.4662 276.262 63.5203 276.927 63.8159 277.474L66.6358 275.426C66.8964 275.908 66.9453 276.507 66.7729 277.034C66.6407 277.437 66.4255 277.654 66.3761 277.704C66.3192 277.76 66.2782 277.789 66.2783 277.789C66.2784 277.789 66.3091 277.768 66.3869 277.725C66.5642 277.626 66.7707 277.526 67.0461 277.392C67.2561 277.29 67.5061 277.168 67.8137 277.013C69.1122 276.359 70.9533 275.335 72.7065 273.664C74.4728 271.98 76.1587 269.63 77.1249 266.345C78.0903 263.062 78.2943 258.992 77.3011 253.944L74.0564 254.801C74.9396 259.29 74.7052 262.618 73.9748 265.101C73.2452 267.581 71.9782 269.364 70.592 270.686C69.1927 272.02 67.6819 272.874 66.4866 273.477C66.2916 273.575 66.0841 273.676 65.8811 273.776C65.5267 273.949 65.186 274.115 64.9488 274.247C64.7738 274.344 64.4668 274.52 64.2079 274.778C64.0822 274.903 63.8163 275.192 63.6614 275.666Z" fill="#99A18E" fill-opacity="0.12"/>
<path fill-rule="evenodd" clip-rule="evenodd" d="M355.153 195.878C357.007 198.311 374.483 241.988 335.48 254.875L355.153 195.878Z" fill="#99A18E" fill-opacity="0.12"/>
<path fill-rule="evenodd" clip-rule="evenodd" d="M356.964 195.959C356.741 195.496 356.499 195.04 356.268 194.737L354.039 197.018C354.036 197.015 354.035 197.014 354.035 197.014C354.035 197.014 354.063 197.055 354.123 197.161C354.187 197.276 354.269 197.435 354.369 197.64C354.566 198.051 354.813 198.61 355.09 199.305C355.644 200.694 356.305 202.585 356.931 204.838C358.187 209.354 359.284 215.245 359.151 221.413C359.02 227.569 357.667 233.941 354.076 239.533C350.491 245.116 344.574 250.078 335.072 253.217L335.888 256.531C345.887 253.227 352.412 247.896 356.462 241.59C360.506 235.292 361.982 228.177 362.125 221.498C362.267 214.832 361.085 208.542 359.762 203.782C359.098 201.396 358.394 199.375 357.79 197.86C357.488 197.103 357.207 196.462 356.964 195.959Z" fill="#99A18E" fill-opacity="0.12"/>
<path fill-rule="evenodd" clip-rule="evenodd" d="M55.1868 274.105C53.3443 276.55 18.2264 302.274 2.15906 259.122L55.1868 274.105Z" fill="#99A18E" fill-opacity="0.12"/>
<path fill-rule="evenodd" clip-rule="evenodd" d="M55.2935 276.109C55.6602 275.793 56.012 275.462 56.2338 275.168L54.1401 273.049C54.1423 273.046 54.1423 273.046 54.1395 273.049C54.1307 273.059 54.0951 273.1 54.0186 273.175C53.9264 273.266 53.7993 273.383 53.6351 273.525C53.3072 273.807 52.858 274.164 52.2973 274.574C51.1769 275.392 49.6405 276.398 47.79 277.411C44.0812 279.441 39.1708 281.467 33.862 282.114C28.5626 282.76 22.9135 282.027 17.6427 278.609C12.3793 275.196 7.35631 269.018 3.43521 258.487L0.883057 259.763C4.99564 270.808 10.3876 277.596 16.2854 281.42C22.1758 285.239 28.4339 286.014 34.1527 285.317C39.8621 284.621 45.0809 282.455 48.9771 280.323C50.929 279.255 52.5639 278.187 53.7795 277.299C54.3868 276.855 54.8967 276.451 55.2935 276.109Z" fill="#99A18E" fill-opacity="0.12"/>
<path fill-rule="evenodd" clip-rule="evenodd" d="M57.6086 276.263C58.0573 278.318 53.2417 312.878 18.5764 315.887L57.6086 276.263Z" fill="#99A18E" fill-opacity="0.12"/>
<path fill-rule="evenodd" clip-rule="evenodd" d="M59.3845 277.134C59.403 276.778 59.4203 276.231 59.3174 275.759L55.899 276.762C55.8774 276.662 55.8726 276.601 55.8718 276.601C55.8709 276.601 55.8754 276.685 55.8648 276.888C55.8499 277.173 55.8121 277.584 55.7402 278.111C55.5971 279.161 55.3289 280.601 54.8855 282.306C53.9982 285.718 52.4262 290.126 49.8053 294.56C44.6004 303.366 35.1984 312.393 18.4442 313.847L18.7076 317.922C36.6188 316.367 46.9573 306.61 52.7144 296.869C55.5745 292.03 57.2888 287.225 58.2616 283.485C58.7481 281.614 59.0534 279.993 59.2232 278.748C59.3078 278.128 59.3612 277.582 59.3845 277.134Z" fill="#99A18E" fill-opacity="0.12"/>
<path fill-rule="evenodd" clip-rule="evenodd" d="M65.693 277.458C63.8991 277.872 34.5076 271.535 33.7062 231.263L65.693 277.458Z" fill="#99A18E" fill-opacity="0.12"/>
<path fill-rule="evenodd" clip-rule="evenodd" d="M64.9922 278.158C65.3044 278.191 65.6041 278.204 65.8119 278.156L65.5757 276.779C65.5766 276.779 65.5763 276.779 65.5748 276.779C65.5673 276.78 65.5304 276.785 65.4518 276.784C65.365 276.783 65.249 276.776 65.1034 276.76C64.8125 276.729 64.4236 276.666 63.9489 276.563C63.0003 276.357 61.7285 275.994 60.2431 275.421C57.2717 274.275 53.464 272.294 49.6881 269.062C42.1563 262.616 34.7087 251.161 34.3125 231.256L33.1016 231.288C33.5069 251.656 41.1557 263.505 48.9684 270.191C52.8648 273.526 56.7914 275.569 59.8605 276.753C61.3953 277.345 62.7202 277.724 63.7255 277.943C64.2277 278.052 64.655 278.122 64.9922 278.158Z" fill="#99A18E" fill-opacity="0.12"/>
<path fill-rule="evenodd" clip-rule="evenodd" d="M142.075 218.875C141.46 215.708 121.146 173.712 89.2874 202.796L142.075 218.875Z" fill="#99A18E" fill-opacity="0.12"/>
<path fill-rule="evenodd" clip-rule="evenodd" d="M140.265 219.332C140.272 219.353 140.273 219.357 140.27 219.344L143.88 218.402C143.794 217.96 143.602 217.429 143.408 216.947C143.194 216.413 142.906 215.764 142.549 215.03C141.836 213.56 140.827 211.7 139.539 209.667C136.968 205.61 133.233 200.777 128.443 196.972C123.643 193.158 117.73 190.337 110.864 190.448C103.986 190.559 96.36 193.609 88.1426 201.11L90.4321 204.478C98.1441 197.438 105.005 194.831 110.915 194.735C116.837 194.64 122.014 197.062 126.351 200.508C130.699 203.962 134.149 208.405 136.556 212.204C137.757 214.098 138.684 215.812 139.324 217.131C139.645 217.791 139.887 218.341 140.053 218.755C140.189 219.093 140.247 219.275 140.265 219.332Z" fill="#99A18E" fill-opacity="0.12"/>
<path fill-rule="evenodd" clip-rule="evenodd" d="M355.154 195.878C357.007 198.311 352.241 204.564 335.48 254.875L355.154 195.878Z" fill="#99A18E" fill-opacity="0.12"/>
<path fill-rule="evenodd" clip-rule="evenodd" d="M356.641 199.544C357.1 197.787 357.299 196.088 356.267 194.734L354.039 197.015C354.037 197.011 354.034 197.005 354.031 196.998C354.031 196.996 354.03 196.995 354.03 196.994C354.03 196.993 354.039 197.022 354.041 197.102C354.047 197.322 354.003 197.748 353.795 198.545C353.378 200.141 352.475 202.614 350.933 206.733C350.728 207.278 350.514 207.85 350.288 208.451C347.142 216.837 341.923 230.744 334.092 254.251L336.867 255.492C344.676 232.052 349.875 218.194 353.016 209.823C353.242 209.223 353.456 208.65 353.661 208.105C355.173 204.067 356.162 201.377 356.641 199.544Z" fill="#99A18E" fill-opacity="0.12"/>
<path fill-rule="evenodd" clip-rule="evenodd" d="M55.1868 274.105C53.3443 276.55 47.3779 271.881 2.15906 259.122L55.1868 274.105Z" fill="#99A18E" fill-opacity="0.12"/>
<path fill-rule="evenodd" clip-rule="evenodd" d="M52.2554 276.182C53.8163 276.482 55.2455 276.479 56.2338 275.168L54.1401 273.049L54.1305 273.061L54.1278 273.064C54.1282 273.064 54.1282 273.064 54.1276 273.064M52.2554 276.182C50.632 275.869 48.2082 275.083 44.5552 273.866L52.2554 276.182ZM44.5552 273.866C44.0615 273.702 43.5435 273.529 42.9999 273.347L44.5552 273.866ZM42.9999 273.347C35.4298 270.819 22.8984 266.635 1.83032 260.69L42.9999 273.347ZM1.83032 260.69L2.48797 257.56L1.83032 260.69ZM2.48797 257.56C23.6117 263.521 36.1856 267.72 43.7682 270.252L2.48797 257.56ZM43.7682 270.252C44.3117 270.433 44.8296 270.606 45.3232 270.771L43.7682 270.252ZM45.3232 270.771C49.0444 272.01 51.284 272.73 52.7105 273.004L45.3232 270.771ZM52.7105 273.004C53.4228 273.141 53.8058 273.139 54.0089 273.101L52.7105 273.004ZM54.0089 273.101C54.097 273.084 54.1272 273.064 54.1273 273.064L54.0089 273.101ZM54.1273 273.064C54.1274 273.064 54.1275 273.064 54.1276 273.064L54.1273 273.064Z" fill="#99A18E" fill-opacity="0.12"/>
<path fill-rule="evenodd" clip-rule="evenodd" d="M398.569 63.219C397.843 66.0576 388.24 65.5279 328.493 78.9883L398.569 63.219Z" fill="#99A18E" fill-opacity="0.12"/>
<path fill-rule="evenodd" clip-rule="evenodd" d="M398.697 66.0755C399.401 65.6306 400.084 64.9435 400.365 63.8469L396.775 62.6136C396.846 62.3359 396.981 62.2149 396.981 62.2139C396.98 62.2135 396.959 62.2316 396.905 62.266C396.673 62.4125 396.195 62.6245 395.262 62.8941C393.418 63.4274 390.373 64.0324 385.359 64.9914C384.693 65.1188 383.993 65.2523 383.259 65.3923C373.017 67.3458 356.037 70.5844 328.137 76.8701L328.851 81.1289C356.699 74.8551 373.638 71.6243 383.869 69.6731C384.603 69.533 385.302 69.3996 385.969 69.272C390.915 68.3261 394.141 67.6899 396.169 67.1036C397.173 66.8134 398.031 66.4959 398.697 66.0755Z" fill="#99A18E" fill-opacity="0.12"/>
<path fill-rule="evenodd" clip-rule="evenodd" d="M57.608 276.264C58.0567 278.318 51.9782 282.062 19.4489 315.668L57.608 276.264Z" fill="#99A18E" fill-opacity="0.12"/>
<path fill-rule="evenodd" clip-rule="evenodd" d="M58.9471 278.213C59.2738 277.576 59.5272 276.728 59.3169 275.765L55.8985 276.767C55.8129 276.375 55.9248 276.111 55.9238 276.11C55.9236 276.11 55.921 276.116 55.915 276.128C55.8469 276.261 55.6512 276.558 55.1684 277.112C54.2165 278.205 52.5492 279.852 49.7596 282.573C49.3898 282.934 49.0015 283.312 48.5941 283.71C42.905 289.253 33.471 298.447 18.2755 314.145L20.622 317.195C35.7799 301.536 45.184 292.371 50.8645 286.836C51.272 286.439 51.6603 286.06 52.0303 285.699C54.7703 283.027 56.5716 281.253 57.6498 280.015C58.1819 279.405 58.6416 278.81 58.9471 278.213Z" fill="#99A18E" fill-opacity="0.12"/>
<path fill-rule="evenodd" clip-rule="evenodd" d="M65.693 277.46C63.8991 277.873 60.9869 270.646 33.7062 231.264L65.693 277.46Z" fill="#99A18E" fill-opacity="0.12"/>
<path fill-rule="evenodd" clip-rule="evenodd" d="M64.5875 277.794C64.9705 278.09 65.3756 278.25 65.8118 278.15L65.5756 276.773L65.5746 276.773C65.5593 276.777 65.4794 276.796 65.2588 276.626C65.0207 276.442 64.6949 276.095 64.227 275.488C63.2958 274.28 61.9286 272.212 59.7407 268.863C59.449 268.416 59.143 267.947 58.8219 267.455C54.3404 260.589 46.9127 249.208 34.1791 230.826L33.2345 231.705C45.9573 250.071 53.3769 261.439 57.8561 268.303C58.1772 268.795 58.4832 269.263 58.7749 269.71C60.9494 273.039 62.3516 275.162 63.3235 276.423C63.8073 277.051 64.2164 277.508 64.5875 277.794Z" fill="#99A18E" fill-opacity="0.12"/>
<path fill-rule="evenodd" clip-rule="evenodd" d="M142.075 218.875C141.46 215.708 134.295 216.523 89.2874 202.795L142.075 218.875Z" fill="#99A18E" fill-opacity="0.12"/>
<path fill-rule="evenodd" clip-rule="evenodd" d="M140.342 219.526C140.319 219.492 140.288 219.432 140.271 219.341L143.88 218.399C143.492 216.4 142.007 215.527 140.499 214.925C138.912 214.292 136.426 213.639 132.725 212.697C132.224 212.569 131.698 212.436 131.146 212.295C123.452 210.343 110.72 207.111 89.7585 200.718L88.8168 204.864C109.852 211.279 122.642 214.526 130.352 216.483C130.904 216.623 131.43 216.757 131.931 216.884C135.725 217.85 137.958 218.446 139.294 218.979C139.996 219.259 140.262 219.453 140.342 219.526ZM140.37 219.559C140.372 219.558 140.365 219.547 140.342 219.526C140.357 219.548 140.368 219.559 140.37 219.559Z" fill="#99A18E" fill-opacity="0.12"/>
<path fill-rule="evenodd" clip-rule="evenodd" d="M355.153 195.878C355.21 239.425 351.227 231.464 335.48 254.875L355.153 195.878Z" fill="#99A18E" fill-opacity="0.12"/>
<path fill-rule="evenodd" clip-rule="evenodd" d="M352.553 233.742C355.716 226.918 356.669 217.573 356.641 195.875L353.667 195.88C353.695 217.73 352.684 226.177 349.933 232.112C348.557 235.082 346.711 237.495 344.116 240.73C343.894 241.008 343.666 241.291 343.434 241.58C340.97 244.645 337.947 248.405 334.308 253.815L336.653 255.934C340.209 250.647 343.153 246.985 345.613 243.926C345.844 243.638 346.072 243.355 346.295 243.076C348.874 239.86 350.973 237.152 352.553 233.742Z" fill="#99A18E" fill-opacity="0.12"/>
<path fill-rule="evenodd" clip-rule="evenodd" d="M55.1868 274.105C17.9289 279.795 24.2275 274.191 2.15906 259.121L55.1868 274.105Z" fill="#99A18E" fill-opacity="0.12"/>
<path fill-rule="evenodd" clip-rule="evenodd" d="M22.4828 275.903C28.7047 278.644 36.8001 278.536 55.3682 275.7L55.0049 272.507C36.3152 275.362 28.9309 275.298 23.4706 272.892C20.7381 271.688 18.4253 269.871 15.3217 267.308C15.0552 267.088 14.7835 266.863 14.5058 266.633C11.5656 264.198 7.96028 261.213 2.86446 257.733L1.45325 260.508C6.44037 263.913 9.95718 266.825 12.8932 269.256C13.1699 269.485 13.4415 269.71 13.7086 269.931C16.795 272.479 19.3741 274.533 22.4828 275.903Z" fill="#99A18E" fill-opacity="0.12"/>
<path fill-rule="evenodd" clip-rule="evenodd" d="M398.569 63.2252C358.676 86.8318 362.746 79.2555 328.493 78.995L398.569 63.2252Z" fill="#99A18E" fill-opacity="0.12"/>
<path fill-rule="evenodd" clip-rule="evenodd" d="M361.616 82.216C370.255 81.1436 379.498 76.9451 399.42 65.1565L397.718 61.2925C377.747 73.1098 369.079 76.9262 361.217 77.9021C357.271 78.3918 353.472 78.1732 348.404 77.7945C347.968 77.7619 347.524 77.7283 347.07 77.6939C342.261 77.3295 336.387 76.8845 328.506 76.8245L328.481 81.1631C336.249 81.2221 342.026 81.6597 346.829 82.0236C347.282 82.0579 347.726 82.0915 348.163 82.1241C353.212 82.5015 357.31 82.7504 361.616 82.216Z" fill="#99A18E" fill-opacity="0.12"/>
<path fill-rule="evenodd" clip-rule="evenodd" d="M142.075 218.875C111.65 193.315 114.886 201.719 89.2874 202.796L142.075 218.875Z" fill="#99A18E" fill-opacity="0.12"/>
<path fill-rule="evenodd" clip-rule="evenodd" d="M113.626 202.97C119.283 203.846 125.711 207.774 140.99 220.609L143.161 217.138C128.015 204.414 120.848 199.763 114.117 198.721C110.754 198.2 107.588 198.593 103.83 199.131C103.504 199.177 103.173 199.225 102.836 199.274C99.2557 199.792 94.9846 200.41 89.2206 200.652L89.3548 204.937C95.2866 204.687 99.7016 204.048 103.288 203.529C103.627 203.48 103.959 203.432 104.283 203.386C108.069 202.844 110.795 202.532 113.626 202.97Z" fill="#99A18E" fill-opacity="0.12"/>
<path fill-rule="evenodd" clip-rule="evenodd" d="M355.153 195.878C350.612 218.955 330.141 213.491 335.48 254.875L355.153 195.878Z" fill="#99A18E" fill-opacity="0.12"/>
<path fill-rule="evenodd" clip-rule="evenodd" d="M346.266 215.375C350.356 210.656 354.774 205.561 356.604 196.264L353.704 195.498C352.083 203.736 348.445 207.945 344.485 212.527C343.168 214.051 341.816 215.616 340.49 217.384C337.869 220.879 335.532 225.031 334.222 231.023C332.92 236.98 332.657 244.642 334.01 255.133L336.951 254.623C335.635 244.422 335.929 237.248 337.105 231.869C338.274 226.525 340.337 222.842 342.735 219.645C343.829 218.186 345.032 216.797 346.266 215.375Z" fill="#99A18E" fill-opacity="0.12"/>
<path fill-rule="evenodd" clip-rule="evenodd" d="M55.1868 274.105C34.8523 271.869 36.8836 247.64 2.15906 259.122L55.1868 274.105Z" fill="#99A18E" fill-opacity="0.12"/>
<path fill-rule="evenodd" clip-rule="evenodd" d="M37.4292 266.33C41.9923 270.418 46.8949 274.81 55.0556 275.707L55.3182 272.501C48.029 271.699 43.93 268.038 39.4916 264.074C38.0205 262.76 36.512 261.413 34.8377 260.126C31.5181 257.573 27.677 255.433 22.3991 254.704C17.1495 253.979 10.5723 254.664 1.77783 257.572L2.54051 260.669C11.1084 257.836 17.2989 257.244 22.0702 257.902C26.8132 258.557 30.2459 260.461 33.3009 262.81C34.6998 263.885 36.049 265.094 37.4292 266.33Z" fill="#99A18E" fill-opacity="0.12"/>
<path fill-rule="evenodd" clip-rule="evenodd" d="M398.569 63.219C373.718 71.9765 362.115 52.2163 328.493 78.9883L398.569 63.219Z" fill="#99A18E" fill-opacity="0.12"/>
<path fill-rule="evenodd" clip-rule="evenodd" d="M373.683 67.124C381.299 67.9241 389.295 68.764 399.115 65.3033L398.025 61.1523C388.967 64.3446 381.902 63.6084 374.435 62.8303C371.994 62.576 369.51 62.3172 366.9 62.1897C356.291 61.6713 344.584 63.5532 327.434 77.2094L329.555 80.7852C346.026 67.6691 356.932 66.0451 366.742 66.5245C369.048 66.6371 371.348 66.8787 373.683 67.124Z" fill="#99A18E" fill-opacity="0.12"/>
<path fill-rule="evenodd" clip-rule="evenodd" d="M142.075 218.875C123.274 209.623 115.106 232.05 89.2874 202.795L142.075 218.875Z" fill="#99A18E" fill-opacity="0.12"/>
<path fill-rule="evenodd" clip-rule="evenodd" d="M124.301 219.556C129.798 218.526 134.744 217.6 141.352 220.852L142.798 216.905C135.118 213.126 128.832 214.318 123.121 215.401C121.419 215.723 119.769 216.036 118.148 216.205C114.548 216.58 110.823 216.362 106.466 214.36C102.074 212.341 96.9233 208.453 90.5807 201.267L87.9941 204.332C94.561 211.773 100.114 216.052 105.102 218.345C110.125 220.654 114.458 220.894 118.479 220.475C120.538 220.26 122.451 219.902 124.301 219.556Z" fill="#99A18E" fill-opacity="0.12"/>
<path fill-rule="evenodd" clip-rule="evenodd" d="M355.153 195.878C357.007 198.311 312.576 217.68 335.48 254.875L355.153 195.878Z" fill="#99A18E" fill-opacity="0.12"/>
<path fill-rule="evenodd" clip-rule="evenodd" d="M356.616 196.663C356.767 196.094 356.732 195.346 356.268 194.737L354.039 197.018C353.691 196.562 353.681 195.999 353.774 195.648C353.813 195.503 353.863 195.41 353.883 195.377C353.881 195.38 353.878 195.384 353.874 195.389C353.773 195.521 353.519 195.778 353.028 196.191C352.383 196.733 351.528 197.385 350.487 198.179C349.974 198.569 349.416 198.994 348.816 199.458C345.25 202.212 340.47 206.111 336.344 211.155C332.219 216.197 328.659 222.491 327.682 230.051C326.698 237.66 328.366 246.287 334.27 255.875L336.691 253.873C331.143 244.864 329.775 237.122 330.623 230.562C331.477 223.953 334.614 218.279 338.502 213.525C342.389 208.774 346.939 205.049 350.466 202.325C351.011 201.904 351.54 201.501 352.04 201.12C353.124 200.294 354.074 199.569 354.775 198.98C355.276 198.558 355.764 198.113 356.099 197.676C356.257 197.47 356.494 197.123 356.616 196.663ZM353.893 195.362C353.893 195.362 353.889 195.367 353.883 195.377C353.891 195.367 353.894 195.362 353.893 195.362Z" fill="#99A18E" fill-opacity="0.12"/>
<path fill-rule="evenodd" clip-rule="evenodd" d="M55.1868 274.102C53.3443 276.547 31.0296 227.995 2.15906 259.118L55.1868 274.102Z" fill="#99A18E" fill-opacity="0.12"/>
<path fill-rule="evenodd" clip-rule="evenodd" d="M54.7203 275.777C55.1997 275.871 55.7987 275.741 56.2333 275.165L54.1396 273.046C54.459 272.622 54.9029 272.545 55.188 272.602C55.3004 272.624 55.3746 272.662 55.4024 272.679C55.3979 272.675 55.3921 272.671 55.385 272.665C55.2493 272.559 54.9902 272.292 54.5728 271.78C54.0243 271.108 53.3536 270.207 52.5384 269.11C52.1382 268.572 51.7032 267.988 51.2307 267.36C48.4138 263.619 44.466 258.639 39.6259 254.557C34.787 250.477 28.9599 247.212 22.3915 247.067C15.7831 246.92 8.63981 249.936 1.21204 257.943L3.1053 260.301C10.1128 252.747 16.5853 250.16 22.3384 250.287C28.1314 250.415 33.4113 253.3 37.9903 257.161C42.568 261.022 46.3488 265.776 49.1363 269.478C49.5687 270.052 49.9826 270.608 50.3739 271.134C51.2197 272.271 51.9599 273.266 52.5533 273.993C52.9788 274.515 53.4163 275.01 53.8239 275.33C54.0174 275.483 54.331 275.7 54.7203 275.777ZM55.4147 272.687C55.4146 272.687 55.4104 272.684 55.4024 272.679C55.4107 272.685 55.4147 272.687 55.4147 272.687Z" fill="#99A18E" fill-opacity="0.12"/>
<path fill-rule="evenodd" clip-rule="evenodd" d="M398.57 63.2257C397.844 66.0633 342.953 42.6518 327.43 81.574L398.57 63.2257ZM398.57 63.2257C397.844 66.0633 370.361 103.876 326.885 78.8319L398.57 63.2257Z" fill="#99A18E" fill-opacity="0.12"/>
<path fill-rule="evenodd" clip-rule="evenodd" d="M399.704 65.3993C399.948 64.985 400.265 64.4105 400.406 63.8597L401.333 60.2415L397.493 61.232C397.191 61.2019 396.779 61.1409 396.24 61.0422C395.18 60.8486 393.832 60.5503 392.205 60.1904C391.427 60.0183 390.586 59.8322 389.682 59.6367C384.167 58.4439 376.639 56.9745 368.615 56.6521C352.71 56.0132 333.974 59.8762 325.69 80.6456L324.066 84.7183L330.298 83.111C350.685 93.2401 367.524 89.9869 379.566 83.5001C385.97 80.0501 390.992 75.7022 394.468 72.025C396.206 70.186 397.569 68.5022 398.534 67.1639C399.016 66.4963 399.409 65.8992 399.704 65.3993ZM331.115 78.3521C339.084 63.7507 354.149 60.5132 368.482 61.089C375.652 61.3771 382.454 62.6189 387.764 63.7411L331.115 78.3521ZM337.057 81.3676C353.965 88.0146 367.833 84.9245 377.951 79.4743C383.942 76.2469 388.644 72.1747 391.885 68.7464C392.539 68.0546 393.131 67.3911 393.661 66.7685L337.057 81.3676Z" fill="#99A18E" fill-opacity="0.12"/>
<path fill-rule="evenodd" clip-rule="evenodd" d="M57.6078 276.26C58.0565 278.314 16.9894 287.447 19.7196 317.984L57.6078 276.26Z" fill="#99A18E" fill-opacity="0.12"/>
<path fill-rule="evenodd" clip-rule="evenodd" d="M58.8078 277.883C58.9943 277.656 59.5606 276.875 59.3169 275.759L55.8985 276.762C55.6828 275.774 56.1961 275.136 56.2537 275.066C56.3084 274.999 56.3523 274.959 56.3693 274.945C56.3626 274.95 56.3511 274.958 56.3342 274.97C56.1771 275.077 55.8625 275.249 55.3328 275.498C54.627 275.83 53.7137 276.221 52.6048 276.696C52.073 276.923 51.4961 277.17 50.8756 277.439C47.1103 279.07 42.0045 281.401 36.9514 284.656C26.9606 291.091 16.4834 301.616 17.9657 318.195L21.4731 317.774C20.2252 303.817 28.9166 294.506 38.6646 288.227C43.481 285.125 48.3872 282.879 52.1105 281.266C52.6819 281.018 53.2323 280.783 53.7528 280.56C54.8992 280.07 55.9004 279.641 56.6602 279.283C57.2053 279.027 57.7243 278.762 58.1181 278.494C58.3031 278.369 58.5732 278.168 58.8078 277.883ZM56.377 274.939C56.3769 274.939 56.3742 274.941 56.3693 274.945C56.3747 274.941 56.3772 274.939 56.377 274.939Z" fill="#99A18E" fill-opacity="0.12"/>
<path fill-rule="evenodd" clip-rule="evenodd" d="M65.693 277.462C63.8991 277.875 60.166 229.687 33.7062 231.267L65.693 277.462Z" fill="#99A18E" fill-opacity="0.12"/>
<path fill-rule="evenodd" clip-rule="evenodd" d="M65.0658 277.832C65.1718 277.97 65.4321 278.242 65.8115 278.155L65.5753 276.778C65.6996 276.75 65.8079 276.782 65.8795 276.824C65.9412 276.859 65.9706 276.898 65.972 276.9L65.972 276.9C65.9723 276.901 65.9724 276.901 65.9724 276.901C65.9724 276.901 65.9634 276.888 65.9464 276.855C65.9281 276.819 65.9053 276.77 65.8785 276.703C65.7665 276.424 65.6319 275.971 65.47 275.336C65.2524 274.484 65.0036 273.379 64.7074 272.063C64.5648 271.429 64.4113 270.747 64.245 270.021C63.2273 265.577 61.7561 259.599 59.5044 253.649C55.0187 241.797 47.3104 229.756 33.6754 230.57L33.7377 231.972C46.5626 231.206 53.9507 242.47 58.3951 254.213C60.6083 260.061 62.0605 265.955 63.0742 270.381C63.2357 271.086 63.3868 271.757 63.5283 272.386C63.8282 273.718 64.0852 274.86 64.3084 275.735C64.4719 276.375 64.6274 276.914 64.7801 277.294C64.8542 277.479 64.9467 277.676 65.0658 277.832Z" fill="#99A18E" fill-opacity="0.12"/>
<path fill-rule="evenodd" clip-rule="evenodd" d="M142.075 218.874C141.46 215.708 101.888 246.093 89.2874 202.795L142.075 218.874Z" fill="#99A18E" fill-opacity="0.12"/>
<path fill-rule="evenodd" clip-rule="evenodd" d="M141.311 220.703C140.916 220.548 140.419 220.11 140.271 219.346L143.88 218.404C143.693 217.443 143.082 216.872 142.5 216.643C142.033 216.46 141.59 216.486 141.335 216.516C140.79 216.579 140.161 216.79 139.57 217.014C138.739 217.33 137.663 217.804 136.445 218.34C135.887 218.586 135.3 218.845 134.693 219.107C130.727 220.822 125.489 222.899 119.931 223.76C114.37 224.621 108.647 224.24 103.615 221.225C98.6288 218.238 94.0686 212.516 91.0404 202.111L87.5347 203.481C90.8069 214.725 95.9184 221.441 101.916 225.034C107.866 228.598 114.437 228.937 120.421 228.01C126.408 227.082 131.965 224.863 135.986 223.124C136.67 222.829 137.297 222.552 137.872 222.299C139.032 221.788 139.976 221.372 140.724 221.088C141.293 220.871 141.589 220.796 141.701 220.782C141.65 220.784 141.503 220.779 141.311 220.703ZM141.704 220.781C141.703 220.782 141.702 220.782 141.701 220.782L141.704 220.781Z" fill="#99A18E" fill-opacity="0.12"/>
<path fill-rule="evenodd" clip-rule="evenodd" d="M247.274 276.121C248.04 280.005 251.037 322.913 196.177 326.355L247.274 276.121Z" fill="#99A18E" fill-opacity="0.12"/>
<path fill-rule="evenodd" clip-rule="evenodd" d="M244.201 302.529C250.516 290.3 249.575 278 249.109 275.639L245.438 276.612C245.738 278.135 246.679 289.231 240.969 300.288C235.354 311.162 223.043 322.489 196.075 324.181L196.278 328.539C224.171 326.789 237.792 314.941 244.201 302.529Z" fill="#99A18E" fill-opacity="0.12"/>
<path fill-rule="evenodd" clip-rule="evenodd" d="M247.274 276.121C248.04 280.005 239.734 283.506 196.177 326.355L247.274 276.121Z" fill="#99A18E" fill-opacity="0.12"/>
<path fill-rule="evenodd" clip-rule="evenodd" d="M247.06 281.145C248.447 279.561 249.543 277.841 249.109 275.642L245.437 276.615C245.437 276.61 245.435 276.591 245.438 276.568C245.439 276.562 245.439 276.559 245.439 276.559C245.44 276.558 245.434 276.591 245.401 276.666C245.301 276.897 245.042 277.321 244.416 278.037C243.161 279.471 240.938 281.521 237.187 284.914C236.691 285.363 236.169 285.834 235.622 286.329C227.981 293.232 215.309 304.679 194.957 324.7L197.395 328.027C217.687 308.065 230.312 296.66 237.939 289.77C238.487 289.275 239.008 288.804 239.505 288.354C243.18 285.03 245.612 282.799 247.06 281.145Z" fill="#99A18E" fill-opacity="0.12"/>
<path fill-rule="evenodd" clip-rule="evenodd" d="M238.006 286.938C221.73 286.598 216.252 285.43 213.022 285.43L238.006 286.938Z" fill="#99A18E" fill-opacity="0.12"/>
<path fill-rule="evenodd" clip-rule="evenodd" d="M220.479 288.234C224.322 288.572 229.796 288.951 237.973 289.121L238.041 284.757C229.94 284.588 224.538 284.213 220.764 283.882C219.58 283.778 218.535 283.675 217.604 283.584C215.637 283.391 214.182 283.248 213.022 283.248L213.022 287.613C214.02 287.613 215.228 287.732 217.052 287.911C218.006 288.005 219.129 288.115 220.479 288.234Z" fill="#99A18E" fill-opacity="0.12"/>
<path fill-rule="evenodd" clip-rule="evenodd" d="M226.439 296.719C212.522 296.379 207.839 295.211 205.077 295.21L226.439 296.719Z" fill="#99A18E" fill-opacity="0.12"/>
<path fill-rule="evenodd" clip-rule="evenodd" d="M211.41 298.001C214.705 298.34 219.397 298.72 226.4 298.891L226.479 294.552C219.565 294.383 214.957 294.009 211.741 293.678C210.752 293.577 209.87 293.475 209.079 293.385C207.377 293.19 206.095 293.043 205.078 293.042L205.077 297.382C205.906 297.382 206.903 297.497 208.438 297.673C209.256 297.768 210.228 297.879 211.41 298.001Z" fill="#99A18E" fill-opacity="0.12"/>
<path fill-rule="evenodd" clip-rule="evenodd" d="M215.243 308.016C205.179 307.677 201.792 306.508 199.795 306.508L215.243 308.016Z" fill="#99A18E" fill-opacity="0.12"/>
<path fill-rule="evenodd" clip-rule="evenodd" d="M204.264 309.307C206.674 309.649 210.095 310.031 215.189 310.203L215.298 305.828C210.328 305.661 207.024 305.289 204.724 304.962C203.953 304.853 203.312 304.751 202.737 304.66C202.437 304.612 202.155 304.567 201.882 304.526C201.127 304.411 200.431 304.319 199.795 304.319L199.795 308.696C200.157 308.696 200.634 308.75 201.39 308.865C201.626 308.901 201.89 308.943 202.18 308.989C202.771 309.083 203.471 309.194 204.264 309.307Z" fill="#99A18E" fill-opacity="0.12"/>
<path fill-rule="evenodd" clip-rule="evenodd" d="M247.274 276.121C248.04 280.005 202.244 263.085 196.177 326.355L247.274 276.121Z" fill="#99A18E" fill-opacity="0.12"/>
<path fill-rule="evenodd" clip-rule="evenodd" d="M248.619 277.882C249.122 277.228 249.258 276.39 249.11 275.639L245.438 276.612C245.338 276.104 245.431 275.469 245.805 274.982C245.951 274.791 246.096 274.684 246.181 274.63C246.268 274.575 246.328 274.553 246.34 274.549C246.357 274.543 246.305 274.562 246.138 274.582C245.981 274.601 245.773 274.615 245.503 274.623C244.841 274.641 244.036 274.618 243.047 274.59C242.303 274.569 241.456 274.546 240.486 274.534C236.14 274.482 230.077 274.707 223.753 276.881C217.404 279.064 210.781 283.216 205.363 290.995C199.952 298.763 195.852 309.992 194.305 326.119L198.049 326.602C199.536 311.094 203.436 300.711 208.294 293.736C213.145 286.771 219.061 283.047 224.824 281.065C230.612 279.075 236.233 278.848 240.447 278.898C241.264 278.908 242.061 278.93 242.802 278.95C243.894 278.98 244.864 279.006 245.592 278.986C246.186 278.97 246.877 278.923 247.446 278.721C247.723 278.623 248.218 278.405 248.619 277.882Z" fill="#99A18E" fill-opacity="0.12"/>
<path fill-rule="evenodd" clip-rule="evenodd" d="M302.581 197.526C303.865 197.526 273.543 260.112 244.462 278.438L302.581 197.526Z" fill="#99A18E" fill-opacity="0.12"/>
<path fill-rule="evenodd" clip-rule="evenodd" d="M304.694 195.242C304.084 194.494 303.288 194.188 302.581 194.188V200.848C301.894 200.848 301.115 200.549 300.517 199.817C300.001 199.184 299.845 198.498 299.792 198.163C299.697 197.564 299.782 197.102 299.792 197.048L299.793 197.043C299.811 196.937 299.829 196.873 299.829 196.872C299.829 196.871 299.819 196.91 299.789 196.996C299.679 197.318 299.451 197.892 299.081 198.74C298.354 200.404 297.194 202.857 295.653 205.898C292.577 211.973 288.044 220.285 282.57 229.167C271.531 247.079 257.003 266.737 243.089 275.505L245.835 281.355C261.002 271.798 276.177 251 287.247 233.037C292.828 223.982 297.453 215.502 300.61 209.269C302.186 206.157 303.41 203.576 304.209 201.747C304.602 200.847 304.923 200.059 305.13 199.454C305.221 199.189 305.353 198.781 305.427 198.353L305.428 198.348C305.455 198.196 305.551 197.638 305.445 196.964C305.387 196.599 305.223 195.891 304.694 195.242Z" fill="#99A18E" fill-opacity="0.12"/>
<path fill-rule="evenodd" clip-rule="evenodd" d="M302.581 197.526C303.865 197.526 273.543 260.112 244.462 278.438L302.581 197.526Z" fill="#99A18E" fill-opacity="0.12"/>
<path fill-rule="evenodd" clip-rule="evenodd" d="M304.694 195.242C304.084 194.494 303.288 194.188 302.581 194.188V200.848C301.894 200.848 301.115 200.549 300.517 199.817C300.001 199.184 299.845 198.498 299.792 198.163C299.697 197.564 299.782 197.102 299.792 197.048L299.793 197.043C299.811 196.937 299.829 196.873 299.829 196.872C299.829 196.871 299.819 196.91 299.789 196.996C299.679 197.318 299.451 197.892 299.081 198.74C298.354 200.404 297.194 202.857 295.653 205.898C292.577 211.973 288.044 220.285 282.57 229.167C271.531 247.079 257.003 266.737 243.089 275.505L245.835 281.355C261.002 271.798 276.177 251 287.247 233.037C292.828 223.982 297.453 215.502 300.61 209.269C302.186 206.157 303.41 203.576 304.209 201.747C304.602 200.847 304.923 200.059 305.13 199.454C305.221 199.189 305.353 198.781 305.427 198.353L305.428 198.348C305.455 198.196 305.551 197.638 305.445 196.964C305.387 196.599 305.223 195.891 304.694 195.242Z" fill="#99A18E" fill-opacity="0.12"/>
<path fill-rule="evenodd" clip-rule="evenodd" d="M384.931 124.126C386.215 124.126 370.551 160.823 355.851 197.52L384.931 124.126Z" fill="#99A18E" fill-opacity="0.12"/>
<path fill-rule="evenodd" clip-rule="evenodd" d="M387.252 122.117C386.679 121.258 385.813 120.797 384.931 120.797V127.456C384.089 127.456 383.254 127.013 382.705 126.19C382.268 125.534 382.176 124.882 382.151 124.644C382.12 124.357 382.134 124.142 382.14 124.061C382.148 123.965 382.158 123.905 382.159 123.897C382.16 123.894 382.16 123.894 382.159 123.897C382.157 123.908 382.144 123.967 382.113 124.087C382.076 124.227 382.022 124.412 381.949 124.647C381.65 125.61 381.119 127.101 380.364 129.097C378.864 133.065 376.582 138.761 373.785 145.643C371.929 150.211 369.848 155.294 367.627 160.721C363.171 171.605 358.151 183.869 353.244 196.118L358.457 198.922C363.355 186.696 368.353 174.485 372.803 163.615C375.028 158.18 377.116 153.079 378.985 148.481C381.781 141.602 384.093 135.83 385.628 131.77C386.391 129.753 386.988 128.09 387.357 126.903C387.531 126.34 387.704 125.733 387.796 125.198C387.831 124.992 387.921 124.449 387.854 123.821C387.821 123.513 387.714 122.808 387.252 122.117Z" fill="#99A18E" fill-opacity="0.12"/>
<path fill-rule="evenodd" clip-rule="evenodd" d="M253.467 170.366C253.949 169.359 260.445 159.466 272.811 170.984L253.467 170.366Z" fill="#99A18E" fill-opacity="0.12"/>
<path fill-rule="evenodd" clip-rule="evenodd" d="M258.198 164.175C254.48 165.51 252.434 168.624 252.037 169.453L254.897 171.292C254.896 171.295 254.897 171.293 254.9 171.287C254.919 171.255 255.007 171.1 255.185 170.852C255.384 170.576 255.668 170.222 256.036 169.847C256.773 169.093 257.818 168.28 259.166 167.796C261.755 166.867 265.917 167.001 271.786 172.469L273.836 169.514C267.339 163.463 262.07 162.785 258.198 164.175Z" fill="#99A18E" fill-opacity="0.12"/>
<path fill-rule="evenodd" clip-rule="evenodd" d="M257.094 158.609C256.384 158.402 249.07 154.907 253.817 142.517L257.094 158.609Z" fill="#99A18E" fill-opacity="0.12"/>
<path fill-rule="evenodd" clip-rule="evenodd" d="M255.313 158.28C256.064 158.861 256.711 159.154 256.961 159.227L257.227 158.003C257.122 157.972 256.589 157.75 255.918 157.23C255.255 156.718 254.483 155.935 253.871 154.802C252.666 152.573 251.996 148.831 254.316 142.778L253.32 142.265C250.892 148.603 251.506 152.804 252.948 155.472C253.659 156.788 254.552 157.692 255.313 158.28Z" fill="#99A18E" fill-opacity="0.12"/>
<path fill-rule="evenodd" clip-rule="evenodd" d="M288.612 116.435C287.236 117.576 269.998 125.432 258.239 97.2125L288.612 116.435Z" fill="#99A18E" fill-opacity="0.12"/>
<path fill-rule="evenodd" clip-rule="evenodd" d="M287.758 118.229C288.407 117.951 288.933 117.658 289.222 117.419L288.002 115.442L288.002 115.441C288.002 115.441 287.996 115.446 287.984 115.455C287.97 115.465 287.951 115.478 287.926 115.494C287.875 115.527 287.807 115.568 287.721 115.616C287.549 115.711 287.317 115.826 287.029 115.95C286.455 116.196 285.676 116.469 284.736 116.684C282.854 117.114 280.346 117.311 277.53 116.638C271.955 115.307 264.948 110.513 259.183 96.6794L257.294 97.7367C263.289 112.122 270.78 117.509 277.107 119.02C280.243 119.768 283.037 119.551 285.142 119.069C286.195 118.828 287.081 118.52 287.758 118.229Z" fill="#99A18E" fill-opacity="0.12"/>
<path fill-rule="evenodd" clip-rule="evenodd" d="M253.467 170.365C253.949 169.359 256.317 170.463 272.811 170.984L253.467 170.365Z" fill="#99A18E" fill-opacity="0.12"/>
<path fill-rule="evenodd" clip-rule="evenodd" d="M254.296 168.071C253.706 168.103 252.615 168.237 252.037 169.446L254.897 171.285C254.687 171.725 254.368 171.849 254.281 171.874C254.309 171.869 254.363 171.862 254.45 171.858C254.88 171.834 255.624 171.882 257.023 171.993C257.204 172.007 257.394 172.022 257.593 172.038C260.389 172.262 265.036 172.635 272.766 172.879L272.855 169.089C265.193 168.847 260.598 168.479 257.817 168.256C257.618 168.24 257.427 168.225 257.246 168.211C255.931 168.106 254.961 168.034 254.296 168.071ZM254.259 171.879C254.259 171.88 254.267 171.878 254.281 171.874C254.265 171.877 254.258 171.879 254.259 171.879Z" fill="#99A18E" fill-opacity="0.12"/>
<path fill-rule="evenodd" clip-rule="evenodd" d="M257.094 158.609C256.384 158.402 256.615 156.237 253.818 142.517L257.094 158.609Z" fill="#99A18E" fill-opacity="0.12"/>
<path fill-rule="evenodd" clip-rule="evenodd" d="M256.157 158.133C256.283 158.595 256.479 159.086 256.962 159.227L257.227 158.003C257.267 158.014 257.291 158.036 257.3 158.048C257.287 158.026 257.249 157.949 257.195 157.752C257.085 157.349 256.967 156.673 256.774 155.516C256.748 155.363 256.721 155.203 256.693 155.034C256.303 152.686 255.655 148.79 254.348 142.376L253.288 142.667C254.59 149.055 255.235 152.931 255.624 155.273C255.652 155.442 255.679 155.603 255.704 155.756C255.892 156.881 256.023 157.643 256.157 158.133ZM257.305 158.055C257.305 158.055 257.304 158.052 257.3 158.048C257.304 158.053 257.305 158.055 257.305 158.055Z" fill="#99A18E" fill-opacity="0.12"/>
<path fill-rule="evenodd" clip-rule="evenodd" d="M288.612 116.437C287.235 117.577 284.287 113.87 259.227 99.078L288.612 116.437Z" fill="#99A18E" fill-opacity="0.12"/>
<path fill-rule="evenodd" clip-rule="evenodd" d="M286.559 117.41C287.445 117.84 288.385 118.122 289.222 117.428L288.002 115.45C288.026 115.431 288.048 115.42 288.063 115.415C287.999 115.413 287.805 115.379 287.369 115.167C286.577 114.783 285.359 114.007 283.315 112.675C283.045 112.499 282.761 112.314 282.464 112.12C278.308 109.408 271.414 104.91 259.703 97.9977L258.751 100.164C270.424 107.054 277.288 111.533 281.435 114.239C281.733 114.433 282.016 114.618 282.287 114.795C284.284 116.096 285.628 116.958 286.559 117.41ZM288.09 115.412C288.089 115.411 288.079 115.411 288.063 115.415C288.083 115.416 288.091 115.414 288.09 115.412Z" fill="#99A18E" fill-opacity="0.12"/>
<path fill-rule="evenodd" clip-rule="evenodd" d="M282.616 113.609C279.66 104.979 279.078 101.875 278.466 100.174L282.616 113.609Z" fill="#99A18E" fill-opacity="0.12"/>
<path fill-rule="evenodd" clip-rule="evenodd" d="M278.667 104.676C279.264 106.765 280.155 109.721 281.641 114.059L283.591 113.162C282.121 108.869 281.244 105.957 280.658 103.911C280.476 103.273 280.318 102.705 280.177 102.199C279.879 101.123 279.656 100.322 279.434 99.7061L277.498 100.643C277.685 101.163 277.865 101.812 278.139 102.799C278.284 103.32 278.455 103.936 278.667 104.676Z" fill="#99A18E" fill-opacity="0.12"/>
<path fill-rule="evenodd" clip-rule="evenodd" d="M276.586 109.383C274.078 101.994 273.647 99.3074 273.123 97.8539L276.586 109.383Z" fill="#99A18E" fill-opacity="0.12"/>
<path fill-rule="evenodd" clip-rule="evenodd" d="M273.161 101.741C273.654 103.542 274.396 106.085 275.658 109.805L277.513 108.959C276.268 105.29 275.541 102.796 275.06 101.043C274.914 100.507 274.787 100.026 274.672 99.5927C274.425 98.6568 274.237 97.9475 274.043 97.4081L272.204 98.2981C272.36 98.7305 272.502 99.2703 272.723 100.107C272.842 100.556 272.983 101.091 273.161 101.741Z" fill="#99A18E" fill-opacity="0.12"/>
<path fill-rule="evenodd" clip-rule="evenodd" d="M270.036 105.629C268.259 100.267 268.075 98.263 267.696 97.2118L270.036 105.629Z" fill="#99A18E" fill-opacity="0.12"/>
<path fill-rule="evenodd" clip-rule="evenodd" d="M267.448 100.096C267.771 101.429 268.27 103.302 269.169 106.016L270.903 105.244C270.025 102.597 269.544 100.787 269.236 99.5147C269.132 99.0888 269.051 98.7322 268.977 98.4126C268.939 98.2451 268.903 98.0878 268.867 97.9359C268.769 97.5171 268.673 97.1333 268.552 96.7987L266.839 97.628C266.908 97.819 266.977 98.0799 267.076 98.5C267.107 98.6311 267.14 98.7783 267.177 98.9402C267.253 99.2689 267.342 99.6581 267.448 100.096Z" fill="#99A18E" fill-opacity="0.12"/>
<path fill-rule="evenodd" clip-rule="evenodd" d="M253.467 170.368C253.949 169.362 260.979 183.231 272.811 170.986L253.467 170.368Z" fill="#99A18E" fill-opacity="0.12"/>
<path fill-rule="evenodd" clip-rule="evenodd" d="M253.348 168.431C252.751 168.509 252.287 168.925 252.037 169.447L254.897 171.286C254.678 171.745 254.256 172.127 253.715 172.198C253.305 172.252 253.013 172.098 252.947 172.062C252.861 172.016 252.81 171.974 252.81 171.974C252.81 171.974 252.834 171.994 252.888 172.047C253.02 172.177 253.158 172.328 253.342 172.53C253.496 172.698 253.682 172.902 253.924 173.158C254.878 174.171 256.314 175.577 258.182 176.603C260.07 177.64 262.408 178.294 265.126 177.784C267.833 177.276 270.768 175.641 273.9 172.399L271.721 169.572C268.938 172.453 266.556 173.675 264.603 174.042C262.659 174.407 260.992 173.952 259.583 173.178C258.154 172.393 257.003 171.285 256.134 170.363C255.99 170.21 255.835 170.042 255.682 169.876C255.432 169.604 255.189 169.339 255.014 169.166C254.884 169.037 254.627 168.787 254.32 168.622C254.173 168.543 253.813 168.37 253.348 168.431Z" fill="#99A18E" fill-opacity="0.12"/>
<path fill-rule="evenodd" clip-rule="evenodd" d="M257.094 158.609C256.384 158.402 263.586 149.975 253.818 142.517L257.094 158.609Z" fill="#99A18E" fill-opacity="0.12"/>
<path fill-rule="evenodd" clip-rule="evenodd" d="M256.542 158.801C256.619 159.029 256.783 159.175 256.961 159.227L257.227 158.003C257.361 158.042 257.495 158.158 257.557 158.342C257.602 158.475 257.585 158.579 257.584 158.59C257.584 158.59 257.584 158.591 257.584 158.591C257.583 158.594 257.583 158.596 257.583 158.596C257.584 158.596 257.595 158.554 257.64 158.443C257.701 158.298 257.779 158.13 257.878 157.919C257.953 157.758 258.04 157.572 258.138 157.354C258.57 156.399 259.128 155.027 259.388 153.402C259.649 151.769 259.611 149.877 258.848 147.896C258.086 145.92 256.624 143.909 254.117 141.995L253.518 143.049C255.895 144.864 257.196 146.703 257.853 148.411C258.51 150.115 258.546 151.74 258.317 153.172C258.086 154.613 257.587 155.853 257.173 156.769C257.095 156.942 257.016 157.113 256.941 157.273C256.829 157.514 256.727 157.731 256.659 157.896C256.604 158.028 256.537 158.203 256.511 158.373C256.498 158.455 256.481 158.62 256.542 158.801Z" fill="#99A18E" fill-opacity="0.12"/>
<path fill-rule="evenodd" clip-rule="evenodd" d="M288.613 116.438C287.236 117.579 286.064 89.7794 260.114 98.5938L288.613 116.438Z" fill="#99A18E" fill-opacity="0.12"/>
<path fill-rule="evenodd" clip-rule="evenodd" d="M288.114 117.599C288.523 117.777 288.929 117.669 289.222 117.426L288.002 115.448C288.209 115.277 288.53 115.183 288.852 115.323C288.977 115.378 289.061 115.451 289.107 115.498C289.154 115.545 289.179 115.583 289.187 115.595C289.188 115.596 289.188 115.595 289.185 115.591C289.175 115.567 289.124 115.459 289.033 115.193C288.916 114.846 288.792 114.423 288.64 113.902C288.52 113.493 288.382 113.024 288.216 112.483C287.495 110.135 286.366 106.906 284.416 103.906C282.456 100.892 279.661 98.0995 275.629 96.6609C271.605 95.225 266.45 95.1737 259.818 97.4261L260.409 99.7592C266.752 97.6044 271.475 97.7226 275.012 98.9845C278.541 100.244 280.99 102.677 282.74 105.369C284.499 108.074 285.543 111.03 286.239 113.298C286.376 113.743 286.506 114.184 286.626 114.594C286.798 115.178 286.951 115.699 287.08 116.08C287.186 116.395 287.327 116.774 287.514 117.061C287.603 117.198 287.795 117.46 288.114 117.599Z" fill="#99A18E" fill-opacity="0.12"/>
<path fill-rule="evenodd" clip-rule="evenodd" d="M249.12 168.626C249.21 170.873 242.282 203.252 216.391 190.588L249.12 168.626Z" fill="#99A18E" fill-opacity="0.12"/>
<path fill-rule="evenodd" clip-rule="evenodd" d="M250.941 169.751C250.994 169.385 251.05 168.921 251.034 168.523L247.207 168.727C247.205 168.691 247.205 168.671 247.205 168.671C247.203 168.671 247.198 168.77 247.163 169.011C247.121 169.301 247.049 169.701 246.943 170.196C246.73 171.185 246.389 172.499 245.896 173.992C244.905 176.991 243.335 180.613 241.036 183.764C238.745 186.903 235.775 189.518 231.959 190.665C228.155 191.809 223.302 191.557 217.136 188.541L215.646 192.631C222.426 195.948 228.148 196.398 232.921 194.962C237.684 193.53 241.295 190.284 243.961 186.631C246.619 182.989 248.381 178.887 249.474 175.578C250.022 173.918 250.41 172.433 250.66 171.27C250.785 170.69 250.879 170.176 250.941 169.751Z" fill="#99A18E" fill-opacity="0.12"/>
<path fill-rule="evenodd" clip-rule="evenodd" d="M251.224 168.358C252.298 169.136 264.533 188.507 248.434 209.27L251.224 168.358Z" fill="#99A18E" fill-opacity="0.12"/>
<path fill-rule="evenodd" clip-rule="evenodd" d="M252.138 168.112C251.995 167.924 251.818 167.709 251.643 167.582L250.805 169.135C250.796 169.128 250.791 169.125 250.791 169.125C250.79 169.127 250.841 169.177 250.955 169.325C251.079 169.488 251.242 169.723 251.435 170.028C251.818 170.638 252.303 171.504 252.81 172.594C253.825 174.776 254.919 177.828 255.492 181.484C256.632 188.76 255.722 198.502 247.847 208.659L249.022 209.883C257.246 199.277 258.268 188.952 257.047 181.157C256.439 177.278 255.279 174.044 254.201 171.725C253.661 170.566 253.139 169.629 252.711 168.949C252.497 168.61 252.303 168.328 252.138 168.112Z" fill="#99A18E" fill-opacity="0.12"/>
<path fill-rule="evenodd" clip-rule="evenodd" d="M258.449 161.485C257.722 162.688 240.396 175.845 223.334 156.142L258.449 161.485Z" fill="#99A18E" fill-opacity="0.12"/>
<path fill-rule="evenodd" clip-rule="evenodd" d="M259.169 163.369C259.336 163.215 259.625 162.939 259.826 162.608L257.072 160.374C257.134 160.272 257.183 160.217 257.183 160.217C257.183 160.217 257.153 160.251 257.076 160.322C256.955 160.433 256.768 160.591 256.512 160.784C256.003 161.17 255.266 161.663 254.335 162.175C252.471 163.199 249.874 164.27 246.803 164.728C240.728 165.633 232.659 164.167 224.52 154.769L222.148 157.527C231.071 167.832 240.196 169.639 247.231 168.591C250.715 168.072 253.652 166.86 255.775 165.694C256.836 165.111 257.706 164.532 258.35 164.045C258.671 163.802 258.947 163.573 259.169 163.369Z" fill="#99A18E" fill-opacity="0.12"/>
<path fill-rule="evenodd" clip-rule="evenodd" d="M249.12 168.625C249.21 170.871 244.293 171.85 216.391 190.586L249.12 168.625Z" fill="#99A18E" fill-opacity="0.12"/>
<path fill-rule="evenodd" clip-rule="evenodd" d="M249.049 172.207C249.974 171.474 251.107 170.369 251.034 168.527L247.207 168.732C247.193 168.382 247.316 168.17 247.35 168.121C247.319 168.158 247.198 168.295 246.887 168.542C246.116 169.152 244.757 170.002 242.361 171.462C242.046 171.654 241.716 171.855 241.369 172.066C236.524 175.014 228.483 179.906 215.431 188.671L217.351 192.512C230.335 183.793 238.323 178.934 243.152 175.995C243.499 175.784 243.829 175.583 244.144 175.392C246.454 173.984 248.051 172.997 249.049 172.207ZM247.358 168.11C247.357 168.11 247.355 168.114 247.35 168.121C247.356 168.113 247.358 168.11 247.358 168.11Z" fill="#99A18E" fill-opacity="0.12"/>
<path fill-rule="evenodd" clip-rule="evenodd" d="M251.223 168.358C252.298 169.136 250.806 174.386 248.434 209.27L251.223 168.358Z" fill="#99A18E" fill-opacity="0.12"/>
<path fill-rule="evenodd" clip-rule="evenodd" d="M252.279 168.699C252.194 168.274 252.016 167.85 251.642 167.58L250.805 169.132C250.741 169.086 250.72 169.035 250.72 169.035C250.72 169.035 250.728 169.056 250.74 169.114C250.774 169.282 250.797 169.592 250.785 170.147C250.76 171.248 250.605 173.023 250.336 175.925C250.3 176.31 250.262 176.715 250.223 177.139C249.67 183.071 248.754 192.906 247.647 209.196L249.222 209.34C250.327 193.076 251.242 183.262 251.794 177.335C251.833 176.91 251.871 176.506 251.907 176.12C252.173 173.252 252.338 171.388 252.364 170.195C252.378 169.604 252.36 169.103 252.279 168.699Z" fill="#99A18E" fill-opacity="0.12"/>
<path fill-rule="evenodd" clip-rule="evenodd" d="M258.449 161.488C257.722 162.692 253.275 160.693 223.334 156.145L258.449 161.488Z" fill="#99A18E" fill-opacity="0.12"/>
<path fill-rule="evenodd" clip-rule="evenodd" d="M258.254 163.702C258.761 163.597 259.391 163.318 259.825 162.599L257.072 160.365C257.325 159.947 257.656 159.869 257.664 159.868C257.665 159.868 257.652 159.87 257.622 159.873C257.591 159.876 257.549 159.878 257.491 159.879C257.373 159.88 257.212 159.873 256.996 159.853C256.094 159.772 254.615 159.509 252.112 159.045C251.782 158.983 251.435 158.919 251.071 158.851C245.984 157.905 237.546 156.334 223.552 154.209L223.115 158.07C237.061 160.189 245.463 161.752 250.539 162.697C250.903 162.765 251.25 162.829 251.581 162.89C254.023 163.344 255.663 163.639 256.735 163.736C257.261 163.784 257.786 163.799 258.254 163.702Z" fill="#99A18E" fill-opacity="0.12"/>
<path fill-rule="evenodd" clip-rule="evenodd" d="M249.12 168.625C232.834 192.169 233.667 185.866 216.391 190.586L249.12 168.625Z" fill="#99A18E" fill-opacity="0.12"/>
<path fill-rule="evenodd" clip-rule="evenodd" d="M233.874 188.708C238.378 186.497 242.525 181.708 250.615 170.013L247.625 167.236C239.429 179.085 235.849 182.917 232.379 184.62C230.641 185.474 228.846 185.834 226.226 186.278C226.002 186.315 225.773 186.354 225.539 186.393C223.058 186.809 219.982 187.324 215.951 188.425L216.83 192.746C220.692 191.691 223.62 191.2 226.092 190.786C226.325 190.747 226.554 190.709 226.779 190.671C229.371 190.232 231.625 189.812 233.874 188.708Z" fill="#99A18E" fill-opacity="0.12"/>
<path fill-rule="evenodd" clip-rule="evenodd" d="M249.12 168.625C238.021 178.802 229.014 165.552 216.391 190.586L249.12 168.625Z" fill="#99A18E" fill-opacity="0.12"/>
<path fill-rule="evenodd" clip-rule="evenodd" d="M236.976 175.721C240.985 175.232 245.615 174.666 250.309 170.363L247.931 166.881C244.184 170.317 240.956 170.722 237.173 171.197C235.859 171.362 234.479 171.535 232.988 171.847C230.164 172.436 227.207 173.553 224.117 176.249C221.059 178.917 217.975 183.042 214.737 189.463L218.045 191.703C221.119 185.607 223.894 182.001 226.422 179.795C228.918 177.617 231.274 176.715 233.667 176.216C234.709 175.998 235.817 175.863 236.976 175.721Z" fill="#99A18E" fill-opacity="0.12"/>
<path fill-rule="evenodd" clip-rule="evenodd" d="M249.12 168.625C249.21 170.871 217.959 158.977 216.391 190.586L249.12 168.625Z" fill="#99A18E" fill-opacity="0.12"/>
<path fill-rule="evenodd" clip-rule="evenodd" d="M250.112 170.631C250.611 170.24 251.073 169.504 251.034 168.519L247.207 168.724C247.173 167.88 247.579 167.257 247.965 166.955C248.121 166.832 248.257 166.772 248.327 166.745C248.402 166.716 248.452 166.705 248.465 166.703C248.469 166.702 248.47 166.702 248.47 166.702C248.47 166.702 248.431 166.707 248.337 166.709C248.23 166.711 248.086 166.708 247.898 166.697C247.368 166.667 246.695 166.592 245.851 166.499C245.424 166.451 244.953 166.399 244.435 166.345C241.463 166.037 237.34 165.728 233.12 166.392C228.901 167.056 224.422 168.716 220.881 172.501C217.298 176.329 214.893 182.096 214.479 190.456L218.303 190.711C218.673 183.266 220.762 178.667 223.478 175.765C226.234 172.819 229.856 171.386 233.635 170.791C237.412 170.197 241.183 170.465 244.094 170.767C244.528 170.812 244.954 170.859 245.362 170.905C246.27 171.005 247.089 171.096 247.71 171.131C248.142 171.156 248.657 171.168 249.104 171.08C249.311 171.04 249.717 170.941 250.112 170.631Z" fill="#99A18E" fill-opacity="0.12"/>
<path fill-rule="evenodd" clip-rule="evenodd" d="M251.223 168.358C252.298 169.136 234.435 195.507 248.434 209.27L251.223 168.358Z" fill="#99A18E" fill-opacity="0.12"/>
<path fill-rule="evenodd" clip-rule="evenodd" d="M252.06 168.528C252.064 168.351 252.04 167.867 251.642 167.578L250.804 169.131C250.473 168.891 250.48 168.505 250.48 168.475C250.481 168.447 250.483 168.431 250.483 168.431C250.483 168.431 250.48 168.453 250.465 168.503C250.417 168.673 250.31 168.951 250.132 169.359C249.896 169.903 249.573 170.587 249.185 171.41C248.997 171.809 248.793 172.241 248.577 172.705C247.267 175.512 245.549 179.361 244.237 183.635C241.633 192.118 240.519 202.687 247.923 209.965L248.945 208.569C242.349 202.084 243.167 192.586 245.726 184.248C246.996 180.111 248.667 176.362 249.967 173.576C250.172 173.137 250.369 172.718 250.555 172.324C250.951 171.483 251.294 170.755 251.543 170.184C251.724 169.769 251.877 169.388 251.965 169.079C252.007 168.932 252.055 168.735 252.06 168.528Z" fill="#99A18E" fill-opacity="0.12"/>
<path fill-rule="evenodd" clip-rule="evenodd" d="M258.449 161.483C257.722 162.687 235.918 140.651 223.334 156.141L258.449 161.483Z" fill="#99A18E" fill-opacity="0.12"/>
<path fill-rule="evenodd" clip-rule="evenodd" d="M258.184 163.474C258.436 163.497 259.279 163.508 259.826 162.603L257.072 160.369C257.574 159.539 258.329 159.58 258.456 159.592C258.572 159.603 258.653 159.629 258.684 159.64C258.684 159.64 258.683 159.64 258.683 159.64C258.605 159.605 258.42 159.5 258.081 159.276C257.638 158.982 257.084 158.588 256.405 158.103C256.068 157.863 255.7 157.601 255.3 157.318C252.938 155.651 249.662 153.429 245.982 151.659C238.736 148.174 229.174 146.115 222.11 154.809L224.558 157.478C230.078 150.683 237.71 151.897 244.694 155.256C248.128 156.908 251.226 159.002 253.551 160.644C253.907 160.895 254.251 161.141 254.578 161.374C255.291 161.882 255.922 162.332 256.414 162.658C256.765 162.89 257.136 163.121 257.463 163.269C257.613 163.337 257.876 163.445 258.184 163.474ZM258.697 159.646C258.697 159.646 258.692 159.643 258.684 159.64C258.693 159.644 258.697 159.646 258.697 159.646Z" fill="#99A18E" fill-opacity="0.12"/>
<path fill-rule="evenodd" clip-rule="evenodd" d="M384.931 124.128C386.216 124.128 275.063 130.753 260.362 167.449L384.931 124.128Z" fill="#99A18E" fill-opacity="0.12"/>
<path fill-rule="evenodd" clip-rule="evenodd" d="M385.014 120.799L384.931 120.798V127.458L384.861 127.456C384.824 127.455 384.706 127.447 384.627 127.438C384.377 127.393 382.365 125.602 382.261 122.931C382.965 121.712 384.219 120.906 384.385 120.862C384.448 120.849 384.543 120.831 384.574 120.826L384.635 120.818L384.66 120.815L384.669 120.815C384.669 120.815 384.659 120.815 384.632 120.818L384.533 120.826L383.715 120.889C382.963 120.946 381.82 121.036 380.338 121.163C377.374 121.418 373.057 121.822 367.795 122.422C357.277 123.622 342.96 125.608 328.124 128.752C313.312 131.89 297.866 136.207 285.141 142.108C272.603 147.922 261.935 155.616 257.756 166.048L262.969 168.852C266.141 160.934 274.88 154.039 287.276 148.291C299.487 142.628 314.505 138.408 329.158 135.303C343.787 132.203 357.937 130.239 368.358 129.05C373.566 128.456 377.836 128.056 380.763 127.805C382.226 127.679 383.353 127.591 384.096 127.534L384.924 127.47C385.006 127.464 385.09 127.457 385.151 127.451L385.226 127.443L385.3 127.433C385.335 127.427 385.432 127.41 385.496 127.396C385.665 127.351 386.919 126.545 387.624 125.325C387.519 122.655 385.507 120.863 385.255 120.818C385.221 120.814 385.181 120.811 385.142 120.808C385.088 120.803 385.037 120.8 385.014 120.799Z" fill="#99A18E" fill-opacity="0.12"/>
<path fill-rule="evenodd" clip-rule="evenodd" d="M384.931 124.123C386.215 124.123 302.62 133.566 286.313 113.878L384.931 124.123Z" fill="#99A18E" fill-opacity="0.12"/>
<path fill-rule="evenodd" clip-rule="evenodd" d="M385.231 120.813C385.078 120.795 384.955 120.795 384.93 120.795V127.455L384.928 127.455C384.907 127.455 384.795 127.455 384.652 127.439C384.555 127.425 384.261 127.361 384.069 127.298C383.557 127.042 382.208 125.139 382.164 123.289C382.575 122.243 383.526 121.232 383.799 121.074C383.921 121.016 384.116 120.939 384.185 120.916C384.297 120.881 384.385 120.862 384.404 120.858L384.406 120.858C384.444 120.85 384.474 120.844 384.486 120.842C384.48 120.843 384.47 120.845 384.456 120.847C384.366 120.86 384.191 120.882 383.923 120.914C383.396 120.976 382.571 121.066 381.483 121.175C379.31 121.393 376.109 121.683 372.176 121.97C364.306 122.544 353.535 123.106 342.229 123.056C330.905 123.006 319.136 122.343 309.238 120.499C304.289 119.578 299.884 118.374 296.27 116.845C292.621 115.302 289.993 113.515 288.386 111.575L284.24 116.187C286.709 119.168 290.261 121.393 294.3 123.101C298.374 124.825 303.165 126.113 308.326 127.075C318.648 128.998 330.755 129.665 342.208 129.716C353.679 129.766 364.584 129.197 372.537 128.616C376.516 128.326 379.762 128.032 381.978 127.81C383.085 127.699 383.94 127.606 384.505 127.539C384.782 127.506 385.006 127.478 385.158 127.457L385.16 127.456C385.212 127.449 385.335 127.431 385.452 127.406L385.453 127.406C385.48 127.4 385.577 127.379 385.696 127.342C385.768 127.318 385.965 127.24 386.089 127.182C386.363 127.023 387.315 126.011 387.726 124.965C387.683 123.114 386.333 121.211 385.82 120.955C385.626 120.891 385.331 120.826 385.231 120.813Z" fill="#99A18E" fill-opacity="0.12"/>
<path fill-rule="evenodd" clip-rule="evenodd" d="M235.58 235.712C236.864 235.712 157.933 240.692 136.963 214.661L235.58 235.712Z" fill="#99A18E" fill-opacity="0.12"/>
<path fill-rule="evenodd" clip-rule="evenodd" d="M235.735 232.389C235.659 232.385 235.597 232.385 235.579 232.385V239.044L235.579 239.044C235.568 239.044 235.515 239.045 235.447 239.041C235.403 239.038 235.275 239.024 235.192 239.012C234.984 238.969 233.833 238.346 233.129 237.425C232.8 234.945 234.402 232.687 234.768 232.527C234.885 232.489 235.061 232.444 235.118 232.432C235.201 232.416 235.265 232.409 235.276 232.407L235.277 232.407C235.304 232.404 235.321 232.402 235.319 232.402C235.318 232.402 235.306 232.404 235.279 232.406C235.188 232.413 235.019 232.424 234.768 232.439C234.272 232.468 233.495 232.508 232.469 232.55C230.418 232.634 227.385 232.726 223.641 232.756C216.149 232.816 205.832 232.626 194.84 231.631C183.831 230.634 172.231 228.838 162.139 225.717C151.95 222.567 143.738 218.196 139.062 212.391L134.861 216.936C140.67 224.147 150.189 228.915 160.657 232.152C171.222 235.418 183.207 237.258 194.392 238.27C205.593 239.284 216.08 239.476 223.681 239.416C227.484 239.385 230.571 239.292 232.673 239.206C233.723 239.162 234.53 239.121 235.059 239.09C235.322 239.074 235.525 239.061 235.659 239.051C235.708 239.047 235.802 239.04 235.886 239.029L235.887 239.029C235.906 239.027 235.977 239.018 236.065 239.001C236.125 238.989 236.302 238.943 236.421 238.905C236.788 238.745 238.39 236.487 238.061 234.007C237.356 233.085 236.205 232.462 235.996 232.418C235.912 232.406 235.781 232.392 235.735 232.389Z" fill="#99A18E" fill-opacity="0.12"/>
<path fill-rule="evenodd" clip-rule="evenodd" d="M447.005 36.0071C448.288 36.0071 431.003 50.8638 396.434 66.1719L447.005 36.0071Z" fill="#99A18E" fill-opacity="0.12"/>
<path fill-rule="evenodd" clip-rule="evenodd" d="M448.465 33.1171C447.842 32.7097 447.261 32.6758 447.005 32.6758V39.3356C446.789 39.3356 446.239 39.3089 445.639 38.9159C444.894 38.4286 444.369 37.5682 444.233 36.5682C444.123 35.7609 444.303 35.1413 444.383 34.9014C444.478 34.6184 444.585 34.4214 444.635 34.3339C444.71 34.2022 444.774 34.1173 444.796 34.0898C444.783 34.106 444.75 34.1424 444.694 34.2013C444.399 34.5097 443.799 35.0632 442.841 35.8527C440.955 37.407 437.917 39.6841 433.737 42.4579C425.385 47.9995 412.555 55.4671 395.408 63.0602L397.46 69.2812C414.882 61.5662 427.981 53.9512 436.593 48.2374C440.894 45.3834 444.098 42.9895 446.172 41.2798C447.194 40.4372 448.004 39.7105 448.543 39.1466C448.76 38.9202 449.14 38.5117 449.422 38.0186C449.505 37.8748 449.635 37.6283 449.744 37.3028C449.838 37.0204 450.023 36.3652 449.91 35.5293C449.769 34.5007 449.231 33.6188 448.465 33.1171ZM444.804 34.0802C444.804 34.0802 444.801 34.0835 444.796 34.0898C444.802 34.0833 444.804 34.0801 444.804 34.0802Z" fill="#99A18E" fill-opacity="0.12"/>
</svg>
