<svg width="360" height="943" viewBox="0 0 360 943" fill="none" xmlns="http://www.w3.org/2000/svg">
<path fill-rule="evenodd" clip-rule="evenodd" d="M293.372 438.306C284.605 685.586 164.201 820.495 45.2415 897.431L42.1118 891.997C159.767 815.904 278.69 682.748 287.365 438.072L293.372 438.306Z" fill="#E9ECE0" fill-opacity="0.33"/>
<path fill-rule="evenodd" clip-rule="evenodd" d="M279.285 541.325C279.294 542.748 321.678 512.26 333.765 476.531L279.285 541.325Z" fill="#E9ECE0" fill-opacity="0.33"/>
<path fill-rule="evenodd" clip-rule="evenodd" d="M276.904 543.289C276.425 542.624 276.285 541.902 276.282 541.352L282.292 541.308C282.289 540.78 282.154 540.077 281.685 539.426C281.224 538.785 280.64 538.474 280.21 538.333C279.506 538.102 278.932 538.226 278.832 538.247L278.824 538.249C278.661 538.283 278.542 538.327 278.491 538.348C278.496 538.346 278.501 538.343 278.506 538.341C278.66 538.265 279.004 538.07 279.567 537.705C280.659 536.997 282.292 535.836 284.333 534.259C288.407 531.112 293.991 526.397 299.953 520.533C311.947 508.734 325.139 492.603 330.937 475.464L336.595 477.608C330.306 496.198 316.262 513.175 304.041 525.196C297.895 531.242 292.126 536.116 287.873 539.402C285.751 541.041 283.977 542.308 282.702 543.134C282.082 543.537 281.502 543.886 281.028 544.118C280.837 544.212 280.446 544.397 279.995 544.493L279.992 544.493C279.83 544.527 279.186 544.664 278.426 544.414C277.975 544.266 277.376 543.944 276.904 543.289ZM278.464 538.36C278.464 538.36 278.473 538.355 278.491 538.348C278.472 538.357 278.463 538.361 278.464 538.36Z" fill="#E9ECE0" fill-opacity="0.33"/>
<path fill-rule="evenodd" clip-rule="evenodd" d="M332.758 479.266C334.914 479.345 358.077 476.635 353.409 440.469L332.758 479.266Z" fill="#E9ECE0" fill-opacity="0.33"/>
<path fill-rule="evenodd" clip-rule="evenodd" d="M338.156 480.349C335.585 481.214 333.502 481.42 332.688 481.39L332.828 477.148C333.092 477.158 334.713 477.055 336.945 476.303C339.14 475.565 341.824 474.233 344.307 471.881C349.171 467.274 353.691 458.328 351.424 440.762L355.394 440.184C357.795 458.784 353.068 469.275 346.977 475.044C343.984 477.88 340.765 479.471 338.156 480.349Z" fill="#E9ECE0" fill-opacity="0.33"/>
<path fill-rule="evenodd" clip-rule="evenodd" d="M292.568 441.538C292.133 443.058 289.713 460.019 313.478 463.122L292.568 441.538Z" fill="#E9ECE0" fill-opacity="0.33"/>
<path fill-rule="evenodd" clip-rule="evenodd" d="M291.798 445.143C291.712 443.242 291.948 441.833 292.077 441.382L293.061 441.697C292.972 442.005 292.743 443.286 292.824 445.09C292.904 446.883 293.291 449.164 294.407 451.49C296.622 456.109 301.785 461.047 313.542 462.582L313.415 463.662C301.408 462.094 295.897 457.001 293.491 451.984C292.295 449.492 291.883 447.054 291.798 445.143Z" fill="#E9ECE0" fill-opacity="0.33"/>
<path fill-rule="evenodd" clip-rule="evenodd" d="M288.554 449.325C287.614 448.711 277.503 442.727 270.911 460.078L288.554 449.325Z" fill="#E9ECE0" fill-opacity="0.33"/>
<path fill-rule="evenodd" clip-rule="evenodd" d="M281.575 446.144C285.661 445.442 288.871 447.364 289.469 447.755L287.64 450.892C287.298 450.669 284.982 449.292 282.13 449.782C279.45 450.242 275.675 452.472 272.525 460.764L269.297 459.39C272.739 450.33 277.315 446.876 281.575 446.144Z" fill="#E9ECE0" fill-opacity="0.33"/>
<path fill-rule="evenodd" clip-rule="evenodd" d="M332.758 479.265C334.914 479.344 335.791 473.544 353.41 440.469L332.758 479.265Z" fill="#E9ECE0" fill-opacity="0.33"/>
<path fill-rule="evenodd" clip-rule="evenodd" d="M336.084 479.066C335.394 480.161 334.383 481.45 332.688 481.388L332.829 477.145C332.546 477.135 332.373 477.254 332.33 477.289C332.367 477.253 332.503 477.104 332.75 476.712C333.331 475.79 334.133 474.171 335.502 471.336C335.682 470.963 335.87 470.571 336.068 470.16C338.834 464.421 343.425 454.897 351.665 439.428L355.155 441.512C346.955 456.905 342.394 466.369 339.636 472.09C339.438 472.501 339.249 472.893 339.069 473.266C337.747 476.005 336.824 477.889 336.084 479.066ZM332.319 477.299C332.319 477.299 332.323 477.295 332.33 477.289C332.322 477.296 332.319 477.299 332.319 477.299Z" fill="#E9ECE0" fill-opacity="0.33"/>
<path fill-rule="evenodd" clip-rule="evenodd" d="M292.568 441.538C292.133 443.058 295.654 444.712 313.478 463.121L292.568 441.538Z" fill="#E9ECE0" fill-opacity="0.33"/>
<path fill-rule="evenodd" clip-rule="evenodd" d="M292.76 443.323C292.204 442.656 291.882 442.061 292.076 441.38L293.06 441.695C293.037 441.774 292.992 441.956 293.53 442.602C294.053 443.229 294.982 444.129 296.519 445.59C296.723 445.785 296.938 445.989 297.163 446.203C300.305 449.187 305.513 454.134 313.836 462.73L313.119 463.51C304.811 454.929 299.615 449.993 296.477 447.012C296.251 446.799 296.037 446.595 295.832 446.4C294.315 444.957 293.332 444.008 292.76 443.323Z" fill="#E9ECE0" fill-opacity="0.33"/>
<path fill-rule="evenodd" clip-rule="evenodd" d="M288.554 449.328C287.614 448.713 285.834 451.058 270.069 461.041L288.554 449.328Z" fill="#E9ECE0" fill-opacity="0.33"/>
<path fill-rule="evenodd" clip-rule="evenodd" d="M286.708 447.843C287.295 447.532 288.38 447.043 289.47 447.755L287.641 450.892C288.022 451.141 288.362 451.076 288.449 451.051C288.42 451.062 288.361 451.088 288.266 451.138C287.832 451.369 287.128 451.844 285.825 452.748C285.655 452.866 285.477 452.989 285.291 453.119C282.682 454.932 278.348 457.943 270.962 462.621L269.177 459.457C276.502 454.819 280.79 451.84 283.385 450.036C283.571 449.907 283.749 449.783 283.919 449.665C285.148 448.812 286.051 448.192 286.708 447.843ZM288.471 451.043C288.471 451.044 288.463 451.047 288.449 451.051C288.464 451.045 288.471 451.043 288.471 451.043Z" fill="#E9ECE0" fill-opacity="0.33"/>
<path fill-rule="evenodd" clip-rule="evenodd" d="M332.758 479.265C334.914 479.344 320.496 451.305 353.41 440.469L332.758 479.265Z" fill="#E9ECE0" fill-opacity="0.33"/>
<path fill-rule="evenodd" clip-rule="evenodd" d="M334.505 480.48C334.041 481.121 333.348 481.409 332.689 481.385L332.83 477.143C332.305 477.123 331.715 477.361 331.325 477.9C331.037 478.298 330.999 478.673 330.993 478.731L330.993 478.733C330.989 478.769 330.989 478.79 330.988 478.79C330.986 478.791 330.982 478.687 330.94 478.417C330.873 477.997 330.773 477.509 330.646 476.891C330.547 476.41 330.431 475.85 330.303 475.183C329.755 472.323 329.138 468.243 329.557 463.752C329.978 459.232 331.451 454.284 335.071 449.744C338.684 445.214 344.315 441.241 352.817 438.442L354.004 442.496C346.049 445.115 341.14 448.71 338.132 452.482C335.131 456.244 333.902 460.332 333.545 464.166C333.184 468.03 333.71 471.622 334.231 474.335C334.326 474.834 334.429 475.339 334.527 475.817C334.677 476.549 334.814 477.218 334.892 477.711C334.953 478.1 335.031 478.662 334.977 479.187C334.951 479.441 334.87 479.975 334.505 480.48Z" fill="#E9ECE0" fill-opacity="0.33"/>
<path fill-rule="evenodd" clip-rule="evenodd" d="M292.568 441.538C292.133 443.058 312.487 437.78 313.478 463.121L292.568 441.538Z" fill="#E9ECE0" fill-opacity="0.33"/>
<path fill-rule="evenodd" clip-rule="evenodd" d="M292.18 441.996C292.044 441.81 292.018 441.583 292.076 441.382L293.059 441.697C293.09 441.59 293.077 441.446 292.993 441.33C292.945 441.264 292.898 441.242 292.897 441.242C292.897 441.242 292.899 441.244 292.904 441.246C292.957 441.267 293.09 441.296 293.348 441.322C293.641 441.35 294.004 441.368 294.444 441.388C294.768 441.404 295.133 441.421 295.542 441.446C297.423 441.562 300.017 441.841 302.668 442.888C305.325 443.938 308.041 445.762 310.152 448.961C312.261 452.158 313.74 456.687 313.99 463.1L312.964 463.146C312.719 456.888 311.282 452.574 309.31 449.585C307.34 446.599 304.809 444.896 302.308 443.908C299.8 442.917 297.326 442.646 295.482 442.532C295.114 442.51 294.763 442.493 294.439 442.478C293.972 442.455 293.563 442.436 293.253 442.405C292.995 442.38 292.734 442.342 292.535 442.262C292.438 442.222 292.29 442.147 292.18 441.996Z" fill="#E9ECE0" fill-opacity="0.33"/>
<path fill-rule="evenodd" clip-rule="evenodd" d="M288.554 449.326C287.615 448.712 285.937 465.077 268.699 461.049L288.554 449.326Z" fill="#E9ECE0" fill-opacity="0.33"/>
<path fill-rule="evenodd" clip-rule="evenodd" d="M287.837 447.599C288.374 447.379 288.975 447.434 289.47 447.758L287.641 450.894C288.077 451.18 288.618 451.23 289.092 451.035C289.456 450.886 289.65 450.646 289.694 450.591C289.745 450.528 289.771 450.482 289.771 450.482C289.771 450.483 289.752 450.517 289.714 450.603C289.626 450.8 289.537 451.029 289.418 451.335C289.327 451.569 289.219 451.846 289.081 452.188C288.499 453.63 287.587 455.676 286.09 457.629C284.582 459.596 282.472 461.479 279.514 462.571C276.558 463.662 272.886 463.915 268.324 462.849L269.076 459.25C273.133 460.198 276.135 459.916 278.371 459.091C280.605 458.266 282.205 456.851 283.389 455.307C284.584 453.749 285.345 452.07 285.881 450.742C285.968 450.525 286.058 450.295 286.146 450.07C286.3 449.676 286.448 449.298 286.566 449.034C286.652 448.84 286.809 448.498 287.04 448.21C287.152 448.07 287.411 447.774 287.837 447.599Z" fill="#E9ECE0" fill-opacity="0.33"/>
<path fill-rule="evenodd" clip-rule="evenodd" d="M217.821 771.171C220.029 773.207 259.558 792.261 270.931 748.992L217.821 771.171Z" fill="#E9ECE0" fill-opacity="0.33"/>
<path fill-rule="evenodd" clip-rule="evenodd" d="M217.905 773.178C217.486 772.934 217.072 772.668 216.798 772.415L218.842 769.931C218.839 769.929 218.837 769.927 218.837 769.927C218.838 769.927 218.875 769.958 218.971 770.023C219.075 770.094 219.219 770.184 219.405 770.292C219.777 770.509 220.283 770.778 220.912 771.08C222.169 771.684 223.88 772.403 225.918 773.081C230.001 774.441 235.324 775.616 240.889 775.428C246.443 775.241 252.185 773.7 257.207 769.687C262.222 765.679 266.661 759.095 269.431 748.554L272.427 749.434C269.512 760.528 264.744 767.788 259.079 772.314C253.423 776.834 247.011 778.516 240.986 778.719C234.971 778.922 229.287 777.656 224.982 776.222C222.826 775.504 220.997 774.738 219.626 774.079C218.941 773.75 218.36 773.443 217.905 773.178Z" fill="#E9ECE0" fill-opacity="0.33"/>
<path fill-rule="evenodd" clip-rule="evenodd" d="M286.362 438.206C288.557 436.148 311.55 397.06 272.486 379.546L286.362 438.206Z" fill="#E9ECE0" fill-opacity="0.33"/>
<path fill-rule="evenodd" clip-rule="evenodd" d="M288.17 438.313C287.887 438.722 287.59 439.114 287.326 439.361L285.399 437.056C285.397 437.058 285.397 437.058 285.4 437.055C285.409 437.045 285.445 437.006 285.513 436.92C285.594 436.817 285.699 436.676 285.826 436.493C286.078 436.128 286.398 435.628 286.764 435.003C287.495 433.756 288.393 432.047 289.295 429.99C291.104 425.866 292.901 420.412 293.45 414.524C293.998 408.648 293.299 402.393 290.179 396.575C287.063 390.766 281.452 385.241 271.919 380.967L273.054 378.13C283.053 382.613 289.216 388.543 292.708 395.052C296.194 401.554 296.935 408.483 296.343 414.825C295.753 421.156 293.832 426.954 291.932 431.286C290.981 433.456 290.027 435.275 289.234 436.628C288.837 437.303 288.476 437.871 288.17 438.313Z" fill="#E9ECE0" fill-opacity="0.33"/>
<path fill-rule="evenodd" clip-rule="evenodd" d="M288.321 440.883C290.178 441.366 321.339 435.798 323.826 397.375L288.321 440.883Z" fill="#E9ECE0" fill-opacity="0.33"/>
<path fill-rule="evenodd" clip-rule="evenodd" d="M289.12 442.847C288.8 442.87 288.305 442.893 287.879 442.782L288.761 438.989C288.672 438.965 288.616 438.96 288.616 438.959C288.616 438.958 288.692 438.963 288.875 438.95C289.132 438.931 289.503 438.887 289.978 438.804C290.925 438.638 292.222 438.331 293.759 437.828C296.832 436.822 300.8 435.051 304.785 432.118C312.699 426.293 320.784 415.816 321.986 397.246L325.665 397.51C324.38 417.363 315.641 428.882 306.888 435.325C302.54 438.526 298.214 440.458 294.845 441.561C293.16 442.112 291.699 442.461 290.576 442.658C290.017 442.756 289.525 442.818 289.12 442.847Z" fill="#E9ECE0" fill-opacity="0.33"/>
<path fill-rule="evenodd" clip-rule="evenodd" d="M289.467 449.816C289.828 447.827 283.917 415.314 247.567 414.698L289.467 449.816Z" fill="#E9ECE0" fill-opacity="0.33"/>
<path fill-rule="evenodd" clip-rule="evenodd" d="M290.085 449.034C290.118 449.379 290.131 449.711 290.089 449.942L288.845 449.689C288.845 449.69 288.845 449.69 288.845 449.688C288.846 449.68 288.849 449.639 288.848 449.552C288.847 449.456 288.84 449.327 288.825 449.166C288.795 448.844 288.735 448.414 288.639 447.889C288.447 446.84 288.111 445.433 287.584 443.792C286.53 440.508 284.718 436.304 281.776 432.144C275.909 423.845 265.522 415.673 247.556 415.368L247.577 414.027C265.961 414.339 276.705 422.731 282.79 431.339C285.826 435.632 287.695 439.968 288.784 443.359C289.328 445.055 289.679 446.52 289.883 447.632C289.985 448.188 290.051 448.66 290.085 449.034Z" fill="#E9ECE0" fill-opacity="0.33"/>
<path fill-rule="evenodd" clip-rule="evenodd" d="M237.123 534.845C234.26 534.184 196.214 511.958 222.26 476.46L237.123 534.845Z" fill="#E9ECE0" fill-opacity="0.33"/>
<path fill-rule="evenodd" clip-rule="evenodd" d="M237.527 532.838C237.547 532.845 237.55 532.847 237.539 532.844L236.712 536.85C236.313 536.758 235.832 536.548 235.396 536.337C234.912 536.103 234.324 535.788 233.659 535.398C232.327 534.618 230.642 533.512 228.797 532.098C225.118 529.277 220.731 525.171 217.264 519.889C213.79 514.596 211.204 508.063 211.259 500.453C211.314 492.831 214.017 484.361 220.735 475.205L223.79 477.719C217.486 486.312 215.177 493.932 215.13 500.482C215.082 507.044 217.303 512.765 220.443 517.547C223.589 522.342 227.623 526.135 231.068 528.777C232.786 530.094 234.339 531.11 235.534 531.811C236.132 532.161 236.63 532.426 237.005 532.608C237.311 532.756 237.476 532.818 237.527 532.838Z" fill="#E9ECE0" fill-opacity="0.33"/>
<path fill-rule="evenodd" clip-rule="evenodd" d="M217.821 771.165C220.029 773.2 225.64 767.883 270.929 748.992L217.821 771.165Z" fill="#E9ECE0" fill-opacity="0.33"/>
<path fill-rule="evenodd" clip-rule="evenodd" d="M221.142 772.787C219.559 773.308 218.028 773.539 216.799 772.406L218.843 769.924C218.839 769.921 218.834 769.918 218.827 769.916C218.825 769.915 218.824 769.915 218.824 769.914C218.822 769.914 218.849 769.923 218.921 769.925C219.12 769.931 219.504 769.879 220.222 769.643C221.659 769.171 223.885 768.155 227.592 766.42C228.082 766.19 228.597 765.949 229.137 765.695C236.684 762.155 249.2 756.285 270.361 747.458L271.499 750.52C250.398 759.323 237.927 765.172 230.394 768.706C229.853 768.959 229.338 769.201 228.848 769.43C225.214 771.132 222.793 772.245 221.142 772.787Z" fill="#E9ECE0" fill-opacity="0.33"/>
<path fill-rule="evenodd" clip-rule="evenodd" d="M286.367 438.208C288.563 436.149 284.307 429.569 272.487 379.543L286.367 438.208Z" fill="#E9ECE0" fill-opacity="0.33"/>
<path fill-rule="evenodd" clip-rule="evenodd" d="M288.219 434.942C288.5 436.67 288.507 438.254 287.33 439.358L285.403 437.052L285.413 437.041L285.416 437.038C285.416 437.038 285.416 437.038 285.416 437.038M288.219 434.942C287.927 433.145 287.2 430.465 286.078 426.425L288.219 434.942ZM286.078 426.425C285.926 425.879 285.766 425.306 285.599 424.705L286.078 426.425ZM285.599 424.705C283.266 416.333 279.405 402.474 273.898 379.168L285.599 424.705ZM273.898 379.168L271.076 379.918L273.898 379.168ZM271.076 379.918C276.598 403.286 280.472 417.191 282.809 425.577L271.076 379.918ZM282.809 425.577C282.976 426.178 283.136 426.751 283.287 427.297L282.809 425.577ZM283.287 427.297C284.431 431.412 285.096 433.889 285.353 435.468L283.287 427.297ZM285.353 435.468C285.481 436.256 285.482 436.681 285.448 436.906L285.353 435.468ZM285.448 436.906C285.434 437.004 285.416 437.037 285.416 437.037L285.448 436.906ZM285.416 437.037C285.416 437.038 285.416 437.038 285.416 437.038L285.416 437.037Z" fill="#E9ECE0" fill-opacity="0.33"/>
<path fill-rule="evenodd" clip-rule="evenodd" d="M98.412 820.11C100.971 819.286 100.43 808.647 112.197 742.344L98.412 820.11Z" fill="#E9ECE0" fill-opacity="0.33"/>
<path fill-rule="evenodd" clip-rule="evenodd" d="M100.985 820.229C100.588 821.013 99.9714 821.774 98.9828 822.093L97.8453 818.123C97.5949 818.203 97.4865 818.354 97.4856 818.354C97.4852 818.353 97.5015 818.33 97.5322 818.269C97.663 818.011 97.8513 817.48 98.0887 816.445C98.5583 814.397 99.0847 811.019 99.9179 805.456C100.029 804.717 100.145 803.941 100.266 803.126C101.963 791.762 104.777 772.923 110.271 741.962L114.122 742.725C108.639 773.628 105.832 792.422 104.137 803.772C104.015 804.587 103.899 805.363 103.788 806.103C102.966 811.591 102.413 815.17 101.897 817.421C101.641 818.535 101.36 819.489 100.985 820.229Z" fill="#E9ECE0" fill-opacity="0.33"/>
<path fill-rule="evenodd" clip-rule="evenodd" d="M288.321 440.886C290.178 441.369 293.517 434.61 323.634 398.348L288.321 440.886Z" fill="#E9ECE0" fill-opacity="0.33"/>
<path fill-rule="evenodd" clip-rule="evenodd" d="M290.088 442.355C289.515 442.722 288.751 443.008 287.88 442.781L288.763 438.988C288.408 438.896 288.171 439.021 288.17 439.02C288.17 439.02 288.175 439.017 288.186 439.01C288.305 438.934 288.572 438.715 289.069 438.177C290.049 437.115 291.525 435.256 293.963 432.148C294.286 431.736 294.625 431.303 294.98 430.849C299.947 424.509 308.182 413.996 322.25 397.056L325.019 399.635C310.985 416.533 302.776 427.013 297.817 433.343C297.461 433.797 297.122 434.23 296.799 434.642C294.405 437.696 292.816 439.703 291.706 440.906C291.158 441.5 290.624 442.013 290.088 442.355Z" fill="#E9ECE0" fill-opacity="0.33"/>
<path fill-rule="evenodd" clip-rule="evenodd" d="M289.467 449.816C289.828 447.827 283.286 444.65 247.566 414.698L289.467 449.816Z" fill="#E9ECE0" fill-opacity="0.33"/>
<path fill-rule="evenodd" clip-rule="evenodd" d="M289.759 448.589C290.029 449.011 290.176 449.458 290.088 449.942L288.844 449.69L288.844 449.689C288.848 449.672 288.865 449.583 288.709 449.34C288.542 449.077 288.227 448.719 287.676 448.205C286.579 447.182 284.704 445.681 281.667 443.28C281.262 442.96 280.837 442.625 280.391 442.272C274.165 437.355 263.845 429.204 247.173 415.224L247.959 414.172C264.618 428.14 274.926 436.282 281.149 441.197C281.595 441.549 282.02 441.885 282.425 442.205C285.444 444.591 287.369 446.13 288.513 447.198C289.083 447.729 289.499 448.179 289.759 448.589Z" fill="#E9ECE0" fill-opacity="0.33"/>
<path fill-rule="evenodd" clip-rule="evenodd" d="M237.123 534.851C234.26 534.19 234.948 526.244 222.255 476.46L237.123 534.851Z" fill="#E9ECE0" fill-opacity="0.33"/>
<path fill-rule="evenodd" clip-rule="evenodd" d="M237.703 532.927C237.673 532.902 237.618 532.868 237.536 532.849L236.709 536.856C234.901 536.438 234.103 534.799 233.55 533.132C232.968 531.378 232.362 528.627 231.487 524.533C231.368 523.978 231.244 523.396 231.114 522.785C229.3 514.272 226.298 500.184 220.387 476.999L224.125 475.927C230.056 499.194 233.072 513.346 234.89 521.877C235.02 522.488 235.144 523.07 235.263 523.625C236.16 527.822 236.712 530.293 237.202 531.77C237.46 532.546 237.637 532.839 237.703 532.927ZM237.733 532.958C237.733 532.961 237.723 532.952 237.703 532.927C237.724 532.943 237.733 532.956 237.733 532.958Z" fill="#E9ECE0" fill-opacity="0.33"/>
<path fill-rule="evenodd" clip-rule="evenodd" d="M217.821 771.165C257.118 770.934 249.907 766.58 270.929 748.992L217.821 771.165Z" fill="#E9ECE0" fill-opacity="0.33"/>
<path fill-rule="evenodd" clip-rule="evenodd" d="M251.972 768.035C245.834 771.583 237.407 772.7 217.827 772.815L217.813 769.523C237.53 769.407 245.146 768.231 250.483 765.146C253.154 763.602 255.319 761.542 258.222 758.648C258.471 758.4 258.725 758.146 258.985 757.887C261.734 755.139 265.107 751.767 269.965 747.702L271.892 750.284C267.145 754.256 263.86 757.54 261.115 760.283C260.857 760.542 260.603 760.795 260.353 761.044C257.468 763.921 255.038 766.263 251.972 768.035Z" fill="#E9ECE0" fill-opacity="0.33"/>
<path fill-rule="evenodd" clip-rule="evenodd" d="M286.365 438.208C291.26 396.882 286.24 403.899 272.486 379.545L286.365 438.208Z" fill="#E9ECE0" fill-opacity="0.33"/>
<path fill-rule="evenodd" clip-rule="evenodd" d="M287.775 401.954C290.291 408.831 290.247 417.802 287.809 438.398L284.923 438.017C287.377 417.286 287.271 409.104 285.063 403.069C283.958 400.049 282.301 397.498 279.967 394.076C279.767 393.782 279.562 393.483 279.352 393.177C277.134 389.935 274.415 385.96 271.239 380.336L273.735 378.754C276.843 384.257 279.496 388.135 281.71 391.372C281.919 391.677 282.124 391.977 282.325 392.271C284.646 395.674 286.518 398.518 287.775 401.954Z" fill="#E9ECE0" fill-opacity="0.33"/>
<path fill-rule="evenodd" clip-rule="evenodd" d="M98.4118 820.11C119.472 775.742 112.656 780.303 112.195 742.345L98.4118 820.11Z" fill="#E9ECE0" fill-opacity="0.33"/>
<path fill-rule="evenodd" clip-rule="evenodd" d="M115.323 779.03C114.411 788.611 110.68 798.883 100.165 821.039L96.6642 819.178C107.205 796.968 110.595 787.336 111.424 778.617C111.841 774.241 111.618 770.032 111.243 764.418C111.211 763.936 111.177 763.444 111.143 762.941C110.783 757.615 110.342 751.108 110.236 742.374L114.154 742.318C114.259 750.926 114.692 757.324 115.052 762.645C115.086 763.147 115.119 763.639 115.152 764.122C115.526 769.715 115.777 774.255 115.323 779.03Z" fill="#E9ECE0" fill-opacity="0.33"/>
<path fill-rule="evenodd" clip-rule="evenodd" d="M237.123 534.85C213.843 501.305 221.453 504.835 222.257 476.46L237.123 534.85Z" fill="#E9ECE0" fill-opacity="0.33"/>
<path fill-rule="evenodd" clip-rule="evenodd" d="M222.577 503.429C223.405 509.691 226.993 516.788 238.683 533.633L235.563 536.062C223.975 519.364 219.729 511.453 218.743 504.001C218.251 500.279 218.585 496.767 219.046 492.599C219.086 492.238 219.127 491.871 219.169 491.497C219.613 487.526 220.142 482.789 220.324 476.4L224.193 476.52C224.006 483.095 223.459 487.992 223.013 491.97C222.971 492.346 222.93 492.713 222.89 493.073C222.426 497.272 222.162 500.294 222.577 503.429Z" fill="#E9ECE0" fill-opacity="0.33"/>
<path fill-rule="evenodd" clip-rule="evenodd" d="M217.821 771.164C238.615 765.982 233.55 743.36 270.929 748.991L217.821 771.164Z" fill="#E9ECE0" fill-opacity="0.33"/>
<path fill-rule="evenodd" clip-rule="evenodd" d="M235.354 761.197C231.123 765.758 226.554 770.683 218.177 772.771L217.467 769.566C224.89 767.716 228.664 763.66 232.773 759.245C234.139 757.777 235.543 756.269 237.13 754.789C240.266 751.864 243.998 749.249 249.396 747.758C254.763 746.276 261.676 745.933 271.151 747.361L270.711 750.621C261.496 749.232 255.024 749.606 250.179 750.944C245.364 752.274 242.053 754.583 239.184 757.259C237.875 758.48 236.63 759.822 235.354 761.197Z" fill="#E9ECE0" fill-opacity="0.33"/>
<path fill-rule="evenodd" clip-rule="evenodd" d="M286.367 438.205C284.214 415.686 262.348 418.1 272.488 379.542L286.367 438.205Z" fill="#E9ECE0" fill-opacity="0.33"/>
<path fill-rule="evenodd" clip-rule="evenodd" d="M279.232 418.577C282.953 423.606 286.951 429.009 287.815 438.046L284.921 438.359C284.149 430.287 280.817 425.769 277.209 420.878C276.013 419.256 274.787 417.594 273.613 415.747C271.287 412.086 269.329 407.844 268.636 402C267.947 396.188 268.522 388.895 271.09 379.13L273.891 379.954C271.39 389.467 270.895 396.331 271.522 401.614C272.144 406.866 273.885 410.657 276.026 414.026C277.007 415.569 278.107 417.056 279.232 418.577Z" fill="#E9ECE0" fill-opacity="0.33"/>
<path fill-rule="evenodd" clip-rule="evenodd" d="M98.412 820.11C106.16 792.511 88.2329 779.784 112.197 742.344L98.412 820.11Z" fill="#E9ECE0" fill-opacity="0.33"/>
<path fill-rule="evenodd" clip-rule="evenodd" d="M101.771 792.505C102.543 800.939 103.355 809.794 100.293 820.7L96.5373 819.52C99.3609 809.461 98.6495 801.636 97.8977 793.366C97.652 790.663 97.4019 787.913 97.2696 785.021C96.7317 773.268 98.3544 760.281 110.576 741.184L113.819 743.51C102.081 761.852 100.686 773.948 101.184 784.817C101.301 787.371 101.534 789.918 101.771 792.505Z" fill="#E9ECE0" fill-opacity="0.33"/>
<path fill-rule="evenodd" clip-rule="evenodd" d="M237.123 534.851C228.645 514.078 248.844 504.875 222.255 476.46L237.123 534.851Z" fill="#E9ECE0" fill-opacity="0.33"/>
<path fill-rule="evenodd" clip-rule="evenodd" d="M237.618 515.149C236.725 521.247 235.921 526.735 238.901 534.035L235.347 535.664C231.884 527.179 232.919 520.204 233.859 513.869C234.139 511.981 234.411 510.15 234.552 508.352C234.867 504.361 234.646 500.234 232.809 495.42C230.957 490.566 227.413 484.885 220.882 477.904L223.633 475.017C230.395 482.244 234.296 488.369 236.399 493.881C238.517 499.432 238.762 504.232 238.41 508.69C238.23 510.974 237.919 513.096 237.618 515.149Z" fill="#E9ECE0" fill-opacity="0.33"/>
<path fill-rule="evenodd" clip-rule="evenodd" d="M217.819 771.163C220.027 773.2 237.213 723.875 270.929 748.984L217.819 771.163Z" fill="#E9ECE0" fill-opacity="0.33"/>
<path fill-rule="evenodd" clip-rule="evenodd" d="M218.537 772.782C218.025 772.953 217.349 772.919 216.797 772.409L218.841 769.925C218.426 769.543 217.918 769.536 217.603 769.641C217.472 769.685 217.389 769.741 217.358 769.764C217.361 769.761 217.365 769.758 217.369 769.754C217.488 769.641 217.718 769.358 218.088 768.811C218.573 768.094 219.155 767.143 219.865 765.984C220.214 765.414 220.594 764.793 221.008 764.126C223.47 760.158 226.957 754.839 231.481 750.236C236.005 745.635 241.661 741.65 248.477 740.517C255.337 739.377 263.133 741.165 271.824 747.638L270.034 750.333C261.867 744.25 254.871 742.788 248.957 743.771C242.999 744.761 237.899 748.273 233.635 752.61C229.373 756.946 226.041 762.009 223.607 765.933C223.23 766.54 222.87 767.128 222.529 767.685C221.791 768.89 221.143 769.947 220.616 770.727C220.239 771.285 219.84 771.828 219.448 772.202C219.263 772.378 218.951 772.643 218.537 772.782ZM217.345 769.775C217.345 769.775 217.35 769.771 217.358 769.764C217.35 769.772 217.345 769.776 217.345 769.775Z" fill="#E9ECE0" fill-opacity="0.33"/>
<path fill-rule="evenodd" clip-rule="evenodd" d="M286.365 438.201C288.561 436.143 244.581 411.744 272.49 379.543L286.365 438.201Z" fill="#E9ECE0" fill-opacity="0.33"/>
<path fill-rule="evenodd" clip-rule="evenodd" d="M287.873 437.67C287.962 438.201 287.848 438.865 287.331 439.351L285.404 437.045C285.024 437.402 284.957 437.894 285.01 438.21C285.031 438.334 285.066 438.416 285.081 438.447C285.078 438.442 285.074 438.435 285.069 438.427C284.972 438.278 284.729 437.992 284.264 437.533C283.654 436.93 282.836 436.193 281.841 435.297C281.353 434.857 280.822 434.379 280.252 433.86C276.856 430.764 272.334 426.423 268.617 421.087C264.902 415.753 261.916 409.318 261.742 402.04C261.566 394.719 264.241 386.783 271.421 378.499L273.562 380.581C266.789 388.397 264.496 395.586 264.649 401.96C264.803 408.378 267.442 414.209 270.958 419.257C274.473 424.304 278.789 428.461 282.15 431.525C282.671 432 283.176 432.455 283.654 432.885C284.686 433.815 285.589 434.628 286.249 435.281C286.723 435.749 287.172 436.23 287.465 436.68C287.603 436.893 287.801 437.239 287.873 437.67ZM285.088 438.46C285.088 438.46 285.085 438.456 285.081 438.447C285.086 438.456 285.089 438.46 285.088 438.46Z" fill="#E9ECE0" fill-opacity="0.33"/>
<path fill-rule="evenodd" clip-rule="evenodd" d="M98.4139 820.107C100.971 819.283 79.472 758.614 114.513 741.151L98.4139 820.107ZM98.4139 820.107C100.971 819.283 134.932 788.574 112.034 740.565L98.4139 820.107Z" fill="#E9ECE0" fill-opacity="0.33"/>
<path fill-rule="evenodd" clip-rule="evenodd" d="M100.383 821.35C100.011 821.624 99.4942 821.979 98.9978 822.139L95.7371 823.19L96.6062 818.928C96.577 818.594 96.5192 818.138 96.4266 817.54C96.2449 816.368 95.9666 814.875 95.631 813.075C95.4706 812.215 95.297 811.283 95.1145 810.283C94.0013 804.18 92.6252 795.848 92.2814 786.958C91.6 769.338 94.9646 748.55 113.662 739.231L117.328 737.404L115.918 744.32C125.197 766.843 122.371 785.525 116.593 798.912C113.521 806.033 109.628 811.627 106.331 815.503C104.682 817.442 103.171 818.964 101.969 820.042C101.369 820.58 100.833 821.02 100.383 821.35ZM111.627 745.257C98.4963 754.187 95.6723 770.902 96.2864 786.781C96.5936 794.725 97.7595 802.253 98.8076 808.131L111.627 745.257ZM114.389 751.822C120.501 770.513 117.802 785.902 112.948 797.15C110.073 803.811 106.428 809.049 103.354 812.663C102.733 813.392 102.138 814.053 101.58 814.644L114.389 751.822Z" fill="#E9ECE0" fill-opacity="0.33"/>
<path fill-rule="evenodd" clip-rule="evenodd" d="M288.32 440.886C290.177 441.369 298.15 395.814 325.728 398.633L288.32 440.886Z" fill="#E9ECE0" fill-opacity="0.33"/>
<path fill-rule="evenodd" clip-rule="evenodd" d="M289.791 442.204C289.587 442.412 288.887 443.045 287.878 442.783L288.76 438.989C287.867 438.757 287.294 439.33 287.232 439.394C287.172 439.455 287.136 439.504 287.123 439.523C287.128 439.515 287.135 439.502 287.146 439.484C287.241 439.309 287.394 438.959 287.616 438.371C287.911 437.587 288.258 436.572 288.679 435.341C288.881 434.75 289.099 434.109 289.338 433.42C290.786 429.238 292.856 423.566 295.76 417.946C301.503 406.835 310.933 395.157 325.906 396.687L325.549 400.576C312.944 399.287 304.598 408.978 298.995 419.82C296.227 425.176 294.232 430.627 292.8 434.762C292.581 435.397 292.372 436.008 292.174 436.586C291.739 437.86 291.359 438.972 291.041 439.816C290.813 440.421 290.577 440.998 290.338 441.436C290.226 441.642 290.047 441.942 289.791 442.204ZM287.118 439.531C287.118 439.531 287.12 439.528 287.123 439.523C287.12 439.529 287.118 439.531 287.118 439.531Z" fill="#E9ECE0" fill-opacity="0.33"/>
<path fill-rule="evenodd" clip-rule="evenodd" d="M289.468 449.816C289.829 447.826 246.316 444.016 247.568 414.698L289.468 449.816Z" fill="#E9ECE0" fill-opacity="0.33"/>
<path fill-rule="evenodd" clip-rule="evenodd" d="M289.793 449.117C289.918 449.234 290.166 449.52 290.09 449.941L288.846 449.689C288.821 449.827 288.85 449.946 288.888 450.025C288.921 450.093 288.957 450.126 288.958 450.127L288.958 450.127C288.959 450.128 288.959 450.128 288.959 450.128C288.959 450.128 288.947 450.118 288.917 450.099C288.885 450.079 288.84 450.054 288.779 450.025C288.527 449.903 288.117 449.757 287.544 449.582C286.773 449.347 285.774 449.078 284.584 448.759C284.012 448.606 283.395 448.44 282.738 448.261C278.721 447.164 273.317 445.574 267.933 443.12C257.207 438.232 246.29 429.775 246.935 414.668L248.2 414.728C247.593 428.937 257.807 437.045 268.434 441.888C273.727 444.3 279.054 445.869 283.056 446.962C283.693 447.136 284.3 447.299 284.868 447.451C286.072 447.774 287.105 448.051 287.895 448.293C288.474 448.469 288.962 448.638 289.306 448.805C289.473 448.885 289.652 448.986 289.793 449.117Z" fill="#E9ECE0" fill-opacity="0.33"/>
<path fill-rule="evenodd" clip-rule="evenodd" d="M237.12 534.853C234.257 534.192 261.43 490.138 222.256 476.467L237.12 534.853Z" fill="#E9ECE0" fill-opacity="0.33"/>
<path fill-rule="evenodd" clip-rule="evenodd" d="M238.765 533.993C238.622 533.556 238.223 533.009 237.533 532.849L236.706 536.855C235.837 536.655 235.318 535.981 235.108 535.338C234.939 534.822 234.959 534.331 234.984 534.047C235.038 533.444 235.224 532.745 235.423 532.089C235.703 531.166 236.124 529.97 236.6 528.617C236.818 527.997 237.048 527.345 237.281 526.67C238.803 522.265 240.643 516.446 241.384 510.281C242.125 504.114 241.743 497.775 238.988 492.218C236.259 486.714 231.063 481.699 221.649 478.414L222.863 474.52C233.036 478.07 239.133 483.689 242.415 490.31C245.672 496.879 246.021 504.158 245.224 510.796C244.426 517.436 242.459 523.609 240.915 528.076C240.653 528.835 240.408 529.533 240.183 530.172C239.729 531.46 239.36 532.509 239.108 533.34C238.917 533.972 238.85 534.3 238.838 534.424C238.84 534.368 238.834 534.205 238.765 533.993ZM238.838 534.428C238.838 534.427 238.838 534.426 238.838 534.424L238.838 534.428Z" fill="#E9ECE0" fill-opacity="0.33"/>
<path fill-rule="evenodd" clip-rule="evenodd" d="M289.478 651.098C292.989 651.919 331.739 654.92 334.49 594.152L289.478 651.098Z" fill="#E9ECE0" fill-opacity="0.33"/>
<path fill-rule="evenodd" clip-rule="evenodd" d="M313.293 647.501C302.296 654.584 291.187 653.633 289.052 653.134L289.907 649.062C291.284 649.383 301.305 650.343 311.249 643.939C321.027 637.642 331.172 623.927 332.524 594.056L336.459 594.249C335.061 625.144 324.454 640.313 313.293 647.501Z" fill="#E9ECE0" fill-opacity="0.33"/>
<path fill-rule="evenodd" clip-rule="evenodd" d="M289.478 651.099C292.989 651.919 296.095 642.696 334.49 594.152L289.478 651.099Z" fill="#E9ECE0" fill-opacity="0.33"/>
<path fill-rule="evenodd" clip-rule="evenodd" d="M294.006 650.824C292.586 652.371 291.04 653.598 289.053 653.133L289.907 649.061C289.903 649.06 289.885 649.059 289.864 649.062C289.859 649.063 289.856 649.063 289.856 649.064C289.855 649.064 289.885 649.057 289.952 649.02C290.161 648.907 290.542 648.618 291.184 647.919C292.47 646.519 294.306 644.043 297.344 639.865C297.746 639.312 298.168 638.731 298.611 638.121C304.792 629.61 315.043 615.495 332.982 592.814L336.001 595.488C318.114 618.103 307.902 632.166 301.732 640.662C301.289 641.271 300.867 641.852 300.465 642.406C297.488 646.499 295.49 649.209 294.006 650.824Z" fill="#E9ECE0" fill-opacity="0.33"/>
<path fill-rule="evenodd" clip-rule="evenodd" d="M299.189 640.756C298.776 622.72 297.679 616.657 297.658 613.077L299.189 640.756Z" fill="#E9ECE0" fill-opacity="0.33"/>
<path fill-rule="evenodd" clip-rule="evenodd" d="M300.243 621.325C300.573 625.579 300.951 631.643 301.158 640.701L297.214 640.809C297.009 631.834 296.636 625.851 296.311 621.672C296.21 620.362 296.11 619.204 296.022 618.173C295.835 615.994 295.696 614.384 295.689 613.099L299.633 613.066C299.64 614.172 299.755 615.51 299.929 617.529C300.02 618.586 300.127 619.83 300.243 621.325Z" fill="#E9ECE0" fill-opacity="0.33"/>
<path fill-rule="evenodd" clip-rule="evenodd" d="M307.939 627.874C307.54 612.453 306.45 607.271 306.432 604.21L307.939 627.874Z" fill="#E9ECE0" fill-opacity="0.33"/>
<path fill-rule="evenodd" clip-rule="evenodd" d="M308.996 611.21C309.324 614.859 309.698 620.055 309.897 627.813L305.978 627.932C305.781 620.273 305.413 615.17 305.093 611.609C304.995 610.515 304.898 609.538 304.811 608.662C304.623 606.778 304.482 605.358 304.475 604.231L308.396 604.199C308.402 605.117 308.512 606.22 308.681 607.92C308.772 608.826 308.879 609.902 308.996 611.21Z" fill="#E9ECE0" fill-opacity="0.33"/>
<path fill-rule="evenodd" clip-rule="evenodd" d="M318.051 615.394C317.678 604.243 316.598 600.498 316.585 598.285L318.051 615.394Z" fill="#E9ECE0" fill-opacity="0.33"/>
<path fill-rule="evenodd" clip-rule="evenodd" d="M319.145 603.22C319.47 605.887 319.837 609.674 320.025 615.316L316.075 615.47C315.891 609.965 315.534 606.307 315.224 603.762C315.12 602.909 315.024 602.198 314.938 601.562C314.893 601.23 314.851 600.918 314.811 600.616C314.703 599.781 314.615 599.01 314.611 598.306L318.564 598.273C318.566 598.675 318.619 599.202 318.728 600.039C318.761 600.3 318.801 600.592 318.844 600.913C318.933 601.568 319.038 602.343 319.145 603.22Z" fill="#E9ECE0" fill-opacity="0.33"/>
<path fill-rule="evenodd" clip-rule="evenodd" d="M289.478 651.099C292.989 651.919 277.42 601.338 334.49 594.152L289.478 651.099Z" fill="#E9ECE0" fill-opacity="0.33"/>
<path fill-rule="evenodd" clip-rule="evenodd" d="M291.073 652.572C290.485 653.133 289.73 653.29 289.051 653.131L289.906 649.059C289.447 648.952 288.874 649.059 288.436 649.477C288.265 649.64 288.169 649.802 288.121 649.897C288.073 649.992 288.053 650.059 288.049 650.073C288.044 650.092 288.061 650.033 288.078 649.848C288.094 649.675 288.106 649.444 288.111 649.145C288.123 648.412 288.097 647.521 288.065 646.426C288.042 645.603 288.015 644.665 287.998 643.591C287.923 638.779 288.086 632.064 290.008 625.046C291.937 618.001 295.642 610.637 302.628 604.581C309.605 598.532 319.714 593.909 334.262 592.078L334.721 596.219C320.733 597.98 311.386 602.375 305.122 607.806C298.866 613.229 295.543 619.806 293.792 626.202C292.033 632.625 291.864 638.851 291.937 643.516C291.951 644.42 291.976 645.303 291.999 646.123C292.033 647.332 292.063 648.406 292.05 649.212C292.039 649.87 292.001 650.635 291.822 651.266C291.735 651.574 291.542 652.123 291.073 652.572Z" fill="#E9ECE0" fill-opacity="0.33"/>
<path fill-rule="evenodd" clip-rule="evenodd" d="M218.931 712.885C218.94 714.306 275.23 680.285 291.58 647.965L218.931 712.885Z" fill="#E9ECE0" fill-opacity="0.33"/>
<path fill-rule="evenodd" clip-rule="evenodd" d="M216.889 715.24C216.211 714.571 215.929 713.693 215.925 712.91L221.935 712.861C221.931 712.101 221.656 711.24 220.992 710.585C220.417 710.017 219.796 709.85 219.494 709.794C218.952 709.694 218.536 709.791 218.487 709.802L218.483 709.803C218.388 709.824 218.33 709.844 218.329 709.845C218.329 709.845 218.363 709.833 218.441 709.799C218.73 709.675 219.247 709.419 220.01 709.004C221.507 708.187 223.713 706.884 226.448 705.156C231.911 701.707 239.384 696.63 247.364 690.506C263.459 678.155 281.107 661.932 288.93 646.469L294.228 649.464C285.7 666.321 267.028 683.268 250.888 695.653C242.751 701.896 235.128 707.078 229.523 710.617C226.724 712.384 224.403 713.759 222.757 714.656C221.947 715.098 221.239 715.459 220.694 715.693C220.455 715.795 220.088 715.944 219.702 716.03L219.698 716.031C219.561 716.061 219.057 716.172 218.449 716.059C218.119 715.998 217.478 715.821 216.889 715.24Z" fill="#E9ECE0" fill-opacity="0.33"/>
<path fill-rule="evenodd" clip-rule="evenodd" d="M218.931 712.885C218.94 714.306 275.23 680.285 291.58 647.965L218.931 712.885Z" fill="#E9ECE0" fill-opacity="0.33"/>
<path fill-rule="evenodd" clip-rule="evenodd" d="M216.889 715.24C216.211 714.571 215.929 713.693 215.925 712.91L221.935 712.861C221.931 712.101 221.656 711.24 220.992 710.585C220.417 710.017 219.796 709.85 219.494 709.794C218.952 709.694 218.536 709.791 218.487 709.802L218.483 709.803C218.388 709.824 218.33 709.844 218.329 709.845C218.329 709.845 218.363 709.833 218.441 709.799C218.73 709.675 219.247 709.419 220.01 709.004C221.507 708.187 223.713 706.884 226.448 705.156C231.911 701.707 239.384 696.63 247.364 690.506C263.459 678.155 281.107 661.932 288.93 646.469L294.228 649.464C285.7 666.321 267.028 683.268 250.888 695.653C242.751 701.896 235.128 707.078 229.523 710.617C226.724 712.384 224.403 713.759 222.757 714.656C221.947 715.098 221.239 715.459 220.694 715.693C220.455 715.795 220.088 715.944 219.702 716.03L219.698 716.031C219.561 716.061 219.057 716.172 218.449 716.059C218.119 715.998 217.478 715.821 216.889 715.24Z" fill="#E9ECE0" fill-opacity="0.33"/>
<path fill-rule="evenodd" clip-rule="evenodd" d="M153.28 804.613C153.289 806.035 186.301 788.447 219.319 771.926L153.28 804.613Z" fill="#E9ECE0" fill-opacity="0.33"/>
<path fill-rule="evenodd" clip-rule="evenodd" d="M151.481 807.202C150.702 806.573 150.28 805.617 150.274 804.641L156.284 804.596C156.279 803.664 155.873 802.743 155.127 802.14C154.532 801.66 153.943 801.563 153.728 801.536C153.469 801.504 153.275 801.521 153.202 801.529C153.115 801.538 153.061 801.549 153.054 801.551C153.052 801.552 153.052 801.552 153.054 801.551C153.064 801.548 153.117 801.534 153.225 801.498C153.351 801.456 153.518 801.396 153.729 801.314C154.597 800.976 155.938 800.378 157.735 799.528C161.305 797.841 166.431 795.276 172.623 792.133C176.733 790.047 181.306 787.709 186.189 785.213C195.981 780.206 207.016 774.565 218.037 769.05L220.602 774.803C209.601 780.308 198.614 785.925 188.835 790.924C183.944 793.424 179.355 795.77 175.218 797.871C169.028 801.013 163.835 803.612 160.182 805.339C158.366 806.197 156.87 806.869 155.801 807.285C155.294 807.483 154.748 807.677 154.265 807.783C154.08 807.823 153.59 807.927 153.023 807.856C152.745 807.822 152.108 807.708 151.481 807.202Z" fill="#E9ECE0" fill-opacity="0.33"/>
<path fill-rule="evenodd" clip-rule="evenodd" d="M194.121 658.621C193.215 659.162 184.323 666.428 194.807 680.055L194.121 658.621Z" fill="#E9ECE0" fill-opacity="0.33"/>
<path fill-rule="evenodd" clip-rule="evenodd" d="M188.556 663.907C189.737 659.777 192.535 657.489 193.282 657.044L194.961 660.201C194.963 660.2 194.962 660.201 194.956 660.205C194.927 660.225 194.788 660.324 194.565 660.523C194.317 660.746 194 661.063 193.663 661.472C192.988 662.294 192.26 663.459 191.832 664.956C191.01 667.83 191.159 672.441 196.134 678.909L193.48 681.2C187.974 674.042 187.327 668.207 188.556 663.907Z" fill="#E9ECE0" fill-opacity="0.33"/>
<path fill-rule="evenodd" clip-rule="evenodd" d="M183.535 662.704C183.343 661.92 180.141 653.85 168.991 659.186L183.535 662.704Z" fill="#E9ECE0" fill-opacity="0.33"/>
<path fill-rule="evenodd" clip-rule="evenodd" d="M183.22 660.737C183.75 661.565 184.017 662.279 184.085 662.556L182.982 662.858C182.954 662.742 182.75 662.153 182.277 661.414C181.81 660.684 181.098 659.835 180.072 659.165C178.053 657.846 174.672 657.13 169.225 659.738L168.756 658.639C174.458 655.909 178.253 656.56 180.671 658.138C181.862 658.917 182.684 659.899 183.22 660.737Z" fill="#E9ECE0" fill-opacity="0.33"/>
<path fill-rule="evenodd" clip-rule="evenodd" d="M145.693 697.9C146.714 696.367 153.691 677.216 128.142 664.376L145.693 697.9Z" fill="#E9ECE0" fill-opacity="0.33"/>
<path fill-rule="evenodd" clip-rule="evenodd" d="M147.308 696.943C147.061 697.664 146.801 698.249 146.587 698.57L144.794 697.232L144.793 697.232C144.793 697.232 144.798 697.225 144.806 697.211C144.815 697.196 144.826 697.175 144.841 697.147C144.87 697.091 144.906 697.015 144.949 696.919C145.034 696.728 145.136 696.47 145.246 696.151C145.465 695.512 145.705 694.648 145.894 693.604C146.27 691.516 146.43 688.736 145.805 685.621C144.567 679.453 140.193 671.721 127.669 665.427L128.611 663.326C141.635 669.872 146.547 678.135 147.952 685.136C148.648 688.606 148.47 691.703 148.049 694.039C147.839 695.206 147.567 696.19 147.308 696.943Z" fill="#E9ECE0" fill-opacity="0.33"/>
<path fill-rule="evenodd" clip-rule="evenodd" d="M194.118 658.621C193.209 659.162 194.225 661.779 194.807 680.057L194.118 658.621Z" fill="#E9ECE0" fill-opacity="0.33"/>
<path fill-rule="evenodd" clip-rule="evenodd" d="M192.05 659.556C192.075 658.902 192.19 657.692 193.277 657.043L194.957 660.201C195.353 659.964 195.464 659.611 195.486 659.514C195.481 659.544 195.475 659.604 195.472 659.701C195.453 660.178 195.501 661.002 195.611 662.551C195.625 662.752 195.64 662.962 195.656 663.183C195.876 666.281 196.243 671.428 196.515 679.993L193.092 680.118C192.823 671.627 192.46 666.537 192.241 663.457C192.225 663.236 192.21 663.025 192.196 662.824C192.093 661.367 192.022 660.293 192.05 659.556ZM195.49 659.489C195.49 659.489 195.489 659.498 195.486 659.514C195.488 659.496 195.49 659.488 195.49 659.489Z" fill="#E9ECE0" fill-opacity="0.33"/>
<path fill-rule="evenodd" clip-rule="evenodd" d="M183.535 662.706C183.343 661.922 181.391 662.192 168.992 659.19L183.535 662.706Z" fill="#E9ECE0" fill-opacity="0.33"/>
<path fill-rule="evenodd" clip-rule="evenodd" d="M183.093 661.674C183.511 661.81 183.955 662.024 184.085 662.557L182.982 662.859C182.993 662.903 183.013 662.929 183.024 662.939C183.004 662.925 182.934 662.884 182.756 662.825C182.391 662.706 181.781 662.579 180.736 662.374C180.598 662.346 180.453 662.318 180.3 662.288C178.179 661.872 174.659 661.182 168.863 659.778L169.118 658.604C174.891 660.001 178.393 660.688 180.509 661.103C180.662 661.133 180.807 661.162 180.945 661.189C181.961 661.389 182.65 661.529 183.093 661.674ZM183.03 662.945C183.03 662.945 183.028 662.943 183.024 662.939C183.029 662.943 183.031 662.945 183.03 662.945Z" fill="#E9ECE0" fill-opacity="0.33"/>
<path fill-rule="evenodd" clip-rule="evenodd" d="M145.692 697.902C146.712 696.369 143.347 693.127 129.829 665.458L145.692 697.902Z" fill="#E9ECE0" fill-opacity="0.33"/>
<path fill-rule="evenodd" clip-rule="evenodd" d="M146.555 695.62C146.95 696.599 147.21 697.639 146.589 698.571L144.796 697.232C144.778 697.259 144.769 697.283 144.765 697.3C144.763 697.229 144.73 697.014 144.536 696.533C144.184 695.658 143.476 694.313 142.26 692.057C142.099 691.759 141.931 691.446 141.753 691.118C139.278 686.531 135.173 678.924 128.856 665.994L130.805 664.924C137.101 677.811 141.189 685.387 143.659 689.964C143.837 690.292 144.006 690.605 144.166 690.904C145.354 693.108 146.141 694.591 146.555 695.62ZM144.762 697.329C144.761 697.328 144.761 697.317 144.765 697.3C144.766 697.322 144.763 697.331 144.762 697.329Z" fill="#E9ECE0" fill-opacity="0.33"/>
<path fill-rule="evenodd" clip-rule="evenodd" d="M143.102 691.272C135.295 688.059 132.489 687.437 130.951 686.77L143.102 691.272Z" fill="#E9ECE0" fill-opacity="0.33"/>
<path fill-rule="evenodd" clip-rule="evenodd" d="M135.015 686.963C136.903 687.61 139.576 688.577 143.501 690.193L142.704 692.358C138.821 690.759 136.188 689.807 134.337 689.173C133.76 688.975 133.247 688.804 132.789 688.652C131.816 688.328 131.092 688.087 130.535 687.846L131.367 685.696C131.838 685.9 132.425 686.095 133.318 686.392C133.789 686.548 134.345 686.733 135.015 686.963Z" fill="#E9ECE0" fill-opacity="0.33"/>
<path fill-rule="evenodd" clip-rule="evenodd" d="M139.245 684.617C132.561 681.891 130.133 681.433 128.818 680.863L139.245 684.617Z" fill="#E9ECE0" fill-opacity="0.33"/>
<path fill-rule="evenodd" clip-rule="evenodd" d="M132.326 680.879C133.954 681.413 136.254 682.218 139.619 683.591L138.869 685.65C135.55 684.296 133.294 683.507 131.708 682.987C131.224 682.829 130.789 682.691 130.397 682.567C129.551 682.3 128.91 682.097 128.422 681.885L129.213 679.843C129.604 680.013 130.092 680.167 130.849 680.406C131.255 680.534 131.739 680.687 132.326 680.879Z" fill="#E9ECE0" fill-opacity="0.33"/>
<path fill-rule="evenodd" clip-rule="evenodd" d="M135.817 677.384C130.967 675.453 129.157 675.262 128.206 674.85L135.817 677.384Z" fill="#E9ECE0" fill-opacity="0.33"/>
<path fill-rule="evenodd" clip-rule="evenodd" d="M130.805 674.558C132.01 674.906 133.703 675.446 136.158 676.424L135.473 678.348C133.078 677.394 131.442 676.873 130.292 676.541C129.907 676.429 129.584 676.341 129.296 676.262C129.144 676.221 129.002 676.182 128.865 676.144C128.486 676.038 128.139 675.934 127.836 675.802L128.573 673.9C128.746 673.975 128.982 674.05 129.362 674.156C129.48 674.189 129.614 674.226 129.76 674.266C130.057 674.347 130.409 674.443 130.805 674.558Z" fill="#E9ECE0" fill-opacity="0.33"/>
<path fill-rule="evenodd" clip-rule="evenodd" d="M194.116 658.624C193.211 659.165 205.783 666.862 194.802 680.057L194.116 658.624Z" fill="#E9ECE0" fill-opacity="0.33"/>
<path fill-rule="evenodd" clip-rule="evenodd" d="M192.37 658.505C192.436 657.844 192.809 657.326 193.278 657.046L194.957 660.203C195.37 659.957 195.713 659.487 195.773 658.887C195.819 658.432 195.678 658.11 195.646 658.037C195.604 657.942 195.565 657.886 195.565 657.886C195.565 657.886 195.583 657.912 195.631 657.972C195.75 658.117 195.887 658.268 196.071 658.472C196.223 658.641 196.408 658.846 196.642 659.112C197.562 660.163 198.841 661.744 199.78 663.807C200.729 665.892 201.334 668.48 200.892 671.494C200.451 674.498 198.994 677.761 196.087 681.254L193.52 678.859C196.103 675.754 197.192 673.107 197.51 670.94C197.826 668.784 197.404 666.939 196.696 665.383C195.978 663.805 194.971 662.536 194.132 661.579C193.994 661.421 193.84 661.25 193.689 661.082C193.442 660.807 193.202 660.54 193.044 660.347C192.927 660.204 192.699 659.921 192.548 659.582C192.476 659.419 192.318 659.021 192.37 658.505Z" fill="#E9ECE0" fill-opacity="0.33"/>
<path fill-rule="evenodd" clip-rule="evenodd" d="M183.535 662.709C183.344 661.924 175.786 669.954 168.992 659.19L183.535 662.709Z" fill="#E9ECE0" fill-opacity="0.33"/>
<path fill-rule="evenodd" clip-rule="evenodd" d="M183.699 662.097C183.905 662.181 184.038 662.361 184.086 662.558L182.983 662.86C183.019 663.008 183.125 663.156 183.291 663.224C183.412 663.272 183.505 663.254 183.515 663.252C183.516 663.252 183.516 663.252 183.516 663.252C183.519 663.251 183.521 663.251 183.521 663.251C183.521 663.252 183.482 663.264 183.383 663.316C183.253 663.383 183.101 663.471 182.912 663.582C182.767 663.666 182.6 663.764 182.404 663.874C181.544 664.358 180.31 664.985 178.846 665.284C177.374 665.584 175.666 665.554 173.874 664.723C172.085 663.894 170.261 662.288 168.517 659.525L169.464 658.855C171.118 661.474 172.786 662.902 174.331 663.619C175.873 664.334 177.341 664.363 178.631 664.1C179.929 663.835 181.045 663.274 181.869 662.81C182.025 662.722 182.178 662.633 182.323 662.549C182.539 662.423 182.735 662.309 182.883 662.233C183.002 662.171 183.159 662.095 183.312 662.065C183.386 662.051 183.535 662.031 183.699 662.097Z" fill="#E9ECE0" fill-opacity="0.33"/>
<path fill-rule="evenodd" clip-rule="evenodd" d="M145.691 697.901C146.712 696.368 121.61 695.256 129.396 666.445L145.691 697.901Z" fill="#E9ECE0" fill-opacity="0.33"/>
<path fill-rule="evenodd" clip-rule="evenodd" d="M146.739 697.34C146.902 697.791 146.807 698.242 146.589 698.569L144.796 697.23C144.643 697.46 144.56 697.817 144.689 698.172C144.739 698.31 144.806 698.403 144.848 698.454C144.891 698.505 144.925 698.533 144.936 698.542C144.938 698.543 144.936 698.542 144.932 698.54C144.911 698.528 144.813 698.472 144.572 698.374C144.259 698.247 143.876 698.112 143.405 697.947C143.035 697.816 142.61 697.667 142.121 697.487C139.997 696.703 137.075 695.474 134.354 693.334C131.621 691.183 129.082 688.105 127.757 683.647C126.434 679.198 126.354 673.487 128.344 666.125L130.453 666.763C128.55 673.806 128.688 679.038 129.85 682.948C131.01 686.849 133.223 689.547 135.664 691.467C138.117 693.398 140.792 694.535 142.844 695.291C143.247 695.44 143.645 695.58 144.016 695.711C144.544 695.897 145.015 696.064 145.361 696.204C145.645 696.32 145.989 696.472 146.249 696.678C146.373 696.776 146.611 696.987 146.739 697.34Z" fill="#E9ECE0" fill-opacity="0.33"/>
<path fill-rule="evenodd" clip-rule="evenodd" d="M192.503 653.813C194.532 653.897 223.712 646.004 212.111 617.403L192.503 653.813Z" fill="#E9ECE0" fill-opacity="0.33"/>
<path fill-rule="evenodd" clip-rule="evenodd" d="M193.532 655.826C193.202 655.888 192.784 655.952 192.424 655.937L192.584 651.696C192.551 651.694 192.533 651.695 192.533 651.694C192.533 651.693 192.623 651.686 192.84 651.646C193.101 651.597 193.462 651.515 193.908 651.394C194.799 651.151 195.983 650.765 197.327 650.208C200.028 649.091 203.287 647.326 206.116 644.758C208.934 642.198 211.274 638.89 212.285 634.655C213.292 630.433 213.034 625.057 210.271 618.246L213.953 616.568C216.99 624.057 217.434 630.393 216.17 635.692C214.909 640.978 212.002 645.001 208.722 647.979C205.453 650.949 201.762 652.929 198.783 654.162C197.288 654.78 195.95 655.22 194.902 655.505C194.379 655.647 193.916 655.754 193.532 655.826Z" fill="#E9ECE0" fill-opacity="0.33"/>
<path fill-rule="evenodd" clip-rule="evenodd" d="M192.286 656.161C192.995 657.344 210.555 670.745 229.185 652.801L192.286 656.161Z" fill="#E9ECE0" fill-opacity="0.33"/>
<path fill-rule="evenodd" clip-rule="evenodd" d="M192.069 657.172C191.898 657.015 191.703 656.82 191.587 656.627L192.983 655.691C192.977 655.68 192.973 655.675 192.974 655.675C192.975 655.674 193.021 655.731 193.155 655.855C193.303 655.991 193.516 656.17 193.793 656.381C194.345 656.801 195.13 657.331 196.118 657.885C198.093 658.993 200.854 660.183 204.157 660.792C210.73 662.004 219.514 660.932 228.628 652.153L229.74 653.445C220.224 662.612 210.914 663.813 203.872 662.514C200.368 661.868 197.442 660.607 195.343 659.429C194.293 658.84 193.444 658.269 192.827 657.8C192.52 657.566 192.265 657.353 192.069 657.172Z" fill="#E9ECE0" fill-opacity="0.33"/>
<path fill-rule="evenodd" clip-rule="evenodd" d="M186.132 664.193C187.214 663.379 198.983 644.09 181.077 625.315L186.132 664.193Z" fill="#E9ECE0" fill-opacity="0.33"/>
<path fill-rule="evenodd" clip-rule="evenodd" d="M187.832 664.98C187.694 665.166 187.447 665.488 187.149 665.713L185.114 662.677C185.022 662.746 184.973 662.8 184.973 662.8C184.973 662.8 185.003 662.767 185.067 662.681C185.166 662.547 185.308 662.338 185.481 662.053C185.826 661.486 186.266 660.667 186.722 659.631C187.634 657.559 188.585 654.674 188.978 651.267C189.755 644.53 188.379 635.597 179.839 626.642L182.314 623.994C191.677 633.813 193.369 643.913 192.469 651.716C192.023 655.58 190.948 658.843 189.909 661.203C189.389 662.384 188.873 663.352 188.437 664.068C188.22 664.425 188.015 664.733 187.832 664.98Z" fill="#E9ECE0" fill-opacity="0.33"/>
<path fill-rule="evenodd" clip-rule="evenodd" d="M192.503 653.814C194.531 653.898 195.382 648.444 212.111 617.402L192.503 653.814Z" fill="#E9ECE0" fill-opacity="0.33"/>
<path fill-rule="evenodd" clip-rule="evenodd" d="M195.733 653.714C195.078 654.745 194.088 656.007 192.425 655.938L192.585 651.696C192.269 651.683 192.078 651.822 192.034 651.859C192.068 651.825 192.19 651.69 192.411 651.343C192.957 650.485 193.715 648.974 195.017 646.309C195.188 645.959 195.368 645.592 195.556 645.206C198.185 639.818 202.548 630.875 210.373 616.354L213.853 618.456C206.069 632.901 201.735 641.784 199.114 647.155C198.926 647.541 198.747 647.908 198.576 648.258C197.321 650.827 196.44 652.603 195.733 653.714ZM192.024 651.868C192.024 651.868 192.027 651.864 192.034 651.859C192.027 651.866 192.024 651.868 192.024 651.868Z" fill="#E9ECE0" fill-opacity="0.33"/>
<path fill-rule="evenodd" clip-rule="evenodd" d="M192.286 656.149C192.995 657.329 197.723 655.648 229.183 652.801L192.286 656.149Z" fill="#E9ECE0" fill-opacity="0.33"/>
<path fill-rule="evenodd" clip-rule="evenodd" d="M192.602 657.313C192.218 657.222 191.834 657.028 191.588 656.618L192.983 655.683C192.941 655.612 192.895 655.59 192.895 655.589C192.895 655.589 192.914 655.599 192.966 655.611C193.119 655.647 193.398 655.671 193.899 655.654C194.892 655.619 196.492 655.436 199.109 655.119C199.457 655.077 199.822 655.033 200.204 654.986C205.554 654.336 214.422 653.259 229.113 651.927L229.253 653.665C214.586 654.995 205.735 656.07 200.391 656.72C200.009 656.766 199.644 656.81 199.296 656.852C196.71 657.165 195.029 657.36 193.953 657.397C193.419 657.416 192.967 657.4 192.602 657.313Z" fill="#E9ECE0" fill-opacity="0.33"/>
<path fill-rule="evenodd" clip-rule="evenodd" d="M186.136 664.196C187.219 663.382 185.383 658.467 181.076 625.316L186.136 664.196Z" fill="#E9ECE0" fill-opacity="0.33"/>
<path fill-rule="evenodd" clip-rule="evenodd" d="M188.138 663.965C188.046 664.527 187.799 665.227 187.152 665.713L185.116 662.677C184.74 662.96 184.672 663.328 184.671 663.336C184.671 663.337 184.673 663.323 184.675 663.289C184.678 663.256 184.679 663.209 184.679 663.145C184.68 663.014 184.672 662.836 184.653 662.597C184.574 661.597 184.327 659.96 183.891 657.189C183.833 656.824 183.773 656.44 183.709 656.037C182.821 650.406 181.347 641.066 179.335 625.572L182.82 625.062C184.825 640.503 186.293 649.803 187.179 655.422C187.243 655.825 187.303 656.209 187.361 656.575C187.786 659.278 188.064 661.094 188.159 662.281C188.205 662.864 188.222 663.446 188.138 663.965Z" fill="#E9ECE0" fill-opacity="0.33"/>
<path fill-rule="evenodd" clip-rule="evenodd" d="M192.503 653.814C213.649 635.611 207.965 636.575 212.111 617.402L192.503 653.814Z" fill="#E9ECE0" fill-opacity="0.33"/>
<path fill-rule="evenodd" clip-rule="evenodd" d="M210.533 636.787C208.567 641.792 204.271 646.419 193.768 655.461L191.242 652.168C201.883 643.007 205.318 639.015 206.833 635.159C207.592 633.227 207.906 631.236 208.289 628.33C208.321 628.082 208.355 627.828 208.388 627.568C208.747 624.817 209.192 621.405 210.16 616.931L214.066 617.876C213.139 622.162 212.715 625.409 212.357 628.152C212.323 628.41 212.29 628.664 212.257 628.913C211.879 631.788 211.515 634.288 210.533 636.787Z" fill="#E9ECE0" fill-opacity="0.33"/>
<path fill-rule="evenodd" clip-rule="evenodd" d="M192.503 653.814C201.617 641.448 189.597 631.557 212.111 617.402L192.503 653.814Z" fill="#E9ECE0" fill-opacity="0.33"/>
<path fill-rule="evenodd" clip-rule="evenodd" d="M198.832 640.311C198.416 644.756 197.936 649.89 194.082 655.119L190.924 652.508C194.001 648.334 194.345 644.753 194.749 640.559C194.889 639.103 195.037 637.572 195.308 635.918C195.821 632.785 196.81 629.501 199.223 626.06C201.612 622.653 205.315 619.208 211.09 615.578L213.133 619.228C207.651 622.674 204.414 625.774 202.439 628.589C200.489 631.37 199.691 633.986 199.256 636.641C199.067 637.797 198.952 639.025 198.832 640.311Z" fill="#E9ECE0" fill-opacity="0.33"/>
<path fill-rule="evenodd" clip-rule="evenodd" d="M192.503 653.813C194.532 653.897 183.59 619.353 212.111 617.402L192.503 653.813Z" fill="#E9ECE0" fill-opacity="0.33"/>
<path fill-rule="evenodd" clip-rule="evenodd" d="M194.325 654.898C193.975 655.454 193.314 655.97 192.425 655.934L192.585 651.692C191.823 651.66 191.263 652.114 190.992 652.544C190.883 652.718 190.829 652.868 190.805 652.947C190.78 653.029 190.771 653.085 190.769 653.099C190.768 653.104 190.768 653.106 190.768 653.106C190.767 653.106 190.772 653.062 190.773 652.958C190.774 652.839 190.77 652.679 190.76 652.472C190.729 651.884 190.657 651.139 190.567 650.205C190.521 649.732 190.471 649.211 190.419 648.637C190.121 645.346 189.815 640.78 190.387 636.099C190.959 631.421 192.428 626.447 195.821 622.497C199.253 618.502 204.443 615.799 211.986 615.283L212.241 619.519C205.524 619.979 201.385 622.325 198.784 625.353C196.144 628.426 194.873 632.449 194.361 636.641C193.85 640.83 194.117 645.006 194.408 648.229C194.452 648.71 194.497 649.182 194.541 649.634C194.637 650.639 194.725 651.546 194.761 652.233C194.786 652.712 194.8 653.282 194.724 653.779C194.689 654.008 194.602 654.459 194.325 654.898Z" fill="#E9ECE0" fill-opacity="0.33"/>
<path fill-rule="evenodd" clip-rule="evenodd" d="M192.285 656.146C192.994 657.33 216.673 637.398 229.183 652.787L192.285 656.146Z" fill="#E9ECE0" fill-opacity="0.33"/>
<path fill-rule="evenodd" clip-rule="evenodd" d="M192.446 657.072C192.287 657.078 191.849 657.055 191.586 656.616L192.982 655.679C192.763 655.315 192.415 655.324 192.388 655.325C192.363 655.326 192.348 655.329 192.348 655.329C192.348 655.329 192.368 655.324 192.413 655.308C192.566 655.253 192.817 655.133 193.183 654.934C193.672 654.669 194.288 654.307 195.028 653.873C195.387 653.662 195.775 653.434 196.192 653.191C198.717 651.724 202.179 649.797 206.026 648.318C213.665 645.38 223.194 644.077 229.81 652.217L228.557 653.357C222.662 646.104 214.096 647.073 206.59 649.96C202.865 651.393 199.493 653.266 196.987 654.723C196.592 654.953 196.216 655.174 195.862 655.381C195.105 655.826 194.45 656.21 193.937 656.489C193.564 656.692 193.221 656.864 192.943 656.963C192.81 657.011 192.633 657.065 192.446 657.072Z" fill="#E9ECE0" fill-opacity="0.33"/>
<path fill-rule="evenodd" clip-rule="evenodd" d="M186.135 664.192C187.217 663.378 167.175 639.364 181.08 625.314L186.135 664.192Z" fill="#E9ECE0" fill-opacity="0.33"/>
<path fill-rule="evenodd" clip-rule="evenodd" d="M187.926 663.887C187.949 664.167 187.964 665.1 187.15 665.712L185.115 662.676C184.369 663.238 184.411 664.075 184.423 664.215C184.433 664.343 184.457 664.433 184.468 664.467C184.468 664.467 184.467 664.466 184.467 664.466C184.435 664.38 184.34 664.176 184.135 663.802C183.867 663.312 183.507 662.702 183.065 661.952C182.846 661.58 182.607 661.175 182.349 660.733C180.827 658.127 178.8 654.512 177.178 650.446C173.983 642.44 172.061 631.858 179.865 623.972L182.291 626.666C176.192 632.829 177.338 641.278 180.417 648.994C181.931 652.789 183.843 656.207 185.34 658.772C185.569 659.165 185.793 659.545 186.006 659.906C186.47 660.693 186.88 661.388 187.177 661.931C187.39 662.319 187.6 662.728 187.736 663.09C187.798 663.256 187.898 663.547 187.926 663.887ZM184.473 664.482C184.472 664.482 184.471 664.477 184.468 664.467C184.471 664.477 184.473 664.482 184.473 664.482Z" fill="#E9ECE0" fill-opacity="0.33"/>
<path fill-rule="evenodd" clip-rule="evenodd" d="M153.258 804.615C153.266 806.038 158.518 682.818 191.558 666.281L153.258 804.615Z" fill="#E9ECE0" fill-opacity="0.33"/>
<path fill-rule="evenodd" clip-rule="evenodd" d="M150.254 804.729L150.252 804.638L156.266 804.593L156.264 804.516C156.263 804.474 156.254 804.344 156.246 804.256C156.204 803.979 154.573 801.762 152.161 801.664C151.065 802.453 150.345 803.847 150.306 804.033C150.295 804.102 150.28 804.207 150.276 804.242L150.269 804.309L150.266 804.337L150.265 804.347C150.265 804.347 150.266 804.336 150.268 804.306L150.275 804.197L150.326 803.29C150.373 802.456 150.447 801.189 150.552 799.546C150.762 796.26 151.099 791.472 151.606 785.637C152.621 773.974 154.32 758.096 157.061 741.634C159.797 725.199 163.593 708.054 168.838 693.913C174.006 679.979 180.883 668.106 190.274 663.406L192.841 669.163C185.713 672.731 179.544 682.461 174.435 696.238C169.402 709.807 165.69 726.477 162.983 742.736C160.28 758.968 158.6 774.661 157.595 786.217C157.092 791.992 156.759 796.727 156.552 799.971C156.448 801.593 156.375 802.844 156.329 803.667L156.277 804.585C156.271 804.676 156.266 804.769 156.261 804.837L156.254 804.92L156.246 805.002C156.241 805.04 156.226 805.148 156.214 805.22C156.174 805.407 155.455 806.802 154.358 807.591C151.946 807.493 150.315 805.276 150.273 804.997C150.269 804.959 150.265 804.914 150.262 804.871C150.258 804.811 150.255 804.755 150.254 804.729Z" fill="#E9ECE0" fill-opacity="0.33"/>
<path fill-rule="evenodd" clip-rule="evenodd" d="M153.282 804.611C153.29 806.034 161.278 713.325 143.371 695.385L153.282 804.611Z" fill="#E9ECE0" fill-opacity="0.33"/>
<path fill-rule="evenodd" clip-rule="evenodd" d="M150.287 804.963C150.27 804.794 150.27 804.657 150.27 804.63L156.288 804.585L156.288 804.583C156.288 804.56 156.287 804.435 156.271 804.277C156.258 804.169 156.198 803.844 156.14 803.631C155.906 803.066 154.177 801.583 152.505 801.547C151.563 802.01 150.655 803.071 150.514 803.374C150.463 803.51 150.395 803.727 150.374 803.803C150.343 803.927 150.327 804.025 150.323 804.046L150.323 804.048C150.316 804.091 150.311 804.124 150.309 804.137C150.31 804.131 150.311 804.12 150.313 804.103C150.324 804.004 150.343 803.81 150.37 803.513C150.423 802.928 150.499 802.013 150.59 800.807C150.773 798.397 151.014 794.847 151.247 790.487C151.715 781.762 152.151 769.821 152.032 757.292C151.912 744.743 151.236 731.704 149.505 720.747C148.639 715.268 147.523 710.394 146.118 706.4C144.699 702.366 143.067 699.466 141.303 697.698L145.443 693.072C148.153 695.788 150.188 699.709 151.758 704.174C153.342 708.678 154.538 713.979 155.441 719.692C157.246 731.118 157.929 744.531 158.05 757.223C158.171 769.935 157.728 782.025 157.256 790.843C157.019 795.254 156.775 798.853 156.589 801.311C156.496 802.539 156.418 803.487 156.361 804.113C156.333 804.421 156.309 804.669 156.291 804.837L156.29 804.84C156.284 804.898 156.269 805.034 156.247 805.164L156.247 805.165C156.242 805.195 156.224 805.303 156.191 805.435C156.169 805.515 156.101 805.733 156.049 805.871C155.907 806.176 154.999 807.237 154.056 807.7C152.383 807.664 150.654 806.181 150.42 805.615C150.361 805.401 150.301 805.074 150.287 804.963Z" fill="#E9ECE0" fill-opacity="0.33"/>
<path fill-rule="evenodd" clip-rule="evenodd" d="M252.953 638.378C252.962 639.801 256.941 552.294 233.287 529.23L252.953 638.378Z" fill="#E9ECE0" fill-opacity="0.33"/>
<path fill-rule="evenodd" clip-rule="evenodd" d="M249.947 638.574C249.943 638.489 249.943 638.421 249.942 638.401L255.958 638.357L255.958 638.356C255.957 638.344 255.957 638.286 255.953 638.21C255.95 638.161 255.937 638.019 255.926 637.927C255.885 637.697 255.315 636.426 254.478 635.652C252.236 635.304 250.207 637.094 250.065 637.501C250.032 637.631 249.993 637.827 249.982 637.89C249.968 637.981 249.962 638.053 249.961 638.065L249.96 638.066C249.958 638.096 249.956 638.115 249.956 638.113C249.957 638.112 249.957 638.098 249.959 638.068C249.965 637.968 249.974 637.78 249.986 637.502C250.009 636.953 250.04 636.091 250.071 634.953C250.134 632.68 250.197 629.318 250.199 625.169C250.204 616.865 249.965 605.434 248.994 593.259C248.021 581.066 246.322 568.223 243.437 557.06C240.525 545.79 236.523 536.719 231.249 531.576L235.326 526.89C241.878 533.279 246.247 543.795 249.239 555.374C252.259 567.06 254 580.329 254.988 592.718C255.977 605.124 256.219 616.744 256.215 625.168C256.212 629.383 256.148 632.805 256.084 635.134C256.052 636.298 256.02 637.193 255.995 637.78C255.983 638.071 255.972 638.296 255.964 638.445C255.961 638.5 255.955 638.603 255.946 638.696L255.946 638.698C255.944 638.718 255.936 638.798 255.921 638.896C255.911 638.961 255.871 639.158 255.837 639.29C255.695 639.698 253.666 641.489 251.423 641.141C250.586 640.366 250.016 639.094 249.975 638.863C249.963 638.769 249.951 638.625 249.947 638.574Z" fill="#E9ECE0" fill-opacity="0.33"/>
<path fill-rule="evenodd" clip-rule="evenodd" d="M74.1841 873.964C74.1926 875.386 87.4903 856.134 101.082 817.727L74.1841 873.964Z" fill="#E9ECE0" fill-opacity="0.33"/>
<path fill-rule="evenodd" clip-rule="evenodd" d="M71.5858 875.601C71.214 874.914 71.1795 874.27 71.1779 873.986L77.1893 873.941C77.1879 873.702 77.1602 873.093 76.8015 872.43C76.3568 871.608 75.5767 871.033 74.6731 870.888C73.9437 870.772 73.3856 870.976 73.1696 871.066C72.9148 871.173 72.7377 871.293 72.659 871.349C72.5406 871.433 72.4644 871.505 72.4398 871.529C72.4542 871.514 72.4869 871.478 72.5397 871.415C72.8161 871.086 73.3118 870.418 74.0182 869.351C75.4088 867.251 77.4443 863.87 79.9205 859.219C84.8678 849.928 91.5242 835.662 98.2654 816.612L103.894 818.843C97.0448 838.2 90.2572 852.764 85.1561 862.344C82.6082 867.13 80.4685 870.695 78.9388 873.005C78.185 874.143 77.5343 875.046 77.0289 875.647C76.8259 875.889 76.4597 876.312 76.0165 876.629C75.8872 876.721 75.6656 876.867 75.3725 876.989C75.1182 877.096 74.528 877.306 73.7727 877.185C72.8433 877.037 72.0437 876.447 71.5858 875.601ZM72.4311 871.538C72.4311 871.538 72.434 871.535 72.4398 871.529C72.4339 871.535 72.4311 871.538 72.4311 871.538Z" fill="#E9ECE0" fill-opacity="0.33"/>
<path fill-rule="evenodd" clip-rule="evenodd" d="M282.283 332.502C226.151 144.783 59.9068 9.29876 -135.603 10.6492C-376.029 12.3098 -569.663 220.258 -568.096 475.116C-566.529 729.973 -370.356 935.229 -129.93 933.568C-86.9979 933.272 -45.5624 926.397 -6.46603 913.856L-4.7256 919.953C-44.3678 932.669 -86.3761 939.637 -129.891 939.938C-373.636 941.621 -572.517 733.533 -574.105 475.157C-575.693 216.782 -379.387 5.96295 -135.642 4.2794C62.5758 2.9103 231.106 140.272 288.011 330.577L282.283 332.502Z" fill="#E9ECE0" fill-opacity="0.33"/>
</svg>
