<svg width="611" height="937" viewBox="0 0 611 937" fill="none" xmlns="http://www.w3.org/2000/svg">
<path fill-rule="evenodd" clip-rule="evenodd" d="M611 42.8761C558.259 19.3384 500.245 6.50456 439.397 6.92484C198.971 8.58547 5.33767 216.534 6.90426 471.391C8.47086 726.249 204.644 931.505 445.07 929.844C488.002 929.548 529.438 922.673 568.534 910.132L570.274 916.229C530.632 928.945 488.624 935.914 445.109 936.214C201.365 937.898 2.48335 729.809 0.89513 471.433C-0.693088 213.058 195.613 2.23863 439.358 0.555076C500.153 0.135165 558.155 12.7655 611 35.9711C611 35.9758 611 42.8761 611 42.8761Z" fill="#E9ECE0" fill-opacity="0.33"/>
</svg>
