<svg width="417" height="438" viewBox="0 0 417 438" fill="none" xmlns="http://www.w3.org/2000/svg">
<path fill-rule="evenodd" clip-rule="evenodd" d="M194.737 30.3516C304.674 35.1504 364.269 91.9875 398.089 147.986L395.662 149.438C362.213 94.0542 303.393 37.9163 194.613 33.168L194.737 30.3516Z" fill="white" fill-opacity="0.2"/>
<path fill-rule="evenodd" clip-rule="evenodd" d="M240.494 37.2037C241.127 37.2037 227.707 17.2408 211.855 11.4727L240.494 37.2037Z" fill="white" fill-opacity="0.2"/>
<path fill-rule="evenodd" clip-rule="evenodd" d="M241.358 38.3262C241.06 38.549 240.739 38.6129 240.494 38.6129V35.7938C240.26 35.7938 239.947 35.8553 239.656 36.0733C239.369 36.2878 239.229 36.5607 239.164 36.7622C239.059 37.0915 239.112 37.3612 239.122 37.4082L239.122 37.4118C239.137 37.4884 239.156 37.5444 239.166 37.5683C239.165 37.5662 239.163 37.5638 239.162 37.5611C239.129 37.4888 239.044 37.3271 238.883 37.062C238.572 36.548 238.061 35.7788 237.366 34.8169C235.98 32.8976 233.901 30.2655 231.313 27.4531C226.105 21.7947 218.974 15.5631 211.37 12.7962L212.342 10.1484C220.59 13.1497 228.094 19.7835 233.401 25.5486C236.069 28.448 238.218 31.1672 239.665 33.1712C240.387 34.1709 240.945 35.0064 241.308 35.6066C241.485 35.8987 241.638 36.1715 241.74 36.3945C241.781 36.4845 241.863 36.6684 241.904 36.8801L241.904 36.8817C241.918 36.9573 241.977 37.26 241.863 37.6155C241.796 37.8267 241.651 38.1068 241.358 38.3262ZM239.171 37.5812C239.171 37.5811 239.169 37.5766 239.166 37.5683C239.169 37.5771 239.171 37.5813 239.171 37.5812Z" fill="white" fill-opacity="0.2"/>
<path fill-rule="evenodd" clip-rule="evenodd" d="M213.068 11.9408C213.11 10.9301 211.982 0.0602951 195.884 2.14866L213.068 11.9408Z" fill="white" fill-opacity="0.2"/>
<path fill-rule="evenodd" clip-rule="evenodd" d="M213.567 9.41422C213.943 10.6222 214.027 11.5996 214.012 11.9814L212.125 11.9036C212.13 11.78 212.09 11.0197 211.763 9.97057C211.442 8.93927 210.859 7.67684 209.821 6.50591C207.789 4.21253 203.825 2.06776 196.006 3.0821L195.762 1.2186C204.041 0.144574 208.691 2.39051 211.237 5.26261C212.488 6.67443 213.185 8.18843 213.567 9.41422Z" fill="white" fill-opacity="0.2"/>
<path fill-rule="evenodd" clip-rule="evenodd" d="M196.167 30.6921C196.841 30.9003 204.377 32.0827 205.836 20.9453L196.167 30.6921Z" fill="white" fill-opacity="0.2"/>
<path fill-rule="evenodd" clip-rule="evenodd" d="M197.767 31.0638C196.921 31.0986 196.295 30.984 196.095 30.9221L196.238 30.4619C196.375 30.5041 196.944 30.6154 197.747 30.5824C198.545 30.5496 199.56 30.3746 200.599 29.8577C202.661 28.8314 204.874 26.424 205.596 20.9141L206.076 20.9764C205.339 26.6038 203.055 29.1739 200.815 30.2887C199.703 30.8424 198.617 31.0288 197.767 31.0638Z" fill="white" fill-opacity="0.2"/>
<path fill-rule="evenodd" clip-rule="evenodd" d="M199.622 32.5977C199.345 33.0368 196.65 37.7629 204.348 40.9033L199.622 32.5977Z" fill="white" fill-opacity="0.2"/>
<path fill-rule="evenodd" clip-rule="evenodd" d="M198.184 35.8624C197.885 33.9439 198.751 32.4438 198.927 32.1641L200.316 33.031C200.216 33.1904 199.596 34.2729 199.804 35.6123C200 36.8703 200.98 38.6473 204.658 40.1478L204.036 41.6584C200.017 40.0186 198.495 37.8624 198.184 35.8624Z" fill="white" fill-opacity="0.2"/>
<path fill-rule="evenodd" clip-rule="evenodd" d="M213.068 11.9406C213.11 10.9299 210.534 10.5025 195.884 2.14844L213.068 11.9406Z" fill="white" fill-opacity="0.2"/>
<path fill-rule="evenodd" clip-rule="evenodd" d="M212.99 10.3834C213.475 10.7099 214.045 11.1876 214.012 11.9823L212.125 11.9045C212.12 12.0371 212.172 12.1184 212.188 12.1389C212.172 12.1212 212.106 12.0569 211.933 11.9401C211.524 11.6652 210.807 11.2847 209.551 10.6349C209.385 10.5495 209.212 10.4599 209.03 10.3659C206.487 9.05283 202.267 6.87375 195.415 2.96661L196.353 1.33594C203.171 5.22382 207.365 7.3891 209.9 8.69812C210.082 8.79215 210.256 8.88177 210.421 8.96729C211.635 9.59493 212.469 10.0329 212.99 10.3834ZM212.192 12.144C212.192 12.144 212.19 12.1423 212.188 12.1389C212.191 12.1423 212.192 12.144 212.192 12.144Z" fill="white" fill-opacity="0.2"/>
<path fill-rule="evenodd" clip-rule="evenodd" d="M196.167 30.6921C196.841 30.9004 197.588 29.2536 205.836 20.9453L196.167 30.6921Z" fill="white" fill-opacity="0.2"/>
<path fill-rule="evenodd" clip-rule="evenodd" d="M196.961 30.6044C196.662 30.8635 196.397 31.0129 196.095 30.9196L196.238 30.4594C196.273 30.4703 196.354 30.492 196.643 30.2412C196.924 29.9977 197.327 29.5644 197.982 28.8477C198.069 28.7524 198.161 28.6524 198.257 28.5473C199.594 27.0822 201.812 24.6531 205.664 20.7734L206.008 21.1121C202.164 24.9847 199.951 27.4081 198.615 28.8716C198.519 28.9766 198.427 29.0767 198.34 29.172C197.693 29.8796 197.268 30.3382 196.961 30.6044Z" fill="white" fill-opacity="0.2"/>
<path fill-rule="evenodd" clip-rule="evenodd" d="M199.622 32.5977C199.346 33.037 200.383 33.8784 204.773 41.3007L199.622 32.5977Z" fill="white" fill-opacity="0.2"/>
<path fill-rule="evenodd" clip-rule="evenodd" d="M198.957 33.4595C198.821 33.1836 198.606 32.6731 198.927 32.1641L200.316 33.0307C200.429 32.8525 200.4 32.6929 200.39 32.6518C200.395 32.6655 200.406 32.6933 200.428 32.7382C200.529 32.9422 200.738 33.2736 201.136 33.8877C201.188 33.9675 201.242 34.0512 201.299 34.1391C202.097 35.3677 203.422 37.4091 205.479 40.8864L204.066 41.7145C202.026 38.2662 200.715 36.2467 199.922 35.0245C199.864 34.9366 199.81 34.8528 199.758 34.7729C199.383 34.1939 199.11 33.7687 198.957 33.4595ZM200.386 32.6417C200.387 32.6418 200.388 32.6453 200.39 32.6518C200.387 32.6448 200.386 32.6415 200.386 32.6417Z" fill="white" fill-opacity="0.2"/>
<path fill-rule="evenodd" clip-rule="evenodd" d="M213.068 11.9406C213.11 10.9299 200.593 17.6132 195.884 2.14844L213.068 11.9406Z" fill="white" fill-opacity="0.2"/>
<path fill-rule="evenodd" clip-rule="evenodd" d="M213.615 11.1284C213.899 11.3477 214.024 11.6733 214.011 11.9825L212.125 11.9048C212.115 12.1508 212.219 12.4283 212.457 12.6126C212.633 12.7486 212.8 12.7675 212.825 12.7704L212.826 12.7705C212.843 12.7724 212.852 12.7727 212.852 12.7731C212.852 12.774 212.806 12.7753 212.685 12.7946C212.499 12.8246 212.281 12.8704 212.006 12.9283C211.792 12.9733 211.543 13.0258 211.245 13.084C209.971 13.3331 208.155 13.6112 206.159 13.4023C204.151 13.1921 201.955 12.4878 199.948 10.7774C197.945 9.07071 196.197 6.41882 194.98 2.42413L196.787 1.87891C197.925 5.61659 199.508 7.92856 201.176 9.34981C202.839 10.7674 204.653 11.355 206.357 11.5334C208.074 11.7131 209.673 11.4764 210.881 11.24C211.103 11.1965 211.328 11.1495 211.541 11.105C211.867 11.0369 212.165 10.9746 212.385 10.9394C212.558 10.9116 212.808 10.8769 213.042 10.9035C213.154 10.9164 213.392 10.9558 213.615 11.1284Z" fill="white" fill-opacity="0.2"/>
<path fill-rule="evenodd" clip-rule="evenodd" d="M196.167 30.6921C196.841 30.9004 194.561 21.3393 205.836 20.9453L196.167 30.6921Z" fill="white" fill-opacity="0.2"/>
<path fill-rule="evenodd" clip-rule="evenodd" d="M196.369 30.8738C196.285 30.9369 196.185 30.9484 196.095 30.9207L196.239 30.4605C196.191 30.4459 196.127 30.4514 196.075 30.4905C196.046 30.5128 196.036 30.5351 196.036 30.5354C196.036 30.5354 196.036 30.5344 196.037 30.5319C196.047 30.5074 196.061 30.4452 196.073 30.3239C196.086 30.1867 196.095 30.0164 196.106 29.8103C196.114 29.6584 196.123 29.487 196.135 29.2953C196.193 28.4136 196.326 27.1975 196.8 25.9573C197.276 24.7141 198.096 23.4452 199.526 22.464C200.955 21.4835 202.975 20.8028 205.828 20.7031L205.845 21.1847C203.061 21.2819 201.137 21.9441 199.801 22.8607C198.466 23.7764 197.7 24.9587 197.253 26.1289C196.804 27.3022 196.675 28.4619 196.618 29.3267C196.607 29.4989 196.598 29.6638 196.59 29.8154C196.579 30.0347 196.569 30.2261 196.554 30.3717C196.542 30.4926 196.525 30.6149 196.488 30.7078C196.47 30.7532 196.436 30.8224 196.369 30.8738Z" fill="white" fill-opacity="0.2"/>
<path fill-rule="evenodd" clip-rule="evenodd" d="M199.621 32.5977C199.345 33.0368 206.621 33.8693 204.772 41.9434L199.621 32.5977Z" fill="white" fill-opacity="0.2"/>
<path fill-rule="evenodd" clip-rule="evenodd" d="M198.851 32.9301C198.754 32.6778 198.781 32.396 198.927 32.1646L200.316 33.0315C200.445 32.8276 200.469 32.574 200.384 32.351C200.319 32.1802 200.213 32.0882 200.188 32.0675C200.16 32.0435 200.14 32.0313 200.14 32.0313C200.14 32.0312 200.155 32.0402 200.194 32.0585C200.281 32.1001 200.383 32.1427 200.518 32.1993C200.622 32.2426 200.745 32.294 200.897 32.3597C201.537 32.6366 202.444 33.07 203.308 33.7775C204.178 34.4904 205.009 35.4851 205.485 36.8757C205.961 38.2652 206.061 39.9884 205.572 42.1253L203.973 41.7624C204.408 39.8622 204.292 38.4535 203.933 37.4023C203.573 36.3522 202.949 35.5975 202.266 35.0381C201.576 34.4734 200.832 34.1116 200.243 33.8567C200.147 33.8151 200.044 33.7722 199.944 33.7302C199.77 33.6569 199.602 33.5864 199.485 33.5306C199.399 33.4895 199.248 33.415 199.12 33.3059C199.058 33.2529 198.927 33.1304 198.851 32.9301Z" fill="white" fill-opacity="0.2"/>
<path fill-rule="evenodd" clip-rule="evenodd" d="M342.483 66.7041C343.397 65.6743 352.008 47.1857 332.789 41.7305L342.483 66.7041Z" fill="white" fill-opacity="0.2"/>
<path fill-rule="evenodd" clip-rule="evenodd" d="M343.375 66.6719C343.266 66.8677 343.146 67.061 343.032 67.1891L341.934 66.2235C341.933 66.2248 341.932 66.2254 341.932 66.2254C341.932 66.2253 341.946 66.2079 341.975 66.1631C342.007 66.1144 342.048 66.0471 342.096 65.9601C342.194 65.7865 342.315 65.5496 342.452 65.2553C342.725 64.6674 343.05 63.8669 343.359 62.9132C343.978 61.0016 344.518 58.5078 344.453 55.8971C344.388 53.2913 343.722 50.5939 341.952 48.2268C340.186 45.8633 337.27 43.7631 332.588 42.4341L332.99 41.0312C337.917 42.4298 341.132 44.6864 343.128 47.356C345.121 50.022 345.848 53.0339 345.918 55.8609C345.988 58.683 345.406 61.3454 344.754 63.3605C344.427 64.3702 344.08 65.2257 343.782 65.8672C343.633 66.1877 343.495 66.459 343.375 66.6719Z" fill="white" fill-opacity="0.2"/>
<path fill-rule="evenodd" clip-rule="evenodd" d="M194.675 33.5901C193.767 32.5551 176.463 21.666 168.546 39.9327L194.675 33.5901Z" fill="white" fill-opacity="0.2"/>
<path fill-rule="evenodd" clip-rule="evenodd" d="M194.728 32.745C194.908 32.8787 195.082 33.0191 195.191 33.1436L194.159 34.0405C194.161 34.0417 194.16 34.0417 194.159 34.0403C194.155 34.0361 194.137 34.0188 194.1 33.9869C194.054 33.9485 193.991 33.899 193.911 33.8391C193.749 33.7195 193.528 33.5683 193.251 33.3949C192.699 33.0485 191.942 32.6229 191.03 32.1941C189.203 31.3349 186.783 30.4771 184.167 30.2032C181.556 29.9299 178.772 30.2401 176.175 31.6868C173.582 33.1314 171.107 35.7469 169.175 40.2047L167.917 39.6646C169.943 34.9891 172.6 32.1157 175.507 30.4969C178.409 28.8802 181.493 28.5523 184.311 28.8473C187.124 29.1418 189.696 30.0586 191.615 30.9613C192.577 31.4135 193.383 31.8657 193.982 32.2415C194.281 32.4293 194.532 32.6003 194.728 32.745Z" fill="white" fill-opacity="0.2"/>
<path fill-rule="evenodd" clip-rule="evenodd" d="M195.868 32.6793C196.089 31.8095 193.716 17.1797 176.635 15.9062L195.868 32.6793Z" fill="white" fill-opacity="0.2"/>
<path fill-rule="evenodd" clip-rule="evenodd" d="M196.743 32.3086C196.752 32.4591 196.761 32.691 196.71 32.8906L195.026 32.4663C195.015 32.5082 195.013 32.5342 195.013 32.5341C195.012 32.5341 195.014 32.4989 195.009 32.4128C195.002 32.292 194.983 32.1182 194.948 31.8952C194.877 31.4507 194.745 30.8412 194.526 30.1193C194.089 28.6752 193.315 26.809 192.023 24.932C189.459 21.2044 184.826 17.3833 176.57 16.7678L176.7 15.043C185.526 15.701 190.62 19.8315 193.457 23.9546C194.866 26.0029 195.711 28.0369 196.19 29.6202C196.43 30.4122 196.58 31.0982 196.664 31.6253C196.706 31.888 196.732 32.1189 196.743 32.3086Z" fill="white" fill-opacity="0.2"/>
<path fill-rule="evenodd" clip-rule="evenodd" d="M199.852 32.1718C198.968 31.9969 184.485 34.679 184.09 51.7266L199.852 32.1718Z" fill="white" fill-opacity="0.2"/>
<path fill-rule="evenodd" clip-rule="evenodd" d="M199.507 31.8796C199.66 31.8655 199.808 31.8603 199.911 31.8806L199.794 32.4634C199.795 32.4634 199.794 32.4634 199.794 32.4633C199.79 32.463 199.772 32.461 199.733 32.4614C199.69 32.4617 199.633 32.4647 199.561 32.4713C199.418 32.4845 199.226 32.5111 198.993 32.5548C198.525 32.6421 197.898 32.7956 197.167 33.0382C195.702 33.5234 193.826 34.3619 191.966 35.7299C188.254 38.4586 184.584 43.3077 184.389 51.7337L183.792 51.72C183.992 43.0983 187.761 38.0825 191.611 35.252C193.531 33.8404 195.466 32.9756 196.978 32.4744C197.734 32.2238 198.387 32.0633 198.883 31.9708C199.13 31.9246 199.341 31.8949 199.507 31.8796Z" fill="white" fill-opacity="0.2"/>
<path fill-rule="evenodd" clip-rule="evenodd" d="M237.489 56.9688C237.186 58.3092 227.176 76.0861 211.478 63.7752L237.489 56.9688Z" fill="white" fill-opacity="0.2"/>
<path fill-rule="evenodd" clip-rule="evenodd" d="M236.598 56.7741C236.601 56.7649 236.602 56.7633 236.601 56.7687L238.379 57.1675C238.337 57.3545 238.242 57.5793 238.147 57.7833C238.041 58.0095 237.899 58.2842 237.724 58.5951C237.372 59.2174 236.875 60.0045 236.24 60.8654C234.973 62.5826 233.133 64.6282 230.773 66.239C228.407 67.8533 225.494 69.0475 222.11 69.0005C218.721 68.9535 214.964 67.6627 210.915 64.4873L212.043 63.0617C215.843 66.0418 219.223 67.1455 222.136 67.1859C225.054 67.2264 227.605 66.2008 229.742 64.7422C231.884 63.2801 233.584 61.3995 234.77 59.7913C235.362 58.9895 235.819 58.264 236.134 57.7057C236.292 57.4262 236.412 57.1935 236.494 57.0181C236.56 56.875 236.589 56.7982 236.598 56.7741Z" fill="white" fill-opacity="0.2"/>
<path fill-rule="evenodd" clip-rule="evenodd" d="M342.483 66.7041C343.397 65.6743 341.048 63.0274 332.789 41.7305L342.483 66.7041Z" fill="white" fill-opacity="0.2"/>
<path fill-rule="evenodd" clip-rule="evenodd" d="M343.217 65.152C343.443 65.8959 343.541 66.6148 343.032 67.1878L341.934 66.2225C341.933 66.2241 341.932 66.2266 341.931 66.2299C341.93 66.2307 341.93 66.2311 341.93 66.2312C341.93 66.2319 341.934 66.2194 341.935 66.1856C341.938 66.0925 341.917 65.912 341.814 65.5747C341.609 64.8992 341.164 63.8522 340.404 62.1088C340.303 61.878 340.197 61.6358 340.086 61.3817C338.536 57.8319 335.965 51.9446 332.106 41.9941L333.473 41.4688C337.321 51.3912 339.883 57.2571 341.431 60.8008C341.542 61.0549 341.647 61.2971 341.748 61.528C342.493 63.2372 342.981 64.3761 343.217 65.152Z" fill="white" fill-opacity="0.2"/>
<path fill-rule="evenodd" clip-rule="evenodd" d="M194.675 33.5889C193.767 32.554 190.827 34.5302 168.546 39.9316L194.675 33.5889Z" fill="white" fill-opacity="0.2"/>
<path fill-rule="evenodd" clip-rule="evenodd" d="M193.229 32.7132C193.998 32.5861 194.703 32.5873 195.19 33.1424L194.158 34.0392L194.153 34.0342L194.152 34.033C194.152 34.0331 194.152 34.0331 194.152 34.0329M193.229 32.7132C192.429 32.8453 191.235 33.1782 189.435 33.6934L193.229 32.7132ZM189.435 33.6934C189.192 33.763 188.936 33.8362 188.669 33.913L189.435 33.6934ZM188.669 33.913C184.938 34.9831 178.764 36.7545 168.382 39.2711L188.669 33.913ZM168.382 39.2711L168.706 40.5958L168.382 39.2711ZM168.706 40.5958C179.115 38.0726 185.311 36.2952 189.047 35.2234L168.706 40.5958ZM189.047 35.2234C189.315 35.1465 189.57 35.0733 189.813 35.0037L189.047 35.2234ZM189.813 35.0037C191.647 34.479 192.751 34.1743 193.454 34.0582L189.813 35.0037ZM193.454 34.0582C193.805 34.0002 193.993 34.001 194.093 34.0174L193.454 34.0582ZM194.093 34.0174C194.137 34.0245 194.152 34.0328 194.152 34.0328L194.093 34.0174ZM194.152 34.0328C194.152 34.0329 194.152 34.0329 194.152 34.0329L194.152 34.0328Z" fill="white" fill-opacity="0.2"/>
<path fill-rule="evenodd" clip-rule="evenodd" d="M363.877 122.859C363.52 121.657 358.788 121.881 329.348 116.184L363.877 122.859Z" fill="white" fill-opacity="0.2"/>
<path fill-rule="evenodd" clip-rule="evenodd" d="M363.939 121.654C364.286 121.842 364.623 122.133 364.761 122.597L362.992 123.119C363.027 123.237 363.094 123.288 363.094 123.288C363.094 123.288 363.083 123.281 363.056 123.266C362.942 123.204 362.706 123.114 362.247 123C361.338 122.774 359.838 122.518 357.367 122.112C357.039 122.058 356.694 122.002 356.332 121.943C351.286 121.116 342.919 119.745 329.171 117.084L329.523 115.281C343.245 117.937 351.592 119.305 356.633 120.131C356.995 120.19 357.339 120.246 357.668 120.3C360.105 120.701 361.695 120.97 362.694 121.218C363.188 121.341 363.611 121.476 363.939 121.654Z" fill="white" fill-opacity="0.2"/>
<path fill-rule="evenodd" clip-rule="evenodd" d="M195.869 32.68C196.09 31.8102 193.095 30.2254 177.066 16L195.869 32.68Z" fill="white" fill-opacity="0.2"/>
<path fill-rule="evenodd" clip-rule="evenodd" d="M196.527 31.8527C196.688 32.1226 196.813 32.4815 196.709 32.8892L195.025 32.465C194.983 32.6309 195.038 32.7426 195.037 32.7429C195.037 32.7429 195.036 32.7405 195.033 32.7356C194.999 32.6793 194.903 32.5534 194.665 32.3188C194.196 31.8563 193.375 31.1589 192 30.0071C191.818 29.8544 191.626 29.6943 191.426 29.5262C188.622 27.1794 183.974 23.2878 176.486 16.6426L177.642 15.3516C185.111 21.9803 189.745 25.8596 192.544 28.2028C192.745 28.3709 192.937 28.5311 193.119 28.6838C194.469 29.8151 195.357 30.5661 195.888 31.0899C196.15 31.3485 196.377 31.6002 196.527 31.8527Z" fill="white" fill-opacity="0.2"/>
<path fill-rule="evenodd" clip-rule="evenodd" d="M199.852 32.171C198.968 31.9961 197.533 35.0556 184.09 51.7258L199.852 32.171Z" fill="white" fill-opacity="0.2"/>
<path fill-rule="evenodd" clip-rule="evenodd" d="M199.308 32.0303C199.496 31.9052 199.696 31.8374 199.911 31.8799L199.795 32.4626L199.794 32.4625C199.787 32.461 199.747 32.4528 199.639 32.5248C199.521 32.6026 199.361 32.7495 199.13 33.0065C198.671 33.5181 197.998 34.3933 196.92 35.8111C196.776 36.0001 196.625 36.1985 196.467 36.4068C194.259 39.3135 190.599 44.131 184.324 51.9121L183.859 51.5401C190.128 43.7657 193.784 38.9534 195.991 36.0482C196.149 35.8399 196.3 35.6415 196.444 35.4524C197.515 34.0434 198.206 33.1447 198.685 32.6108C198.923 32.3451 199.125 32.1515 199.308 32.0303Z" fill="white" fill-opacity="0.2"/>
<path fill-rule="evenodd" clip-rule="evenodd" d="M237.489 56.9688C237.186 58.3092 233.655 57.9645 211.478 63.7752L237.489 56.9688Z" fill="white" fill-opacity="0.2"/>
<path fill-rule="evenodd" clip-rule="evenodd" d="M236.635 56.6935C236.624 56.7078 236.608 56.7335 236.6 56.7717L238.378 57.1705C238.187 58.0167 237.455 58.3862 236.712 58.6409C235.93 58.9091 234.705 59.1854 232.882 59.5843C232.635 59.6383 232.375 59.6949 232.103 59.7542C228.312 60.5808 222.039 61.9489 211.71 64.6551L211.246 62.9C221.611 60.1843 227.913 58.8101 231.712 57.9816C231.984 57.9223 232.244 57.8658 232.491 57.8118C234.36 57.4029 235.46 57.1508 236.119 56.9251C236.465 56.8064 236.596 56.7245 236.635 56.6935ZM236.649 56.6797C236.65 56.6798 236.646 56.6845 236.635 56.6935C236.642 56.6841 236.648 56.6796 236.649 56.6797Z" fill="white" fill-opacity="0.2"/>
<path fill-rule="evenodd" clip-rule="evenodd" d="M342.483 66.7041C342.511 48.2704 340.549 51.6405 332.789 41.7305L342.483 66.7041Z" fill="white" fill-opacity="0.2"/>
<path fill-rule="evenodd" clip-rule="evenodd" d="M341.203 50.6789C342.762 53.5677 343.231 57.5236 343.217 66.7082L341.752 66.7061C341.765 57.457 341.267 53.8812 339.912 51.3691C339.234 50.1119 338.324 49.0905 337.046 47.7207C336.936 47.6032 336.824 47.4834 336.709 47.3609C335.495 46.0638 334.006 44.4721 332.212 42.1819L333.368 41.2852C335.12 43.523 336.571 45.073 337.783 46.3682C337.897 46.4902 338.009 46.6099 338.119 46.7278C339.39 48.0894 340.424 49.2356 341.203 50.6789Z" fill="white" fill-opacity="0.2"/>
<path fill-rule="evenodd" clip-rule="evenodd" d="M194.675 33.591C176.316 31.1821 179.419 33.5544 168.545 39.9337L194.675 33.591Z" fill="white" fill-opacity="0.2"/>
<path fill-rule="evenodd" clip-rule="evenodd" d="M178.561 32.8276C181.627 31.6672 185.616 31.7127 194.765 32.9132L194.586 34.265C185.377 33.0566 181.738 33.0837 179.048 34.102C177.701 34.6116 176.562 35.381 175.032 36.4658C174.901 36.559 174.767 36.6542 174.63 36.7516C173.182 37.7822 171.405 39.046 168.894 40.519L168.199 39.3444C170.656 37.9028 172.389 36.6701 173.836 35.641C173.972 35.544 174.106 35.4489 174.238 35.3555C175.758 34.2766 177.029 33.4073 178.561 32.8276Z" fill="white" fill-opacity="0.2"/>
<path fill-rule="evenodd" clip-rule="evenodd" d="M363.877 122.861C344.22 112.868 346.226 116.075 329.348 116.185L363.877 122.861Z" fill="white" fill-opacity="0.2"/>
<path fill-rule="evenodd" clip-rule="evenodd" d="M345.667 114.818C349.925 115.272 354.479 117.049 364.296 122.039L363.457 123.675C353.616 118.672 349.345 117.057 345.471 116.644C343.527 116.436 341.654 116.529 339.157 116.689C338.943 116.703 338.724 116.717 338.5 116.732C336.131 116.886 333.236 117.075 329.352 117.1L329.34 115.263C333.168 115.238 336.014 115.053 338.381 114.899C338.605 114.885 338.823 114.87 339.038 114.857C341.526 114.697 343.546 114.591 345.667 114.818Z" fill="white" fill-opacity="0.2"/>
<path fill-rule="evenodd" clip-rule="evenodd" d="M237.489 56.9688C222.497 67.7882 224.092 64.2311 211.478 63.7752L237.489 56.9688Z" fill="white" fill-opacity="0.2"/>
<path fill-rule="evenodd" clip-rule="evenodd" d="M223.471 63.7011C226.258 63.3302 229.426 61.6676 236.954 56.2344L238.024 57.7037C230.561 63.0899 227.03 65.0585 223.713 65.4999C222.056 65.7204 220.495 65.554 218.644 65.3263C218.483 65.3066 218.32 65.2863 218.154 65.2657C216.39 65.0465 214.285 64.7849 211.445 64.6822L211.511 62.8686C214.434 62.9743 216.61 63.2448 218.377 63.4645C218.544 63.4852 218.707 63.5055 218.867 63.5252C220.733 63.7546 222.076 63.8868 223.471 63.7011Z" fill="white" fill-opacity="0.2"/>
<path fill-rule="evenodd" clip-rule="evenodd" d="M342.483 66.7041C340.246 56.9355 330.159 59.2486 332.789 41.7305L342.483 66.7041Z" fill="white" fill-opacity="0.2"/>
<path fill-rule="evenodd" clip-rule="evenodd" d="M338.104 58.451C340.12 60.4483 342.297 62.6053 343.198 66.5404L341.77 66.8647C340.971 63.3775 339.178 61.5959 337.227 59.6563C336.578 59.0113 335.912 58.3488 335.258 57.6002C333.967 56.121 332.816 54.3632 332.17 51.8269C331.528 49.3052 331.399 46.0618 332.065 41.6211L333.515 41.8368C332.866 46.1551 333.011 49.1919 333.591 51.4687C334.166 53.7309 335.183 55.29 336.364 56.6434C336.904 57.261 337.497 57.8487 338.104 58.451Z" fill="white" fill-opacity="0.2"/>
<path fill-rule="evenodd" clip-rule="evenodd" d="M194.675 33.5898C184.655 34.5365 185.656 44.7927 168.545 39.9325L194.675 33.5898Z" fill="white" fill-opacity="0.2"/>
<path fill-rule="evenodd" clip-rule="evenodd" d="M185.925 36.8794C188.174 35.1491 190.589 33.2901 194.611 32.9102L194.74 34.2675C191.148 34.6068 189.128 36.1565 186.941 37.8344C186.216 38.3905 185.473 38.9608 184.648 39.5058C183.012 40.5863 181.12 41.4924 178.519 41.8009C175.932 42.1077 172.691 41.8179 168.358 40.587L168.734 39.2759C172.956 40.4751 176.006 40.7259 178.357 40.447C180.694 40.1698 182.386 39.364 183.891 38.3697C184.58 37.9144 185.245 37.4028 185.925 36.8794Z" fill="white" fill-opacity="0.2"/>
<path fill-rule="evenodd" clip-rule="evenodd" d="M363.877 122.859C351.632 119.152 345.915 127.516 329.348 116.184L363.877 122.859Z" fill="white" fill-opacity="0.2"/>
<path fill-rule="evenodd" clip-rule="evenodd" d="M351.613 121.209C355.366 120.87 359.306 120.514 364.145 121.979L363.608 123.736C359.145 122.385 355.663 122.697 351.984 123.026C350.781 123.134 349.557 123.243 348.271 123.297C343.044 123.517 337.275 122.72 328.824 116.939L329.869 115.426C337.985 120.978 343.359 121.665 348.193 121.462C349.33 121.415 350.463 121.312 351.613 121.209Z" fill="white" fill-opacity="0.2"/>
<path fill-rule="evenodd" clip-rule="evenodd" d="M237.489 56.9688C228.225 60.885 224.2 51.3917 211.478 63.7752L237.489 56.9688Z" fill="white" fill-opacity="0.2"/>
<path fill-rule="evenodd" clip-rule="evenodd" d="M228.731 56.6853C231.44 57.121 233.877 57.5131 237.133 56.1367L237.846 57.8072C234.061 59.407 230.964 58.9025 228.15 58.4442C227.311 58.3076 226.498 58.1751 225.699 58.1037C223.925 57.945 222.09 58.037 219.943 58.8848C217.779 59.7394 215.241 61.3851 212.115 64.4271L210.841 63.1296C214.077 59.9799 216.813 58.1684 219.271 57.1978C221.746 56.2204 223.881 56.119 225.862 56.2962C226.877 56.3869 227.819 56.5386 228.731 56.6853Z" fill="white" fill-opacity="0.2"/>
<path fill-rule="evenodd" clip-rule="evenodd" d="M342.483 66.7041C343.397 65.6743 321.503 57.4754 332.789 41.7305L342.483 66.7041Z" fill="white" fill-opacity="0.2"/>
<path fill-rule="evenodd" clip-rule="evenodd" d="M343.204 66.3736C343.279 66.6143 343.261 66.9309 343.033 67.1886L341.934 66.223C341.763 66.4164 341.758 66.6547 341.804 66.8029C341.823 66.8645 341.847 66.9036 341.858 66.9179C341.856 66.9165 341.855 66.9148 341.853 66.9129C341.803 66.8569 341.678 66.7481 341.436 66.5731C341.118 66.3438 340.697 66.0679 340.184 65.7319C339.931 65.5665 339.656 65.3865 339.361 65.1904C337.603 64.0244 335.248 62.3741 333.215 60.239C331.182 58.1045 329.428 55.4401 328.947 52.24C328.462 49.0191 329.284 45.3674 332.193 41.3086L333.386 42.1559C330.652 45.9695 329.978 49.247 330.396 52.0239C330.817 54.8215 332.363 57.2234 334.278 59.2354C336.194 61.2469 338.435 62.8235 340.173 63.9765C340.442 64.1549 340.703 64.3255 340.949 64.487C341.483 64.8365 341.951 65.1431 342.297 65.3926C342.544 65.5712 342.784 65.7595 342.949 65.9445C343.027 66.032 343.144 66.1788 343.204 66.3736ZM341.862 66.9241C341.862 66.9241 341.86 66.922 341.858 66.9179C341.861 66.9221 341.863 66.9241 341.862 66.9241Z" fill="white" fill-opacity="0.2"/>
<path fill-rule="evenodd" clip-rule="evenodd" d="M194.675 33.5927C193.767 32.5577 182.771 53.11 168.545 39.9353L194.675 33.5927Z" fill="white" fill-opacity="0.2"/>
<path fill-rule="evenodd" clip-rule="evenodd" d="M194.445 32.883C194.681 32.8429 194.976 32.898 195.19 33.1421L194.159 34.0389C194.316 34.2183 194.535 34.2509 194.675 34.227C194.731 34.2176 194.767 34.2014 194.781 34.1944C194.779 34.1958 194.776 34.1976 194.772 34.2C194.705 34.2451 194.578 34.3582 194.372 34.5747C194.102 34.8592 193.771 35.2409 193.37 35.7048C193.173 35.9326 192.958 36.1801 192.725 36.4458C191.337 38.0294 189.392 40.1376 187.007 41.8654C184.623 43.5927 181.751 44.9747 178.515 45.0362C175.259 45.0981 171.739 43.8218 168.079 40.4322L169.012 39.434C172.464 42.6318 175.654 43.7269 178.489 43.673C181.343 43.6187 183.945 42.3976 186.201 40.763C188.457 39.1289 190.32 37.1165 191.693 35.5494C191.906 35.3063 192.11 35.0708 192.303 34.8481C192.72 34.3668 193.085 33.9456 193.377 33.6378C193.587 33.4171 193.802 33.2076 194.003 33.0718C194.099 33.0074 194.253 32.9156 194.445 32.883ZM194.787 34.1909C194.787 34.191 194.785 34.1923 194.781 34.1944C194.785 34.1918 194.787 34.1908 194.787 34.1909Z" fill="white" fill-opacity="0.2"/>
<path fill-rule="evenodd" clip-rule="evenodd" d="M363.877 122.861C363.519 121.659 336.471 131.57 328.822 115.094L363.877 122.861ZM363.877 122.861C363.519 121.659 349.977 105.653 328.554 116.254L363.877 122.861Z" fill="white" fill-opacity="0.2"/>
<path fill-rule="evenodd" clip-rule="evenodd" d="M364.436 121.94C364.556 122.115 364.713 122.358 364.782 122.591L365.239 124.123L363.346 123.704C363.198 123.716 362.995 123.742 362.729 123.784C362.207 123.866 361.542 123.992 360.741 124.145C360.358 124.217 359.943 124.296 359.498 124.379C356.78 124.884 353.071 125.506 349.117 125.642C341.28 125.913 332.047 124.278 327.966 115.486L327.166 113.762L330.236 114.442C340.282 110.155 348.579 111.532 354.513 114.278C357.669 115.738 360.143 117.578 361.856 119.135C362.712 119.913 363.384 120.626 363.86 121.193C364.097 121.475 364.291 121.728 364.436 121.94ZM330.639 116.457C334.566 122.638 341.989 124.008 349.051 123.764C352.585 123.642 355.936 123.117 358.553 122.642L330.639 116.457ZM333.567 115.18C341.898 112.367 348.732 113.675 353.717 115.982C356.669 117.348 358.986 119.072 360.583 120.523C360.905 120.816 361.197 121.097 361.458 121.36L333.567 115.18Z" fill="white" fill-opacity="0.2"/>
<path fill-rule="evenodd" clip-rule="evenodd" d="M195.868 32.6779C196.089 31.8082 175.853 27.9423 177.198 15.0156L195.868 32.6779Z" fill="white" fill-opacity="0.2"/>
<path fill-rule="evenodd" clip-rule="evenodd" d="M196.459 31.9905C196.551 32.0866 196.83 32.4169 196.71 32.8894L195.026 32.4651C194.919 32.8832 195.172 33.1533 195.201 33.183C195.228 33.2112 195.249 33.228 195.258 33.2341C195.254 33.2319 195.249 33.2284 195.24 33.2235C195.163 33.1783 195.008 33.1055 194.747 33C194.399 32.8593 193.949 32.6939 193.403 32.493C193.141 32.3967 192.856 32.2922 192.551 32.1784C190.695 31.4878 188.179 30.501 185.69 29.1233C180.767 26.3991 175.604 21.9441 176.334 14.9258L178.063 15.104C177.448 21.0124 181.73 24.9536 186.534 27.6115C188.907 28.9248 191.324 29.8754 193.159 30.5583C193.441 30.6631 193.712 30.7628 193.968 30.8571C194.533 31.0648 195.027 31.2461 195.401 31.3976C195.67 31.5062 195.925 31.6183 196.119 31.7316C196.211 31.7848 196.344 31.8696 196.459 31.9905ZM195.261 33.2367C195.261 33.2367 195.26 33.2358 195.258 33.2341C195.26 33.2358 195.262 33.2367 195.261 33.2367Z" fill="white" fill-opacity="0.2"/>
<path fill-rule="evenodd" clip-rule="evenodd" d="M199.852 32.173C198.968 31.9981 197.128 52.3966 184.09 51.7278L199.852 32.173Z" fill="white" fill-opacity="0.2"/>
<path fill-rule="evenodd" clip-rule="evenodd" d="M199.543 32.019C199.596 31.9604 199.724 31.8452 199.911 31.8822L199.794 32.4649C199.856 32.477 199.909 32.4634 199.944 32.4458C199.975 32.4306 199.989 32.4141 199.99 32.4133L199.99 32.4133C199.99 32.4131 199.99 32.4131 199.99 32.4131C199.99 32.4131 199.986 32.4185 199.977 32.4325C199.968 32.4475 199.957 32.4686 199.944 32.4969C199.889 32.6151 199.822 32.8067 199.742 33.0753C199.635 33.4361 199.513 33.904 199.367 34.4611C199.296 34.7292 199.221 35.018 199.139 35.3255C198.637 37.2065 197.912 39.7369 196.803 42.2555C194.593 47.2727 190.794 52.3697 184.076 52.0251L184.106 51.4317C190.426 51.7558 194.066 46.988 196.256 42.0169C197.347 39.5413 198.062 37.0467 198.562 35.173C198.642 34.8745 198.716 34.5904 198.786 34.3242C198.933 33.7604 199.06 33.277 199.17 32.9068C199.251 32.6356 199.327 32.4075 199.403 32.2464C199.439 32.1682 199.485 32.0849 199.543 32.019Z" fill="white" fill-opacity="0.2"/>
<path fill-rule="evenodd" clip-rule="evenodd" d="M237.489 56.9696C237.186 58.31 217.687 45.4478 211.478 63.776L237.489 56.9696Z" fill="white" fill-opacity="0.2"/>
<path fill-rule="evenodd" clip-rule="evenodd" d="M237.113 56.1969C236.918 56.2627 236.673 56.4481 236.6 56.7713L238.378 57.1701C238.286 57.5771 237.985 57.8185 237.698 57.9154C237.468 57.9931 237.25 57.9821 237.124 57.9695C236.856 57.9427 236.546 57.8535 236.255 57.7584C235.845 57.6247 235.315 57.424 234.715 57.1971C234.44 57.0931 234.151 56.9836 233.851 56.8724C231.898 56.1466 229.316 55.2673 226.577 54.9029C223.838 54.5383 221.018 54.6997 218.538 55.976C216.081 57.2402 213.834 59.6626 212.342 64.0671L210.614 63.4871C212.227 58.7275 214.745 55.8846 217.7 54.3638C220.632 52.855 223.87 52.7117 226.819 53.1041C229.769 53.4966 232.507 54.4361 234.489 55.1721C234.825 55.2972 235.135 55.4143 235.418 55.5215C235.989 55.7376 236.455 55.9136 236.823 56.0341C237.104 56.1257 237.249 56.1577 237.305 56.1636C237.28 56.1628 237.207 56.1649 237.113 56.1969ZM237.306 56.1638C237.306 56.1637 237.305 56.1637 237.305 56.1636L237.306 56.1638Z" fill="white" fill-opacity="0.2"/>
<path fill-rule="evenodd" clip-rule="evenodd" d="M289.326 32.7333C289.704 31.0891 291.18 12.9259 264.148 11.4688L289.326 32.7333Z" fill="white" fill-opacity="0.2"/>
<path fill-rule="evenodd" clip-rule="evenodd" d="M287.813 21.5571C290.924 26.7335 290.461 31.9403 290.231 32.9399L288.422 32.5279C288.57 31.8832 289.034 27.1863 286.22 22.5058C283.453 17.9028 277.387 13.108 264.098 12.3917L264.198 10.5469C277.943 11.2877 284.654 16.3031 287.813 21.5571Z" fill="white" fill-opacity="0.2"/>
<path fill-rule="evenodd" clip-rule="evenodd" d="M289.326 32.7333C289.704 31.0891 285.611 29.6073 264.148 11.4688L289.326 32.7333Z" fill="white" fill-opacity="0.2"/>
<path fill-rule="evenodd" clip-rule="evenodd" d="M289.222 30.6111C289.905 31.2816 290.445 32.0096 290.232 32.9404L288.422 32.5285C288.422 32.5306 288.421 32.5388 288.423 32.5487C288.423 32.5512 288.423 32.5525 288.423 32.5526C288.424 32.5529 288.421 32.5388 288.405 32.5071C288.355 32.4091 288.228 32.2298 287.919 31.9268C287.301 31.3198 286.205 30.4519 284.357 29.0157C284.112 28.8255 283.855 28.626 283.586 28.4167C279.821 25.4948 273.576 20.6489 263.548 12.1741L264.749 10.7656C274.748 19.2158 280.969 24.0437 284.728 26.9603C284.997 27.1696 285.254 27.3691 285.499 27.5593C287.31 28.9665 288.509 29.9109 289.222 30.6111Z" fill="white" fill-opacity="0.2"/>
<path fill-rule="evenodd" clip-rule="evenodd" d="M284.76 28.1562C276.739 28.2999 274.04 28.7946 272.448 28.7948L284.76 28.1562Z" fill="white" fill-opacity="0.2"/>
<path fill-rule="evenodd" clip-rule="evenodd" d="M276.123 27.606C278.016 27.4631 280.714 27.3026 284.743 27.2305L284.777 29.0777C280.785 29.1492 278.123 29.3079 276.264 29.4483C275.68 29.4923 275.165 29.5357 274.706 29.5743C273.737 29.656 273.02 29.7163 272.449 29.7164L272.448 27.8688C272.94 27.8688 273.536 27.8185 274.434 27.7427C274.905 27.7029 275.458 27.6562 276.123 27.606Z" fill="white" fill-opacity="0.2"/>
<path fill-rule="evenodd" clip-rule="evenodd" d="M279.059 24.0156C272.202 24.1595 269.894 24.6541 268.533 24.6543L279.059 24.0156Z" fill="white" fill-opacity="0.2"/>
<path fill-rule="evenodd" clip-rule="evenodd" d="M271.654 23.4743C273.277 23.3309 275.589 23.17 279.04 23.0977L279.079 24.9342C275.672 25.0057 273.401 25.1641 271.817 25.3041C271.33 25.3471 270.895 25.3899 270.505 25.4283C269.666 25.5109 269.035 25.5731 268.533 25.5731L268.533 23.7362C268.942 23.7361 269.433 23.6876 270.189 23.6129C270.592 23.573 271.071 23.5257 271.654 23.4743Z" fill="white" fill-opacity="0.2"/>
<path fill-rule="evenodd" clip-rule="evenodd" d="M273.543 19.2344C268.584 19.378 266.914 19.8727 265.93 19.8729L273.543 19.2344Z" fill="white" fill-opacity="0.2"/>
<path fill-rule="evenodd" clip-rule="evenodd" d="M268.133 18.6881C269.32 18.5432 271.006 18.3813 273.516 18.3086L273.57 20.1605C271.121 20.2315 269.492 20.3887 268.359 20.5271C267.98 20.5734 267.663 20.6166 267.38 20.6552C267.232 20.6754 267.093 20.6944 266.959 20.7119C266.587 20.7605 266.244 20.7994 265.931 20.7995L265.93 18.9467C266.109 18.9467 266.344 18.9237 266.717 18.8749C266.833 18.8598 266.963 18.842 267.106 18.8226C267.397 18.7829 267.742 18.7358 268.133 18.6881Z" fill="white" fill-opacity="0.2"/>
<path fill-rule="evenodd" clip-rule="evenodd" d="M289.326 32.7333C289.704 31.0891 267.138 38.2515 264.148 11.4688L289.326 32.7333Z" fill="white" fill-opacity="0.2"/>
<path fill-rule="evenodd" clip-rule="evenodd" d="M289.989 31.9902C290.237 32.2673 290.304 32.6221 290.231 32.9398L288.422 32.5278C288.372 32.7428 288.418 33.0119 288.602 33.2181C288.674 33.2988 288.746 33.3443 288.788 33.3671C288.83 33.3902 288.86 33.3995 288.866 33.4014C288.875 33.4039 288.849 33.3957 288.766 33.3871C288.689 33.3791 288.586 33.3732 288.453 33.3701C288.127 33.3624 287.731 33.372 287.243 33.3837C286.877 33.3926 286.459 33.4027 285.982 33.4076C283.84 33.4297 280.852 33.3345 277.736 32.4141C274.608 31.4901 271.344 29.7326 268.675 26.4398C266.008 23.1514 263.988 18.3982 263.226 11.5713L265.07 11.3672C265.803 17.9317 267.725 22.3267 270.119 25.2794C272.509 28.2277 275.424 29.8041 278.264 30.6429C281.116 31.4852 283.886 31.5816 285.962 31.5602C286.365 31.556 286.758 31.5468 287.123 31.5383C287.661 31.5257 288.139 31.5146 288.497 31.523C288.79 31.5299 289.131 31.5495 289.411 31.6352C289.547 31.6769 289.791 31.7689 289.989 31.9902Z" fill="white" fill-opacity="0.2"/>
<path fill-rule="evenodd" clip-rule="evenodd" d="M316.579 66.0083C317.212 66.0083 302.27 39.515 287.941 31.7578L316.579 66.0083Z" fill="white" fill-opacity="0.2"/>
<path fill-rule="evenodd" clip-rule="evenodd" d="M317.62 66.9719C317.319 67.2883 316.927 67.4179 316.579 67.4179V64.5988C316.24 64.5988 315.856 64.7252 315.562 65.0352C315.307 65.3033 315.23 65.5937 315.204 65.7355C315.158 65.9891 315.2 66.1846 315.204 66.2075L315.205 66.2093C315.214 66.2543 315.223 66.2813 315.223 66.2818C315.223 66.2821 315.218 66.266 315.203 66.2292C315.149 66.0933 315.037 65.85 314.854 65.4913C314.496 64.7866 313.924 63.7486 313.165 62.461C311.649 59.8896 309.416 56.3711 306.719 52.6113C301.279 45.0289 294.12 36.7076 287.264 32.9961L288.617 30.5195C296.091 34.5654 303.568 43.3693 309.023 50.9729C311.773 54.806 314.052 58.3956 315.608 61.0342C316.384 62.3516 316.987 63.4439 317.381 64.2184C317.575 64.5993 317.733 64.9327 317.835 65.1887C317.88 65.3011 317.945 65.4738 317.981 65.655L317.982 65.657C317.995 65.7213 318.042 65.9577 317.99 66.2428C317.962 66.3974 317.881 66.6973 317.62 66.9719Z" fill="white" fill-opacity="0.2"/>
<path fill-rule="evenodd" clip-rule="evenodd" d="M316.579 66.0083C317.212 66.0083 302.27 39.515 287.941 31.7578L316.579 66.0083Z" fill="white" fill-opacity="0.2"/>
<path fill-rule="evenodd" clip-rule="evenodd" d="M317.62 66.9719C317.319 67.2883 316.927 67.4179 316.579 67.4179V64.5988C316.24 64.5988 315.856 64.7252 315.562 65.0352C315.307 65.3033 315.23 65.5937 315.204 65.7355C315.158 65.9891 315.2 66.1846 315.204 66.2075L315.205 66.2093C315.214 66.2543 315.223 66.2813 315.223 66.2818C315.223 66.2821 315.218 66.266 315.203 66.2292C315.149 66.0933 315.037 65.85 314.854 65.4913C314.496 64.7866 313.924 63.7486 313.165 62.461C311.649 59.8896 309.416 56.3711 306.719 52.6113C301.279 45.0289 294.12 36.7076 287.264 32.9961L288.617 30.5195C296.091 34.5654 303.568 43.3693 309.023 50.9729C311.773 54.806 314.052 58.3956 315.608 61.0342C316.384 62.3516 316.987 63.4439 317.381 64.2184C317.575 64.5993 317.733 64.9327 317.835 65.1887C317.88 65.3011 317.945 65.4738 317.981 65.655L317.982 65.657C317.995 65.7213 318.042 65.9577 317.99 66.2428C317.962 66.3974 317.881 66.6973 317.62 66.9719Z" fill="white" fill-opacity="0.2"/>
<path fill-rule="evenodd" clip-rule="evenodd" d="M357.157 97.0796C357.79 97.0796 350.071 81.5457 342.828 66.0117L357.157 97.0796Z" fill="white" fill-opacity="0.2"/>
<path fill-rule="evenodd" clip-rule="evenodd" d="M358.3 97.9262C358.018 98.2897 357.591 98.485 357.157 98.485V95.6659C356.742 95.6659 356.33 95.8536 356.06 96.202C355.844 96.4797 355.799 96.7556 355.787 96.8563C355.771 96.9779 355.778 97.0689 355.781 97.103C355.785 97.144 355.79 97.1693 355.791 97.1727C355.791 97.1737 355.791 97.1737 355.791 97.1726C355.79 97.1678 355.784 97.1428 355.768 97.092C355.75 97.0329 355.723 96.9547 355.687 96.8552C355.54 96.4474 355.278 95.8164 354.906 94.9712C354.167 93.2919 353.043 90.8806 351.665 87.9673C350.75 86.0338 349.724 83.8819 348.63 81.5848C346.434 76.9775 343.961 71.7861 341.543 66.601L344.112 65.4141C346.525 70.5895 348.988 75.7585 351.18 80.3595C352.277 82.6606 353.306 84.8195 354.227 86.7661C355.604 89.6781 356.744 92.1212 357.5 93.8399C357.876 94.6937 358.17 95.3976 358.352 95.9C358.438 96.1382 358.523 96.3952 358.568 96.6217C358.586 96.7089 358.63 96.939 358.597 97.2045C358.58 97.3351 358.528 97.6334 358.3 97.9262Z" fill="white" fill-opacity="0.2"/>
<path fill-rule="evenodd" clip-rule="evenodd" d="M292.378 77.5041C292.615 77.93 295.816 82.1179 301.91 77.2422L292.378 77.5041Z" fill="white" fill-opacity="0.2"/>
<path fill-rule="evenodd" clip-rule="evenodd" d="M294.71 80.128C292.877 79.563 291.869 78.2448 291.674 77.8937L293.083 77.1153C293.083 77.1141 293.083 77.1148 293.085 77.1174C293.094 77.1311 293.137 77.1965 293.225 77.3015C293.323 77.4184 293.463 77.5681 293.644 77.7271C294.007 78.046 294.523 78.3904 295.187 78.5952C296.462 78.9885 298.513 78.9315 301.405 76.6172L302.415 77.8679C299.214 80.4293 296.618 80.7163 294.71 80.128Z" fill="white" fill-opacity="0.2"/>
<path fill-rule="evenodd" clip-rule="evenodd" d="M294.164 82.4805C293.814 82.5681 290.21 84.0476 292.55 89.2927L294.164 82.4805Z" fill="white" fill-opacity="0.2"/>
<path fill-rule="evenodd" clip-rule="evenodd" d="M293.287 82.6195C293.657 82.3733 293.976 82.2496 294.1 82.2188L294.231 82.7369C294.179 82.7498 293.916 82.8439 293.585 83.0638C293.259 83.2807 292.879 83.6122 292.577 84.0917C291.983 85.0352 291.653 86.6191 292.796 89.1816L292.305 89.3984C291.109 86.7159 291.411 84.9375 292.122 83.8081C292.473 83.2511 292.913 82.8685 293.287 82.6195Z" fill="white" fill-opacity="0.2"/>
<path fill-rule="evenodd" clip-rule="evenodd" d="M309.695 100.331C309.017 99.8482 300.523 96.5228 294.729 108.468L309.695 100.331Z" fill="white" fill-opacity="0.2"/>
<path fill-rule="evenodd" clip-rule="evenodd" d="M309.276 99.5725C309.595 99.6904 309.855 99.8141 309.997 99.9153L309.396 100.753L309.396 100.753C309.396 100.753 309.393 100.751 309.387 100.747C309.38 100.743 309.371 100.737 309.358 100.73C309.333 100.716 309.3 100.699 309.257 100.679C309.172 100.638 309.058 100.59 308.916 100.537C308.633 100.433 308.25 100.318 307.786 100.227C306.859 100.044 305.623 99.9613 304.236 100.246C301.489 100.809 298.036 102.839 295.195 108.695L294.264 108.247C297.218 102.158 300.909 99.8773 304.027 99.2379C305.572 98.921 306.949 99.0132 307.987 99.217C308.505 99.3189 308.942 99.4493 309.276 99.5725Z" fill="white" fill-opacity="0.2"/>
<path fill-rule="evenodd" clip-rule="evenodd" d="M292.378 77.5042C292.615 77.93 293.782 77.4629 301.91 77.2422L292.378 77.5042Z" fill="white" fill-opacity="0.2"/>
<path fill-rule="evenodd" clip-rule="evenodd" d="M292.787 78.4727C292.496 78.4591 291.959 78.4022 291.674 77.8907L293.083 77.1123C292.979 76.9261 292.823 76.8733 292.78 76.8628C292.793 76.8648 292.82 76.8678 292.863 76.8698C293.075 76.8798 293.441 76.8595 294.13 76.8125C294.22 76.8064 294.313 76.8 294.412 76.7932C295.789 76.6985 298.079 76.5409 301.888 76.4375L301.932 78.0416C298.156 78.1441 295.892 78.2999 294.522 78.3942C294.424 78.4009 294.33 78.4074 294.24 78.4135C293.592 78.4576 293.115 78.4881 292.787 78.4727ZM292.768 76.8606C292.769 76.8605 292.773 76.8611 292.78 76.8628C292.772 76.8616 292.768 76.8607 292.768 76.8606Z" fill="white" fill-opacity="0.2"/>
<path fill-rule="evenodd" clip-rule="evenodd" d="M294.164 82.4805C293.814 82.5681 293.928 83.4845 292.55 89.2927L294.164 82.4805Z" fill="white" fill-opacity="0.2"/>
<path fill-rule="evenodd" clip-rule="evenodd" d="M293.703 82.6818C293.765 82.4862 293.861 82.2783 294.099 82.2188L294.23 82.7369C294.25 82.7319 294.261 82.7226 294.266 82.7177C294.259 82.7271 294.241 82.7597 294.214 82.843C294.16 83.0137 294.101 83.2997 294.006 83.7894C293.994 83.8542 293.981 83.9221 293.967 83.9934C293.774 84.9875 293.455 86.6366 292.811 89.3514L292.289 89.2286C292.931 86.5245 293.248 84.8838 293.44 83.8921C293.454 83.8208 293.467 83.7528 293.479 83.688C293.572 83.2117 293.637 82.8891 293.703 82.6818ZM294.268 82.7146C294.268 82.7148 294.268 82.7159 294.266 82.7177C294.267 82.7154 294.268 82.7145 294.268 82.7146Z" fill="white" fill-opacity="0.2"/>
<path fill-rule="evenodd" clip-rule="evenodd" d="M309.696 100.335C309.017 99.8524 307.565 101.422 295.216 107.683L309.696 100.335Z" fill="white" fill-opacity="0.2"/>
<path fill-rule="evenodd" clip-rule="evenodd" d="M308.684 99.9237C309.121 99.7414 309.584 99.6224 309.997 99.9158L309.395 100.753C309.407 100.761 309.418 100.766 309.425 100.768C309.394 100.769 309.298 100.783 309.083 100.873C308.693 101.036 308.093 101.364 307.086 101.928C306.952 102.002 306.813 102.081 306.666 102.163C304.618 103.311 301.222 105.215 295.451 108.141L294.981 107.224C300.733 104.307 304.116 102.411 306.159 101.266C306.306 101.184 306.446 101.105 306.579 101.031C307.563 100.48 308.225 100.115 308.684 99.9237ZM309.438 100.769C309.438 100.77 309.433 100.77 309.425 100.768C309.435 100.768 309.439 100.769 309.438 100.769Z" fill="white" fill-opacity="0.2"/>
<path fill-rule="evenodd" clip-rule="evenodd" d="M306.74 101.527C305.284 105.181 304.997 106.495 304.696 107.215L306.74 101.527Z" fill="white" fill-opacity="0.2"/>
<path fill-rule="evenodd" clip-rule="evenodd" d="M304.795 105.311C305.089 104.427 305.528 103.176 306.261 101.34L307.221 101.719C306.497 103.536 306.065 104.769 305.776 105.635C305.686 105.905 305.609 106.146 305.539 106.36C305.392 106.815 305.282 107.154 305.173 107.415L304.219 107.019C304.311 106.799 304.4 106.524 304.535 106.106C304.606 105.885 304.691 105.625 304.795 105.311Z" fill="white" fill-opacity="0.2"/>
<path fill-rule="evenodd" clip-rule="evenodd" d="M303.77 103.32C302.534 106.448 302.322 107.585 302.064 108.201L303.77 103.32Z" fill="white" fill-opacity="0.2"/>
<path fill-rule="evenodd" clip-rule="evenodd" d="M302.082 106.554C302.325 105.792 302.69 104.715 303.313 103.141L304.226 103.498C303.613 105.052 303.254 106.107 303.018 106.85C302.946 107.076 302.883 107.28 302.827 107.463C302.705 107.86 302.612 108.16 302.516 108.388L301.61 108.011C301.687 107.828 301.757 107.6 301.866 107.246C301.925 107.055 301.994 106.829 302.082 106.554Z" fill="white" fill-opacity="0.2"/>
<path fill-rule="evenodd" clip-rule="evenodd" d="M300.542 104.906C299.666 107.176 299.575 108.024 299.388 108.469L300.542 104.906Z" fill="white" fill-opacity="0.2"/>
<path fill-rule="evenodd" clip-rule="evenodd" d="M299.266 107.252C299.425 106.688 299.671 105.895 300.114 104.746L300.968 105.073C300.536 106.193 300.299 106.959 300.147 107.498C300.096 107.678 300.056 107.829 300.02 107.965C300.001 108.035 299.983 108.102 299.965 108.166C299.917 108.344 299.87 108.506 299.81 108.648L298.966 108.297C299 108.216 299.034 108.105 299.083 107.928C299.098 107.872 299.114 107.81 299.133 107.741C299.17 107.602 299.214 107.437 299.266 107.252Z" fill="white" fill-opacity="0.2"/>
<path fill-rule="evenodd" clip-rule="evenodd" d="M292.378 77.5023C292.615 77.9282 296.079 72.0568 301.91 77.2403L292.378 77.5023Z" fill="white" fill-opacity="0.2"/>
<path fill-rule="evenodd" clip-rule="evenodd" d="M292.32 78.3232C292.026 78.2901 291.797 78.114 291.674 77.8931L293.083 77.1147C292.975 76.9204 292.767 76.7586 292.5 76.7286C292.299 76.7059 292.155 76.771 292.122 76.786C292.08 76.8055 292.055 76.8235 292.055 76.8236C292.055 76.8236 292.067 76.8151 292.093 76.7925C292.158 76.7373 292.226 76.6735 292.317 76.588C292.393 76.5168 292.484 76.4307 292.604 76.322C293.074 75.8934 293.781 75.2982 294.702 74.8638C295.632 74.4247 296.784 74.1481 298.123 74.364C299.457 74.5791 300.903 75.2713 302.447 76.6435L301.373 77.8404C300.002 76.6209 298.828 76.1032 297.866 75.948C296.908 75.7936 296.086 75.9862 295.392 76.3138C294.688 76.6461 294.121 77.1149 293.692 77.5054C293.621 77.57 293.545 77.6414 293.47 77.7116C293.347 77.8268 293.227 77.9387 293.141 78.0121C293.077 78.0666 292.95 78.1727 292.799 78.2424C292.726 78.2757 292.549 78.3489 292.32 78.3232Z" fill="white" fill-opacity="0.2"/>
<path fill-rule="evenodd" clip-rule="evenodd" d="M294.164 82.4805C293.814 82.5681 297.364 86.1356 292.55 89.2927L294.164 82.4805Z" fill="white" fill-opacity="0.2"/>
<path fill-rule="evenodd" clip-rule="evenodd" d="M293.893 82.3989C293.931 82.3023 294.011 82.2408 294.099 82.2188L294.23 82.7369C294.296 82.7203 294.362 82.671 294.393 82.5933C294.415 82.5369 294.407 82.4929 294.406 82.4881C294.406 82.488 294.406 82.4879 294.406 82.4879C294.406 82.4865 294.405 82.4857 294.405 82.4857C294.406 82.4856 294.411 82.5036 294.434 82.5504C294.463 82.6117 294.502 82.6831 294.551 82.7722C294.588 82.8404 294.631 82.919 294.679 83.0113C294.892 83.4158 295.167 83.9964 295.295 84.6841C295.424 85.3755 295.405 86.1767 295.029 87.0149C294.654 87.8517 293.933 88.7028 292.698 89.5131L292.402 89.067C293.574 88.2987 294.215 87.52 294.539 86.7971C294.862 86.0758 294.88 85.3877 294.767 84.7816C294.654 84.1719 294.408 83.6469 294.204 83.2591C294.165 83.186 294.126 83.1136 294.089 83.0457C294.034 82.9437 293.984 82.8516 293.95 82.782C293.923 82.7261 293.89 82.6521 293.877 82.5803C293.871 82.5455 293.863 82.4754 293.893 82.3989Z" fill="white" fill-opacity="0.2"/>
<path fill-rule="evenodd" clip-rule="evenodd" d="M309.696 100.335C309.018 99.8519 308.44 111.62 295.654 107.889L309.696 100.335Z" fill="white" fill-opacity="0.2"/>
<path fill-rule="evenodd" clip-rule="evenodd" d="M309.45 99.842C309.651 99.7667 309.852 99.8126 309.996 99.9153L309.395 100.753C309.497 100.825 309.655 100.865 309.813 100.805C309.875 100.782 309.916 100.751 309.939 100.732C309.962 100.712 309.975 100.696 309.979 100.691C309.979 100.69 309.979 100.69 309.978 100.692C309.972 100.702 309.947 100.748 309.903 100.861C309.845 101.007 309.784 101.186 309.709 101.407C309.65 101.58 309.582 101.779 309.5 102.008C309.145 103.002 308.588 104.369 307.627 105.639C306.662 106.914 305.285 108.096 303.298 108.705C301.315 109.313 298.775 109.335 295.507 108.381L295.798 107.394C298.924 108.306 301.251 108.256 302.994 107.722C304.732 107.189 305.94 106.159 306.802 105.019C307.668 103.874 308.183 102.623 308.526 101.663C308.593 101.474 308.657 101.288 308.717 101.114C308.801 100.867 308.877 100.647 308.94 100.485C308.993 100.352 309.062 100.191 309.154 100.07C309.198 100.012 309.292 99.9008 309.45 99.842Z" fill="white" fill-opacity="0.2"/>
<path fill-rule="evenodd" clip-rule="evenodd" d="M290.235 78.2429C290.28 77.2918 286.866 63.5858 274.108 68.9465L290.235 78.2429Z" fill="white" fill-opacity="0.2"/>
<path fill-rule="evenodd" clip-rule="evenodd" d="M291.133 77.7646C291.16 77.9195 291.187 78.1157 291.179 78.2846L289.293 78.1978C289.293 78.2133 289.293 78.2219 289.292 78.2219C289.292 78.2219 289.289 78.1797 289.272 78.0778C289.251 77.9551 289.216 77.7857 289.163 77.5761C289.059 77.1577 288.891 76.6015 288.648 75.9694C288.16 74.6999 287.386 73.1665 286.253 71.8328C285.124 70.504 283.66 69.3972 281.78 68.9116C279.906 68.4273 277.514 68.5338 274.476 69.8105L273.742 68.0791C277.083 66.6754 279.902 66.4849 282.254 67.0926C284.601 67.6988 286.38 69.0728 287.694 70.6193C289.004 72.161 289.872 73.8974 290.411 75.2977C290.681 76.0006 290.872 76.6293 290.995 77.1215C291.057 77.3672 291.103 77.5847 291.133 77.7646Z" fill="white" fill-opacity="0.2"/>
<path fill-rule="evenodd" clip-rule="evenodd" d="M291.273 78.3574C291.802 78.0279 297.831 69.8282 289.898 61.0391L291.273 78.3574Z" fill="white" fill-opacity="0.2"/>
<path fill-rule="evenodd" clip-rule="evenodd" d="M291.723 78.4591C291.652 78.5385 291.564 78.6296 291.478 78.6833L291.066 78.026C291.061 78.0289 291.059 78.0305 291.058 78.0303C291.058 78.0297 291.083 78.0085 291.139 77.9458C291.201 77.8766 291.281 77.7772 291.376 77.648C291.565 77.39 291.803 77.0233 292.053 76.5617C292.553 75.6384 293.093 74.3464 293.375 72.7986C293.937 69.7188 293.489 65.5949 289.608 61.2954L290.187 60.7773C294.239 65.2669 294.743 69.6374 294.141 72.9371C293.842 74.5791 293.27 75.9481 292.739 76.9295C292.473 77.4204 292.216 77.817 292.005 78.1048C291.899 78.2485 291.804 78.3677 291.723 78.4591Z" fill="white" fill-opacity="0.2"/>
<path fill-rule="evenodd" clip-rule="evenodd" d="M294.832 81.2644C294.474 80.755 285.936 75.1854 277.529 83.526L294.832 81.2644Z" fill="white" fill-opacity="0.2"/>
<path fill-rule="evenodd" clip-rule="evenodd" d="M295.187 80.4691C295.27 80.5343 295.412 80.6511 295.511 80.7916L294.154 81.7371C294.185 81.7802 294.209 81.8034 294.209 81.8034C294.209 81.8034 294.194 81.7892 294.156 81.7592C294.097 81.7122 294.005 81.6453 293.878 81.5633C293.627 81.4001 293.265 81.1914 292.806 80.9748C291.887 80.5413 290.608 80.0877 289.094 79.894C286.101 79.5108 282.125 80.1313 278.114 84.1099L276.945 82.9421C281.342 78.5801 285.838 77.815 289.305 78.2589C291.022 78.4786 292.469 78.9916 293.515 79.4851C294.038 79.732 294.467 79.9768 294.784 80.1831C294.942 80.2858 295.078 80.3827 295.187 80.4691Z" fill="white" fill-opacity="0.2"/>
<path fill-rule="evenodd" clip-rule="evenodd" d="M290.235 78.2417C290.28 77.2907 287.857 76.8764 274.108 68.9453L290.235 78.2417Z" fill="white" fill-opacity="0.2"/>
<path fill-rule="evenodd" clip-rule="evenodd" d="M290.201 76.728C290.657 77.0384 291.215 77.506 291.179 78.2856L289.293 78.1989C289.286 78.347 289.347 78.437 289.364 78.4577C289.349 78.4417 289.289 78.384 289.136 78.2795C288.756 78.0211 288.086 77.6613 286.905 77.0432C286.75 76.962 286.588 76.877 286.417 76.7877C284.029 75.5399 280.067 73.4688 273.635 69.7588L274.582 68.1328C280.98 71.8234 284.916 73.8805 287.295 75.1243C287.466 75.2136 287.629 75.2987 287.784 75.3799C288.922 75.9756 289.709 76.3934 290.201 76.728ZM289.368 78.4623C289.368 78.4623 289.366 78.4607 289.364 78.4577C289.367 78.4608 289.368 78.4623 289.368 78.4623Z" fill="white" fill-opacity="0.2"/>
<path fill-rule="evenodd" clip-rule="evenodd" d="M291.273 78.3574C291.802 78.0279 291.067 75.8056 289.898 61.0391L291.273 78.3574Z" fill="white" fill-opacity="0.2"/>
<path fill-rule="evenodd" clip-rule="evenodd" d="M291.792 78.2112C291.75 78.3911 291.662 78.5707 291.478 78.6852L291.065 78.0279C291.034 78.0474 291.024 78.0692 291.024 78.0692C291.024 78.0692 291.028 78.0601 291.033 78.0357C291.05 77.9644 291.062 77.8333 291.056 77.5982C291.043 77.1324 290.967 76.3811 290.834 75.1527C290.817 74.9895 290.798 74.8183 290.779 74.6386C290.506 72.1274 290.055 67.9642 289.509 61.0687L290.285 61.0078C290.83 67.8922 291.281 72.0469 291.553 74.5557C291.572 74.7354 291.591 74.9066 291.608 75.0699C291.74 76.2841 291.821 77.073 291.834 77.578C291.84 77.8283 291.832 78.0403 291.792 78.2112Z" fill="white" fill-opacity="0.2"/>
<path fill-rule="evenodd" clip-rule="evenodd" d="M294.832 81.2627C294.474 80.7533 292.283 81.5992 277.529 83.5243L294.832 81.2627Z" fill="white" fill-opacity="0.2"/>
<path fill-rule="evenodd" clip-rule="evenodd" d="M294.737 80.3233C294.987 80.3676 295.297 80.4856 295.511 80.79L294.154 81.7355C294.279 81.9126 294.442 81.9455 294.446 81.9462C294.446 81.9463 294.44 81.9452 294.425 81.944C294.41 81.9428 294.389 81.9418 294.361 81.9416C294.303 81.9412 294.224 81.9441 294.117 81.9523C293.672 81.9868 292.944 82.098 291.71 82.2946C291.548 82.3205 291.377 82.3479 291.197 82.3765C288.691 82.7772 284.533 83.442 277.637 84.3417L277.422 82.7071C284.294 81.8104 288.434 81.1486 290.935 80.7487C291.115 80.72 291.286 80.6927 291.448 80.6667C292.652 80.4749 293.46 80.3497 293.988 80.3087C294.248 80.2886 294.506 80.2823 294.737 80.3233Z" fill="white" fill-opacity="0.2"/>
<path fill-rule="evenodd" clip-rule="evenodd" d="M290.236 78.2417C282.211 68.2751 282.621 70.9431 274.108 68.9453L290.236 78.2417Z" fill="white" fill-opacity="0.2"/>
<path fill-rule="evenodd" clip-rule="evenodd" d="M282.723 69.7405C284.942 70.6765 286.985 72.7036 290.972 77.6546L289.499 78.8299C285.46 73.8142 283.696 72.192 281.986 71.4709C281.13 71.1097 280.245 70.957 278.954 70.7694C278.844 70.7534 278.731 70.7371 278.616 70.7205C277.393 70.5447 275.878 70.3266 273.891 69.8604L274.325 68.0312C276.228 68.4779 277.67 68.6855 278.888 68.861C279.003 68.8775 279.116 68.8937 279.227 68.9099C280.504 69.0954 281.615 69.2732 282.723 69.7405Z" fill="white" fill-opacity="0.2"/>
<path fill-rule="evenodd" clip-rule="evenodd" d="M290.236 78.2417C284.767 73.9336 280.328 79.5424 274.108 68.9453L290.236 78.2417Z" fill="white" fill-opacity="0.2"/>
<path fill-rule="evenodd" clip-rule="evenodd" d="M284.252 75.2378C286.228 75.4451 288.509 75.6845 290.822 77.5063L289.65 78.9799C287.804 77.5255 286.213 77.3539 284.349 77.1529C283.702 77.0831 283.022 77.0098 282.287 76.878C280.895 76.6285 279.438 76.1559 277.916 75.0147C276.409 73.885 274.889 72.1388 273.294 69.4207L274.924 68.4727C276.438 71.0531 277.806 72.5797 279.051 73.5135C280.282 74.4356 281.442 74.8171 282.621 75.0285C283.135 75.1206 283.681 75.1779 284.252 75.2378Z" fill="white" fill-opacity="0.2"/>
<path fill-rule="evenodd" clip-rule="evenodd" d="M290.236 78.2417C290.28 77.2907 274.881 82.3256 274.108 68.9453L290.236 78.2417Z" fill="white" fill-opacity="0.2"/>
<path fill-rule="evenodd" clip-rule="evenodd" d="M290.725 77.3904C290.971 77.5561 291.198 77.8675 291.179 78.2843L289.293 78.1976C289.276 78.555 289.476 78.8186 289.667 78.9468C289.744 78.9987 289.81 79.0241 289.845 79.0357C289.882 79.0478 289.907 79.0522 289.913 79.0533C289.915 79.0536 289.916 79.0537 289.916 79.0538C289.916 79.0538 289.896 79.0515 289.85 79.0507C289.797 79.0498 289.726 79.0512 289.634 79.0558C289.372 79.0686 289.041 79.1002 288.625 79.1398C288.415 79.1598 288.183 79.1819 287.927 79.2047C286.463 79.3352 284.431 79.4659 282.352 79.1848C280.273 78.9039 278.066 78.2011 276.321 76.5989C274.556 74.9785 273.371 72.5373 273.166 68.9985L275.051 68.8906C275.233 72.042 276.263 73.9891 277.601 75.2175C278.959 76.4642 280.743 77.0709 282.606 77.3227C284.467 77.5742 286.325 77.4608 287.759 77.3329C287.973 77.3138 288.183 77.2939 288.384 77.2747C288.832 77.2322 289.235 77.1938 289.541 77.1788C289.754 77.1683 290.008 77.1632 290.228 77.2004C290.33 77.2176 290.53 77.2593 290.725 77.3904Z" fill="white" fill-opacity="0.2"/>
<path fill-rule="evenodd" clip-rule="evenodd" d="M291.273 78.3574C291.803 78.0279 283 66.8648 289.899 61.0391L291.273 78.3574Z" fill="white" fill-opacity="0.2"/>
<path fill-rule="evenodd" clip-rule="evenodd" d="M291.685 78.2786C291.687 78.3534 291.675 78.5586 291.479 78.6807L291.066 78.0235C290.903 78.125 290.906 78.2884 290.907 78.3013C290.907 78.313 290.908 78.3197 290.908 78.3197C290.908 78.3197 290.906 78.3104 290.899 78.2891C290.875 78.2172 290.823 78.0995 290.735 77.9269C290.618 77.6968 290.459 77.407 290.268 77.0588C290.176 76.8897 290.075 76.707 289.969 76.5106C289.323 75.3224 288.477 73.6929 287.83 71.8839C286.547 68.2928 285.998 63.819 289.646 60.7383L290.15 61.3293C286.9 64.0743 287.303 68.0949 288.564 71.6242C289.19 73.3754 290.013 74.9625 290.654 76.142C290.755 76.3279 290.852 76.505 290.943 76.6717C291.139 77.028 291.308 77.3361 291.43 77.5777C291.519 77.7533 291.595 77.9149 291.638 78.0455C291.659 78.1076 291.682 78.1911 291.685 78.2786Z" fill="white" fill-opacity="0.2"/>
<path fill-rule="evenodd" clip-rule="evenodd" d="M294.832 81.2624C294.474 80.753 283.73 90.0808 277.529 83.5241L294.832 81.2624Z" fill="white" fill-opacity="0.2"/>
<path fill-rule="evenodd" clip-rule="evenodd" d="M294.703 80.4247C294.827 80.4147 295.242 80.41 295.512 80.7933L294.155 81.7388C294.402 82.0903 294.774 82.073 294.837 82.0679C294.894 82.0633 294.934 82.0523 294.949 82.0475C294.949 82.0475 294.949 82.0476 294.949 82.0476C294.91 82.0625 294.819 82.1067 294.652 82.2016C294.434 82.326 294.161 82.493 293.826 82.6981C293.66 82.7998 293.479 82.9107 293.282 83.0305C292.118 83.7364 290.504 84.6766 288.69 85.4259C285.12 86.9014 280.408 87.773 276.927 84.0927L278.133 82.9627C280.854 85.8391 284.614 85.3252 288.055 83.9033C289.748 83.204 291.274 82.3176 292.42 81.6227C292.595 81.5162 292.765 81.4123 292.926 81.3137C293.277 81.0984 293.588 80.9081 293.831 80.7702C294.004 80.6717 294.186 80.5741 294.348 80.5115C294.422 80.4827 294.551 80.437 294.703 80.4247ZM294.956 82.0452C294.956 82.0453 294.953 82.0461 294.949 82.0475C294.954 82.0457 294.956 82.0451 294.956 82.0452Z" fill="white" fill-opacity="0.2"/>
<path fill-rule="evenodd" clip-rule="evenodd" d="M357.157 97.0766C357.789 97.0766 303.019 94.2722 295.775 78.7383L357.157 97.0766Z" fill="white" fill-opacity="0.2"/>
<path fill-rule="evenodd" clip-rule="evenodd" d="M357.197 98.4893L357.157 98.4898V95.6707L357.122 95.6712C357.104 95.6718 357.046 95.6753 357.007 95.679C356.883 95.6981 355.892 96.4564 355.841 97.5867C356.188 98.1029 356.805 98.444 356.888 98.4627C356.918 98.4684 356.965 98.4757 356.981 98.4777L357.011 98.4812L357.023 98.4824L357.027 98.4827C357.028 98.4828 357.023 98.4824 357.009 98.4814L356.961 98.478L356.557 98.4514C356.187 98.4269 355.624 98.389 354.893 98.3351C353.433 98.2274 351.306 98.0563 348.713 97.8021C343.53 97.2942 336.475 96.4536 329.165 95.1229C321.866 93.7943 314.255 91.9672 307.985 89.4693C301.807 87.008 296.55 83.751 294.491 79.3354L297.06 78.1484C298.623 81.4998 302.929 84.4186 309.037 86.852C315.054 89.2489 322.454 91.0355 329.674 92.3498C336.883 93.6619 343.855 94.4933 348.99 94.9966C351.556 95.2481 353.661 95.4174 355.103 95.5237C355.823 95.5769 356.379 95.6143 356.745 95.6385L357.153 95.6655C357.194 95.6682 357.235 95.6711 357.265 95.6736L357.302 95.677L357.338 95.6812C357.355 95.6835 357.404 95.6909 357.435 95.6968C357.518 95.7157 358.136 96.057 358.483 96.5733C358.432 97.7037 357.44 98.4621 357.316 98.4812C357.3 98.4828 357.28 98.4844 357.26 98.4857C357.234 98.4875 357.209 98.4889 357.197 98.4893Z" fill="white" fill-opacity="0.2"/>
<path fill-rule="evenodd" clip-rule="evenodd" d="M357.157 97.0793C357.79 97.0793 316.598 93.0821 308.563 101.416L357.157 97.0793Z" fill="white" fill-opacity="0.2"/>
<path fill-rule="evenodd" clip-rule="evenodd" d="M357.305 98.4809C357.229 98.4885 357.168 98.4883 357.156 98.4883V95.6692L357.155 95.6692C357.145 95.6691 357.09 95.6691 357.019 95.6762C356.971 95.6818 356.827 95.7092 356.732 95.7358C356.48 95.8439 355.815 96.6494 355.793 97.4326C355.996 97.8752 356.464 98.3036 356.599 98.3703C356.659 98.3948 356.755 98.4273 356.789 98.437C356.844 98.4519 356.887 98.4599 356.897 98.4617L356.898 98.4618C356.917 98.4653 356.931 98.4675 356.937 98.4684C356.935 98.468 356.93 98.4674 356.922 98.4665C356.878 98.461 356.792 98.4515 356.66 98.4382C356.4 98.4118 355.994 98.3736 355.458 98.3275C354.387 98.2354 352.809 98.1127 350.872 97.9911C346.994 97.7479 341.686 97.5103 336.115 97.5313C330.536 97.5524 324.736 97.8331 319.859 98.6135C317.42 99.0038 315.25 99.5132 313.469 100.16C311.671 100.814 310.376 101.57 309.584 102.391L307.541 100.439C308.758 99.1771 310.508 98.2352 312.498 97.5121C314.506 96.7826 316.866 96.2371 319.41 95.8301C324.496 95.0162 330.461 94.7336 336.105 94.7123C341.757 94.6909 347.131 94.9318 351.05 95.1776C353.01 95.3006 354.609 95.425 355.702 95.5189C356.247 95.5658 356.669 95.6054 356.947 95.6335C357.083 95.6474 357.194 95.6593 357.269 95.6685L357.27 95.6687C357.295 95.6718 357.356 95.6792 357.414 95.6899L357.414 95.6899C357.427 95.6924 357.475 95.7012 357.534 95.7171C357.569 95.7272 357.666 95.76 357.727 95.7848C357.862 95.8519 358.331 96.2805 358.534 96.7234C358.513 97.5068 357.847 98.3125 357.595 98.4208C357.499 98.4476 357.354 98.4751 357.305 98.4809Z" fill="white" fill-opacity="0.2"/>
<path fill-rule="evenodd" clip-rule="evenodd" d="M283.564 49.8411C284.196 49.8411 245.303 47.7332 234.97 58.7522L283.564 49.8411Z" fill="white" fill-opacity="0.2"/>
<path fill-rule="evenodd" clip-rule="evenodd" d="M283.64 51.2521C283.603 51.2539 283.573 51.2539 283.564 51.2539V48.4348L283.563 48.4348C283.558 48.4348 283.532 48.4348 283.498 48.4365C283.477 48.4378 283.413 48.4434 283.373 48.4485C283.27 48.4668 282.703 48.7304 282.356 49.1206C282.194 50.1703 282.983 51.1262 283.164 51.1938C283.222 51.2097 283.308 51.2289 283.336 51.2338C283.377 51.2406 283.409 51.2439 283.414 51.2445L283.415 51.2445C283.428 51.2459 283.437 51.2466 283.436 51.2465C283.435 51.2465 283.429 51.246 283.416 51.2451C283.371 51.2422 283.287 51.2374 283.164 51.2312C282.92 51.2188 282.537 51.2019 282.031 51.184C281.02 51.1483 279.526 51.1093 277.681 51.0967C273.989 51.0715 268.906 51.1519 263.489 51.5731C258.065 51.9949 252.349 52.7554 247.376 54.0764C242.355 55.41 238.309 57.2603 236.005 59.7174L233.935 57.7937C236.797 54.7412 241.487 52.7229 246.646 51.3526C251.852 49.9698 257.757 49.1912 263.269 48.7626C268.788 48.3334 273.955 48.2521 277.701 48.2777C279.574 48.2905 281.096 48.3301 282.131 48.3667C282.649 48.3849 283.047 48.4025 283.307 48.4157C283.437 48.4222 283.537 48.4279 283.603 48.4322C283.627 48.4338 283.673 48.4369 283.715 48.4413L283.715 48.4414C283.724 48.4423 283.76 48.4461 283.803 48.4533C283.832 48.4584 283.92 48.4777 283.978 48.4938C284.159 48.5616 284.949 49.5176 284.787 50.5675C284.439 50.9577 283.872 51.2215 283.769 51.2399C283.727 51.2451 283.663 51.2508 283.64 51.2521Z" fill="white" fill-opacity="0.2"/>
<path fill-rule="evenodd" clip-rule="evenodd" d="M387.744 134.382C388.376 134.382 379.859 128.093 362.825 121.613L387.744 134.382Z" fill="white" fill-opacity="0.2"/>
<path fill-rule="evenodd" clip-rule="evenodd" d="M388.462 135.601C388.156 135.774 387.869 135.788 387.743 135.788V132.969C387.637 132.969 387.366 132.98 387.07 133.147C386.703 133.353 386.444 133.717 386.377 134.14C386.323 134.482 386.412 134.744 386.451 134.846C386.498 134.966 386.55 135.049 386.575 135.086C386.612 135.142 386.644 135.178 386.655 135.19C386.648 135.183 386.632 135.167 386.604 135.142C386.459 135.012 386.163 134.778 385.691 134.443C384.762 133.785 383.265 132.821 381.205 131.647C377.09 129.302 370.768 126.141 362.319 122.926L363.33 120.293C371.915 123.559 378.369 126.782 382.612 129.201C384.732 130.409 386.31 131.422 387.333 132.146C387.836 132.503 388.235 132.81 388.501 133.049C388.608 133.145 388.795 133.318 388.934 133.527C388.975 133.587 389.039 133.692 389.092 133.83C389.139 133.949 389.23 134.226 389.174 134.58C389.105 135.016 388.84 135.389 388.462 135.601ZM386.659 135.194C386.659 135.194 386.657 135.192 386.655 135.19C386.657 135.192 386.659 135.194 386.659 135.194Z" fill="white" fill-opacity="0.2"/>
<path fill-rule="evenodd" clip-rule="evenodd" d="M147.666 35.2006C64.04 60.992 3.29773 138.59 3.29773 230.312C3.29773 343.105 95.1505 434.543 208.457 434.543C321.763 434.543 413.616 343.105 413.616 230.312C413.616 210.17 410.686 190.712 405.231 172.335L407.947 171.536C413.478 190.17 416.447 209.897 416.447 230.312C416.447 344.662 323.327 437.362 208.457 437.362C93.5865 437.362 0.46582 344.662 0.46582 230.312C0.46582 137.319 62.0501 58.6544 146.828 32.5078L147.666 35.2006Z" fill="white" fill-opacity="0.5"/>
</svg>
