<svg width="958" height="1263" viewBox="0 0 958 1263" fill="none" xmlns="http://www.w3.org/2000/svg">
<path fill-rule="evenodd" clip-rule="evenodd" d="M675.807 820.755C546.534 1017.31 376.946 1060.89 237.143 1058.04L237.137 1051.89C375.408 1054.71 542.864 1011.74 670.776 817.257L675.807 820.755Z" fill="#E9ECE0" fill-opacity="0.33"/>
<path fill-rule="evenodd" clip-rule="evenodd" d="M613.504 893.539C612.813 894.698 663.95 893.213 691.8 870.852L613.504 893.539Z" fill="#E9ECE0" fill-opacity="0.33"/>
<path fill-rule="evenodd" clip-rule="evenodd" d="M610.51 893.827C610.428 893.025 610.662 892.362 610.929 891.915L616.08 895.175C616.336 894.746 616.565 894.101 616.485 893.316C616.406 892.543 616.06 891.97 615.762 891.62C615.275 891.046 614.724 890.832 614.628 890.794L614.621 890.792C614.465 890.73 614.342 890.7 614.288 890.689C614.293 890.69 614.299 890.691 614.305 890.692C614.473 890.715 614.862 890.745 615.521 890.758C616.8 890.782 618.763 890.736 621.279 890.577C626.299 890.258 633.377 889.497 641.341 888.01C657.364 885.018 676.533 879.168 689.888 868.446L693.665 873.288C679.179 884.918 658.867 890.987 642.542 894.035C634.331 895.569 627.018 896.358 621.776 896.69C619.162 896.856 617.027 896.911 615.533 896.882C614.807 896.868 614.141 896.833 613.622 896.762C613.413 896.733 612.988 896.669 612.557 896.499L612.554 896.498C612.4 896.437 611.783 896.194 611.257 895.575C610.945 895.207 610.591 894.618 610.51 893.827ZM614.259 890.684C614.259 890.684 614.269 890.686 614.288 890.689C614.268 890.686 614.258 890.685 614.259 890.684Z" fill="#E9ECE0" fill-opacity="0.33"/>
<path fill-rule="evenodd" clip-rule="evenodd" d="M689.892 871.568C691.701 872.819 712.88 883.366 726.689 851.344L689.892 871.568Z" fill="#E9ECE0" fill-opacity="0.33"/>
<path fill-rule="evenodd" clip-rule="evenodd" d="M693.972 875.404C691.344 874.693 689.459 873.715 688.776 873.242L690.985 869.865C691.206 870.018 692.645 870.827 694.927 871.444C697.17 872.051 700.125 872.444 703.409 871.896C709.843 870.822 718.118 866.026 724.824 850.476L728.509 852.191C721.409 868.656 712.196 874.596 704.139 875.941C700.179 876.602 696.638 876.126 693.972 875.404Z" fill="#E9ECE0" fill-opacity="0.33"/>
<path fill-rule="evenodd" clip-rule="evenodd" d="M674.468 819.467C673.352 820.46 662.975 832.879 681.719 848.418L674.468 819.467Z" fill="#E9ECE0" fill-opacity="0.33"/>
<path fill-rule="evenodd" clip-rule="evenodd" d="M672.043 821.97C672.902 820.383 673.794 819.37 674.126 819.075L674.809 819.869C674.583 820.071 673.759 820.983 672.944 822.489C672.134 823.987 671.345 826.047 671.157 828.544C670.782 833.502 672.763 840.333 682.037 848.021L681.4 848.827C671.928 840.975 669.727 833.827 670.134 828.442C670.336 825.767 671.18 823.566 672.043 821.97Z" fill="#E9ECE0" fill-opacity="0.33"/>
<path fill-rule="evenodd" clip-rule="evenodd" d="M667.286 823.952C666.786 822.944 661.106 812.596 647.022 822.993L667.286 823.952Z" fill="#E9ECE0" fill-opacity="0.33"/>
<path fill-rule="evenodd" clip-rule="evenodd" d="M662.912 817.568C666.732 819.234 668.525 822.539 668.843 823.182L665.753 824.714C665.572 824.348 664.274 821.971 661.606 820.808C659.101 819.716 654.798 819.454 648.065 824.426L645.989 821.554C653.346 816.12 658.929 815.832 662.912 817.568Z" fill="#E9ECE0" fill-opacity="0.33"/>
<path fill-rule="evenodd" clip-rule="evenodd" d="M689.89 871.572C691.699 872.823 695.307 868.582 726.696 851.344L689.89 871.572Z" fill="#E9ECE0" fill-opacity="0.33"/>
<path fill-rule="evenodd" clip-rule="evenodd" d="M692.831 873.231C691.701 873.743 690.2 874.236 688.778 873.252L690.988 869.875C690.751 869.71 690.544 869.712 690.489 869.717C690.54 869.708 690.729 869.662 691.134 869.479C692.086 869.047 693.57 868.17 696.139 866.615C696.477 866.41 696.831 866.195 697.203 865.97C702.399 862.819 711.023 857.589 725.7 849.528L727.664 853.147C713.059 861.169 704.49 866.365 699.31 869.506C698.938 869.732 698.583 869.947 698.245 870.152C695.764 871.654 694.045 872.68 692.831 873.231ZM690.475 869.719C690.476 869.719 690.48 869.718 690.489 869.717C690.48 869.719 690.475 869.719 690.475 869.719Z" fill="#E9ECE0" fill-opacity="0.33"/>
<path fill-rule="evenodd" clip-rule="evenodd" d="M674.467 819.466C673.351 820.459 675.543 823.73 681.718 848.42L674.467 819.466Z" fill="#E9ECE0" fill-opacity="0.33"/>
<path fill-rule="evenodd" clip-rule="evenodd" d="M673.755 821.021C673.608 820.176 673.625 819.517 674.125 819.072L674.809 819.866C674.75 819.918 674.623 820.041 674.765 820.859C674.904 821.654 675.255 822.893 675.849 824.919C675.928 825.189 676.011 825.471 676.098 825.768C677.314 829.908 679.331 836.772 682.214 848.3L681.22 848.539C678.342 837.032 676.331 830.184 675.116 826.048C675.029 825.752 674.946 825.469 674.867 825.199C674.28 823.198 673.907 821.89 673.755 821.021Z" fill="#E9ECE0" fill-opacity="0.33"/>
<path fill-rule="evenodd" clip-rule="evenodd" d="M667.264 823.974C666.764 822.966 664.106 823.885 645.825 823.328L667.264 823.974Z" fill="#E9ECE0" fill-opacity="0.33"/>
<path fill-rule="evenodd" clip-rule="evenodd" d="M666.429 821.766C667.08 821.835 668.243 822.033 668.822 823.203L665.732 824.737C665.935 825.147 666.256 825.279 666.343 825.307C666.313 825.3 666.25 825.289 666.144 825.277C665.662 825.226 664.831 825.225 663.279 825.243C663.078 825.246 662.866 825.248 662.644 825.251C659.537 825.289 654.376 825.352 645.804 825.094L645.831 821.564C654.332 821.821 659.438 821.758 662.528 821.721C662.75 821.718 662.962 821.715 663.164 821.713C664.627 821.696 665.699 821.688 666.429 821.766ZM666.365 825.313C666.364 825.313 666.357 825.311 666.343 825.307C666.358 825.31 666.365 825.312 666.365 825.313Z" fill="#E9ECE0" fill-opacity="0.33"/>
<path fill-rule="evenodd" clip-rule="evenodd" d="M689.906 871.58C691.713 872.83 693.167 842.064 726.692 851.359L689.906 871.58Z" fill="#E9ECE0" fill-opacity="0.33"/>
<path fill-rule="evenodd" clip-rule="evenodd" d="M690.81 873.542C690.097 873.809 689.362 873.662 688.809 873.279L691.018 869.903C690.578 869.598 689.955 869.467 689.356 869.691C688.914 869.856 688.697 870.141 688.663 870.185L688.662 870.186C688.641 870.214 688.63 870.231 688.629 870.231C688.628 870.23 688.676 870.143 688.772 869.9C688.922 869.522 689.076 869.069 689.271 868.496C689.423 868.05 689.6 867.531 689.819 866.917C690.757 864.286 692.237 860.624 694.807 857.199C697.393 853.751 701.09 850.532 706.425 848.828C711.749 847.129 718.528 846.994 727.187 849.394L726.207 853.348C718.106 851.102 712.132 851.327 707.698 852.742C703.277 854.154 700.212 856.806 698.018 859.731C695.808 862.678 694.49 865.892 693.6 868.388C693.436 868.847 693.276 869.314 693.124 869.758C692.892 870.436 692.68 871.056 692.504 871.5C692.365 871.851 692.155 872.351 691.85 872.749C691.703 872.942 691.371 873.332 690.81 873.542Z" fill="#E9ECE0" fill-opacity="0.33"/>
<path fill-rule="evenodd" clip-rule="evenodd" d="M674.467 819.466C673.351 820.459 693.297 827.338 681.718 848.42L674.467 819.466Z" fill="#E9ECE0" fill-opacity="0.33"/>
<path fill-rule="evenodd" clip-rule="evenodd" d="M673.914 819.627C673.89 819.402 673.979 819.204 674.127 819.073L674.81 819.867C674.889 819.797 674.949 819.673 674.934 819.533C674.925 819.454 674.895 819.41 674.895 819.409C674.895 819.409 674.896 819.412 674.899 819.416C674.934 819.462 675.032 819.559 675.241 819.721C675.476 819.905 675.778 820.118 676.142 820.375C676.411 820.565 676.714 820.779 677.05 821.024C678.597 822.148 680.672 823.796 682.419 826.097C684.17 828.403 685.592 831.37 685.824 835.119C686.056 838.865 685.096 843.344 682.167 848.678L681.27 848.152C684.128 842.948 685.017 838.665 684.8 835.163C684.584 831.664 683.261 828.897 681.613 826.726C679.96 824.549 677.983 822.974 676.466 821.871C676.164 821.651 675.873 821.445 675.605 821.255C675.217 820.981 674.878 820.742 674.628 820.547C674.421 820.385 674.217 820.211 674.087 820.037C674.024 819.952 673.934 819.81 673.914 819.627Z" fill="#E9ECE0" fill-opacity="0.33"/>
<path fill-rule="evenodd" clip-rule="evenodd" d="M667.26 823.987C666.761 822.979 657.347 835.248 644.654 822.602L667.26 823.987Z" fill="#E9ECE0" fill-opacity="0.33"/>
<path fill-rule="evenodd" clip-rule="evenodd" d="M667.505 822.193C668.069 822.308 668.554 822.681 668.817 823.213L665.727 824.746C665.959 825.215 666.395 825.551 666.893 825.653C667.275 825.732 667.558 825.644 667.623 825.624C667.697 825.6 667.741 825.578 667.741 825.578C667.741 825.578 667.708 825.595 667.633 825.644C667.462 825.755 667.274 825.891 667.023 826.073C666.832 826.212 666.604 826.377 666.32 826.578C665.12 827.425 663.344 828.578 661.115 829.337C658.87 830.102 656.154 830.469 653.102 829.735C650.053 829.001 646.803 827.199 643.441 823.845L645.841 821.35C648.831 824.332 651.523 825.745 653.83 826.3C656.134 826.855 658.188 826.587 659.951 825.987C661.729 825.381 663.198 824.441 664.303 823.662C664.483 823.535 664.673 823.398 664.858 823.264C665.181 823.03 665.492 822.806 665.721 822.657C665.89 822.547 666.19 822.357 666.527 822.251C666.691 822.199 667.057 822.101 667.505 822.193Z" fill="#E9ECE0" fill-opacity="0.33"/>
<path fill-rule="evenodd" clip-rule="evenodd" d="M445.839 1049.43C446.723 1052.27 471.035 1089.11 501.787 1060.52L445.839 1049.43Z" fill="#E9ECE0" fill-opacity="0.33"/>
<path fill-rule="evenodd" clip-rule="evenodd" d="M444.921 1051.09C444.684 1050.67 444.462 1050.23 444.352 1049.87L447.3 1048.99C447.299 1048.99 447.298 1048.98 447.298 1048.98C447.298 1048.98 447.315 1049.03 447.365 1049.13C447.419 1049.25 447.497 1049.4 447.603 1049.59C447.813 1049.96 448.112 1050.46 448.5 1051.04C449.274 1052.21 450.378 1053.72 451.779 1055.38C454.587 1058.7 458.539 1062.54 463.361 1065.42C468.173 1068.29 473.805 1070.18 480.03 1069.69C486.246 1069.2 493.228 1066.32 500.721 1059.35L502.839 1061.69C494.953 1069.03 487.361 1072.27 480.34 1072.82C473.329 1073.38 467.06 1071.24 461.839 1068.12C456.627 1065.01 452.413 1060.89 449.453 1057.39C447.97 1055.64 446.789 1054.03 445.945 1052.75C445.523 1052.11 445.179 1051.55 444.921 1051.09Z" fill="#E9ECE0" fill-opacity="0.33"/>
<path fill-rule="evenodd" clip-rule="evenodd" d="M671.317 813.448C674.222 812.98 713.307 793.77 688.345 757.905L671.317 813.448Z" fill="#E9ECE0" fill-opacity="0.33"/>
<path fill-rule="evenodd" clip-rule="evenodd" d="M672.819 814.515C672.375 814.692 671.926 814.848 671.576 814.904L671.058 811.96C671.054 811.96 671.054 811.96 671.058 811.959C671.071 811.956 671.122 811.944 671.222 811.912C671.343 811.873 671.503 811.815 671.702 811.735C672.1 811.577 672.621 811.345 673.244 811.038C674.489 810.424 676.105 809.525 677.896 808.344C681.487 805.977 685.725 802.517 689.103 798.016C692.475 793.523 694.962 788.033 695.151 781.563C695.34 775.102 693.242 767.497 687.154 758.747L689.53 757.059C695.915 766.236 698.289 774.477 698.077 781.716C697.866 788.946 695.082 795.01 691.443 799.859C687.81 804.699 683.296 808.37 679.524 810.857C677.635 812.102 675.917 813.06 674.566 813.726C673.892 814.059 673.301 814.323 672.819 814.515Z" fill="#E9ECE0" fill-opacity="0.33"/>
<path fill-rule="evenodd" clip-rule="evenodd" d="M671.512 816.275C672.86 817.686 702.195 830.269 723.179 800.445L671.512 816.275Z" fill="#E9ECE0" fill-opacity="0.33"/>
<path fill-rule="evenodd" clip-rule="evenodd" d="M671.22 818.299C670.935 818.142 670.502 817.889 670.193 817.565L672.808 814.971C672.743 814.902 672.698 814.868 672.698 814.867C672.699 814.867 672.761 814.911 672.924 815.002C673.153 815.128 673.491 815.295 673.937 815.488C674.827 815.873 676.085 816.336 677.643 816.771C680.76 817.641 685.017 818.381 689.858 818.187C699.472 817.802 711.516 813.736 721.656 799.325L724.667 801.558C713.826 816.965 700.713 821.518 690.079 821.945C684.796 822.156 680.156 821.35 676.739 820.396C675.029 819.919 673.611 819.401 672.556 818.944C672.031 818.717 671.58 818.498 671.22 818.299Z" fill="#E9ECE0" fill-opacity="0.33"/>
<path fill-rule="evenodd" clip-rule="evenodd" d="M668.147 824.774C669.428 823.362 680.304 793.835 649.645 773.45L668.147 824.774Z" fill="#E9ECE0" fill-opacity="0.33"/>
<path fill-rule="evenodd" clip-rule="evenodd" d="M669.058 824.477C668.917 824.774 668.765 825.049 668.617 825.213L667.681 824.328C667.68 824.329 667.68 824.329 667.681 824.327C667.686 824.321 667.709 824.29 667.751 824.219C667.797 824.141 667.853 824.033 667.92 823.894C668.052 823.617 668.212 823.237 668.387 822.76C668.736 821.806 669.139 820.485 669.493 818.869C670.202 815.637 670.716 811.245 670.247 806.271C669.311 796.349 664.463 784.056 649.31 773.98L649.984 772.907C665.49 783.217 670.534 795.883 671.504 806.175C671.989 811.307 671.459 815.837 670.727 819.175C670.36 820.845 669.942 822.221 669.572 823.232C669.386 823.737 669.211 824.156 669.058 824.477Z" fill="#E9ECE0" fill-opacity="0.33"/>
<path fill-rule="evenodd" clip-rule="evenodd" d="M581.147 866.597C579.012 864.478 557.273 825.344 597.187 810.753L581.147 866.597Z" fill="#E9ECE0" fill-opacity="0.33"/>
<path fill-rule="evenodd" clip-rule="evenodd" d="M582.49 865.19C582.503 865.207 582.505 865.21 582.497 865.201L579.81 868.013C579.512 867.718 579.203 867.282 578.932 866.869C578.631 866.411 578.282 865.83 577.902 865.145C577.143 863.773 576.24 861.941 575.353 859.77C573.583 855.439 571.839 849.669 571.467 843.447C571.093 837.212 572.095 830.456 575.897 824.278C579.705 818.091 586.207 812.672 596.498 808.909L597.882 812.646C588.225 816.177 582.481 821.12 579.209 826.437C575.93 831.764 575.016 837.656 575.353 843.29C575.692 848.938 577.286 854.257 578.944 858.313C579.77 860.336 580.603 862.022 581.284 863.252C581.625 863.868 581.922 864.359 582.155 864.714C582.345 865.004 582.455 865.146 582.49 865.19Z" fill="#E9ECE0" fill-opacity="0.33"/>
<path fill-rule="evenodd" clip-rule="evenodd" d="M445.909 1049.39C446.794 1052.22 454.146 1051 501.802 1060.47L445.909 1049.39Z" fill="#E9ECE0" fill-opacity="0.33"/>
<path fill-rule="evenodd" clip-rule="evenodd" d="M447.929 1052.49C446.331 1052.05 444.917 1051.4 444.425 1049.83L447.369 1048.94C447.367 1048.94 447.364 1048.94 447.36 1048.93C447.359 1048.93 447.358 1048.93 447.358 1048.93C447.357 1048.93 447.375 1048.95 447.435 1048.99C447.601 1049.1 447.953 1049.27 448.677 1049.47C450.129 1049.87 452.514 1050.27 456.508 1050.89C457.037 1050.97 457.592 1051.06 458.174 1051.15C466.309 1052.41 479.801 1054.51 502.076 1058.93L501.552 1062.01C479.34 1057.6 465.897 1055.51 457.776 1054.25C457.194 1054.16 456.639 1054.07 456.11 1053.99C452.194 1053.38 449.595 1052.96 447.929 1052.49Z" fill="#E9ECE0" fill-opacity="0.33"/>
<path fill-rule="evenodd" clip-rule="evenodd" d="M671.357 813.587C674.278 813.12 673.854 805.381 688.408 757.923L671.357 813.587Z" fill="#E9ECE0" fill-opacity="0.33"/>
<path fill-rule="evenodd" clip-rule="evenodd" d="M674.574 811.928C673.962 813.495 673.184 814.794 671.62 815.045L671.097 812.094L671.112 812.091L671.115 812.09C671.115 812.09 671.115 812.09 671.115 812.09M674.574 811.928C675.21 810.297 675.91 807.705 676.939 803.781L674.574 811.928ZM676.939 803.781C677.078 803.251 677.224 802.694 677.377 802.11L676.939 803.781ZM677.377 802.11C679.505 793.977 683.029 780.514 689.807 758.418L677.377 802.11ZM689.807 758.418L686.999 757.469L689.807 758.418ZM686.999 757.469C680.203 779.624 676.667 793.133 674.535 801.28L686.999 757.469ZM674.535 801.28C674.382 801.864 674.237 802.42 674.098 802.95L674.535 801.28ZM674.098 802.95C673.049 806.947 672.397 809.339 671.838 810.772L674.098 802.95ZM671.838 810.772C671.559 811.487 671.349 811.834 671.209 812L671.838 810.772ZM671.209 812C671.148 812.072 671.116 812.09 671.116 812.09L671.209 812ZM671.116 812.09C671.116 812.09 671.116 812.09 671.115 812.09L671.116 812.09Z" fill="#E9ECE0" fill-opacity="0.33"/>
<path fill-rule="evenodd" clip-rule="evenodd" d="M319.975 1026.18C322.607 1026.93 327.417 1017.92 370.549 970.188L319.975 1026.18Z" fill="#E9ECE0" fill-opacity="0.33"/>
<path fill-rule="evenodd" clip-rule="evenodd" d="M322.163 1027.69C321.43 1028.11 320.518 1028.39 319.503 1028.1L320.485 1024.22C320.228 1024.15 320.059 1024.21 320.059 1024.21C320.059 1024.21 320.085 1024.2 320.141 1024.17C320.383 1024.03 320.809 1023.7 321.528 1022.99C322.951 1021.57 325.082 1019.1 328.563 1015.01C329.026 1014.47 329.511 1013.9 330.02 1013.3C337.126 1004.94 348.907 991.089 369.022 968.806L371.983 971.564C351.905 993.806 340.153 1007.63 333.055 1015.97C332.546 1016.57 332.06 1017.14 331.597 1017.68C328.164 1021.72 325.909 1024.34 324.346 1025.9C323.571 1026.67 322.855 1027.29 322.163 1027.69Z" fill="#E9ECE0" fill-opacity="0.33"/>
<path fill-rule="evenodd" clip-rule="evenodd" d="M671.509 816.279C672.858 817.69 679.025 814.037 722.529 801.133L671.509 816.279Z" fill="#E9ECE0" fill-opacity="0.33"/>
<path fill-rule="evenodd" clip-rule="evenodd" d="M672.287 818.438C671.617 818.421 670.825 818.234 670.193 817.572L672.808 814.977C672.551 814.708 672.286 814.679 672.286 814.678C672.287 814.678 672.292 814.678 672.305 814.679C672.444 814.682 672.78 814.651 673.468 814.487C674.826 814.163 676.998 813.464 680.605 812.279C681.083 812.121 681.585 811.956 682.112 811.783C689.464 809.362 701.655 805.348 721.982 799.318L723.079 802.931C702.803 808.946 690.65 812.947 683.309 815.364C682.783 815.538 682.281 815.703 681.802 815.86C678.26 817.025 675.917 817.782 674.379 818.149C673.62 818.331 672.913 818.454 672.287 818.438Z" fill="#E9ECE0" fill-opacity="0.33"/>
<path fill-rule="evenodd" clip-rule="evenodd" d="M668.146 824.775C669.428 823.363 665.41 817.215 649.645 773.451L668.146 824.775Z" fill="#E9ECE0" fill-opacity="0.33"/>
<path fill-rule="evenodd" clip-rule="evenodd" d="M668.997 823.937C669.02 824.426 668.926 824.869 668.615 825.212L667.679 824.327L667.679 824.326C667.691 824.315 667.748 824.252 667.735 823.971C667.721 823.667 667.628 823.204 667.41 822.487C666.977 821.06 666.114 818.821 664.703 815.218C664.514 814.737 664.317 814.233 664.109 813.704C661.213 806.321 656.412 794.085 649.053 773.658L650.238 773.238C657.591 793.647 662.386 805.87 665.281 813.249C665.489 813.778 665.686 814.282 665.875 814.763C667.278 818.344 668.164 820.641 668.617 822.131C668.842 822.873 668.975 823.464 668.997 823.937Z" fill="#E9ECE0" fill-opacity="0.33"/>
<path fill-rule="evenodd" clip-rule="evenodd" d="M581.082 866.578C578.931 864.452 583.463 858.336 597.142 810.599L581.082 866.578Z" fill="#E9ECE0" fill-opacity="0.33"/>
<path fill-rule="evenodd" clip-rule="evenodd" d="M582.543 865.327C582.529 865.29 582.498 865.232 582.436 865.171L579.739 867.988C578.384 866.647 578.506 864.865 578.853 863.197C579.218 861.441 580.056 858.857 581.327 855.026C581.499 854.507 581.68 853.962 581.87 853.391C584.516 845.429 588.896 832.253 595.265 810.031L599.024 811.223C592.632 833.524 588.233 846.759 585.581 854.738C585.391 855.31 585.21 855.854 585.038 856.373C583.736 860.3 582.99 862.626 582.683 864.104C582.521 864.881 582.529 865.219 582.543 865.327ZM582.553 865.369C582.551 865.371 582.547 865.359 582.543 865.327C582.552 865.352 582.554 865.368 582.553 865.369Z" fill="#E9ECE0" fill-opacity="0.33"/>
<path fill-rule="evenodd" clip-rule="evenodd" d="M445.914 1049.38C479.403 1070.55 475.396 1063.14 501.804 1060.46L445.914 1049.38Z" fill="#E9ECE0" fill-opacity="0.33"/>
<path fill-rule="evenodd" clip-rule="evenodd" d="M476.437 1065.44C469.496 1064.95 461.793 1061.26 445.102 1050.7L446.692 1048.05C463.499 1058.68 470.542 1061.88 476.578 1062.31C479.599 1062.52 482.441 1062.05 486.316 1061.3C486.648 1061.24 486.988 1061.17 487.334 1061.11C491.007 1060.4 495.515 1059.53 501.62 1058.91L502.001 1062.03C496.034 1062.63 491.645 1063.48 487.978 1064.19C487.633 1064.26 487.294 1064.32 486.96 1064.39C483.108 1065.13 479.904 1065.68 476.437 1065.44Z" fill="#E9ECE0" fill-opacity="0.33"/>
<path fill-rule="evenodd" clip-rule="evenodd" d="M671.347 813.562C696.04 782.486 688.226 785.445 688.394 757.922L671.347 813.562Z" fill="#E9ECE0" fill-opacity="0.33"/>
<path fill-rule="evenodd" clip-rule="evenodd" d="M690.501 784.7C689.27 791.71 684.795 799.017 672.504 814.496L670.203 812.589C682.574 797.008 686.53 790.263 687.609 784.112C688.15 781.033 687.982 778.033 687.66 773.946C687.633 773.595 687.604 773.237 687.575 772.871C687.265 768.996 686.884 764.244 686.926 757.893L689.863 757.981C689.822 764.196 690.193 768.831 690.502 772.701C690.531 773.065 690.56 773.423 690.588 773.775C690.908 777.839 691.115 781.198 690.501 784.7Z" fill="#E9ECE0" fill-opacity="0.33"/>
<path fill-rule="evenodd" clip-rule="evenodd" d="M319.98 1026.17C360.265 1001.54 352.088 1001.49 370.518 970.178L319.98 1026.17Z" fill="#E9ECE0" fill-opacity="0.33"/>
<path fill-rule="evenodd" clip-rule="evenodd" d="M355.005 1001.92C349.469 1009.25 341.152 1015.59 321.076 1027.88L318.968 1024.42C339.093 1012.1 346.798 1006.1 351.836 999.425C354.364 996.078 356.256 992.512 358.713 987.714C358.924 987.301 359.139 986.88 359.358 986.45C361.685 981.895 364.527 976.33 368.762 969.129L372.181 971.253C368.006 978.35 365.211 983.822 362.887 988.373C362.668 988.802 362.453 989.223 362.242 989.636C359.795 994.417 357.763 998.269 355.005 1001.92Z" fill="#E9ECE0" fill-opacity="0.33"/>
<path fill-rule="evenodd" clip-rule="evenodd" d="M581.1 866.584C577.593 826.286 582.419 833.38 597.156 810.633L581.1 866.584Z" fill="#E9ECE0" fill-opacity="0.33"/>
<path fill-rule="evenodd" clip-rule="evenodd" d="M584.093 832.864C581.712 838.437 581.296 846.217 583.044 866.435L579.155 866.695C577.422 846.652 577.673 837.845 580.507 831.213C581.922 827.9 583.946 825.217 586.403 822.067C586.616 821.794 586.833 821.517 587.054 821.235C589.399 818.237 592.198 814.661 595.512 809.542L598.787 811.779C595.376 817.046 592.484 820.743 590.134 823.746C589.912 824.03 589.695 824.307 589.482 824.579C587.007 827.752 585.285 830.075 584.093 832.864Z" fill="#E9ECE0" fill-opacity="0.33"/>
<path fill-rule="evenodd" clip-rule="evenodd" d="M445.917 1049.37C466.101 1056.52 472.803 1035.62 501.816 1060.45L445.917 1049.37Z" fill="#E9ECE0" fill-opacity="0.33"/>
<path fill-rule="evenodd" clip-rule="evenodd" d="M465.656 1050.9C459.84 1052.26 453.56 1053.73 445.425 1050.85L446.382 1047.89C453.591 1050.44 458.772 1049.24 464.413 1047.93C466.289 1047.5 468.216 1047.05 470.285 1046.72C474.374 1046.08 478.819 1046.01 484.132 1047.75C489.415 1049.48 495.455 1052.97 502.811 1059.27L500.85 1061.65C493.696 1055.52 488.015 1052.3 483.246 1050.74C478.507 1049.18 474.57 1049.24 470.829 1049.82C469.121 1050.09 467.41 1050.49 465.656 1050.9Z" fill="#E9ECE0" fill-opacity="0.33"/>
<path fill-rule="evenodd" clip-rule="evenodd" d="M671.387 813.604C680.673 794.006 660.589 783.881 688.433 757.975L671.387 813.604Z" fill="#E9ECE0" fill-opacity="0.33"/>
<path fill-rule="evenodd" clip-rule="evenodd" d="M674.943 793.609C675.664 799.774 676.439 806.397 672.716 814.257L670.067 812.913C673.393 805.893 672.753 800.36 672.061 794.37C671.831 792.385 671.596 790.349 671.497 788.192C671.302 783.915 671.711 779.367 674.003 774.211C676.283 769.082 680.384 763.442 687.425 756.884L689.433 759.106C682.573 765.495 678.754 770.829 676.682 775.49C674.622 780.124 674.249 784.184 674.429 788.12C674.511 789.922 674.725 791.745 674.943 793.609Z" fill="#E9ECE0" fill-opacity="0.33"/>
<path fill-rule="evenodd" clip-rule="evenodd" d="M319.975 1026.18C340.404 1007.89 331.148 987.536 370.549 970.188L319.975 1026.18Z" fill="#E9ECE0" fill-opacity="0.33"/>
<path fill-rule="evenodd" clip-rule="evenodd" d="M336.615 1005.45C333.103 1012.78 329.417 1020.47 321.358 1027.7L318.689 1024.65C326.122 1017.99 329.384 1011.19 332.832 1004.01C333.959 1001.66 335.106 999.276 336.425 996.837C341.785 986.925 349.628 977.201 369.684 968.351L371.341 972.051C352.079 980.551 344.874 989.673 339.917 998.839C338.752 1000.99 337.692 1003.21 336.615 1005.45Z" fill="#E9ECE0" fill-opacity="0.33"/>
<path fill-rule="evenodd" clip-rule="evenodd" d="M581.082 866.578C584.036 844.898 606.07 848.557 597.142 810.599L581.082 866.578Z" fill="#E9ECE0" fill-opacity="0.33"/>
<path fill-rule="evenodd" clip-rule="evenodd" d="M591.259 850.729C587.471 855.219 584.062 859.259 583.022 866.873L579.147 866.239C580.356 857.388 584.7 852.261 588.647 847.603C589.823 846.215 590.963 844.869 591.975 843.478C594.222 840.391 596.073 836.896 596.869 831.945C597.672 826.954 597.423 820.35 595.238 811.033L599.042 810.195C601.304 819.842 601.641 827.005 600.729 832.673C599.811 838.382 597.648 842.44 595.138 845.889C593.853 847.655 592.535 849.218 591.259 850.729Z" fill="#E9ECE0" fill-opacity="0.33"/>
<path fill-rule="evenodd" clip-rule="evenodd" d="M445.933 1049.32C446.816 1052.16 485.472 1021.84 501.891 1060.41L445.933 1049.32Z" fill="#E9ECE0" fill-opacity="0.33"/>
<path fill-rule="evenodd" clip-rule="evenodd" d="M445.744 1051.01C445.225 1050.87 444.668 1050.48 444.447 1049.76L447.396 1048.88C447.23 1048.35 446.802 1048.06 446.482 1047.98C446.349 1047.94 446.251 1047.94 446.214 1047.94C446.218 1047.94 446.223 1047.94 446.228 1047.94C446.384 1047.91 446.718 1047.81 447.299 1047.57C448.061 1047.26 449.02 1046.81 450.189 1046.26C450.764 1046 451.39 1045.7 452.068 1045.39C456.097 1043.54 461.656 1041.16 467.748 1039.92C473.839 1038.68 480.592 1038.56 486.94 1041.36C493.329 1044.18 499.085 1049.87 503.318 1059.82L500.481 1061.01C496.504 1051.66 491.269 1046.67 485.761 1044.24C480.212 1041.79 474.163 1041.84 468.421 1043C462.682 1044.17 457.38 1046.43 453.396 1048.26C452.779 1048.55 452.186 1048.82 451.625 1049.09C450.409 1049.65 449.343 1050.15 448.514 1050.49C447.921 1050.74 447.318 1050.96 446.802 1051.04C446.558 1051.08 446.164 1051.13 445.744 1051.01ZM446.198 1047.94C446.198 1047.94 446.204 1047.94 446.214 1047.94C446.203 1047.94 446.198 1047.94 446.198 1047.94Z" fill="#E9ECE0" fill-opacity="0.33"/>
<path fill-rule="evenodd" clip-rule="evenodd" d="M671.431 813.616C674.335 813.148 648.556 768.956 688.457 758.082L671.431 813.616Z" fill="#E9ECE0" fill-opacity="0.33"/>
<path fill-rule="evenodd" clip-rule="evenodd" d="M672.987 814.002C672.801 814.484 672.376 814.964 671.691 815.074L671.174 812.13C670.671 812.211 670.371 812.576 670.26 812.863C670.217 812.976 670.206 813.062 670.204 813.095C670.204 813.09 670.204 813.082 670.203 813.073C670.194 812.897 670.126 812.531 669.953 811.9C669.726 811.071 669.387 810.018 668.974 808.738C668.772 808.11 668.551 807.427 668.318 806.689C666.928 802.29 665.184 796.254 664.623 789.851C664.063 783.449 664.673 776.552 668.113 770.519C671.575 764.45 677.789 759.452 688.046 756.655L688.859 759.535C679.182 762.174 673.665 766.773 670.651 772.058C667.616 777.378 667.007 783.591 667.537 789.649C668.068 795.705 669.725 801.478 671.101 805.832C671.314 806.507 671.524 807.157 671.722 807.771C672.15 809.098 672.525 810.26 672.77 811.157C672.946 811.8 673.095 812.441 673.124 812.969C673.138 813.22 673.137 813.611 672.987 814.002ZM670.204 813.11C670.204 813.11 670.204 813.105 670.204 813.095C670.204 813.106 670.204 813.111 670.204 813.11Z" fill="#E9ECE0" fill-opacity="0.33"/>
<path fill-rule="evenodd" clip-rule="evenodd" d="M320.081 1026.1C322.693 1026.84 334.153 965.396 372.997 970.499L320.081 1026.1ZM320.081 1026.1C322.693 1026.84 367.154 1020.53 371.149 968.65L320.081 1026.1Z" fill="#E9ECE0" fill-opacity="0.33"/>
<path fill-rule="evenodd" clip-rule="evenodd" d="M321.181 1028.19C320.725 1028.21 320.105 1028.22 319.598 1028.07L316.27 1027.13L319.125 1024.13C319.265 1023.84 319.44 1023.44 319.656 1022.9C320.078 1021.84 320.576 1020.47 321.177 1018.81C321.464 1018.02 321.774 1017.16 322.111 1016.25C324.168 1010.65 327.1 1003.08 331.197 995.632C339.317 980.867 352.487 965.749 373.197 968.47L377.258 969.003L372.626 973.872C369.489 997.391 357.823 1011.09 346.231 1018.83C340.066 1022.94 333.949 1025.36 329.193 1026.7C326.815 1027.38 324.761 1027.78 323.193 1028C322.411 1028.11 321.731 1028.17 321.181 1028.19ZM368.466 972.266C352.744 972.304 342.052 984.394 334.734 997.7C331.073 1004.36 328.358 1011.15 326.356 1016.53L368.466 972.266ZM367.601 979.153C363.63 997.793 353.701 1008.87 343.962 1015.37C338.195 1019.22 332.466 1021.49 328.032 1022.74C327.138 1022.99 326.299 1023.2 325.525 1023.38L367.601 979.153Z" fill="#E9ECE0" fill-opacity="0.33"/>
<path fill-rule="evenodd" clip-rule="evenodd" d="M671.516 816.255C672.864 817.666 702.012 785.089 724.16 802.5L671.516 816.255Z" fill="#E9ECE0" fill-opacity="0.33"/>
<path fill-rule="evenodd" clip-rule="evenodd" d="M672.116 818.146C671.84 818.203 670.932 818.332 670.199 817.566L672.814 814.971C672.166 814.293 671.396 814.444 671.311 814.461C671.23 814.478 671.175 814.498 671.155 814.506C671.163 814.503 671.175 814.497 671.193 814.487C671.36 814.397 671.663 814.198 672.141 813.842C672.778 813.367 673.571 812.734 674.535 811.966C674.997 811.597 675.498 811.198 676.04 810.769C679.328 808.17 683.879 804.703 689.116 801.736C699.47 795.87 713.249 791.568 725.279 801.026L723.066 803.985C712.939 796.023 701.06 799.308 690.957 805.031C685.965 807.859 681.588 811.188 678.337 813.758C677.838 814.153 677.36 814.534 676.907 814.895C675.911 815.689 675.041 816.383 674.355 816.894C673.863 817.26 673.379 817.599 672.96 817.823C672.763 817.929 672.463 818.074 672.116 818.146ZM671.146 814.51C671.146 814.51 671.149 814.509 671.155 814.506C671.149 814.509 671.146 814.51 671.146 814.51Z" fill="#E9ECE0" fill-opacity="0.33"/>
<path fill-rule="evenodd" clip-rule="evenodd" d="M668.147 824.773C669.429 823.362 634.232 796.475 649.646 773.45L668.147 824.773Z" fill="#E9ECE0" fill-opacity="0.33"/>
<path fill-rule="evenodd" clip-rule="evenodd" d="M668.763 824.386C668.813 824.549 668.883 824.916 668.612 825.214L667.676 824.33C667.587 824.427 667.554 824.54 667.548 824.625C667.543 824.698 667.557 824.744 667.558 824.746L667.558 824.746C667.558 824.746 667.558 824.746 667.558 824.746C667.558 824.746 667.553 824.732 667.536 824.701C667.519 824.667 667.493 824.622 667.455 824.565C667.3 824.328 667.023 823.986 666.62 823.531C666.079 822.919 665.359 822.156 664.502 821.247C664.089 820.81 663.645 820.338 663.174 819.834C660.29 816.75 656.465 812.509 653.08 807.58C646.338 797.76 641.178 784.951 649.119 773.089L650.168 773.829C642.698 784.987 647.43 797.128 654.11 806.857C657.437 811.702 661.207 815.885 664.08 818.957C664.537 819.447 664.974 819.91 665.384 820.345C666.251 821.265 666.995 822.053 667.55 822.681C667.957 823.141 668.289 823.543 668.501 823.866C668.604 824.023 668.706 824.203 668.763 824.386Z" fill="#E9ECE0" fill-opacity="0.33"/>
<path fill-rule="evenodd" clip-rule="evenodd" d="M581.045 866.461C578.907 864.34 624.062 843.38 597.091 810.582L581.045 866.461Z" fill="#E9ECE0" fill-opacity="0.33"/>
<path fill-rule="evenodd" clip-rule="evenodd" d="M582.879 866.65C582.972 866.215 582.899 865.548 582.384 865.037L579.695 867.85C579.046 867.206 578.932 866.37 579.068 865.729C579.178 865.214 579.438 864.825 579.6 864.607C579.944 864.144 580.449 863.677 580.944 863.251C581.641 862.652 582.593 861.908 583.671 861.067C584.165 860.681 584.685 860.275 585.218 859.853C588.703 857.098 593.16 853.365 596.842 848.741C600.525 844.116 603.327 838.731 603.701 832.674C604.071 826.674 602.076 819.712 595.599 811.832L598.566 809.324C605.566 817.839 608.037 825.791 607.592 833.009C607.15 840.169 603.856 846.304 599.892 851.281C595.926 856.261 591.185 860.214 587.651 863.008C587.051 863.483 586.495 863.917 585.986 864.314C584.96 865.115 584.124 865.768 583.497 866.307C583.02 866.717 582.801 866.948 582.73 867.043C582.758 866.998 582.834 866.862 582.879 866.65ZM582.727 867.046C582.728 867.045 582.729 867.044 582.73 867.043L582.727 867.046Z" fill="#E9ECE0" fill-opacity="0.33"/>
<path fill-rule="evenodd" clip-rule="evenodd" d="M567.1 988.735C569.708 991.356 601.424 1015.39 633.317 967.836L567.1 988.735Z" fill="#E9ECE0" fill-opacity="0.33"/>
<path fill-rule="evenodd" clip-rule="evenodd" d="M589.217 999.099C576.362 998.687 567.315 991.724 565.73 990.131L568.441 987.318C569.463 988.346 577.575 994.71 589.199 995.083C600.63 995.449 615.978 990.029 631.653 966.656L634.928 969.007C618.716 993.181 602.265 999.518 589.217 999.099Z" fill="#E9ECE0" fill-opacity="0.33"/>
<path fill-rule="evenodd" clip-rule="evenodd" d="M567.105 988.729C569.712 991.35 576.853 985.632 633.318 967.832L567.105 988.729Z" fill="#E9ECE0" fill-opacity="0.33"/>
<path fill-rule="evenodd" clip-rule="evenodd" d="M571.097 991.029C569.129 991.486 567.21 991.616 565.733 990.131L568.445 987.318C568.441 987.315 568.427 987.304 568.407 987.295C568.402 987.292 568.4 987.291 568.399 987.291C568.399 987.291 568.428 987.302 568.503 987.31C568.737 987.335 569.203 987.314 570.093 987.107C571.875 986.693 574.651 985.717 579.283 984.036C579.897 983.814 580.54 983.58 581.216 983.334C590.646 979.905 606.286 974.218 632.673 965.899L633.958 969.744C607.648 978.039 592.066 983.705 582.653 987.128C581.977 987.373 581.334 987.607 580.72 987.83C576.181 989.477 573.153 990.552 571.097 991.029Z" fill="#E9ECE0" fill-opacity="0.33"/>
<path fill-rule="evenodd" clip-rule="evenodd" d="M580.339 986.352C588.962 971.337 591 965.746 592.766 962.8L580.339 986.352Z" fill="#E9ECE0" fill-opacity="0.33"/>
<path fill-rule="evenodd" clip-rule="evenodd" d="M590.91 971.031C589.1 974.696 586.44 979.868 582.152 987.392L578.637 985.248C582.885 977.794 585.51 972.69 587.287 969.09C587.845 967.961 588.329 966.958 588.76 966.065C589.671 964.178 590.344 962.783 590.971 961.728L594.451 963.933C593.91 964.841 593.351 966 592.507 967.75C592.066 968.665 591.546 969.743 590.91 971.031Z" fill="#E9ECE0" fill-opacity="0.33"/>
<path fill-rule="evenodd" clip-rule="evenodd" d="M594.225 980.453C601.551 967.591 603.155 962.725 604.663 960.207L594.225 980.453Z" fill="#E9ECE0" fill-opacity="0.33"/>
<path fill-rule="evenodd" clip-rule="evenodd" d="M603.411 967.405C601.899 970.571 599.666 975.028 596.019 981.48L592.53 979.362C596.131 972.992 598.323 968.614 599.798 965.524C600.251 964.575 600.648 963.722 601.003 962.957C601.768 961.311 602.344 960.071 602.893 959.147L606.341 961.336C605.893 962.09 605.445 963.054 604.756 964.538C604.389 965.33 603.953 966.27 603.411 967.405Z" fill="#E9ECE0" fill-opacity="0.33"/>
<path fill-rule="evenodd" clip-rule="evenodd" d="M609.061 975.612C614.272 966.266 615.169 962.584 616.258 960.763L609.061 975.612Z" fill="#E9ECE0" fill-opacity="0.33"/>
<path fill-rule="evenodd" clip-rule="evenodd" d="M616.025 966.265C614.998 968.623 613.457 971.92 610.85 976.628L607.34 974.527C609.885 969.933 611.371 966.747 612.352 964.497C612.68 963.742 612.945 963.109 613.183 962.541C613.307 962.245 613.423 961.966 613.538 961.698C613.853 960.956 614.156 960.278 614.498 959.701L617.95 961.902C617.755 962.231 617.542 962.69 617.225 963.435C617.126 963.667 617.017 963.927 616.897 964.214C616.653 964.797 616.363 965.489 616.025 966.265Z" fill="#E9ECE0" fill-opacity="0.33"/>
<path fill-rule="evenodd" clip-rule="evenodd" d="M567.105 988.729C569.712 991.35 580.967 941.807 633.318 967.832L567.105 988.729Z" fill="#E9ECE0" fill-opacity="0.33"/>
<path fill-rule="evenodd" clip-rule="evenodd" d="M567.745 990.835C566.969 990.961 566.245 990.666 565.741 990.16L568.453 987.345C568.112 987.002 567.569 986.77 566.992 986.863C566.766 986.9 566.605 986.976 566.517 987.026C566.429 987.077 566.38 987.12 566.37 987.129C566.356 987.141 566.399 987.103 566.504 986.963C566.602 986.832 566.724 986.652 566.874 986.413C567.241 985.827 567.652 985.093 568.157 984.19C568.537 983.512 568.97 982.738 569.478 981.862C571.753 977.93 575.158 972.595 580.217 967.995C585.295 963.377 592.048 959.492 600.976 958.496C609.893 957.5 620.799 959.405 634.148 966.041L632.528 969.645C619.691 963.263 609.55 961.6 601.544 962.493C593.55 963.386 587.505 966.848 582.896 971.04C578.266 975.25 575.094 980.187 572.888 983.999C572.461 984.737 572.053 985.464 571.674 986.14C571.115 987.136 570.618 988.021 570.215 988.665C569.886 989.19 569.482 989.788 569.021 990.199C568.797 990.398 568.365 990.735 567.745 990.835Z" fill="#E9ECE0" fill-opacity="0.33"/>
<path fill-rule="evenodd" clip-rule="evenodd" d="M476.369 1001.35C475.688 1002.5 540.18 1006.41 569.773 989.52L476.369 1001.35Z" fill="#E9ECE0" fill-opacity="0.33"/>
<path fill-rule="evenodd" clip-rule="evenodd" d="M473.475 1002.13C473.22 1001.22 473.405 1000.36 473.78 999.724L478.932 1003.02C479.296 1002.41 479.478 1001.56 479.228 1000.67C479.012 999.893 478.564 999.415 478.333 999.202C477.92 998.82 477.518 998.667 477.471 998.649L477.467 998.648C477.375 998.612 477.316 998.596 477.315 998.596C477.314 998.596 477.349 998.605 477.432 998.622C477.739 998.682 478.304 998.764 479.156 998.853C480.829 999.028 483.342 999.206 486.511 999.336C492.841 999.597 501.673 999.665 511.446 999.175C531.155 998.186 554.063 994.947 568.221 986.865L571.291 992.213C555.858 1001.02 531.725 1004.28 511.961 1005.27C501.998 1005.77 492.986 1005.7 486.491 1005.43C483.248 1005.3 480.603 1005.11 478.764 1004.92C477.86 1004.83 477.08 1004.72 476.503 1004.61C476.249 1004.56 475.863 1004.47 475.493 1004.33L475.489 1004.33C475.357 1004.27 474.874 1004.08 474.409 1003.66C474.157 1003.42 473.697 1002.93 473.475 1002.13Z" fill="#E9ECE0" fill-opacity="0.33"/>
<path fill-rule="evenodd" clip-rule="evenodd" d="M476.369 1001.35C475.688 1002.5 540.18 1006.41 569.773 989.52L476.369 1001.35Z" fill="#E9ECE0" fill-opacity="0.33"/>
<path fill-rule="evenodd" clip-rule="evenodd" d="M473.475 1002.13C473.22 1001.22 473.405 1000.36 473.78 999.724L478.932 1003.02C479.296 1002.41 479.478 1001.56 479.228 1000.67C479.012 999.893 478.564 999.415 478.333 999.202C477.92 998.82 477.518 998.667 477.471 998.649L477.467 998.648C477.375 998.612 477.316 998.596 477.315 998.596C477.314 998.596 477.349 998.605 477.432 998.622C477.739 998.682 478.304 998.764 479.156 998.853C480.829 999.028 483.342 999.206 486.511 999.336C492.841 999.597 501.673 999.665 511.446 999.175C531.155 998.186 554.063 994.947 568.221 986.865L571.291 992.213C555.858 1001.02 531.725 1004.28 511.961 1005.27C501.998 1005.77 492.986 1005.7 486.491 1005.43C483.248 1005.3 480.603 1005.11 478.764 1004.92C477.86 1004.83 477.08 1004.72 476.503 1004.61C476.249 1004.56 475.863 1004.47 475.493 1004.33L475.489 1004.33C475.357 1004.27 474.874 1004.08 474.409 1003.66C474.157 1003.42 473.697 1002.93 473.475 1002.13Z" fill="#E9ECE0" fill-opacity="0.33"/>
<path fill-rule="evenodd" clip-rule="evenodd" d="M374.42 1042.26C373.734 1043.4 410.352 1047.24 446.455 1051.94L374.42 1042.26Z" fill="#E9ECE0" fill-opacity="0.33"/>
<path fill-rule="evenodd" clip-rule="evenodd" d="M371.613 1043.37C371.257 1042.44 371.364 1041.44 371.836 1040.65L376.966 1043.89C377.416 1043.13 377.52 1042.17 377.179 1041.28C376.907 1040.57 376.454 1040.17 376.285 1040.03C376.08 1039.87 375.907 1039.77 375.841 1039.74C375.763 1039.7 375.711 1039.68 375.704 1039.68C375.702 1039.68 375.702 1039.68 375.704 1039.68C375.714 1039.68 375.766 1039.7 375.876 1039.73C376.003 1039.76 376.174 1039.81 376.394 1039.86C377.296 1040.06 378.728 1040.31 380.67 1040.6C384.527 1041.19 390.134 1041.92 396.93 1042.76C401.44 1043.32 406.468 1043.94 411.835 1044.59C422.599 1045.9 434.729 1047.37 446.786 1048.94L446.161 1054.96C434.127 1053.4 422.05 1051.93 411.3 1050.62C405.924 1049.97 400.88 1049.36 396.339 1048.79C389.546 1047.95 383.865 1047.21 379.917 1046.61C377.955 1046.31 376.356 1046.03 375.244 1045.79C374.717 1045.67 374.158 1045.53 373.696 1045.35C373.519 1045.28 373.052 1045.1 372.605 1044.73C372.385 1044.55 371.899 1044.12 371.613 1043.37Z" fill="#E9ECE0" fill-opacity="0.33"/>
<path fill-rule="evenodd" clip-rule="evenodd" d="M482.117 945.065C481.065 945.005 469.764 946.022 472.09 962.974L482.117 945.065Z" fill="#E9ECE0" fill-opacity="0.33"/>
<path fill-rule="evenodd" clip-rule="evenodd" d="M474.692 946.319C477.751 943.598 481.293 943.276 482.157 943.324L482.043 946.831C482.046 946.832 482.044 946.832 482.038 946.832C482.002 946.833 481.834 946.836 481.543 946.876C481.22 946.92 480.789 947.004 480.297 947.153C479.308 947.451 478.106 947.999 476.997 948.986C474.868 950.879 472.717 954.728 473.807 962.76L470.387 963.165C469.18 954.275 471.507 949.152 474.692 946.319Z" fill="#E9ECE0" fill-opacity="0.33"/>
<path fill-rule="evenodd" clip-rule="evenodd" d="M471.171 942.74C471.39 942.008 472.592 933.811 460.531 932.031L471.171 942.74Z" fill="#E9ECE0" fill-opacity="0.33"/>
<path fill-rule="evenodd" clip-rule="evenodd" d="M471.864 940.989C471.912 941.94 471.792 942.657 471.715 942.915L470.631 942.559C470.664 942.451 470.777 941.868 470.734 941.019C470.693 940.181 470.501 939.114 469.955 938.02C468.881 935.867 466.358 933.457 460.464 932.587L460.6 931.453C466.77 932.363 469.677 934.945 470.962 937.523C471.596 938.794 471.817 940.027 471.864 940.989Z" fill="#E9ECE0" fill-opacity="0.33"/>
<path fill-rule="evenodd" clip-rule="evenodd" d="M421.58 951.459C423.209 950.773 438.615 939.019 423.052 914.497L421.58 951.459Z" fill="#E9ECE0" fill-opacity="0.33"/>
<path fill-rule="evenodd" clip-rule="evenodd" d="M423.434 951.555C422.868 952.006 422.357 952.339 422.015 952.483L421.138 950.406L421.138 950.406C421.138 950.406 421.145 950.403 421.159 950.396C421.174 950.389 421.194 950.378 421.221 950.363C421.273 950.333 421.342 950.292 421.425 950.237C421.592 950.128 421.807 949.975 422.058 949.775C422.559 949.376 423.191 948.805 423.866 948.059C425.216 946.566 426.722 944.391 427.72 941.511C429.696 935.808 429.756 927.106 422.129 915.089L423.969 913.897C431.901 926.394 432.039 935.825 429.797 942.297C428.685 945.505 427.008 947.929 425.498 949.598C424.743 950.433 424.026 951.085 423.434 951.555Z" fill="#E9ECE0" fill-opacity="0.33"/>
<path fill-rule="evenodd" clip-rule="evenodd" d="M482.125 945.004C481.054 944.941 480.64 947.651 472.013 962.952L482.125 945.004Z" fill="#E9ECE0" fill-opacity="0.33"/>
<path fill-rule="evenodd" clip-rule="evenodd" d="M479.831 944.632C480.177 944.111 480.877 943.184 482.144 943.256L482.036 946.772C482.497 946.798 482.768 946.57 482.835 946.503C482.816 946.526 482.782 946.571 482.73 946.649C482.478 947.029 482.111 947.729 481.437 949.058C481.349 949.23 481.258 949.41 481.162 949.6C479.817 952.257 477.581 956.672 473.566 963.832L470.532 962.035C474.512 954.938 476.723 950.572 478.061 947.93C478.157 947.74 478.248 947.56 478.336 947.387C478.969 946.138 479.44 945.22 479.831 944.632ZM482.852 946.485C482.852 946.485 482.846 946.492 482.835 946.503C482.846 946.49 482.852 946.484 482.852 946.485Z" fill="#E9ECE0" fill-opacity="0.33"/>
<path fill-rule="evenodd" clip-rule="evenodd" d="M471.156 942.733C471.373 942.005 469.586 941.165 460.517 932.071L471.156 942.733Z" fill="#E9ECE0" fill-opacity="0.33"/>
<path fill-rule="evenodd" clip-rule="evenodd" d="M471.285 941.675C471.573 942.01 471.847 942.421 471.699 942.917L470.616 942.561C470.604 942.602 470.609 942.633 470.613 942.647C470.602 942.625 470.563 942.554 470.44 942.411C470.189 942.119 469.732 941.687 468.945 940.957C468.841 940.86 468.731 940.759 468.617 940.653C467.017 939.172 464.365 936.715 460.126 932.457L460.912 931.657C465.134 935.899 467.773 938.343 469.369 939.821C469.483 939.927 469.593 940.028 469.697 940.125C470.463 940.835 470.979 941.32 471.285 941.675ZM470.615 942.655C470.615 942.655 470.614 942.652 470.613 942.647C470.615 942.653 470.616 942.655 470.615 942.655Z" fill="#E9ECE0" fill-opacity="0.33"/>
<path fill-rule="evenodd" clip-rule="evenodd" d="M421.573 951.477C423.205 950.79 421.915 946.292 423.955 916.29L421.573 951.477Z" fill="#E9ECE0" fill-opacity="0.33"/>
<path fill-rule="evenodd" clip-rule="evenodd" d="M423.436 950.083C423.292 951.099 423.003 952.089 422.012 952.506L421.134 950.428C421.106 950.44 421.086 950.454 421.074 950.466C421.107 950.407 421.185 950.214 421.256 949.715C421.385 948.808 421.44 947.323 421.51 944.816C421.519 944.484 421.528 944.136 421.538 943.771C421.676 938.672 421.904 930.213 422.858 916.2L425.056 916.403C424.105 930.369 423.877 938.792 423.74 943.881C423.73 944.246 423.721 944.594 423.712 944.926C423.644 947.376 423.588 949.017 423.436 950.083ZM421.057 950.489C421.057 950.487 421.062 950.478 421.074 950.466C421.064 950.484 421.058 950.49 421.057 950.489Z" fill="#E9ECE0" fill-opacity="0.33"/>
<path fill-rule="evenodd" clip-rule="evenodd" d="M422.523 944.614C417.455 937.803 415.375 935.782 414.392 934.413L422.523 944.614Z" fill="#E9ECE0" fill-opacity="0.33"/>
<path fill-rule="evenodd" clip-rule="evenodd" d="M417.751 936.762C419.041 938.311 420.842 940.544 423.39 943.98L421.658 945.286C419.136 941.887 417.362 939.688 416.098 938.17C415.705 937.697 415.352 937.28 415.037 936.908C414.367 936.118 413.869 935.53 413.513 935.033L415.268 933.758C415.569 934.178 415.973 934.654 416.587 935.379C416.911 935.762 417.294 936.213 417.751 936.762Z" fill="#E9ECE0" fill-opacity="0.33"/>
<path fill-rule="evenodd" clip-rule="evenodd" d="M422.584 937.101C418.233 931.294 416.394 929.61 415.554 928.44L422.584 937.101Z" fill="#E9ECE0" fill-opacity="0.33"/>
<path fill-rule="evenodd" clip-rule="evenodd" d="M418.528 930.342C419.651 931.658 421.214 933.557 423.405 936.494L421.764 937.741C419.603 934.844 418.07 932.982 416.975 931.701C416.641 931.309 416.338 930.961 416.066 930.649C415.477 929.973 415.031 929.461 414.719 929.025L416.387 927.813C416.636 928.163 416.976 928.553 417.503 929.157C417.786 929.481 418.122 929.867 418.528 930.342Z" fill="#E9ECE0" fill-opacity="0.33"/>
<path fill-rule="evenodd" clip-rule="evenodd" d="M423.297 929.341C420.116 925.167 418.672 924.033 418.065 923.188L423.297 929.341Z" fill="#E9ECE0" fill-opacity="0.33"/>
<path fill-rule="evenodd" clip-rule="evenodd" d="M420.416 924.35C421.27 925.287 422.447 926.644 424.057 928.767L422.537 929.941C420.966 927.87 419.829 926.559 419.014 925.665C418.741 925.366 418.51 925.12 418.302 924.899C418.194 924.783 418.092 924.674 417.994 924.569C417.724 924.277 417.479 924.005 417.286 923.734L418.84 922.606C418.95 922.76 419.114 922.949 419.385 923.241C419.47 923.332 419.565 923.434 419.67 923.546C419.883 923.773 420.135 924.042 420.416 924.35Z" fill="#E9ECE0" fill-opacity="0.33"/>
<path fill-rule="evenodd" clip-rule="evenodd" d="M482.033 944.97C480.982 944.911 488.05 958.167 472.009 962.877L482.033 944.97Z" fill="#E9ECE0" fill-opacity="0.33"/>
<path fill-rule="evenodd" clip-rule="evenodd" d="M480.586 943.928C480.97 943.424 481.546 943.208 482.089 943.238L481.975 946.744C482.453 946.771 482.979 946.576 483.328 946.119C483.592 945.774 483.63 945.433 483.638 945.355C483.649 945.254 483.643 945.187 483.643 945.187C483.643 945.187 483.645 945.219 483.658 945.294C483.688 945.478 483.732 945.677 483.789 945.945C483.837 946.167 483.895 946.437 483.965 946.783C484.238 948.149 484.558 950.147 484.347 952.35C484.134 954.577 483.378 957.024 481.507 959.241C479.643 961.45 476.776 963.309 472.548 964.556L471.521 961.182C475.279 960.074 477.524 958.514 478.869 956.92C480.207 955.334 480.755 953.595 480.914 951.934C481.075 950.248 480.834 948.656 480.585 947.411C480.544 947.206 480.496 946.981 480.449 946.761C480.372 946.4 480.297 946.049 480.257 945.804C480.226 945.623 480.17 945.266 480.208 944.906C480.226 944.733 480.286 944.321 480.586 943.928Z" fill="#E9ECE0" fill-opacity="0.33"/>
<path fill-rule="evenodd" clip-rule="evenodd" d="M471.14 942.779C471.358 942.047 461.037 944.373 460.498 932.064L471.14 942.779Z" fill="#E9ECE0" fill-opacity="0.33"/>
<path fill-rule="evenodd" clip-rule="evenodd" d="M471.575 942.384C471.709 942.563 471.734 942.779 471.679 942.963L470.596 942.606C470.554 942.745 470.572 942.921 470.681 943.065C470.759 943.17 470.848 943.206 470.858 943.21C470.858 943.21 470.858 943.21 470.858 943.21C470.861 943.211 470.862 943.212 470.862 943.212C470.862 943.213 470.824 943.202 470.714 943.189C470.571 943.172 470.399 943.161 470.184 943.146C470.02 943.135 469.831 943.123 469.611 943.105C468.645 943.026 467.292 942.858 465.903 942.301C464.506 941.742 463.07 940.79 461.952 939.149C460.836 937.512 460.067 935.233 459.93 932.07L461.061 932.047C461.191 935.046 461.914 937.098 462.878 938.512C463.84 939.924 465.072 940.745 466.296 941.235C467.528 941.728 468.748 941.885 469.674 941.961C469.849 941.975 470.023 941.987 470.186 941.998C470.432 942.015 470.653 942.03 470.816 942.049C470.947 942.064 471.117 942.089 471.262 942.148C471.332 942.177 471.468 942.242 471.575 942.384Z" fill="#E9ECE0" fill-opacity="0.33"/>
<path fill-rule="evenodd" clip-rule="evenodd" d="M421.576 951.482C423.205 950.796 402.249 936.071 423.104 916.897L421.576 951.482Z" fill="#E9ECE0" fill-opacity="0.33"/>
<path fill-rule="evenodd" clip-rule="evenodd" d="M422.746 951.593C422.663 952.05 422.36 952.365 422.014 952.511L421.137 950.435C420.893 950.538 420.647 950.782 420.582 951.142C420.557 951.282 420.568 951.395 420.58 951.459C420.591 951.524 420.607 951.566 420.612 951.579C420.612 951.581 420.612 951.58 420.609 951.576C420.597 951.555 420.541 951.455 420.383 951.243C420.177 950.966 419.916 950.646 419.594 950.252C419.341 949.943 419.051 949.588 418.721 949.172C417.289 947.366 415.392 944.757 414.117 941.519C412.835 938.264 412.177 934.363 413.236 930.006C414.293 925.657 417.035 920.965 422.36 916.068L423.852 917.748C418.757 922.433 416.301 926.767 415.372 930.588C414.445 934.401 415.012 937.814 416.156 940.72C417.306 943.641 419.036 946.038 420.42 947.783C420.692 948.125 420.964 948.459 421.217 948.769C421.577 949.211 421.899 949.606 422.125 949.91C422.312 950.161 422.531 950.474 422.652 950.784C422.71 950.933 422.811 951.235 422.746 951.593Z" fill="#E9ECE0" fill-opacity="0.33"/>
<path fill-rule="evenodd" clip-rule="evenodd" d="M483.293 939.903C484.988 941.088 513.845 950.718 517.987 921.062L483.293 939.903Z" fill="#E9ECE0" fill-opacity="0.33"/>
<path fill-rule="evenodd" clip-rule="evenodd" d="M483.173 942.093C482.86 941.961 482.47 941.784 482.17 941.574L484.393 938.211C484.365 938.191 484.35 938.182 484.35 938.181C484.351 938.18 484.431 938.224 484.636 938.31C484.884 938.415 485.233 938.546 485.674 938.693C486.556 938.986 487.759 939.322 489.184 939.609C492.044 940.185 495.701 940.543 499.386 940.009C503.056 939.477 506.687 938.072 509.635 935.182C512.574 932.301 514.997 927.784 515.984 920.723L519.96 921.383C518.875 929.147 516.138 934.547 512.449 938.163C508.769 941.771 504.304 943.445 500.031 944.064C495.773 944.681 491.64 944.263 488.484 943.627C486.901 943.308 485.539 942.93 484.502 942.585C483.985 942.413 483.536 942.245 483.173 942.093Z" fill="#E9ECE0" fill-opacity="0.33"/>
<path fill-rule="evenodd" clip-rule="evenodd" d="M481.803 941.895C481.832 943.221 490.243 963.387 514.745 959.168L481.803 941.895Z" fill="#E9ECE0" fill-opacity="0.33"/>
<path fill-rule="evenodd" clip-rule="evenodd" d="M481.124 942.574C481.056 942.357 480.984 942.095 480.98 941.879L482.618 941.887C482.618 941.876 482.618 941.87 482.618 941.87C482.62 941.869 482.631 941.94 482.685 942.111C482.744 942.301 482.838 942.559 482.971 942.876C483.236 943.511 483.646 944.358 484.215 945.334C485.354 947.286 487.121 949.73 489.629 952.004C494.621 956.528 502.597 960.428 514.588 958.358L514.906 959.99C502.384 962.152 493.9 958.07 488.553 953.223C485.892 950.811 484.02 948.222 482.809 946.146C482.203 945.108 481.759 944.193 481.464 943.486C481.316 943.132 481.203 942.824 481.124 942.574Z" fill="#E9ECE0" fill-opacity="0.33"/>
<path fill-rule="evenodd" clip-rule="evenodd" d="M472.71 945.285C474.049 945.218 493.784 935.962 487.593 910.696L472.71 945.285Z" fill="#E9ECE0" fill-opacity="0.33"/>
<path fill-rule="evenodd" clip-rule="evenodd" d="M473.797 946.851C473.586 946.927 473.213 947.054 472.844 947.072L472.59 943.466C472.477 943.472 472.408 943.489 472.408 943.489C472.408 943.489 472.45 943.479 472.547 943.444C472.7 943.389 472.925 943.297 473.215 943.16C473.793 942.887 474.579 942.461 475.484 941.867C477.296 940.678 479.543 938.847 481.568 936.28C485.571 931.205 488.801 923.145 485.862 911.105L489.308 910.31C492.53 923.511 488.994 932.699 484.357 938.577C482.062 941.488 479.52 943.56 477.457 944.914C476.424 945.591 475.5 946.096 474.77 946.441C474.406 946.613 474.077 946.751 473.797 946.851Z" fill="#E9ECE0" fill-opacity="0.33"/>
<path fill-rule="evenodd" clip-rule="evenodd" d="M483.283 939.937C484.98 941.122 488.396 937.149 518.017 921.078L483.283 939.937Z" fill="#E9ECE0" fill-opacity="0.33"/>
<path fill-rule="evenodd" clip-rule="evenodd" d="M486.094 941.62C485.025 942.098 483.555 942.581 482.164 941.61L484.39 938.243C484.126 938.059 483.894 938.066 483.838 938.072C483.883 938.064 484.055 938.021 484.415 937.86C485.305 937.462 486.699 936.648 489.126 935.195C489.445 935.005 489.78 934.804 490.131 934.594C495.036 931.653 503.177 926.773 517.031 919.257L518.977 922.885C505.196 930.362 497.109 935.209 492.22 938.14C491.869 938.351 491.534 938.551 491.215 938.742C488.875 940.143 487.246 941.104 486.094 941.62ZM483.825 938.074C483.825 938.074 483.83 938.073 483.838 938.072C483.829 938.074 483.825 938.075 483.825 938.074Z" fill="#E9ECE0" fill-opacity="0.33"/>
<path fill-rule="evenodd" clip-rule="evenodd" d="M481.869 941.884C481.901 943.197 486.722 944.406 514.782 959.039L481.869 941.884Z" fill="#E9ECE0" fill-opacity="0.33"/>
<path fill-rule="evenodd" clip-rule="evenodd" d="M481.572 942.959C481.29 942.681 481.058 942.32 481.047 941.863L482.683 941.873C482.681 941.795 482.652 941.752 482.653 941.752C482.653 941.752 482.664 941.769 482.703 941.807C482.814 941.918 483.04 942.087 483.474 942.343C484.333 942.85 485.779 943.565 488.151 944.722C488.467 944.876 488.797 945.037 489.145 945.207C493.996 947.57 502.04 951.488 515.146 958.337L514.426 959.789C501.341 952.951 493.314 949.041 488.466 946.68C488.119 946.511 487.788 946.35 487.473 946.196C485.128 945.052 483.608 944.302 482.677 943.753C482.215 943.48 481.84 943.224 481.572 942.959Z" fill="#E9ECE0" fill-opacity="0.33"/>
<path fill-rule="evenodd" clip-rule="evenodd" d="M472.728 945.363C474.078 945.298 474.921 940.254 487.653 910.715L472.728 945.363Z" fill="#E9ECE0" fill-opacity="0.33"/>
<path fill-rule="evenodd" clip-rule="evenodd" d="M474.59 946.267C474.232 946.676 473.671 947.111 472.869 947.151L472.609 943.539C472.143 943.562 471.901 943.825 471.896 943.831C471.895 943.832 471.904 943.821 471.923 943.795C471.942 943.769 471.967 943.731 471.999 943.679C472.064 943.572 472.145 943.423 472.248 943.216C472.674 942.354 473.272 940.879 474.268 938.37C474.399 938.039 474.537 937.691 474.682 937.327C476.704 932.228 480.058 923.769 485.997 909.979L489.271 911.493C483.353 925.236 480.013 933.658 477.995 938.747C477.851 939.111 477.713 939.459 477.581 939.79C476.61 942.238 475.95 943.877 475.443 944.901C475.194 945.403 474.921 945.889 474.59 946.267Z" fill="#E9ECE0" fill-opacity="0.33"/>
<path fill-rule="evenodd" clip-rule="evenodd" d="M483.283 939.936C510.368 936.755 505.022 934.41 518.017 921.078L483.283 939.936Z" fill="#E9ECE0" fill-opacity="0.33"/>
<path fill-rule="evenodd" clip-rule="evenodd" d="M507.105 935.986C502.958 938.978 497.004 940.38 483.562 941.96L483.021 937.889C496.638 936.289 501.544 934.93 504.739 932.625C506.339 931.47 507.587 930.022 509.345 927.868C509.495 927.683 509.649 927.495 509.806 927.302C511.466 925.26 513.526 922.729 516.556 919.62L519.435 922.538C516.532 925.517 514.572 927.926 512.916 929.961C512.76 930.153 512.607 930.341 512.456 930.526C510.717 932.657 509.175 934.492 507.105 935.986Z" fill="#E9ECE0" fill-opacity="0.33"/>
<path fill-rule="evenodd" clip-rule="evenodd" d="M483.283 939.936C497.183 934.883 491.754 920.209 518.017 921.078L483.283 939.936Z" fill="#E9ECE0" fill-opacity="0.33"/>
<path fill-rule="evenodd" clip-rule="evenodd" d="M495.363 932.427C492.818 935.818 489.879 939.734 484.004 941.871L482.584 938.006C487.275 936.301 489.333 933.575 491.743 930.382C492.58 929.273 493.46 928.108 494.507 926.91C496.489 924.642 498.952 922.512 502.714 921.039C506.437 919.58 511.305 918.813 518.039 919.036L517.992 923.133C511.599 922.922 507.301 923.663 504.223 924.869C501.184 926.06 499.213 927.75 497.533 929.673C496.801 930.51 496.098 931.447 495.363 932.427Z" fill="#E9ECE0" fill-opacity="0.33"/>
<path fill-rule="evenodd" clip-rule="evenodd" d="M483.288 939.939C484.985 941.124 492.62 906.966 518.016 921.082L483.288 939.939Z" fill="#E9ECE0" fill-opacity="0.33"/>
<path fill-rule="evenodd" clip-rule="evenodd" d="M484.321 941.843C483.747 942.103 482.927 942.16 482.183 941.64L484.409 938.274C483.771 937.828 483.068 937.89 482.624 938.091C482.445 938.172 482.325 938.265 482.266 938.316C482.203 938.369 482.168 938.41 482.159 938.42C482.156 938.423 482.155 938.425 482.155 938.425C482.155 938.424 482.18 938.392 482.233 938.307C482.292 938.211 482.368 938.079 482.461 937.904C482.723 937.408 483.029 936.762 483.412 935.951C483.605 935.541 483.819 935.089 484.057 934.594C485.422 931.749 487.409 927.862 490.204 924.364C492.997 920.869 496.705 917.627 501.558 916.279C506.465 914.915 512.243 915.571 518.961 919.304L517.093 922.895C511.111 919.57 506.41 919.202 502.69 920.236C498.914 921.285 495.845 923.862 493.342 926.994C490.841 930.124 489.013 933.672 487.676 936.457C487.477 936.873 487.283 937.282 487.098 937.674C486.686 938.546 486.314 939.333 486.006 939.912C485.792 940.317 485.524 940.789 485.214 941.151C485.07 941.318 484.775 941.638 484.321 941.843Z" fill="#E9ECE0" fill-opacity="0.33"/>
<path fill-rule="evenodd" clip-rule="evenodd" d="M481.913 941.748C481.942 943.074 511.691 940 514.854 959.021L481.913 941.748Z" fill="#E9ECE0" fill-opacity="0.33"/>
<path fill-rule="evenodd" clip-rule="evenodd" d="M481.597 942.564C481.459 942.482 481.099 942.227 481.089 941.734L482.727 941.743C482.719 941.333 482.418 941.152 482.394 941.138C482.373 941.126 482.359 941.12 482.359 941.12C482.36 941.12 482.378 941.127 482.425 941.139C482.581 941.178 482.852 941.218 483.259 941.257C483.803 941.31 484.501 941.355 485.34 941.409C485.747 941.435 486.187 941.463 486.658 941.496C489.513 941.692 493.385 942.029 497.369 942.931C505.276 944.722 513.996 948.841 515.665 958.916L514.048 959.148C512.562 950.171 504.822 946.307 497.05 944.547C493.194 943.673 489.424 943.342 486.59 943.148C486.144 943.117 485.717 943.09 485.316 943.064C484.458 943.009 483.716 942.961 483.145 942.906C482.73 942.865 482.355 942.817 482.071 942.746C481.936 942.712 481.759 942.659 481.597 942.564Z" fill="#E9ECE0" fill-opacity="0.33"/>
<path fill-rule="evenodd" clip-rule="evenodd" d="M472.796 945.386C474.135 945.32 468.693 914.589 487.678 910.799L472.796 945.386Z" fill="#E9ECE0" fill-opacity="0.33"/>
<path fill-rule="evenodd" clip-rule="evenodd" d="M474.493 946.109C474.375 946.35 473.927 947.121 472.922 947.171L472.669 943.566C471.747 943.612 471.37 944.319 471.31 944.44C471.256 944.55 471.232 944.637 471.225 944.671C471.225 944.67 471.225 944.67 471.225 944.67C471.24 944.582 471.258 944.362 471.267 943.943C471.278 943.395 471.269 942.697 471.259 941.84C471.254 941.416 471.248 940.952 471.244 940.448C471.221 937.479 471.26 933.405 471.872 929.186C473.076 920.879 476.651 911.172 487.279 909.043L488.039 912.585C479.732 914.249 476.543 921.785 475.383 929.791C474.812 933.728 474.77 937.577 474.793 940.5C474.796 940.948 474.801 941.382 474.806 941.794C474.817 942.694 474.827 943.489 474.815 944.097C474.806 944.531 474.786 944.982 474.724 945.352C474.695 945.522 474.637 945.815 474.493 946.109ZM471.222 944.685C471.222 944.685 471.223 944.68 471.225 944.671C471.223 944.681 471.222 944.686 471.222 944.685Z" fill="#E9ECE0" fill-opacity="0.33"/>
<path fill-rule="evenodd" clip-rule="evenodd" d="M374.401 1042.34C373.704 1043.51 439.218 945.706 475.937 950.469L374.401 1042.34Z" fill="#E9ECE0" fill-opacity="0.33"/>
<path fill-rule="evenodd" clip-rule="evenodd" d="M371.793 1040.78L371.837 1040.71L377.049 1043.99L377.086 1043.93C377.105 1043.9 377.162 1043.78 377.198 1043.71C377.299 1043.46 376.988 1040.75 374.955 1039.33C373.619 1039.37 372.308 1040.11 372.183 1040.24C372.139 1040.29 372.074 1040.37 372.053 1040.39L372.014 1040.45L371.998 1040.47L371.993 1040.48C371.992 1040.48 371.998 1040.47 372.015 1040.44L372.075 1040.36L372.568 1039.64C373.021 1038.99 373.711 1037.99 374.615 1036.71C376.422 1034.14 379.08 1030.42 382.405 1025.93C389.049 1016.96 398.37 1004.92 408.878 992.988C419.369 981.071 431.126 969.16 442.647 960.506C453.999 951.978 465.807 946.079 476.236 947.432L475.603 953.556C467.687 952.529 457.55 957.069 446.327 965.5C435.272 973.805 423.822 985.375 413.444 997.163C403.082 1008.93 393.869 1020.83 387.285 1029.71C383.995 1034.15 381.366 1037.84 379.582 1040.38C378.69 1041.64 378.009 1042.63 377.561 1043.27L377.062 1043.99C377.012 1044.07 376.962 1044.14 376.924 1044.19L376.877 1044.26L376.829 1044.32C376.806 1044.35 376.739 1044.43 376.694 1044.48C376.567 1044.61 375.256 1045.35 373.919 1045.39C371.886 1043.98 371.576 1041.26 371.677 1041.01C371.693 1040.98 371.712 1040.94 371.731 1040.9C371.757 1040.85 371.781 1040.8 371.793 1040.78Z" fill="#E9ECE0" fill-opacity="0.33"/>
<path fill-rule="evenodd" clip-rule="evenodd" d="M374.542 1042.97C373.84 1044.14 427.007 972.644 420.275 947.991L374.542 1042.97Z" fill="#E9ECE0" fill-opacity="0.33"/>
<path fill-rule="evenodd" clip-rule="evenodd" d="M371.782 1041.56C371.851 1041.42 371.919 1041.3 371.932 1041.28L377.2 1044.59L377.201 1044.59C377.212 1044.57 377.274 1044.46 377.338 1044.33C377.381 1044.23 377.49 1043.93 377.545 1043.72C377.622 1043.13 376.853 1040.96 375.413 1040C374.362 1039.86 373.043 1040.22 372.77 1040.39C372.657 1040.47 372.49 1040.61 372.434 1040.66C372.345 1040.75 372.283 1040.82 372.269 1040.83L372.268 1040.84C372.24 1040.87 372.22 1040.89 372.212 1040.9C372.215 1040.9 372.222 1040.89 372.232 1040.88C372.291 1040.8 372.404 1040.65 372.575 1040.42C372.912 1039.97 373.433 1039.27 374.112 1038.33C375.469 1036.46 377.444 1033.69 379.815 1030.24C384.561 1023.36 390.878 1013.83 397.002 1003.5C403.137 993.16 409.03 982.108 412.969 972.176C414.938 967.209 416.388 962.598 417.149 958.547C417.918 954.457 417.938 951.176 417.279 948.748L423.188 947.26C424.199 950.99 424.023 955.33 423.172 959.857C422.313 964.424 420.72 969.429 418.667 974.608C414.559 984.967 408.486 996.328 402.282 1006.79C396.067 1017.26 389.671 1026.92 384.875 1033.87C382.476 1037.35 380.474 1040.16 379.09 1042.07C378.399 1043.03 377.859 1043.76 377.498 1044.24C377.321 1044.48 377.177 1044.67 377.077 1044.8L377.075 1044.8C377.041 1044.84 376.96 1044.94 376.876 1045.04L376.876 1045.04C376.856 1045.06 376.787 1045.14 376.692 1045.23C376.634 1045.28 376.466 1045.42 376.352 1045.51C376.077 1045.68 374.757 1046.04 373.705 1045.9C372.265 1044.94 371.496 1042.77 371.573 1042.17C371.629 1041.96 371.738 1041.66 371.782 1041.56Z" fill="#E9ECE0" fill-opacity="0.33"/>
<path fill-rule="evenodd" clip-rule="evenodd" d="M542.725 959.904C542.026 961.073 588.93 891.661 579.823 859.661L542.725 959.904Z" fill="#E9ECE0" fill-opacity="0.33"/>
<path fill-rule="evenodd" clip-rule="evenodd" d="M540.026 958.363C540.064 958.291 540.097 958.236 540.107 958.219L545.344 961.516L545.345 961.515C545.35 961.506 545.379 961.458 545.413 961.393C545.435 961.352 545.494 961.229 545.53 961.147C545.609 960.937 545.745 959.581 545.403 958.483C543.632 956.956 540.985 957.297 540.66 957.551C540.567 957.639 540.435 957.777 540.395 957.823C540.338 957.89 540.297 957.945 540.29 957.954L540.289 957.955C540.272 957.978 540.261 957.993 540.262 957.991C540.263 957.99 540.271 957.979 540.287 957.956C540.342 957.877 540.443 957.728 540.59 957.508C540.883 957.071 541.337 956.383 541.929 955.47C543.11 953.644 544.832 950.93 546.891 947.536C551.013 940.746 556.473 931.262 561.669 920.763C566.872 910.249 571.767 898.801 574.801 888.07C577.865 877.236 578.893 867.597 576.871 860.467L582.73 858.893C585.241 867.751 583.815 878.775 580.667 889.907C577.491 901.141 572.42 912.96 567.133 923.643C561.84 934.34 556.288 943.98 552.107 950.869C550.015 954.316 548.262 957.08 547.052 958.95C546.446 959.885 545.975 960.599 545.663 961.065C545.508 961.296 545.387 961.475 545.306 961.592C545.276 961.635 545.22 961.716 545.165 961.788L545.165 961.789C545.153 961.804 545.107 961.865 545.046 961.937C545.004 961.985 544.871 962.124 544.777 962.213C544.452 962.468 541.804 962.809 540.033 961.281C539.691 960.183 539.827 958.827 539.907 958.615C539.943 958.532 540.003 958.407 540.026 958.363Z" fill="#E9ECE0" fill-opacity="0.33"/>
<path fill-rule="evenodd" clip-rule="evenodd" d="M272.435 1057.24C271.741 1058.4 292.64 1050.04 323.233 1026.22L272.435 1057.24Z" fill="#E9ECE0" fill-opacity="0.33"/>
<path fill-rule="evenodd" clip-rule="evenodd" d="M269.422 1057.13C269.441 1056.37 269.729 1055.83 269.867 1055.59L275.04 1058.87C275.157 1058.67 275.433 1058.16 275.452 1057.42C275.476 1056.51 275.091 1055.61 274.388 1055C273.82 1054.5 273.241 1054.36 273.012 1054.31C272.741 1054.26 272.53 1054.26 272.435 1054.26C272.292 1054.27 272.191 1054.28 272.158 1054.29C272.178 1054.28 272.224 1054.27 272.3 1054.25C272.699 1054.13 273.453 1053.86 274.584 1053.38C276.809 1052.44 280.219 1050.81 284.631 1048.38C293.446 1043.54 306.174 1035.59 321.332 1023.78L325.057 1028.7C309.656 1040.69 296.667 1048.82 287.578 1053.81C283.038 1056.3 279.449 1058.03 277.001 1059.07C275.794 1059.58 274.792 1059.96 274.063 1060.17C273.77 1060.25 273.248 1060.4 272.712 1060.41C272.556 1060.42 272.294 1060.41 271.982 1060.35C271.712 1060.3 271.103 1060.14 270.515 1059.63C269.792 1059 269.397 1058.08 269.422 1057.13ZM272.147 1054.29C272.147 1054.29 272.151 1054.29 272.158 1054.29C272.15 1054.29 272.146 1054.29 272.147 1054.29Z" fill="#E9ECE0" fill-opacity="0.33"/>
<path fill-rule="evenodd" clip-rule="evenodd" d="M720.647 724.694C767.257 540.952 694.232 341.371 527.694 238.345C322.895 111.651 54.2429 178.943 -72.3583 388.646C-198.96 598.35 -135.568 871.054 69.2303 997.748C105.801 1020.37 144.403 1036.81 183.866 1047.35L182.282 1053.28C142.268 1042.58 103.133 1025.92 66.0661 1002.99C-141.56 874.546 -205.826 598.078 -77.4768 385.48C50.8719 172.882 323.232 104.661 530.858 233.104C699.703 337.556 773.724 539.895 726.473 726.168L720.647 724.694Z" fill="#E9ECE0" fill-opacity="0.33"/>
</svg>
