<svg width="81" height="76" viewBox="0 0 81 76" fill="none" xmlns="http://www.w3.org/2000/svg">
<path d="M65.7344 44.4688C60.4425 44.4738 55.2609 45.9823 50.7934 48.8187C46.3258 51.655 42.756 55.7024 40.5 60.4893C38.244 55.7024 34.6742 51.655 30.2066 48.8187C25.7391 45.9823 20.5575 44.4738 15.2656 44.4688H0.65625V47.125C0.65625 62.504 13.1679 75.0156 28.5469 75.0156H52.4531C67.8321 75.0156 80.3438 62.504 80.3438 47.125V44.4688H65.7344ZM28.5469 69.7031C16.9953 69.7031 7.4423 60.9841 6.12414 49.7812H15.2656C26.8172 49.7812 36.3702 58.5002 37.6884 69.7031H28.5469ZM52.4531 69.7031H43.3116C44.6298 58.5002 54.1828 49.7812 65.7344 49.7812H74.8759C73.5577 60.9841 64.0047 69.7031 52.4531 69.7031Z" fill="#545A2F"/>
<path d="M26.0945 37.6281C26.5969 40.6152 28.0219 43.3701 30.1697 45.5061L30.9478 46.284H32.048C35.077 46.2924 38.0327 45.3522 40.5001 43.5952C42.9675 45.3524 45.9232 46.2929 48.9523 46.2847H50.0525L50.8306 45.5067C52.9784 43.3707 54.4034 40.6159 54.9058 37.6288C57.8929 37.1264 60.6478 35.7013 62.7838 33.5536L63.5617 32.7755V31.6753C63.5703 28.646 62.63 25.6901 60.8729 23.2224C62.6301 20.7551 63.5706 17.7994 63.5624 14.7702V13.6701L62.7844 12.8919C60.6484 10.7442 57.8936 9.31915 54.9065 8.81676C54.4041 5.82965 52.979 3.07481 50.8313 0.938823L50.0532 0.160874H48.953C45.9237 0.152318 42.9678 1.09257 40.5001 2.84966C38.0328 1.09245 35.0771 0.151964 32.048 0.16021H30.9478L30.1697 0.938159C28.0219 3.07414 26.5969 5.82899 26.0945 8.8161C23.1074 9.31849 20.3525 10.7435 18.2165 12.8913L17.4386 13.6694V14.7696C17.43 17.7989 18.3703 20.7548 20.1274 23.2224C18.3702 25.6898 17.4297 28.6455 17.4379 31.6746V32.7748L18.2159 33.5529C20.352 35.7008 23.1071 37.1259 26.0945 37.6281ZM25.4742 21.3443C24.0011 19.88 23.0652 17.9614 22.818 15.899C24.451 14.6149 26.4696 13.9196 28.547 13.9256H31.2033V11.2693C31.1973 9.19215 31.8924 7.17374 33.1762 5.54078C35.2386 5.78794 37.1572 6.72385 38.6215 8.19703L40.5001 10.074L42.3783 8.19586C43.8426 6.7227 45.7612 5.78679 47.8236 5.53961C49.1078 7.17283 49.8031 9.19169 49.797 11.2693V13.9256H52.4533C54.5304 13.9196 56.5488 14.6147 58.1818 15.8985C57.9346 17.9609 56.9987 19.8795 55.5256 21.3438L53.6486 23.2224L55.5269 25.1007C57.0001 26.5651 57.936 28.4837 58.1831 30.5461C56.5499 31.8302 54.5309 32.5255 52.4533 32.5193H49.797V35.1756C49.803 37.2527 49.1079 39.2711 47.8241 40.9041C45.7617 40.6569 43.8431 39.721 42.3788 38.2479L40.5001 36.3709L38.6218 38.2485C37.1575 39.7217 35.2389 40.6576 33.1765 40.9048C31.8925 39.2717 31.1972 37.253 31.2033 35.1756V32.5193H28.547C26.4699 32.5253 24.4514 31.8302 22.8185 30.5464C23.0656 28.484 24.0016 26.5654 25.4747 25.1011L27.3517 23.2224L25.4742 21.3443Z" fill="#545A2F"/>
</svg>
