<svg width="65" height="76" viewBox="0 0 65 76" fill="none" xmlns="http://www.w3.org/2000/svg">
<path d="M27.3166 39.5856L20.413 32.625L16.6547 36.4144L27.3166 47.1644L48.6404 25.6644L44.8821 21.875L27.3166 39.5856Z" fill="#545A2F"/>
<path d="M32.6475 75.625L16.1856 66.7751C11.4926 64.2577 7.56803 60.4994 4.83313 55.9034C2.09824 51.3074 0.656233 46.0472 0.661882 40.6875V5.75C0.663293 4.3249 1.2254 2.95857 2.22484 1.95087C3.22428 0.943173 4.5794 0.376423 5.99283 0.375H59.3023C60.7157 0.376423 62.0708 0.943173 63.0702 1.95087C64.0697 2.95857 64.6318 4.3249 64.6332 5.75V40.6875C64.6388 46.0472 63.1968 51.3074 60.4619 55.9034C57.727 60.4994 53.8025 64.2577 49.1095 66.7751L32.6475 75.625ZM5.99283 5.75V40.6875C5.9884 45.073 7.16857 49.3769 9.40666 53.1372C11.6448 56.8976 14.8563 59.9724 18.6965 62.0316L32.6475 69.5324L46.5986 62.0343C50.4392 59.9749 53.651 56.8996 55.8891 53.1388C58.1272 49.3779 59.3072 45.0734 59.3023 40.6875V5.75H5.99283Z" fill="#545A2F"/>
</svg>
