<svg width="70" height="69" viewBox="0 0 70 69" fill="none" xmlns="http://www.w3.org/2000/svg">
<path d="M37.7945 30.25C36.0664 29.825 34.3383 28.975 33.0422 27.7C31.7461 27.275 31.3141 26 31.3141 25.15C31.3141 24.3 31.7461 23.025 32.6102 22.6C33.9062 21.75 35.2023 20.9 36.4984 21.325C39.0905 21.325 41.2507 22.6 42.5467 24.3L46.435 19.2C45.1389 17.925 43.8428 17.075 42.5467 16.225C41.2507 15.375 39.5226 14.95 37.7945 14.95V9H32.6102V14.95C30.45 15.375 28.2899 16.65 26.5618 18.35C24.8337 20.475 23.5376 23.025 23.9697 25.575C23.9697 28.125 24.8337 30.675 26.5618 32.375C28.7219 34.5 31.7461 35.775 34.3383 37.05C35.6343 37.475 37.3624 38.325 38.6585 39.175C39.5226 40.025 39.9546 41.3 39.9546 42.575C39.9546 43.85 39.5226 45.125 38.6585 46.4C37.3624 47.675 35.6343 48.1 34.3383 48.1C32.6102 48.1 30.45 47.675 29.154 46.4C27.8579 45.55 26.5618 44.275 25.6978 43L21.3775 47.675C22.6736 49.375 23.9697 50.65 25.6978 51.925C27.8579 53.2 30.45 54.475 33.0422 54.475V60H37.7945V53.625C40.3866 53.2 42.5467 51.925 44.2748 50.225C46.435 48.1 47.731 44.7 47.731 41.725C47.731 39.175 46.867 36.2 44.7068 34.5C42.5467 32.375 40.3866 31.1 37.7945 30.25ZM35.2023 0.5C16.1932 0.5 0.64032 15.8 0.64032 34.5C0.64032 53.2 16.1932 68.5 35.2023 68.5C54.2114 68.5 69.7643 53.2 69.7643 34.5C69.7643 15.8 54.2114 0.5 35.2023 0.5ZM35.2023 63.825C18.7854 63.825 5.39259 50.65 5.39259 34.5C5.39259 18.35 18.7854 5.175 35.2023 5.175C51.6192 5.175 65.012 18.35 65.012 34.5C65.012 50.65 51.6192 63.825 35.2023 63.825Z" fill="#545A2F"/>
</svg>
