<svg width="75" height="75" viewBox="0 0 75 75" fill="none" xmlns="http://www.w3.org/2000/svg">
<path d="M66.7191 45.4742C66.7156 42.6571 65.5952 39.9564 63.6034 37.9641C61.6117 35.9719 58.9112 34.8508 56.0941 34.8465H18.9066C17.4983 34.8444 16.1483 34.2841 15.1524 33.2882C14.1566 32.2924 13.5962 30.9424 13.5941 29.534V21.1855C15.4199 20.7096 17.0858 19.7556 18.4202 18.4217C19.7546 17.0877 20.7092 15.4222 21.1857 13.5965H53.8151C54.4616 16.1005 55.9991 18.2827 58.1395 19.7341C60.2798 21.1855 62.876 21.8065 65.4415 21.4806C68.0069 21.1548 70.3655 19.9044 72.075 17.964C73.7845 16.0236 74.7277 13.5263 74.7277 10.9403C74.7277 8.35424 73.7845 5.85696 72.075 3.91655C70.3655 1.97614 68.0069 0.725831 65.4415 0.399977C62.876 0.0741226 60.2798 0.695099 58.1395 2.14651C55.9991 3.59791 54.4616 5.78011 53.8151 8.28404H21.1857C20.7212 6.47143 19.7853 4.814 18.4731 3.48006C17.1609 2.14611 15.519 1.18316 13.7143 0.688984C11.9095 0.194803 10.0062 0.186992 8.19741 0.666344C6.38866 1.1457 4.73897 2.09514 3.41585 3.41827C2.09272 4.74139 1.14328 6.39109 0.663923 8.19983C0.184571 10.0086 0.192382 11.912 0.686562 13.7167C1.18074 15.5215 2.14369 17.1633 3.47764 18.4755C4.81158 19.7877 6.46901 20.7236 8.28162 21.1881V29.5314C8.28514 32.3489 9.40596 35.0501 11.3983 37.0424C13.3906 39.0347 16.0917 40.1555 18.9093 40.159H56.0941C57.5029 40.1612 58.8534 40.7219 59.8493 41.7183C60.8452 42.7147 61.4052 44.0654 61.4066 45.4742V53.4403H53.4379V61.4091H21.1857C20.5392 58.9051 19.0016 56.7229 16.8613 55.2715C14.7209 53.8201 12.1247 53.1991 9.55928 53.525C6.99383 53.8508 4.6353 55.1012 2.92577 57.0416C1.21623 58.982 0.273071 61.4792 0.273071 64.0653C0.273071 66.6514 1.21623 69.1486 2.92577 71.089C4.6353 73.0294 6.99383 74.2798 9.55928 74.6056C12.1247 74.9315 14.7209 74.3105 16.8613 72.8591C19.0016 71.4077 20.5392 69.2255 21.1857 66.7215H53.4379V74.6903H74.6879V53.4403H66.7191V45.4742ZM64.0629 5.62779C65.1136 5.62779 66.1407 5.93937 67.0144 6.52311C67.888 7.10686 68.5689 7.93655 68.971 8.90729C69.3731 9.87802 69.4783 10.9462 69.2733 11.9767C69.0683 13.0072 68.5624 13.9538 67.8194 14.6968C67.0764 15.4398 66.1298 15.9457 65.0993 16.1507C64.0688 16.3557 63.0006 16.2505 62.0299 15.8484C61.0592 15.4463 60.2295 14.7654 59.6457 13.8918C59.062 13.0181 58.7504 11.991 58.7504 10.9403C58.7518 9.53176 59.312 8.18132 60.3079 7.18534C61.3039 6.18936 62.6544 5.6292 64.0629 5.62779ZM5.62537 10.9403C5.62537 9.88958 5.93695 8.86246 6.52069 7.98883C7.10444 7.11519 7.93413 6.43427 8.90487 6.03218C9.8756 5.63009 10.9438 5.52489 11.9743 5.72987C13.0048 5.93485 13.9514 6.44082 14.6944 7.18379C15.4373 7.92675 15.9433 8.87335 16.1483 9.90388C16.3533 10.9344 16.2481 12.0026 15.846 12.9733C15.4439 13.944 14.763 14.7737 13.8893 15.3575C13.0157 15.9412 11.9886 16.2528 10.9379 16.2528C9.52934 16.2514 8.1789 15.6912 7.18292 14.6952C6.18694 13.6993 5.62678 12.3488 5.62537 10.9403ZM10.9379 69.3778C9.88716 69.3778 8.86004 69.0662 7.98641 68.4825C7.11277 67.8987 6.43185 67.069 6.02976 66.0983C5.62767 65.1276 5.52247 64.0594 5.72745 63.0289C5.93243 61.9984 6.4384 61.0518 7.18137 60.3088C7.92433 59.5658 8.87093 59.0599 9.90146 58.8549C10.932 58.6499 12.0001 58.7551 12.9709 59.1572C13.9416 59.5593 14.7713 60.2402 15.3551 61.1138C15.9388 61.9875 16.2504 63.0146 16.2504 64.0653C16.249 65.4738 15.6888 66.8243 14.6928 67.8203C13.6968 68.8162 12.3464 69.3764 10.9379 69.3778ZM69.3754 58.7528V69.3778H58.7504V58.7528H69.3754Z" fill="#545A2F"/>
</svg>
