<svg width="40" height="40" viewBox="0 0 40 40" fill="none" xmlns="http://www.w3.org/2000/svg">
<path d="M21.499 19.9923L32.755 8.72528C32.9535 8.52572 33.0649 8.2556 33.0647 7.97407C33.0646 7.69255 32.9528 7.42258 32.754 7.22328C32.356 6.82728 31.655 6.82528 31.253 7.22528L20 18.4923L8.74296 7.22228C8.34296 6.82728 7.64196 6.82928 7.24396 7.22428C7.14517 7.32267 7.06697 7.43976 7.01392 7.5687C6.96086 7.69764 6.93402 7.83586 6.93496 7.97528C6.93496 8.25928 7.04496 8.52528 7.24396 8.72228L18.5 19.9913L7.24496 31.2613C7.04635 31.4611 6.93512 31.7316 6.93568 32.0134C6.93624 32.2952 7.04855 32.5652 7.24796 32.7643C7.44096 32.9553 7.71396 33.0653 7.99596 33.0653H8.00196C8.28496 33.0643 8.55796 32.9533 8.74696 32.7603L20 21.4933L31.257 32.7633C31.456 32.9613 31.722 33.0713 32.004 33.0713C32.1434 33.0717 32.2816 33.0445 32.4105 32.9913C32.5394 32.9381 32.6565 32.86 32.7551 32.7614C32.8537 32.6628 32.9318 32.5457 32.985 32.4168C33.0382 32.2879 33.0654 32.1497 33.065 32.0103C33.065 31.7273 32.955 31.4603 32.755 31.2633L21.499 19.9923Z" fill="#63533E"/>
</svg>
