<svg width="40" height="40" viewBox="0 0 40 40" fill="none" xmlns="http://www.w3.org/2000/svg">
<path d="M33.5651 32.0095C33.5649 31.5963 33.4037 31.2011 33.1075 30.9086C33.107 30.9081 33.1065 30.9076 33.106 30.9071L22.2058 19.9923L33.1088 9.07866L33.1095 9.07796C33.4014 8.78462 33.5651 8.38756 33.5649 7.97374C33.5646 7.55992 33.4003 7.16308 33.108 6.87013L33.108 6.87013L33.1067 6.86884C32.5137 6.27877 31.4975 6.27675 30.9004 6.87085L30.8993 6.87195L20.0001 17.7847L9.09684 6.86893L9.09685 6.86892L9.09441 6.86651C8.49894 6.27849 7.4841 6.28163 6.89187 6.86939L6.89187 6.86939L6.89124 6.87002C6.74541 7.01527 6.62997 7.18811 6.55165 7.37845C6.47355 7.56827 6.43393 7.77171 6.43508 7.97695M33.5651 32.0095C33.5656 32.2146 33.5256 32.4178 33.4473 32.6075C33.369 32.7973 33.254 32.9698 33.1088 33.115C32.9636 33.2602 32.7911 33.3752 32.6013 33.4535C32.4117 33.5318 32.2085 33.5718 32.0034 33.5713M33.5651 32.0095C33.5651 32.0098 33.5651 32.01 33.5651 32.0103H33.0651L33.5651 32.0089C33.5651 32.0091 33.5651 32.0093 33.5651 32.0095ZM32.0034 33.5713C31.5895 33.5711 31.197 33.4088 30.9044 33.1177L30.9033 33.1166L20.0001 22.2008L9.10432 33.1101C9.10365 33.1108 9.10298 33.1115 9.10231 33.1122C8.81396 33.4054 8.41109 33.5638 8.00385 33.5653L8.00208 33.5653L7.99608 33.5653C7.58775 33.5653 7.18674 33.407 6.89638 33.1197L6.89483 33.1181C6.60171 32.8255 6.43663 32.4286 6.4358 32.0144C6.43498 31.6002 6.59847 31.2026 6.89042 30.9088L6.89129 30.908L6.89129 30.908L17.7934 19.9913L6.89232 9.07762C6.89196 9.07726 6.8916 9.0769 6.89124 9.07654C6.59691 8.7846 6.43552 8.39112 6.43508 7.97695M32.0034 33.5713C32.0031 33.5713 32.0029 33.5713 32.0027 33.5713L32.0041 33.0713V33.5713C32.0038 33.5713 32.0036 33.5713 32.0034 33.5713ZM6.43508 7.97695C6.43508 7.9764 6.43508 7.97584 6.43508 7.97528H6.93508L6.43509 7.97864C6.43509 7.97808 6.43509 7.97752 6.43508 7.97695Z" fill="#63533E" stroke="#63533E"/>
</svg>
