<svg width="207.000000" height="109.144531" viewBox="0 0 207 109.145" fill="none" xmlns="http://www.w3.org/2000/svg" xmlns:xlink="http://www.w3.org/1999/xlink">
	<desc>
			Created with Pixso.
	</desc>
	<defs/>
	<path id="path192 (Stroke)" d="M67.74 15.5C99.67 3.43 124.13 11.25 141.13 21.96L140.68 22.58C123.84 11.97 99.67 4.24 68.05 16.19L67.74 15.5Z" fill="#FFFFFF" fill-opacity="1.000000" fill-rule="evenodd"/>
	<path id="path194 (Stroke)" d="M80.87 11.13C80.82 11.21 80.75 11.26 80.69 11.28L80.37 10.66C80.31 10.68 80.24 10.73 80.2 10.8C80.15 10.88 80.15 10.96 80.16 11.01C80.17 11.09 80.21 11.14 80.22 11.15L80.22 11.16C80.23 11.17 80.24 11.18 80.24 11.18C80.24 11.18 80.24 11.18 80.24 11.18C80.22 11.16 80.18 11.13 80.1 11.08C79.95 11 79.72 10.86 79.41 10.71C78.8 10.39 77.92 9.98 76.87 9.58C74.77 8.78 72.08 8.06 69.68 8.23L69.62 7.55C72.2 7.36 75.03 8.14 77.17 8.95C78.24 9.36 79.15 9.78 79.79 10.11C80.11 10.27 80.36 10.41 80.53 10.52C80.61 10.57 80.69 10.62 80.74 10.66C80.76 10.67 80.8 10.71 80.84 10.75L80.84 10.75C80.85 10.77 80.9 10.83 80.91 10.92C80.92 10.98 80.91 11.05 80.87 11.13ZM80.25 11.18C80.25 11.18 80.25 11.18 80.24 11.18C80.25 11.18 80.25 11.18 80.25 11.18Z" fill="#FFFFFF" fill-opacity="1.000000" fill-rule="evenodd"/>
	<path id="path196 (Stroke)" d="M69.23 6.72C69.45 6.99 69.58 7.23 69.62 7.33L69.2 7.52C69.18 7.48 69.08 7.29 68.88 7.05C68.69 6.82 68.4 6.55 68.01 6.37C67.24 6.01 66.02 5.92 64.22 7.14L63.98 6.72C65.87 5.44 67.26 5.48 68.2 5.92C68.66 6.14 69 6.45 69.23 6.72Z" fill="#FFFFFF" fill-opacity="1.000000" fill-rule="evenodd"/>
	<path id="path198 (Stroke)" d="M68.26 14.89C68.02 15 67.82 15.04 67.75 15.05L67.74 14.96C67.79 14.95 67.98 14.91 68.21 14.8C68.45 14.7 68.73 14.53 68.97 14.27C69.45 13.75 69.78 12.84 69.23 11.31L69.33 11.28C69.89 12.84 69.56 13.77 69.06 14.33C68.8 14.6 68.51 14.78 68.26 14.89Z" fill="#FFFFFF" fill-opacity="1.000000" fill-rule="evenodd"/>
	<path id="path200 (Stroke)" d="M68.14 16.11C67.67 15.64 67.74 15.14 67.76 15.05L68.55 15.12C68.54 15.17 68.5 15.51 68.81 15.82C69.1 16.1 69.78 16.44 71.47 16.4L71.5 16.92C69.63 16.98 68.63 16.6 68.14 16.11Z" fill="#FFFFFF" fill-opacity="1.000000" fill-rule="evenodd"/>
	<path id="path202 (Stroke)" d="M69.2 7.52C69.36 7.52 69.54 7.52 69.62 7.52L69.19 7.52C69.2 7.52 69.21 7.52 69.22 7.52C69.21 7.52 69.19 7.52 69.13 7.52C68.99 7.52 68.77 7.52 68.38 7.52C68.33 7.52 68.27 7.52 68.22 7.52C67.43 7.52 66.13 7.52 63.98 7.52L64.02 7.52C66.16 7.52 67.46 7.52 68.24 7.52C68.3 7.52 68.35 7.52 68.4 7.52C68.78 7.52 69.03 7.52 69.2 7.52ZM69.22 7.52C69.22 7.52 69.22 7.52 69.22 7.52C69.22 7.52 69.22 7.52 69.22 7.52Z" fill="#FFFFFF" fill-opacity="1.000000" fill-rule="evenodd"/>
	<path id="path204 (Stroke)" d="M67.99 14.87C67.92 14.98 67.86 15.04 67.76 15.05L67.74 14.96C67.77 14.95 67.81 14.94 67.87 14.84C67.93 14.74 68 14.58 68.12 14.31C68.13 14.28 68.15 14.24 68.16 14.2C68.4 13.66 68.78 12.76 69.5 11.28L69.62 11.32C68.9 12.79 68.52 13.69 68.28 14.23C68.27 14.26 68.25 14.3 68.24 14.34C68.12 14.6 68.05 14.77 67.99 14.87Z" fill="#FFFFFF" fill-opacity="1.000000" fill-rule="evenodd"/>
	<path id="path206 (Stroke)" d="M67.98 15.46C67.89 15.41 67.71 15.3 67.74 15.12L68.46 15.18C68.47 15.11 68.43 15.07 68.41 15.05C68.42 15.05 68.42 15.06 68.43 15.07C68.5 15.1 68.62 15.16 68.86 15.27C68.89 15.28 68.93 15.3 68.96 15.31C69.44 15.53 70.23 15.88 71.5 16.51L71.09 16.93C69.83 16.31 69.05 15.96 68.57 15.75C68.54 15.73 68.51 15.71 68.48 15.7C68.25 15.6 68.09 15.52 67.98 15.46ZM68.41 15.05C68.41 15.05 68.41 15.05 68.41 15.05C68.41 15.05 68.41 15.05 68.41 15.05Z" fill="#FFFFFF" fill-opacity="1.000000" fill-rule="evenodd"/>
	<path id="path208 (Stroke)" d="M69.45 7.9C69.53 7.92 69.59 7.98 69.62 8.05L69.2 8.22C69.22 8.28 69.27 8.33 69.34 8.34C69.39 8.35 69.43 8.34 69.44 8.34L69.44 8.34C69.44 8.34 69.44 8.34 69.44 8.34C69.44 8.34 69.43 8.34 69.4 8.36C69.36 8.39 69.31 8.43 69.25 8.47C69.2 8.51 69.15 8.55 69.08 8.59C68.8 8.8 68.4 9.07 67.89 9.23C67.39 9.41 66.78 9.48 66.11 9.29C65.43 9.1 64.72 8.65 63.98 7.82L64.32 7.52C65.02 8.3 65.66 8.69 66.23 8.85C66.8 9.01 67.31 8.95 67.75 8.8C68.18 8.66 68.55 8.42 68.82 8.23C68.86 8.19 68.91 8.15 68.96 8.12C69.03 8.07 69.1 8.02 69.15 7.99C69.18 7.96 69.24 7.92 69.29 7.91C69.32 7.9 69.38 7.88 69.45 7.9Z" fill="#FFFFFF" fill-opacity="1.000000" fill-rule="evenodd"/>
	<path id="path210 (Stroke)" d="M68.22 15.01C68.2 15.03 68.19 15.05 68.16 15.05L68.15 14.96C68.14 14.96 68.13 14.96 68.13 14.97C68.13 14.98 68.12 14.98 68.12 14.98C68.12 14.98 68.13 14.98 68.12 14.98C68.12 14.96 68.12 14.94 68.11 14.91C68.09 14.87 68.07 14.83 68.05 14.77C68.03 14.73 68.01 14.69 67.99 14.64C67.89 14.4 67.77 14.07 67.75 13.7C67.72 13.32 67.78 12.9 68.05 12.48C68.32 12.06 68.8 11.65 69.58 11.28L69.62 11.37C68.85 11.73 68.4 12.13 68.14 12.53C67.88 12.93 67.82 13.33 67.85 13.69C67.87 14.05 67.99 14.37 68.08 14.6C68.1 14.65 68.12 14.69 68.14 14.73C68.16 14.79 68.19 14.84 68.2 14.88C68.21 14.91 68.22 14.94 68.22 14.97C68.23 14.98 68.22 15 68.22 15.01Z" fill="#FFFFFF" fill-opacity="1.000000" fill-rule="evenodd"/>
	<path id="path212 (Stroke)" d="M67.85 15.45C67.77 15.4 67.73 15.32 67.74 15.24L68.41 15.3C68.43 15.23 68.39 15.16 68.32 15.11C68.27 15.07 68.21 15.06 68.2 15.06C68.18 15.06 68.17 15.05 68.17 15.05C68.17 15.05 68.17 15.05 68.18 15.06C68.22 15.06 68.26 15.05 68.31 15.05C68.35 15.05 68.4 15.05 68.46 15.05C68.71 15.05 69.08 15.05 69.47 15.12C69.87 15.2 70.3 15.34 70.67 15.62C71.04 15.89 71.34 16.28 71.5 16.83L70.84 16.93C70.7 16.45 70.45 16.14 70.18 15.94C69.91 15.75 69.6 15.64 69.3 15.58C69 15.53 68.7 15.52 68.47 15.53C68.44 15.53 68.4 15.53 68.36 15.53C68.29 15.53 68.22 15.53 68.17 15.53C68.14 15.53 68.07 15.53 68.01 15.52C67.98 15.51 67.91 15.5 67.85 15.45Z" fill="#FFFFFF" fill-opacity="1.000000" fill-rule="evenodd"/>
	<path id="path214 (Stroke)" d="M114.77 5.46C114.77 5.52 114.76 5.59 114.74 5.64L114.09 5.5C114.09 5.5 114.09 5.5 114.09 5.49C114.09 5.48 114.1 5.46 114.1 5.42C114.11 5.36 114.11 5.29 114.11 5.2C114.11 5.02 114.1 4.78 114.05 4.5C113.97 3.95 113.76 3.26 113.34 2.6C112.92 1.96 112.29 1.35 111.35 0.97C110.41 0.58 109.12 0.38 107.36 0.59L107.26 0.08C109.13 -0.13 110.57 0.07 111.67 0.52C112.76 0.97 113.48 1.66 113.95 2.38C114.41 3.1 114.63 3.85 114.72 4.44C114.77 4.74 114.79 5 114.79 5.2C114.79 5.3 114.78 5.39 114.77 5.46Z" fill="#FFFFFF" fill-opacity="1.000000" fill-rule="evenodd"/>
	<path id="path216 (Stroke)" d="M67.56 17C67.63 17.01 67.7 17.02 67.74 17.03L67.64 17.17C67.63 17.17 67.58 17.16 67.51 17.15C67.44 17.14 67.34 17.13 67.23 17.12C66.99 17.1 66.69 17.08 66.33 17.08C65.62 17.08 64.71 17.13 63.82 17.32C62.94 17.5 62.08 17.82 61.45 18.35C60.82 18.88 60.42 19.63 60.46 20.69L60.22 20.69C60.17 19.61 60.59 18.82 61.25 18.26C61.92 17.7 62.83 17.36 63.75 17.17C64.67 16.98 65.6 16.93 66.33 16.93C66.7 16.94 67.02 16.95 67.26 16.97C67.38 16.98 67.48 16.99 67.56 17Z" fill="#FFFFFF" fill-opacity="1.000000" fill-rule="evenodd"/>
	<path id="path218 (Stroke)" d="M67.68 14.87C67.7 14.89 67.73 14.93 67.74 14.97L67.2 15.03C67.21 15.04 67.21 15.05 67.21 15.05C67.21 15.05 67.21 15.04 67.19 15.03C67.18 15.01 67.15 14.98 67.12 14.95C67.04 14.88 66.93 14.78 66.79 14.68C66.5 14.47 66.06 14.21 65.49 13.99C64.36 13.56 62.66 13.27 60.4 13.81L60.21 13.48C62.64 12.91 64.51 13.21 65.77 13.69C66.4 13.93 66.87 14.21 67.2 14.45C67.36 14.57 67.48 14.67 67.57 14.75C67.61 14.8 67.65 14.83 67.68 14.87Z" fill="#FFFFFF" fill-opacity="1.000000" fill-rule="evenodd"/>
	<path id="path220 (Stroke)" d="M69.43 15.1C69.49 15.07 69.54 15.06 69.58 15.05L69.62 15.16C69.61 15.16 69.58 15.17 69.52 15.2C69.46 15.22 69.38 15.25 69.3 15.3C69.12 15.38 68.89 15.5 68.64 15.67C68.13 15.99 67.52 16.46 67.02 17.08C66.02 18.33 65.44 20.15 66.95 22.53L66.79 22.58C65.26 20.16 65.85 18.3 66.87 17.03C67.39 16.4 68.01 15.91 68.52 15.58C68.78 15.42 69.02 15.29 69.2 15.2C69.29 15.16 69.37 15.12 69.43 15.1Z" fill="#FFFFFF" fill-opacity="1.000000" fill-rule="evenodd"/>
	<path id="path222 (Stroke)" d="M82.15 17.05C82.15 17.05 82.15 17.05 82.15 17.05L82.78 16.93C82.79 16.99 82.79 17.06 82.79 17.13C82.79 17.21 82.79 17.3 82.78 17.41C82.76 17.62 82.72 17.89 82.64 18.21C82.5 18.83 82.22 19.62 81.71 20.36C81.21 21.09 80.47 21.78 79.41 22.19C78.35 22.6 76.99 22.72 75.27 22.36L75.42 21.82C77.03 22.16 78.24 22.04 79.15 21.69C80.07 21.33 80.71 20.74 81.17 20.07C81.62 19.41 81.88 18.68 82.02 18.1C82.09 17.81 82.13 17.55 82.14 17.36C82.15 17.26 82.16 17.19 82.16 17.13C82.16 17.08 82.15 17.06 82.15 17.05Z" fill="#FFFFFF" fill-opacity="1.000000" fill-rule="evenodd"/>
	<path id="path224 (Stroke)" d="M114.5 5.03C114.69 5.2 114.85 5.4 114.76 5.64L114.13 5.49C114.13 5.5 114.13 5.51 114.13 5.51C114.12 5.5 114.09 5.46 114.01 5.38C113.84 5.23 113.54 5.01 113.02 4.65C112.96 4.6 112.89 4.55 112.81 4.5C111.76 3.75 110.03 2.52 107.26 0.37L107.72 0C110.48 2.13 112.21 3.36 113.25 4.1C113.32 4.16 113.4 4.21 113.46 4.26C113.97 4.62 114.3 4.86 114.5 5.03ZM114.13 5.52C114.13 5.52 114.13 5.52 114.13 5.51C114.13 5.52 114.13 5.52 114.13 5.52Z" fill="#FFFFFF" fill-opacity="1.000000" fill-rule="evenodd"/>
	<path id="path226 (Stroke)" d="M67.17 17.09C67.39 16.95 67.56 16.89 67.74 16.96L67.64 17.17C67.59 17.15 67.52 17.14 67.3 17.28C67.09 17.42 66.78 17.66 66.27 18.06C66.2 18.12 66.13 18.17 66.06 18.23C65.03 19.05 63.31 20.42 60.37 22.58L60.21 22.4C63.16 20.25 64.87 18.88 65.9 18.06C65.97 18 66.04 17.94 66.11 17.89C66.61 17.49 66.94 17.24 67.17 17.09Z" fill="#FFFFFF" fill-opacity="1.000000" fill-rule="evenodd"/>
	<path id="path228 (Stroke)" d="M127.62 18.82C127.74 18.82 127.87 18.87 127.96 18.99L127.58 19.37C127.6 19.39 127.61 19.39 127.61 19.39C127.61 19.39 127.61 19.39 127.59 19.39C127.54 19.39 127.45 19.39 127.3 19.43C127 19.49 126.53 19.64 125.75 19.89C125.64 19.92 125.53 19.96 125.42 19.99C123.83 20.5 121.18 21.33 116.79 22.57L116.67 22.01C121.06 20.78 123.69 19.94 125.29 19.43C125.4 19.4 125.51 19.36 125.61 19.33C126.38 19.08 126.89 18.93 127.21 18.86C127.37 18.82 127.51 18.8 127.62 18.82Z" fill="#FFFFFF" fill-opacity="1.000000" fill-rule="evenodd"/>
	<path id="path230 (Stroke)" d="M67.55 16.26C67.63 16.35 67.72 16.47 67.74 16.66L67.19 16.81C67.2 16.89 67.24 16.93 67.24 16.93C67.24 16.93 67.24 16.93 67.24 16.93C67.22 16.92 67.18 16.89 67.09 16.83C66.91 16.74 66.6 16.61 66.08 16.41C66.01 16.38 65.94 16.35 65.87 16.32C64.81 15.9 63.07 15.21 60.21 13.94L60.38 13.17C63.22 14.43 64.96 15.12 66.01 15.54C66.09 15.57 66.16 15.6 66.23 15.63C66.74 15.83 67.07 15.96 67.28 16.08C67.38 16.13 67.48 16.19 67.55 16.26Z" fill="#FFFFFF" fill-opacity="1.000000" fill-rule="evenodd"/>
	<path id="path232 (Stroke)" d="M69.32 15.16C69.39 15.1 69.46 15.06 69.57 15.05L69.62 15.16C69.6 15.17 69.56 15.17 69.51 15.21C69.46 15.25 69.41 15.32 69.35 15.42C69.23 15.62 69.08 15.96 68.86 16.49C68.83 16.56 68.79 16.63 68.76 16.71C68.29 17.8 67.52 19.61 66.08 22.58L65.86 22.55C67.3 19.58 68.07 17.78 68.54 16.69C68.57 16.61 68.61 16.53 68.64 16.46C68.86 15.93 69.01 15.6 69.14 15.39C69.2 15.28 69.26 15.21 69.32 15.16Z" fill="#FFFFFF" fill-opacity="1.000000" fill-rule="evenodd"/>
	<path id="path234 (Stroke)" d="M82.17 17.02C82.17 17.03 82.16 17.04 82.17 17.05L82.78 16.93C82.84 17.2 82.67 17.41 82.48 17.58C82.28 17.76 81.94 18 81.44 18.35C81.37 18.4 81.3 18.45 81.22 18.5C80.18 19.23 78.45 20.45 75.67 22.58L75.27 22.13C78.06 19.99 79.8 18.77 80.84 18.03C80.92 17.98 80.99 17.93 81.06 17.89C81.57 17.52 81.87 17.31 82.04 17.16C82.13 17.08 82.16 17.04 82.17 17.02ZM82.17 17.02C82.17 17.02 82.17 17.02 82.17 17.02C82.17 17.02 82.17 17.02 82.17 17.02Z" fill="#FFFFFF" fill-opacity="1.000000" fill-rule="evenodd"/>
	<path id="path236 (Stroke)" d="M111.63 1.5C112.61 2.07 113.38 3.05 114.79 5.42L114.18 5.64C112.76 3.25 112.05 2.39 111.23 1.91C110.81 1.67 110.36 1.52 109.72 1.32C109.67 1.3 109.61 1.28 109.56 1.26C108.95 1.07 108.21 0.83 107.26 0.46L107.57 0C108.49 0.37 109.21 0.59 109.81 0.78C109.87 0.8 109.93 0.82 109.98 0.84C110.61 1.04 111.14 1.21 111.63 1.5Z" fill="#FFFFFF" fill-opacity="1.000000" fill-rule="evenodd"/>
	<path id="path238 (Stroke)" d="M62.54 18.37C63.32 17.88 64.57 17.53 67.67 16.93L67.74 17.08C64.63 17.68 63.45 18.02 62.72 18.48C62.35 18.71 62.09 18.98 61.77 19.33C61.74 19.37 61.71 19.4 61.68 19.43C61.37 19.76 60.99 20.17 60.41 20.69L60.21 20.61C60.79 20.1 61.16 19.69 61.47 19.35C61.5 19.32 61.53 19.29 61.55 19.26C61.88 18.91 62.15 18.62 62.54 18.37Z" fill="#FFFFFF" fill-opacity="1.000000" fill-rule="evenodd"/>
	<path id="path240 (Stroke)" d="M121.45 19.33C122.77 18.82 124.36 18.72 127.96 18.89L127.94 19.47C124.33 19.3 122.83 19.42 121.61 19.89C121 20.12 120.46 20.45 119.74 20.9C119.68 20.94 119.61 20.98 119.55 21.01C118.87 21.44 118.03 21.96 116.88 22.57L116.67 22.05C117.8 21.44 118.62 20.92 119.31 20.5C119.37 20.46 119.43 20.42 119.5 20.39C120.21 19.94 120.79 19.59 121.45 19.33Z" fill="#FFFFFF" fill-opacity="1.000000" fill-rule="evenodd"/>
	<path id="path242 (Stroke)" d="M79.11 20.75C79.93 20.29 80.67 19.42 82.24 16.93L82.79 17.21C81.25 19.68 80.43 20.68 79.46 21.23C78.97 21.51 78.46 21.66 77.85 21.83C77.8 21.85 77.74 21.87 77.69 21.88C77.11 22.05 76.41 22.24 75.51 22.58L75.27 22.05C76.19 21.71 76.91 21.5 77.49 21.33C77.55 21.32 77.6 21.31 77.66 21.29C78.27 21.12 78.71 20.98 79.11 20.75Z" fill="#FFFFFF" fill-opacity="1.000000" fill-rule="evenodd"/>
	<path id="path244 (Stroke)" d="M111.86 3.78C112.82 4.07 113.88 4.38 114.79 5.32L114.26 5.64C113.49 4.83 112.65 4.58 111.73 4.31C111.41 4.22 111.09 4.12 110.76 4C110.1 3.76 109.45 3.44 108.85 2.84C108.25 2.25 107.71 1.4 107.26 0.14L107.89 0C108.33 1.21 108.84 1.98 109.36 2.51C109.88 3.03 110.44 3.31 111.03 3.52C111.29 3.62 111.57 3.7 111.86 3.78Z" fill="#FFFFFF" fill-opacity="1.000000" fill-rule="evenodd"/>
	<path id="path246 (Stroke)" d="M65.47 19.23C65.93 18.42 66.41 17.57 67.62 16.93L67.74 17.13C66.61 17.74 66.17 18.51 65.71 19.31C65.56 19.57 65.41 19.83 65.24 20.09C64.88 20.62 64.42 21.14 63.65 21.57C62.88 22 61.81 22.35 60.25 22.58L60.21 22.35C61.76 22.13 62.79 21.79 63.52 21.38C64.25 20.97 64.68 20.48 65.03 19.97C65.19 19.73 65.33 19.48 65.47 19.23Z" fill="#FFFFFF" fill-opacity="1.000000" fill-rule="evenodd"/>
	<path id="path248 (Stroke)" d="M124.07 20.41C125.14 19.75 126.26 19.05 127.89 18.81L127.96 19.36C126.43 19.58 125.43 20.21 124.37 20.86C124.03 21.08 123.68 21.29 123.31 21.5C121.79 22.34 119.97 22.94 116.67 22.32L116.75 21.78C119.95 22.37 121.66 21.8 123.08 21.01C123.41 20.82 123.74 20.62 124.07 20.41Z" fill="#FFFFFF" fill-opacity="1.000000" fill-rule="evenodd"/>
	<path id="path250 (Stroke)" d="M79.84 18.19C80.73 17.96 81.53 17.75 82.33 16.93L82.79 17.32C81.86 18.28 80.84 18.54 79.91 18.78C79.64 18.85 79.37 18.92 79.11 19C78.55 19.19 78 19.45 77.46 19.98C76.92 20.5 76.38 21.3 75.85 22.58L75.27 22.37C75.81 21.05 76.39 20.17 77.01 19.57C77.63 18.97 78.27 18.66 78.9 18.45C79.23 18.34 79.54 18.26 79.84 18.19Z" fill="#FFFFFF" fill-opacity="1.000000" fill-rule="evenodd"/>
	<path id="path252 (Stroke)" d="M114.69 5.25C114.76 5.32 114.81 5.42 114.77 5.54L114.16 5.39C114.12 5.48 114.17 5.56 114.22 5.6C114.24 5.62 114.26 5.64 114.27 5.64C114.25 5.63 114.2 5.62 114.1 5.6C113.97 5.58 113.79 5.56 113.58 5.53C113.48 5.52 113.36 5.51 113.24 5.49C112.51 5.39 111.51 5.25 110.55 4.92C109.58 4.6 108.62 4.11 107.98 3.31C107.35 2.51 107.07 1.43 107.4 0L108.03 0.09C107.72 1.42 107.99 2.35 108.52 3.02C109.05 3.69 109.89 4.14 110.78 4.43C111.68 4.73 112.62 4.87 113.34 4.97C113.45 4.98 113.56 5 113.66 5.01C113.88 5.04 114.08 5.06 114.22 5.08C114.33 5.1 114.44 5.12 114.53 5.16C114.57 5.17 114.64 5.2 114.69 5.25ZM114.27 5.64C114.27 5.64 114.27 5.64 114.27 5.64L114.27 5.64Z" fill="#FFFFFF" fill-opacity="1.000000" fill-rule="evenodd"/>
	<path id="path254 (Stroke)" d="M67.58 16.96C67.62 16.93 67.68 16.92 67.74 16.94L67.64 17.14C67.67 17.16 67.7 17.14 67.72 17.14C67.72 17.14 67.72 17.13 67.72 17.13C67.72 17.13 67.72 17.14 67.71 17.15C67.69 17.18 67.66 17.24 67.63 17.32C67.58 17.44 67.53 17.59 67.47 17.78C67.44 17.87 67.41 17.96 67.37 18.06C67.16 18.68 66.86 19.51 66.36 20.29C65.85 21.07 65.15 21.8 64.15 22.22C63.15 22.64 61.87 22.74 60.21 22.26L60.29 22.06C61.89 22.52 63.11 22.42 64.05 22.03C64.98 21.63 65.65 20.94 66.14 20.18C66.63 19.42 66.93 18.62 67.14 18C67.17 17.91 67.2 17.81 67.23 17.72C67.29 17.54 67.35 17.38 67.39 17.26C67.43 17.17 67.46 17.09 67.5 17.04C67.52 17.01 67.54 16.98 67.58 16.96Z" fill="#FFFFFF" fill-opacity="1.000000" fill-rule="evenodd"/>
	<path id="path256 (Stroke)" d="M127.51 19.48C127.57 19.5 127.63 19.54 127.68 19.58L127.96 19.84L127.44 19.93C127.4 19.94 127.35 19.97 127.28 20.01C127.16 20.08 126.99 20.17 126.8 20.28C126.71 20.33 126.61 20.39 126.5 20.46C125.84 20.83 124.93 21.33 123.9 21.75C121.85 22.58 119.21 23.13 117.05 21.65L116.67 21.39L117.53 21.24C119.67 19.33 122.04 18.81 123.95 18.81C124.96 18.82 125.84 18.96 126.49 19.13C126.81 19.21 127.07 19.3 127.27 19.37C127.37 19.41 127.45 19.45 127.51 19.48ZM117.8 21.6C119.63 22.59 121.81 22.14 123.67 21.39C124.65 20.99 125.51 20.52 126.16 20.15L117.8 21.6ZM126.75 19.64L118.41 21.08C120.3 19.62 122.31 19.21 123.94 19.21C124.9 19.22 125.73 19.36 126.33 19.51C126.49 19.56 126.63 19.6 126.75 19.64Z" fill="#FFFFFF" fill-opacity="1.000000" fill-rule="evenodd"/>
	<path id="path258 (Stroke)" d="M67.55 16.12C67.59 16.14 67.71 16.21 67.74 16.41L67.21 16.54C67.24 16.72 67.34 16.78 67.36 16.78C67.37 16.79 67.38 16.79 67.38 16.79C67.38 16.79 67.38 16.79 67.38 16.79C67.35 16.79 67.3 16.79 67.22 16.79C67.12 16.8 66.98 16.81 66.81 16.83C66.73 16.84 66.64 16.85 66.55 16.86C65.98 16.91 65.21 16.97 64.39 16.89C62.77 16.73 60.87 15.99 60.21 13.4L60.72 13.17C61.27 15.32 62.85 16.01 64.43 16.17C65.21 16.25 65.95 16.2 66.51 16.14C66.6 16.14 66.68 16.12 66.76 16.12C66.93 16.1 67.08 16.08 67.2 16.08C67.28 16.07 67.36 16.07 67.43 16.08C67.46 16.08 67.51 16.09 67.55 16.12Z" fill="#FFFFFF" fill-opacity="1.000000" fill-rule="evenodd"/>
	<path id="path260 (Stroke)" d="M68.82 15.11C68.83 15.09 68.85 15.06 68.92 15.05L68.96 15.16C68.99 15.16 69 15.14 69 15.14C69 15.14 69 15.14 69 15.14C69 15.15 69 15.16 69 15.18C69 15.23 69.01 15.29 69.03 15.37C69.05 15.49 69.1 15.64 69.15 15.81C69.17 15.89 69.2 15.98 69.22 16.07C69.39 16.66 69.59 17.45 69.62 18.28C69.67 19.95 69.02 21.83 65.93 22.58L65.86 22.47C68.83 21.75 69.48 19.94 69.43 18.29C69.4 17.46 69.2 16.68 69.04 16.1C69.01 16 68.99 15.91 68.96 15.83C68.91 15.66 68.87 15.51 68.84 15.39C68.82 15.3 68.81 15.23 68.81 15.18C68.81 15.16 68.81 15.13 68.82 15.11Z" fill="#FFFFFF" fill-opacity="1.000000" fill-rule="evenodd"/>
	<path id="path262 (Stroke)" d="M82.26 16.97C82.21 17.01 82.16 17.1 82.18 17.21L82.79 17.08C82.82 17.22 82.76 17.33 82.68 17.4C82.62 17.45 82.56 17.48 82.52 17.49C82.43 17.51 82.33 17.53 82.23 17.54C82.08 17.56 81.9 17.57 81.68 17.58C81.59 17.59 81.48 17.6 81.38 17.6C80.69 17.66 79.79 17.74 78.92 18C78.05 18.26 77.23 18.67 76.66 19.37C76.1 20.06 75.76 21.05 75.92 22.51L75.31 22.58C75.13 20.99 75.5 19.84 76.17 19.01C76.85 18.18 77.8 17.71 78.74 17.44C79.68 17.16 80.64 17.07 81.33 17.02C81.45 17.01 81.56 17 81.66 17C81.86 16.98 82.03 16.97 82.15 16.96C82.25 16.95 82.3 16.94 82.32 16.93C82.31 16.94 82.29 16.95 82.26 16.97ZM82.32 16.93C82.32 16.93 82.32 16.93 82.32 16.93L82.32 16.93Z" fill="#FFFFFF" fill-opacity="1.000000" fill-rule="evenodd"/>
	<path id="path264 (Stroke)" d="M92.1 0.95C93.52 1.94 94.03 3.36 94.09 3.65L93.58 3.76C93.54 3.57 93.09 2.28 91.8 1.39C90.54 0.51 88.39 -0.02 84.87 1.39L84.68 0.91C88.32 -0.56 90.65 -0.05 92.1 0.95Z" fill="#FFFFFF" fill-opacity="1.000000" fill-rule="evenodd"/>
	<path id="path266 (Stroke)" d="M93.55 2.97C93.8 3.09 94.03 3.26 94.09 3.61L93.57 3.75C93.57 3.75 93.57 3.76 93.58 3.76C93.58 3.76 93.58 3.76 93.57 3.75C93.54 3.72 93.49 3.68 93.37 3.62C93.14 3.51 92.75 3.38 92.09 3.18C92.01 3.15 91.92 3.12 91.82 3.1C90.5 2.68 88.29 2 84.68 0.66L84.82 0C88.42 1.33 90.62 2.01 91.94 2.42C92.04 2.45 92.13 2.48 92.21 2.51C92.85 2.71 93.28 2.84 93.55 2.97Z" fill="#FFFFFF" fill-opacity="1.000000" fill-rule="evenodd"/>
	<path id="path268 (Stroke)" d="M89.48 3.89C90.01 3.42 90.78 2.76 91.95 1.87L92.2 2.71C91.05 3.6 90.29 4.24 89.76 4.7C89.6 4.85 89.46 4.98 89.33 5.09C89.05 5.33 88.85 5.51 88.69 5.64L88.44 4.79C88.58 4.69 88.75 4.53 89 4.31C89.14 4.19 89.29 4.05 89.48 3.89Z" fill="#FFFFFF" fill-opacity="1.000000" fill-rule="evenodd"/>
	<path id="path270 (Stroke)" d="M87.58 2.85C88.11 2.62 88.87 2.3 90.03 1.87L90.32 2.33C89.17 2.76 88.43 3.07 87.91 3.3C87.75 3.37 87.61 3.43 87.48 3.48C87.21 3.6 87.01 3.7 86.84 3.76L86.56 3.29C86.7 3.24 86.86 3.17 87.1 3.06C87.23 3 87.39 2.93 87.58 2.85Z" fill="#FFFFFF" fill-opacity="1.000000" fill-rule="evenodd"/>
	<path id="path272 (Stroke)" d="M87.04 2.78C87.3 2.56 87.67 2.26 88.24 1.87L88.44 2.43C87.88 2.82 87.52 3.1 87.28 3.32C87.19 3.39 87.12 3.44 87.06 3.5C87.03 3.53 87 3.55 86.97 3.58C86.89 3.65 86.82 3.71 86.75 3.76L86.56 3.19C86.6 3.16 86.65 3.12 86.73 3.05C86.76 3.03 86.79 3 86.82 2.98C86.88 2.92 86.95 2.85 87.04 2.78Z" fill="#FFFFFF" fill-opacity="1.000000" fill-rule="evenodd"/>
	<path id="path274 (Stroke)" d="M93.91 3.36C94.01 3.42 94.07 3.53 94.09 3.66L93.58 3.81C93.59 3.9 93.64 3.99 93.71 4.03C93.73 4.05 93.76 4.05 93.77 4.05C93.78 4.06 93.79 4.05 93.79 4.05C93.79 4.05 93.79 4.05 93.79 4.05C93.79 4.05 93.79 4.06 93.77 4.07C93.75 4.08 93.72 4.09 93.68 4.11C93.6 4.16 93.5 4.23 93.38 4.32C93.28 4.39 93.18 4.46 93.06 4.54C92.51 4.91 91.74 5.37 90.84 5.56C89.93 5.75 88.89 5.65 87.82 4.89C86.75 4.14 85.68 2.74 84.68 0.37L85.12 0C86.08 2.27 87.09 3.56 88.05 4.24C89.01 4.91 89.94 5 90.76 4.83C91.59 4.66 92.31 4.23 92.84 3.88C92.94 3.81 93.04 3.74 93.13 3.67C93.27 3.58 93.39 3.5 93.48 3.44C93.56 3.39 93.64 3.34 93.73 3.33C93.77 3.32 93.84 3.31 93.91 3.36Z" fill="#FFFFFF" fill-opacity="1.000000" fill-rule="evenodd"/>
	<path id="path276 (Stroke)" d="M107.24 9.21C107.2 9.3 107.11 9.37 107.02 9.41L106.68 8.8C106.59 8.83 106.51 8.9 106.47 8.99C106.43 9.08 106.45 9.15 106.46 9.18C106.48 9.24 106.51 9.28 106.52 9.28L106.52 9.28C106.52 9.29 106.53 9.29 106.53 9.29C106.53 9.29 106.52 9.29 106.51 9.28C106.48 9.25 106.41 9.21 106.31 9.14C106.12 9.01 105.81 8.83 105.43 8.6C104.65 8.16 103.54 7.57 102.27 6.97C99.71 5.76 96.55 4.56 94.09 4.43L94.14 3.76C96.8 3.91 100.11 5.18 102.67 6.39C103.97 7 105.1 7.6 105.89 8.06C106.29 8.28 106.6 8.48 106.82 8.62C106.92 8.69 107.01 8.75 107.07 8.8C107.1 8.82 107.14 8.85 107.17 8.89L107.17 8.89C107.18 8.9 107.22 8.94 107.25 9.01C107.26 9.05 107.27 9.12 107.24 9.21Z" fill="#FFFFFF" fill-opacity="1.000000" fill-rule="evenodd"/>
	<path id="path278 (Stroke)" d="M107.24 9.21C107.2 9.3 107.11 9.37 107.02 9.41L106.68 8.8C106.59 8.83 106.51 8.9 106.47 8.99C106.43 9.08 106.45 9.15 106.46 9.18C106.48 9.24 106.51 9.28 106.52 9.28L106.52 9.28C106.52 9.29 106.53 9.29 106.53 9.29C106.53 9.29 106.52 9.29 106.51 9.28C106.48 9.25 106.41 9.21 106.31 9.14C106.12 9.01 105.81 8.83 105.43 8.6C104.65 8.16 103.54 7.57 102.27 6.97C99.71 5.76 96.55 4.56 94.09 4.43L94.14 3.76C96.8 3.91 100.11 5.18 102.67 6.39C103.97 7 105.1 7.6 105.89 8.06C106.29 8.28 106.6 8.48 106.82 8.62C106.92 8.69 107.01 8.75 107.07 8.8C107.1 8.82 107.14 8.85 107.17 8.89L107.17 8.89C107.18 8.9 107.22 8.94 107.25 9.01C107.26 9.05 107.27 9.12 107.24 9.21Z" fill="#FFFFFF" fill-opacity="1.000000" fill-rule="evenodd"/>
	<path id="path281 (Stroke)" d="M122.3 12.89C122.28 13.01 122.2 13.12 122.11 13.17L121.82 12.45C121.73 12.5 121.66 12.59 121.64 12.71C121.62 12.81 121.63 12.89 121.64 12.91C121.65 12.94 121.66 12.96 121.66 12.97C121.67 12.98 121.67 12.99 121.67 12.99C121.67 12.99 121.67 12.99 121.67 12.98C121.67 12.98 121.66 12.97 121.66 12.96C121.64 12.95 121.63 12.93 121.61 12.91C121.53 12.81 121.39 12.67 121.21 12.48C120.84 12.1 120.3 11.57 119.63 10.93C119.2 10.51 118.71 10.03 118.18 9.53C117.13 8.52 115.95 7.39 114.79 6.24L115.23 5.64C116.4 6.78 117.57 7.91 118.62 8.92C119.14 9.42 119.64 9.9 120.08 10.33C120.74 10.96 121.29 11.5 121.66 11.89C121.85 12.08 122 12.24 122.1 12.35C122.15 12.41 122.19 12.47 122.23 12.52C122.24 12.55 122.28 12.6 122.3 12.67C122.31 12.71 122.32 12.79 122.3 12.89Z" fill="#FFFFFF" fill-opacity="1.000000" fill-rule="evenodd"/>
	<path id="path283 (Stroke)" d="M102.32 16.92C101.95 17 101.67 16.75 101.61 16.68L101.74 16.39C101.74 16.39 101.74 16.4 101.74 16.4C101.75 16.4 101.75 16.41 101.75 16.41C101.76 16.42 101.78 16.43 101.79 16.44C101.82 16.46 101.86 16.49 101.91 16.51C102.01 16.57 102.14 16.6 102.29 16.57C102.58 16.51 102.97 16.17 103.31 15.05L103.5 15.21C103.13 16.41 102.7 16.83 102.32 16.92Z" fill="#FFFFFF" fill-opacity="1.000000" fill-rule="evenodd"/>
	<path id="path285 (Stroke)" d="M101.96 17.12C102.09 17.03 102.24 16.96 102.31 16.93L102.73 17.17C102.73 17.16 102.73 17.16 102.73 17.17C102.73 17.17 102.7 17.18 102.67 17.19C102.63 17.21 102.58 17.25 102.53 17.28C102.43 17.35 102.33 17.45 102.3 17.57C102.23 17.8 102.39 18.16 103.5 18.59L103.05 18.82C101.82 18.33 101.53 17.89 101.63 17.53C101.68 17.36 101.82 17.22 101.96 17.12Z" fill="#FFFFFF" fill-opacity="1.000000" fill-rule="evenodd"/>
	<path id="path287 (Stroke)" d="M108.89 20.7C109.01 20.69 109.1 20.7 109.14 20.7L109.12 20.78C109.09 20.77 109.01 20.77 108.89 20.78C108.78 20.78 108.62 20.8 108.45 20.83C108.1 20.89 107.66 21.02 107.23 21.26C106.37 21.73 105.52 22.66 105.48 24.46L105.38 24.46C105.42 22.64 106.28 21.69 107.17 21.2C107.62 20.95 108.07 20.82 108.43 20.76C108.61 20.73 108.76 20.71 108.89 20.7Z" fill="#FFFFFF" fill-opacity="1.000000" fill-rule="evenodd"/>
	<path id="path289 (Stroke)" d="M101.82 16.89C101.76 16.92 101.69 16.97 101.61 16.88L101.74 16.57C101.72 16.55 101.71 16.56 101.71 16.56C101.71 16.56 101.72 16.55 101.74 16.54C101.78 16.51 101.85 16.44 101.98 16.33C101.99 16.31 102.01 16.3 102.03 16.28C102.28 16.04 102.69 15.65 103.4 15.05L103.5 15.39C102.79 15.98 102.38 16.37 102.13 16.61C102.11 16.62 102.1 16.64 102.08 16.66C101.96 16.77 101.88 16.85 101.82 16.89Z" fill="#FFFFFF" fill-opacity="1.000000" fill-rule="evenodd"/>
	<path id="path291 (Stroke)" d="M101.62 17.16C101.61 17.11 101.59 17 101.83 16.93L102.37 17.17C102.46 17.15 102.48 17.12 102.48 17.11C102.48 17.11 102.48 17.12 102.48 17.12C102.5 17.16 102.54 17.23 102.62 17.35C102.63 17.37 102.65 17.38 102.66 17.4C102.83 17.65 103.11 18.06 103.5 18.75L102.65 18.82C102.26 18.13 101.99 17.72 101.82 17.48C101.8 17.46 101.79 17.44 101.78 17.42C101.7 17.31 101.65 17.22 101.62 17.16ZM102.48 17.1C102.48 17.1 102.48 17.1 102.48 17.11C102.48 17.1 102.48 17.1 102.48 17.1Z" fill="#FFFFFF" fill-opacity="1.000000" fill-rule="evenodd"/>
	<path id="path293 (Stroke)" d="M108.83 20.83C108.95 20.73 109.04 20.69 109.14 20.7L109.12 20.78C109.07 20.77 109.02 20.78 108.91 20.88C108.79 20.98 108.64 21.14 108.39 21.41C108.36 21.45 108.32 21.49 108.29 21.53C107.78 22.08 106.94 22.99 105.46 24.46L105.38 24.41C106.85 22.94 107.69 22.03 108.2 21.48C108.24 21.44 108.27 21.4 108.31 21.37C108.55 21.1 108.71 20.93 108.83 20.83Z" fill="#FFFFFF" fill-opacity="1.000000" fill-rule="evenodd"/>
	<path id="path295 (Stroke)" d="M109.14 20.7L109.14 20.7L109.14 20.7L109.14 20.7L109.14 20.7L109.14 20.7L109.14 20.7L109.14 20.7L109.14 20.7Z" fill="#FFFFFF" fill-opacity="1.000000" fill-rule="evenodd"/>
	<path id="path297 (Stroke)" d="M107.26 22.58L107.26 22.58L107.26 22.58L107.26 22.58L107.26 22.58L107.26 22.58L107.26 22.58L107.26 22.58L107.26 22.58Z" fill="#FFFFFF" fill-opacity="1.000000" fill-rule="evenodd"/>
	<path id="path299 (Stroke)" d="M107.26 22.58L107.26 22.58L107.26 22.58L107.26 22.58L107.26 22.58L107.26 22.58L107.26 22.58L107.26 22.58L107.26 22.58L107.26 22.58L107.26 22.58Z" fill="#FFFFFF" fill-opacity="1.000000" fill-rule="evenodd"/>
	<path id="path301 (Stroke)" d="M101.73 16.92C101.69 16.94 101.65 16.93 101.62 16.89L101.75 16.62C101.73 16.59 101.69 16.58 101.66 16.6C101.63 16.61 101.62 16.63 101.62 16.64L101.62 16.64C101.61 16.64 101.61 16.64 101.61 16.64C101.61 16.64 101.62 16.64 101.62 16.62C101.63 16.6 101.64 16.57 101.65 16.52C101.66 16.49 101.66 16.45 101.68 16.41C101.73 16.22 101.81 15.96 101.94 15.71C102.07 15.46 102.25 15.24 102.51 15.12C102.77 15.01 103.09 15.02 103.5 15.21L103.43 15.54C103.06 15.36 102.78 15.36 102.57 15.46C102.36 15.55 102.21 15.73 102.1 15.93C102 16.14 101.93 16.37 101.88 16.54C101.87 16.57 101.86 16.61 101.85 16.64C101.84 16.69 101.83 16.73 101.82 16.76C101.81 16.79 101.8 16.83 101.78 16.86C101.78 16.87 101.76 16.91 101.73 16.92Z" fill="#FFFFFF" fill-opacity="1.000000" fill-rule="evenodd"/>
	<path id="path303 (Stroke)" d="M101.61 17.07C101.61 17.01 101.66 16.96 101.74 16.93L102.14 17.17C102.21 17.14 102.26 17.1 102.25 17.05C102.24 17.01 102.21 16.98 102.2 16.98C102.19 16.97 102.18 16.97 102.18 16.97C102.18 16.97 102.18 16.97 102.19 16.97C102.22 16.98 102.25 16.99 102.28 17.01C102.32 17.02 102.35 17.03 102.4 17.05C102.59 17.12 102.86 17.23 103.09 17.38C103.31 17.53 103.49 17.73 103.5 17.97C103.5 18.22 103.34 18.5 102.92 18.82L102.38 18.66C102.75 18.37 102.86 18.15 102.86 17.98C102.85 17.8 102.73 17.66 102.57 17.55C102.4 17.44 102.19 17.35 102.01 17.29C101.99 17.28 101.95 17.27 101.92 17.26C101.87 17.24 101.82 17.22 101.79 17.21C101.76 17.2 101.72 17.18 101.68 17.15C101.66 17.14 101.62 17.11 101.61 17.07Z" fill="#FFFFFF" fill-opacity="1.000000" fill-rule="evenodd"/>
	<path id="path305 (Stroke)" d="M108.99 20.71C109.01 20.7 109.04 20.69 109.06 20.7L109.04 20.78C109.05 20.78 109.06 20.78 109.07 20.77C109.07 20.77 109.07 20.77 109.07 20.77C109.07 20.77 109.07 20.77 109.07 20.78C109.06 20.79 109.06 20.82 109.07 20.86C109.07 20.91 109.08 20.96 109.09 21.03C109.09 21.09 109.1 21.15 109.11 21.21C109.15 21.51 109.17 21.93 109.05 22.36C108.92 22.8 108.64 23.25 108.08 23.63C107.51 24.01 106.66 24.32 105.39 24.46L105.38 24.38C106.63 24.24 107.46 23.94 108.01 23.57C108.55 23.21 108.82 22.76 108.94 22.34C109.06 21.92 109.04 21.52 109 21.22C109 21.16 108.99 21.1 108.98 21.05C108.97 20.98 108.96 20.91 108.96 20.86C108.96 20.82 108.96 20.78 108.96 20.76C108.97 20.75 108.98 20.73 108.99 20.71Z" fill="#FFFFFF" fill-opacity="1.000000" fill-rule="evenodd"/>
	<path id="path307 (Stroke)" d="M101.52 16.65C101.55 16.68 101.59 16.72 101.61 16.76L101.01 16.93C101.01 16.93 101.02 16.93 101.02 16.93C101.02 16.93 101.01 16.92 100.98 16.9C100.96 16.87 100.92 16.83 100.87 16.79C100.76 16.7 100.62 16.58 100.43 16.46C100.06 16.21 99.55 15.93 98.95 15.74C98.35 15.54 97.67 15.44 96.94 15.53C96.21 15.62 95.4 15.91 94.56 16.54L94.09 16.24C95 15.55 95.93 15.2 96.82 15.09C97.71 14.98 98.53 15.11 99.22 15.33C99.91 15.55 100.48 15.87 100.88 16.14C101.09 16.28 101.25 16.41 101.37 16.51C101.43 16.56 101.48 16.61 101.52 16.65Z" fill="#FFFFFF" fill-opacity="1.000000" fill-rule="evenodd"/>
	<path id="path309 (Stroke)" d="M101.49 16.8C101.48 16.83 101.46 16.89 101.43 16.93L100.98 16.66C100.97 16.67 100.97 16.68 100.97 16.68C100.97 16.68 100.97 16.67 100.98 16.65C100.98 16.62 100.99 16.58 101.01 16.53C101.03 16.43 101.05 16.28 101.06 16.11C101.09 15.75 101.07 15.28 100.92 14.76C100.63 13.73 99.84 12.52 97.85 11.74L98.06 11.28C100.22 12.13 101.12 13.47 101.45 14.64C101.61 15.21 101.63 15.74 101.6 16.14C101.59 16.33 101.56 16.5 101.54 16.63C101.52 16.69 101.51 16.75 101.49 16.8Z" fill="#FFFFFF" fill-opacity="1.000000" fill-rule="evenodd"/>
	<path id="path311 (Stroke)" d="M101.53 17C101.55 17.01 101.59 17.03 101.61 17.05L101.47 17.41C101.48 17.41 101.48 17.42 101.48 17.42C101.48 17.42 101.48 17.41 101.46 17.41C101.44 17.4 101.41 17.39 101.37 17.38C101.3 17.37 101.2 17.35 101.07 17.35C100.82 17.35 100.49 17.39 100.13 17.56C99.42 17.9 98.59 18.73 98.11 20.69L97.85 20.55C98.36 18.46 99.26 17.54 100.05 17.16C100.44 16.98 100.8 16.93 101.07 16.93C101.21 16.94 101.33 16.95 101.41 16.97C101.46 16.98 101.5 16.99 101.53 17Z" fill="#FFFFFF" fill-opacity="1.000000" fill-rule="evenodd"/>
	<path id="path313 (Stroke)" d="M101.04 15.85C101.25 15.91 101.51 16.02 101.61 16.44L101 16.83C101.01 16.89 101.04 16.92 101.05 16.93C101.04 16.92 101.01 16.91 100.93 16.89C100.75 16.83 100.45 16.81 99.94 16.76C99.87 16.76 99.8 16.75 99.73 16.75C98.68 16.66 96.95 16.52 94.09 16.1L94.15 15.05C97 15.47 98.72 15.61 99.76 15.7C99.83 15.71 99.91 15.71 99.97 15.71C100.47 15.76 100.82 15.79 101.04 15.85ZM101.05 16.93C101.05 16.93 101.05 16.93 101.05 16.93L101.05 16.93Z" fill="#FFFFFF" fill-opacity="1.000000" fill-rule="evenodd"/>
	<path id="path315 (Stroke)" d="M101.6 16.64C101.62 16.73 101.62 16.83 101.55 16.93L101.1 16.66C101.07 16.7 101.08 16.75 101.08 16.75C101.08 16.75 101.08 16.75 101.07 16.75C101.07 16.74 101.06 16.7 101.02 16.63C100.95 16.49 100.8 16.26 100.56 15.88C100.53 15.83 100.49 15.78 100.46 15.72C99.96 14.95 99.14 13.67 97.85 11.53L98.32 11.28C99.61 13.42 100.43 14.69 100.92 15.46C100.96 15.52 100.99 15.57 101.02 15.62C101.26 16 101.42 16.24 101.51 16.41C101.55 16.49 101.59 16.57 101.6 16.64Z" fill="#FFFFFF" fill-opacity="1.000000" fill-rule="evenodd"/>
	<path id="path317 (Stroke)" d="M101.44 16.94C101.49 16.93 101.55 16.92 101.61 16.97L101.47 17.33C101.49 17.35 101.51 17.35 101.51 17.35C101.51 17.35 101.51 17.35 101.51 17.35C101.5 17.35 101.47 17.37 101.42 17.41C101.33 17.49 101.17 17.64 100.92 17.89C100.89 17.92 100.85 17.96 100.81 18C100.3 18.51 99.44 19.35 98 20.69L97.85 20.35C99.29 19.01 100.14 18.16 100.66 17.65C100.69 17.61 100.73 17.58 100.76 17.55C101.01 17.3 101.18 17.14 101.29 17.05C101.34 17 101.39 16.96 101.44 16.94Z" fill="#FFFFFF" fill-opacity="1.000000" fill-rule="evenodd"/>
	<path id="path319 (Stroke)" d="M97.37 15.05C98.31 15.03 99.37 15.37 101.61 16.39L101.31 16.93C99.04 15.91 98.13 15.64 97.39 15.66C97.02 15.67 96.67 15.75 96.18 15.89C96.14 15.9 96.09 15.91 96.05 15.92C95.58 16.05 95.01 16.2 94.22 16.34L94.09 15.75C94.84 15.6 95.39 15.46 95.86 15.33C95.9 15.32 95.95 15.31 95.99 15.3C96.48 15.17 96.9 15.07 97.37 15.05Z" fill="#FFFFFF" fill-opacity="1.000000" fill-rule="evenodd"/>
	<path id="path321 (Stroke)" d="M98.93 15.94C99.66 15.69 100.5 15.41 101.61 15.68L101.45 16.33C100.55 16.12 99.95 16.32 99.25 16.55C99.01 16.64 98.76 16.72 98.48 16.79C97.95 16.93 97.36 17 96.63 16.84C95.92 16.69 95.1 16.31 94.09 15.6L94.47 15.05C95.43 15.73 96.18 16.05 96.78 16.18C97.37 16.31 97.85 16.26 98.31 16.14C98.51 16.08 98.72 16.01 98.93 15.94Z" fill="#FFFFFF" fill-opacity="1.000000" fill-rule="evenodd"/>
	<path id="path323 (Stroke)" d="M101.34 15.74C101.44 15.76 101.56 15.85 101.61 16.05L101.02 16.41C101.06 16.58 101.16 16.66 101.24 16.67C101.27 16.68 101.29 16.68 101.3 16.67C101.32 16.67 101.32 16.67 101.32 16.67C101.33 16.67 101.33 16.67 101.32 16.67C101.32 16.67 101.32 16.67 101.3 16.69C101.28 16.7 101.25 16.72 101.22 16.74C101.14 16.81 101.03 16.9 100.89 17.02C100.82 17.08 100.75 17.14 100.67 17.21C100.19 17.61 99.52 18.15 98.77 18.48C98.03 18.82 97.17 18.98 96.34 18.57C95.49 18.17 94.71 17.22 94.09 15.5L94.65 15.05C95.21 16.6 95.88 17.36 96.53 17.67C97.2 17.99 97.91 17.88 98.59 17.58C99.26 17.27 99.88 16.78 100.35 16.39C100.42 16.33 100.48 16.27 100.55 16.21C100.7 16.09 100.83 15.98 100.93 15.9C101 15.84 101.08 15.78 101.16 15.75C101.19 15.74 101.26 15.72 101.34 15.74Z" fill="#FFFFFF" fill-opacity="1.000000" fill-rule="evenodd"/>
	<path id="path325 (Stroke)" d="M101.58 16.66C101.6 16.69 101.65 16.81 101.57 16.93L101.15 16.66C101.08 16.76 101.13 16.87 101.14 16.88C101.14 16.9 101.15 16.91 101.15 16.91C101.15 16.91 101.15 16.91 101.15 16.91C101.14 16.89 101.11 16.87 101.06 16.82C100.99 16.77 100.89 16.7 100.78 16.62C100.73 16.57 100.67 16.53 100.6 16.48C100.22 16.19 99.7 15.78 99.22 15.29C98.27 14.31 97.38 12.89 98.13 11.28L98.58 11.5C97.98 12.8 98.66 13.99 99.58 14.94C100.03 15.41 100.52 15.79 100.9 16.08C100.96 16.12 101.02 16.16 101.07 16.21C101.19 16.29 101.29 16.37 101.37 16.43C101.42 16.47 101.48 16.52 101.51 16.56C101.53 16.58 101.56 16.61 101.58 16.66Z" fill="#FFFFFF" fill-opacity="1.000000" fill-rule="evenodd"/>
	<path id="path327 (Stroke)" d="M101.46 16.96C101.48 16.95 101.54 16.91 101.61 16.96L101.47 17.3C101.53 17.35 101.59 17.31 101.6 17.3C101.6 17.3 101.61 17.29 101.61 17.29C101.61 17.29 101.61 17.29 101.6 17.3C101.59 17.31 101.57 17.34 101.55 17.4C101.51 17.47 101.47 17.56 101.41 17.67C101.39 17.73 101.36 17.79 101.33 17.85C101.14 18.24 100.88 18.76 100.55 19.25C99.91 20.21 98.97 21.12 97.85 20.49L97.95 20.13C98.9 20.66 99.72 19.92 100.34 18.98C100.65 18.51 100.91 18.01 101.09 17.64C101.12 17.58 101.15 17.52 101.17 17.46C101.23 17.35 101.28 17.25 101.32 17.17C101.35 17.12 101.38 17.06 101.4 17.03C101.41 17.01 101.43 16.98 101.46 16.96Z" fill="#FFFFFF" fill-opacity="1.000000" fill-rule="evenodd"/>
	<path id="path329 (Stroke)" d="M122.16 13.78L122.15 13.78L121.81 13.19L121.8 13.19C121.8 13.19 121.78 13.2 121.78 13.21C121.75 13.22 121.58 13.48 121.7 13.72C121.85 13.8 122.06 13.81 122.08 13.8C122.09 13.8 122.1 13.8 122.11 13.8L122.11 13.8L122.12 13.79L122.11 13.8L122.1 13.8L121.98 13.83C121.87 13.87 121.7 13.92 121.49 13.99C121.05 14.12 120.42 14.3 119.64 14.52C118.08 14.95 115.94 15.51 113.66 15.97C111.38 16.44 108.95 16.82 106.82 16.91C104.71 17 102.78 16.8 101.61 16.01L102.14 15.51C103.05 16.13 104.69 16.35 106.78 16.26C108.83 16.17 111.2 15.8 113.46 15.34C115.71 14.88 117.82 14.33 119.37 13.9C120.14 13.69 120.77 13.5 121.2 13.37C121.41 13.31 121.58 13.26 121.69 13.23L121.81 13.19L121.84 13.18L121.85 13.17L121.86 13.17C121.87 13.17 121.88 13.17 121.89 13.17C121.91 13.16 122.12 13.17 122.27 13.25C122.39 13.5 122.23 13.75 122.2 13.76C122.19 13.77 122.17 13.78 122.16 13.78Z" fill="#FFFFFF" fill-opacity="1.000000" fill-rule="evenodd"/>
	<path id="path331 (Stroke)" d="M122.14 13.88L122.14 13.88L121.82 13.2L121.82 13.2C121.82 13.2 121.8 13.21 121.79 13.22C121.78 13.23 121.75 13.25 121.73 13.26C121.68 13.32 121.61 13.58 121.69 13.78C121.79 13.86 121.95 13.91 121.99 13.91C122.01 13.91 122.03 13.91 122.04 13.91C122.06 13.91 122.07 13.9 122.07 13.9L122.07 13.9C122.08 13.9 122.08 13.9 122.08 13.9C122.08 13.9 122.08 13.9 122.08 13.9C122.06 13.91 122.04 13.91 122 13.92C121.93 13.95 121.82 13.99 121.67 14.04C121.37 14.15 120.93 14.3 120.4 14.51C119.33 14.91 117.87 15.5 116.38 16.17C114.89 16.86 113.37 17.64 112.16 18.43C111.55 18.83 111.03 19.23 110.63 19.62C110.23 20.01 109.97 20.37 109.86 20.69L109.14 20.45C109.31 19.98 109.65 19.52 110.1 19.09C110.54 18.66 111.1 18.23 111.73 17.82C112.99 16.98 114.55 16.19 116.06 15.5C117.57 14.81 119.04 14.22 120.12 13.81C120.66 13.61 121.11 13.45 121.41 13.34C121.56 13.29 121.68 13.25 121.76 13.22C121.8 13.21 121.83 13.2 121.85 13.19L121.85 13.19C121.85 13.19 121.87 13.18 121.89 13.18L121.89 13.18C121.89 13.18 121.9 13.17 121.92 13.17C121.93 13.17 121.96 13.17 121.97 13.17C122.01 13.17 122.18 13.22 122.27 13.3C122.36 13.5 122.29 13.76 122.24 13.82C122.22 13.83 122.19 13.85 122.17 13.86C122.16 13.87 122.14 13.88 122.14 13.88Z" fill="#FFFFFF" fill-opacity="1.000000" fill-rule="evenodd"/>
	<path id="path333 (Stroke)" d="M95.74 10.17L95.74 10.17L95.41 9.44L95.41 9.44C95.41 9.44 95.4 9.44 95.39 9.45C95.39 9.45 95.37 9.46 95.36 9.46C95.34 9.48 95.23 9.62 95.18 9.76C95.26 10.05 95.58 10.21 95.63 10.2C95.65 10.2 95.67 10.19 95.68 10.19C95.69 10.19 95.7 10.18 95.7 10.18C95.7 10.18 95.71 10.18 95.71 10.18C95.71 10.18 95.7 10.18 95.7 10.18C95.69 10.19 95.66 10.2 95.63 10.21C95.56 10.24 95.45 10.29 95.3 10.35C95.02 10.47 94.59 10.66 94.08 10.89C93.04 11.37 91.64 12.05 90.18 12.88C88.72 13.71 87.22 14.67 86 15.71C84.77 16.74 83.87 17.8 83.55 18.82L82.8 18.56C83.2 17.33 84.24 16.15 85.5 15.08C86.77 14.01 88.31 13.02 89.79 12.18C91.28 11.34 92.71 10.64 93.75 10.16C94.28 9.92 94.71 9.73 95 9.61C95.15 9.55 95.26 9.5 95.33 9.47C95.37 9.45 95.4 9.44 95.42 9.43C95.42 9.43 95.44 9.43 95.45 9.42C95.45 9.42 95.46 9.42 95.47 9.42C95.48 9.41 95.5 9.41 95.52 9.41C95.58 9.4 95.89 9.56 95.97 9.85C95.93 9.99 95.81 10.12 95.79 10.14C95.78 10.15 95.76 10.16 95.76 10.16C95.75 10.16 95.74 10.17 95.74 10.17Z" fill="#FFFFFF" fill-opacity="1.000000" fill-rule="evenodd"/>
	<path id="path335 (Stroke)" d="M137.29 20.5C137.23 20.62 137.15 20.67 137.12 20.69L136.78 19.61C136.75 19.62 136.68 19.68 136.62 19.79C136.55 19.94 136.53 20.12 136.56 20.3C136.59 20.44 136.64 20.52 136.67 20.56C136.69 20.59 136.72 20.62 136.73 20.63C136.75 20.64 136.76 20.65 136.76 20.65C136.76 20.65 136.75 20.65 136.73 20.64C136.67 20.61 136.55 20.57 136.37 20.52C136.01 20.42 135.44 20.3 134.68 20.2C133.17 20.01 130.9 19.9 128.01 20.17L127.96 18.98C130.89 18.7 133.2 18.81 134.76 19.01C135.53 19.11 136.13 19.23 136.52 19.34C136.72 19.39 136.87 19.45 136.98 19.5C137.02 19.51 137.1 19.55 137.16 19.61C137.18 19.62 137.21 19.66 137.24 19.7C137.27 19.74 137.32 19.83 137.35 19.98C137.39 20.16 137.36 20.35 137.29 20.5Z" fill="#FFFFFF" fill-opacity="1.000000" fill-rule="evenodd"/>
	<path id="ландшафтная студия Марины Крохиной" d="M40.44 103.6C40.44 102.59 40.62 101.79 41 101.21C41.38 100.63 41.91 100.34 42.58 100.34Q43.14 100.34 43.54 100.59Q43.55 100.6 43.55 100.6L43.55 97.85L44.21 97.85L44.21 100.63C44.48 100.43 44.81 100.34 45.22 100.34C45.85 100.34 46.36 100.6 46.74 101.13C47.12 101.66 47.32 102.4 47.36 103.34L47.36 103.72C47.36 104.66 47.17 105.4 46.79 105.95Q46.51 106.35 46.11 106.56Q45.72 106.76 45.23 106.76C44.83 106.76 44.49 106.67 44.21 106.49L44.21 109.02L43.55 109.02L43.55 106.5Q43.51 106.52 43.47 106.55L43.47 106.55Q43.07 106.76 42.57 106.76Q42.08 106.76 41.7 106.57Q41.34 106.38 41.06 106.02C40.68 105.53 40.48 104.84 40.44 103.97L40.44 103.6ZM206.3 98.22C206.3 98.66 206.16 99.01 205.87 99.28Q205.81 99.34 205.73 99.39Q205.33 99.69 204.72 99.69C204.24 99.69 203.86 99.55 203.57 99.29C203.28 99.01 203.13 98.66 203.13 98.22L203.69 98.22C203.69 98.53 203.78 98.78 203.96 98.94C204.14 99.11 204.4 99.19 204.72 99.19C205.04 99.19 205.29 99.11 205.47 98.93C205.65 98.76 205.74 98.52 205.74 98.22L206.3 98.22ZM113.81 98.31L116.76 105.66L119.72 98.31L120.62 98.31L120.62 106.64L119.94 106.64L119.94 103.01L120 99.29L117.02 106.64L116.5 106.64L113.54 99.32L113.59 102.99L113.59 106.64L112.92 106.64L112.92 98.31L113.81 98.31ZM160.52 102.73L159.42 102.73L159.42 106.64L158.75 106.64L158.75 98.31L159.42 98.31L159.42 102.13L160.49 102.13L163.57 98.31L164.43 98.31L161.14 102.41L164.67 106.64L163.83 106.64L160.52 102.73ZM10.69 106.64C10.63 106.44 10.58 106.16 10.56 105.78C10.33 106.09 10.04 106.33 9.68 106.5Q9.46 106.61 9.22 106.67Q8.9 106.76 8.55 106.76C7.98 106.76 7.52 106.59 7.16 106.26Q6.94 106.05 6.81 105.79Q6.64 105.44 6.64 105C6.64 104.39 6.88 103.92 7.35 103.57Q8.08 103.04 9.37 103.04L10.56 103.04L10.56 102.34C10.56 101.89 10.43 101.55 10.16 101.3C9.9 101.04 9.52 100.91 9.02 100.91C8.57 100.91 8.19 101.03 7.89 101.28Q7.59 101.52 7.49 101.83Q7.44 101.98 7.44 102.16L6.78 102.16Q6.78 101.93 6.84 101.71Q6.98 101.25 7.44 100.88Q7.6 100.74 7.79 100.64L7.79 100.64Q8.34 100.34 9.06 100.34C9.72 100.34 10.24 100.51 10.62 100.85C11 101.2 11.2 101.68 11.21 102.3L11.21 105.23C11.21 105.83 11.27 106.28 11.39 106.57L11.39 106.64L10.69 106.64ZM38.41 106.64C38.34 106.44 38.3 106.16 38.28 105.78C38.05 106.09 37.75 106.33 37.4 106.5C37.04 106.67 36.66 106.76 36.26 106.76C35.69 106.76 35.23 106.59 34.88 106.26C34.53 105.93 34.35 105.51 34.35 105C34.35 104.39 34.59 103.92 35.07 103.57Q35.79 103.04 37.08 103.04L38.27 103.04L38.27 102.34Q38.27 101.81 38.02 101.46L38.02 101.46Q37.96 101.37 37.88 101.3C37.62 101.04 37.24 100.91 36.74 100.91C36.28 100.91 35.9 101.03 35.6 101.28C35.3 101.52 35.15 101.82 35.15 102.16L34.49 102.16C34.49 101.66 34.71 101.24 35.15 100.88C35.59 100.52 36.13 100.34 36.77 100.34C37.43 100.34 37.95 100.51 38.33 100.85C38.72 101.2 38.92 101.68 38.93 102.3L38.93 105.23C38.93 105.83 38.99 106.28 39.11 106.57L39.11 106.64L38.41 106.64ZM63.8 106.64C63.74 106.44 63.7 106.16 63.68 105.78C63.45 106.09 63.15 106.33 62.79 106.5C62.44 106.67 62.06 106.76 61.66 106.76C61.09 106.76 60.63 106.59 60.27 106.26C59.92 105.93 59.75 105.51 59.75 105C59.75 104.39 59.99 103.92 60.47 103.57C60.95 103.22 61.62 103.04 62.48 103.04L63.67 103.04L63.67 102.34C63.67 101.89 63.54 101.55 63.28 101.3Q63.27 101.29 63.26 101.28Q62.87 100.91 62.14 100.91C61.68 100.91 61.3 101.03 61 101.28C60.7 101.52 60.55 101.82 60.55 102.16L59.89 102.16C59.89 101.66 60.11 101.24 60.55 100.88C60.99 100.52 61.53 100.34 62.17 100.34C62.83 100.34 63.35 100.51 63.73 100.85C64.12 101.2 64.31 101.68 64.32 102.3L64.32 105.23C64.32 105.83 64.39 106.28 64.51 106.57L64.51 106.64L63.8 106.64ZM77.11 106.18C77.57 106.18 77.95 106.04 78.26 105.78C78.57 105.51 78.74 105.16 78.76 104.73L79.39 104.73C79.38 105.11 79.26 105.45 79.05 105.77C78.85 106.07 78.57 106.32 78.22 106.49Q78.02 106.6 77.8 106.66Q77.47 106.76 77.11 106.76Q76.42 106.76 75.89 106.46Q75.54 106.25 75.26 105.91C74.8 105.34 74.58 104.59 74.58 103.63L74.58 103.43Q74.58 102.51 74.88 101.8Q75.14 101.21 75.59 100.85L75.59 100.85Q75.67 100.78 75.76 100.72Q75.88 100.64 76 100.58Q76.49 100.34 77.11 100.34C77.76 100.34 78.29 100.54 78.71 100.94C79.14 101.35 79.37 101.88 79.39 102.54L78.76 102.54Q78.73 102 78.47 101.62L78.47 101.62Q78.38 101.48 78.26 101.37Q78.1 101.21 77.91 101.11Q77.56 100.92 77.11 100.92C76.51 100.92 76.05 101.14 75.72 101.59Q75.23 102.26 75.23 103.46L75.23 103.66C75.23 104.46 75.4 105.07 75.72 105.52C76.05 105.96 76.52 106.18 77.11 106.18ZM126.23 106.64C126.17 106.44 126.13 106.16 126.11 105.78C125.88 106.09 125.58 106.33 125.22 106.5C124.87 106.67 124.49 106.76 124.09 106.76C123.52 106.76 123.06 106.59 122.71 106.26C122.35 105.93 122.18 105.51 122.18 105C122.18 104.39 122.42 103.92 122.9 103.57C123.38 103.22 124.05 103.04 124.91 103.04L126.1 103.04L126.1 102.34C126.1 101.89 125.97 101.55 125.71 101.3C125.45 101.04 125.07 100.91 124.57 100.91C124.11 100.91 123.73 101.03 123.43 101.28Q123.13 101.52 123.03 101.83Q122.98 101.98 122.98 102.16L122.32 102.16C122.32 101.66 122.54 101.24 122.98 100.88C123.42 100.52 123.96 100.34 124.6 100.34C125.26 100.34 125.78 100.51 126.16 100.85C126.55 101.2 126.75 101.68 126.76 102.3L126.76 105.23C126.76 105.83 126.82 106.28 126.94 106.57L126.94 106.64L126.23 106.64ZM133.29 103.61Q133.29 105.05 132.67 105.91Q132.35 106.35 131.92 106.56Q131.52 106.76 131.03 106.76C130.21 106.76 129.59 106.46 129.16 105.86L129.16 109.02L128.51 109.02L128.51 100.45L129.12 100.45L129.15 101.32C129.58 100.66 130.2 100.34 131.01 100.34C131.72 100.34 132.28 100.62 132.68 101.18C133.08 101.74 133.29 102.52 133.29 103.51L133.29 103.61ZM170.39 103.61C170.39 104.57 170.18 105.34 169.77 105.91C169.36 106.47 168.81 106.76 168.12 106.76C167.31 106.76 166.69 106.46 166.26 105.86L166.26 109.02L165.61 109.02L165.61 100.45L166.21 100.45L166.25 101.32C166.68 100.66 167.3 100.34 168.11 100.34C168.82 100.34 169.37 100.62 169.78 101.18C170.18 101.74 170.39 102.52 170.39 103.51L170.39 103.61ZM171.48 103.45C171.48 102.86 171.59 102.32 171.81 101.85C172.04 101.37 172.35 101 172.75 100.73C173.16 100.47 173.62 100.34 174.13 100.34Q174.79 100.34 175.31 100.6L175.31 100.6Q175.72 100.82 176.05 101.2C176.54 101.78 176.78 102.55 176.78 103.5L176.78 103.64Q176.78 104.54 176.45 105.26C176.23 105.74 175.92 106.11 175.52 106.37C175.11 106.62 174.66 106.76 174.14 106.76C173.35 106.76 172.71 106.47 172.22 105.89C171.73 105.31 171.48 104.55 171.48 103.59L171.48 103.45ZM195.77 103.45Q195.77 102.56 196.1 101.85C196.33 101.37 196.64 101 197.04 100.73C197.45 100.47 197.91 100.34 198.42 100.34C199.21 100.34 199.85 100.62 200.34 101.2C200.83 101.78 201.07 102.55 201.07 103.5L201.07 103.64C201.07 104.24 200.96 104.78 200.74 105.26C200.52 105.74 200.21 106.11 199.81 106.37C199.4 106.62 198.94 106.76 198.43 106.76C197.64 106.76 197 106.47 196.51 105.89C196.02 105.31 195.77 104.55 195.77 103.59L195.77 103.45ZM5.18 100.45L5.18 106.64L4.52 106.64L4.52 101.04L2.09 101.04L1.98 103.35Q1.92 104.64 1.73 105.32C1.61 105.78 1.43 106.11 1.2 106.32Q1.16 106.36 1.11 106.39L1.11 106.39Q0.77 106.64 0.25 106.64L0 106.64L0 106.03L0.2 106.02Q0.44 106.02 0.63 105.91Q0.87 105.77 1.01 105.45Q1.26 104.89 1.33 103.45L1.45 100.45L5.18 100.45ZM17.53 106.64L16.87 106.64L16.87 103.8L13.67 103.8L13.67 106.64L13.01 106.64L13.01 100.45L13.67 100.45L13.67 103.23L16.87 103.23L16.87 100.45L17.53 100.45L17.53 106.64ZM19.15 106.06L19.44 105.67C19.91 105.02 20.17 104.06 20.24 102.81L20.34 100.45L23.85 100.45L23.85 106.06L24.47 106.06L24.47 108.46L23.81 108.46L23.81 106.64L19.35 106.64L19.35 108.46L18.72 108.46L18.73 106.06L19.15 106.06ZM26.44 100.45L26.44 106.06L29.08 106.06L29.08 100.45L29.73 100.45L29.73 106.06L32.35 106.06L32.35 100.45L33.01 100.45L33.01 106.64L25.78 106.64L25.78 100.45L26.44 100.45ZM52.65 101.03L50.49 101.03L50.49 106.64L49.83 106.64L49.83 101.03L47.75 101.03L47.75 100.45L52.65 100.45L52.65 101.03ZM58.29 106.64L57.63 106.64L57.63 103.8L54.44 103.8L54.44 106.64L53.78 106.64L53.78 100.45L54.44 100.45L54.44 103.23L57.63 103.23L57.63 100.45L58.29 100.45L58.29 106.64ZM70.41 100.45L70.41 106.64L69.75 106.64L69.75 104.15L67.91 104.15L66.46 106.64L65.74 106.64L67.23 104.06C66.82 103.95 66.51 103.74 66.28 103.42Q66.21 103.32 66.15 103.21Q65.94 102.8 65.94 102.3Q65.94 101.76 66.18 101.36Q66.31 101.14 66.52 100.95C66.91 100.62 67.43 100.45 68.09 100.45L70.41 100.45ZM84.98 101.03L82.81 101.03L82.81 106.64L82.16 106.64L82.16 101.03L80.08 101.03L80.08 100.45L84.98 100.45L84.98 101.03ZM88.01 105.66L89.74 100.45L90.45 100.45L87.91 107.69L87.78 108.02C87.45 108.77 86.95 109.14 86.27 109.14C86.11 109.14 85.95 109.12 85.77 109.06L85.76 108.5L86.1 108.53C86.42 108.53 86.68 108.44 86.88 108.28C87.08 108.11 87.25 107.83 87.39 107.43L87.68 106.59L85.44 100.45L86.16 100.45L88.01 105.66ZM91.02 106.06L91.31 105.67C91.78 105.02 92.04 104.06 92.11 102.81L92.21 100.45L95.72 100.45L95.72 106.06L96.34 106.06L96.34 108.46L95.68 108.46L95.68 106.64L91.22 106.64L91.22 108.46L90.59 108.46L90.6 106.06L91.02 106.06ZM101.51 100.45L102.16 100.45L102.16 106.64L101.51 106.64L101.51 101.55L98.3 106.64L97.65 106.64L97.65 100.45L98.3 100.45L98.3 105.54L101.51 100.45ZM108.26 100.45L108.26 106.64L107.6 106.64L107.6 104.15L105.75 104.15L104.3 106.64L103.58 106.64L105.07 104.06C104.67 103.95 104.35 103.74 104.12 103.42C103.9 103.1 103.79 102.73 103.79 102.3C103.79 101.74 103.98 101.29 104.37 100.95C104.75 100.62 105.28 100.45 105.93 100.45L108.26 100.45ZM138.65 100.45L139.31 100.45L139.31 106.64L138.65 106.64L138.65 101.55L135.44 106.64L134.79 106.64L134.79 100.45L135.44 100.45L135.44 105.54L138.65 100.45ZM145.63 106.64L144.97 106.64L144.97 103.8L141.77 103.8L141.77 106.64L141.11 106.64L141.11 100.45L141.77 100.45L141.77 103.23L144.97 103.23L144.97 100.45L145.63 100.45L145.63 106.64ZM148.12 102.7L149.83 102.7Q150.49 102.7 150.98 102.95C151.31 103.11 151.56 103.34 151.73 103.64C151.9 103.93 151.99 104.27 151.99 104.66C151.99 105.26 151.79 105.74 151.4 106.1C151 106.46 150.48 106.64 149.81 106.64L147.46 106.64L147.46 100.45L148.12 100.45L148.12 102.7ZM154 106.64L153.35 106.64L153.35 100.45L154 100.45L154 106.64ZM179.89 102.96L181.49 100.45L182.27 100.45L180.26 103.49L182.36 106.64L181.59 106.64L179.9 104.02L178.21 106.64L177.43 106.64L179.53 103.49L177.51 100.45L178.29 100.45L179.89 102.96ZM187.39 100.45L188.05 100.45L188.05 106.64L187.39 106.64L187.39 101.55L184.19 106.64L183.53 106.64L183.53 100.45L184.19 100.45L184.19 105.54L187.39 100.45ZM194.37 106.64L193.71 106.64L193.71 103.8L190.52 103.8L190.52 106.64L189.86 106.64L189.86 100.45L190.52 100.45L190.52 103.23L193.71 103.23L193.71 100.45L194.37 100.45L194.37 106.64ZM206.34 100.45L207 100.45L207 106.64L206.34 106.64L206.34 101.55L203.13 106.64L202.48 106.64L202.48 100.45L203.13 100.45L203.13 105.54L206.34 100.45ZM41.09 103.72C41.09 104.5 41.23 105.1 41.51 105.54C41.78 105.97 42.18 106.18 42.69 106.18C43.04 106.18 43.32 106.1 43.55 105.95L43.55 101.15C43.34 101 43.06 100.92 42.7 100.92C42.19 100.92 41.79 101.16 41.51 101.63Q41.09 102.34 41.09 103.72ZM46.71 103.6Q46.71 102.35 46.27 101.63C45.99 101.16 45.59 100.92 45.07 100.92C44.7 100.92 44.41 101 44.21 101.17L44.21 105.96C44.44 106.11 44.73 106.18 45.08 106.18C45.6 106.18 46 105.97 46.28 105.54C46.57 105.11 46.71 104.46 46.71 103.6ZM172.14 103.64C172.14 104.38 172.32 104.99 172.69 105.47C173.06 105.94 173.54 106.18 174.14 106.18C174.73 106.18 175.21 105.94 175.58 105.47C175.95 104.99 176.13 104.36 176.13 103.59L176.13 103.45C176.13 102.98 176.05 102.55 175.88 102.16Q175.64 101.6 175.22 101.28Q175.2 101.26 175.17 101.25C174.87 101.03 174.52 100.92 174.13 100.92C173.54 100.92 173.07 101.16 172.7 101.64C172.33 102.12 172.14 102.74 172.14 103.52L172.14 103.64ZM196.43 103.64C196.43 104.38 196.61 104.99 196.98 105.47Q197.26 105.83 197.63 106.01Q197.99 106.18 198.43 106.18C199.02 106.18 199.5 105.94 199.87 105.47C200.24 104.99 200.42 104.36 200.42 103.59L200.42 103.45C200.42 102.98 200.34 102.55 200.17 102.16C200 101.76 199.76 101.46 199.46 101.25C199.16 101.03 198.81 100.92 198.42 100.92C197.83 100.92 197.35 101.16 196.99 101.64C196.62 102.12 196.43 102.74 196.43 103.52L196.43 103.64ZM132.63 103.49C132.63 102.7 132.47 102.07 132.16 101.62C131.85 101.16 131.42 100.93 130.86 100.93C130.46 100.93 130.11 101.03 129.82 101.23C129.53 101.44 129.31 101.73 129.16 102.11L129.16 105.09C129.32 105.44 129.54 105.71 129.83 105.9C130.13 106.09 130.47 106.18 130.87 106.18Q131.29 106.18 131.61 106Q131.93 105.83 132.16 105.49C132.47 105.03 132.63 104.36 132.63 103.49ZM169.73 103.49C169.73 102.7 169.57 102.07 169.26 101.62C168.95 101.16 168.52 100.93 167.96 100.93C167.56 100.93 167.21 101.03 166.92 101.23C166.63 101.44 166.41 101.73 166.26 102.11L166.26 105.09C166.42 105.44 166.64 105.71 166.93 105.9C167.23 106.09 167.57 106.18 167.97 106.18C168.52 106.18 168.95 105.95 169.26 105.49C169.57 105.03 169.73 104.36 169.73 103.49ZM66.6 102.31C66.6 102.67 66.71 102.97 66.93 103.2C67.15 103.43 67.46 103.55 67.86 103.56L69.75 103.56L69.75 101.03L68.07 101.03C67.62 101.03 67.26 101.15 66.99 101.37C66.73 101.6 66.6 101.92 66.6 102.31ZM104.45 102.31C104.45 102.67 104.56 102.97 104.78 103.2C105 103.43 105.31 103.55 105.7 103.56L107.6 103.56L107.6 101.03L105.92 101.03C105.46 101.03 105.1 101.15 104.84 101.37C104.58 101.6 104.45 101.92 104.45 102.31ZM19.91 106.06L23.19 106.06L23.19 101.09L20.97 101.09L20.9 102.7Q20.8 104.91 19.91 106.06ZM91.78 106.06L95.06 106.06L95.06 101.09L92.84 101.09L92.77 102.7Q92.67 104.91 91.78 106.06ZM148.12 103.28L148.12 106.06L149.82 106.06C150.29 106.06 150.66 105.94 150.92 105.69C151.2 105.44 151.33 105.1 151.33 104.67Q151.33 104.24 151.14 103.93Q151.06 103.79 150.94 103.68C150.68 103.42 150.32 103.29 149.87 103.28L148.12 103.28ZM8.63 106.15C9.07 106.15 9.46 106.04 9.8 105.82C10.15 105.6 10.4 105.3 10.56 104.93L10.56 103.57L9.38 103.57C8.73 103.58 8.22 103.7 7.85 103.94C7.48 104.19 7.29 104.52 7.29 104.94Q7.29 105.23 7.41 105.46Q7.5 105.65 7.66 105.8C7.91 106.03 8.23 106.15 8.63 106.15ZM36.34 106.15C36.78 106.15 37.17 106.04 37.52 105.82Q37.81 105.63 38.02 105.37Q38.17 105.17 38.27 104.93L38.27 103.57L37.1 103.57C36.44 103.58 35.93 103.7 35.56 103.94C35.19 104.19 35.01 104.52 35.01 104.94C35.01 105.29 35.13 105.58 35.38 105.8C35.62 106.03 35.95 106.15 36.34 106.15ZM61.74 106.15C62.18 106.15 62.57 106.04 62.91 105.82C63.26 105.6 63.51 105.3 63.67 104.93L63.67 103.57L62.5 103.57C61.84 103.58 61.33 103.7 60.96 103.94C60.59 104.19 60.41 104.52 60.41 104.94C60.41 105.29 60.53 105.58 60.77 105.8C61.02 106.03 61.34 106.15 61.74 106.15ZM124.17 106.15C124.61 106.15 125 106.04 125.35 105.82Q125.64 105.63 125.85 105.37Q126 105.17 126.1 104.93L126.1 103.57L124.93 103.57C124.27 103.58 123.76 103.7 123.39 103.94C123.02 104.19 122.84 104.52 122.84 104.94Q122.84 105.23 122.95 105.46Q123.04 105.65 123.21 105.8C123.45 106.03 123.78 106.15 124.17 106.15Z" fill="#FFFFFF" fill-opacity="1.000000" fill-rule="evenodd"/>
	<path id="path356" d="M11.29 38.37C11.29 37.97 11.41 37.52 11.66 37.04C11.91 36.56 12.22 36.09 12.6 35.64C12.97 35.18 13.37 34.8 13.8 34.5C14.22 34.19 14.64 34.04 15.04 34.04C15.59 34.04 16.15 34.32 16.72 34.88C17.3 35.43 17.79 35.92 18.19 36.32C18.99 37.18 19.7 38.08 20.33 39.02C20.95 39.96 21.56 40.93 22.16 41.95C25.01 46.76 27.38 51.79 29.25 57.04C31.13 62.28 32.64 67.64 33.79 73.12C34.19 71.75 34.73 70.43 35.4 69.16C36.08 67.9 36.77 66.63 37.47 65.36C38.77 62.93 40.08 60.53 41.4 58.18C42.73 55.82 44.07 53.45 45.42 51.07C46.92 48.43 48.44 45.73 49.99 42.97C51.54 40.21 53.14 37.56 54.8 35.03C54.95 34.78 55.13 34.48 55.36 34.16C55.58 33.82 55.83 33.5 56.11 33.17C56.38 32.83 56.66 32.56 56.93 32.33C57.21 32.1 57.5 31.99 57.8 31.99C58.35 31.99 58.87 32.2 59.37 32.63C59.87 33.07 60.12 33.56 60.12 34.12C60.12 34.37 60.03 34.61 59.86 34.84C59.68 35.07 59.52 35.28 59.37 35.48C57.92 37.31 56.63 39.25 55.51 41.3C54.38 43.35 53.24 45.39 52.09 47.42C49.94 51.17 47.84 54.93 45.79 58.71C43.74 62.49 41.72 66.28 39.72 70.08C39.32 70.83 38.87 71.67 38.37 72.58C37.87 73.5 37.37 74.44 36.87 75.4C36.37 76.36 35.9 77.31 35.48 78.25C35.05 79.19 34.74 80.03 34.54 80.8C34.34 81.46 34.2 82.07 34.13 82.66C34.05 83.24 33.92 83.73 33.72 84.14C33.52 84.55 33.2 84.87 32.78 85.13C32.35 85.38 31.69 85.51 30.79 85.51C30.19 85.51 29.74 85.36 29.44 85.05C29.14 84.75 28.91 84.37 28.76 83.91C28.61 83.46 28.53 82.98 28.5 82.47C28.48 81.96 28.41 81.51 28.31 81.1C27.41 75.42 25.95 69.72 23.93 64C21.9 58.27 19.61 52.82 17.06 47.65C16.46 46.48 15.84 45.29 15.19 44.08C14.54 42.86 13.79 41.75 12.94 40.73C12.69 40.48 12.35 40.11 11.92 39.63C11.5 39.15 11.29 38.73 11.29 38.37ZM193.82 68.98C193.82 67.85 193.35 67.29 192.42 67.29C191.78 67.29 191.28 67.54 190.93 68.05C190.58 68.55 190.26 69.04 189.96 69.51C189.44 70.34 188.65 71.44 187.6 72.8C186.54 74.16 185.4 75.48 184.18 76.76C182.95 78.03 181.69 79.14 180.41 80.09C179.12 81.04 177.95 81.51 176.9 81.51C176.2 81.51 175.66 81.14 175.28 80.4C174.9 79.66 174.62 78.8 174.44 77.82C174.27 76.85 174.17 75.88 174.14 74.93C174.11 73.99 174.09 73.28 174.09 72.8C174.09 71.26 174.2 69.62 174.4 67.87C174.6 66.12 174.94 64.48 175.41 62.94C175.64 62.28 175.96 61.43 176.37 60.36C176.78 59.3 176.99 58.44 176.99 57.78C176.99 57.19 176.77 56.81 176.33 56.63C175.89 56.45 175.44 56.36 174.97 56.36C174.15 56.36 173.52 56.64 173.08 57.21C172.65 57.77 172.28 58.38 171.99 59.03C171.7 59.62 171.27 60.52 170.72 61.74C170.16 62.95 169.5 64.27 168.74 65.69C167.98 67.12 167.18 68.58 166.33 70.09C165.49 71.6 164.62 72.96 163.75 74.18C162.87 75.39 162.02 76.4 161.2 77.2C160.38 78 159.65 78.4 159.01 78.4C158.48 78.4 158.16 78.13 158.05 77.6C157.93 77.07 157.87 76.62 157.87 76.27C157.87 72.89 158.54 69.74 159.89 66.8C161.23 63.87 163.04 61.22 165.32 58.85C166.61 57.49 167.97 56.29 169.4 55.25C170.83 54.21 172.34 53.22 173.92 52.27C174.15 52.16 174.36 52.02 174.53 51.87C174.71 51.73 174.79 51.5 174.79 51.21C174.79 50.55 174.47 49.93 173.83 49.34C173.19 48.75 172.54 48.45 171.9 48.45C169.33 48.45 166.86 49.34 164.49 51.12C162.12 52.9 160.02 55.1 158.18 57.74C156.34 60.37 154.86 63.17 153.75 66.14C153.66 66.37 153.58 66.59 153.5 66.82C153.22 67.26 152.98 67.65 152.78 68C152.31 68.95 151.64 70.1 150.76 71.47C149.89 72.83 148.89 74.15 147.78 75.42C146.67 76.7 145.52 77.79 144.32 78.71C143.12 79.63 141.94 80.09 140.77 80.09C140.07 80.09 139.53 79.91 139.14 79.55C138.77 79.2 138.49 78.76 138.31 78.22C138.14 77.69 138.03 77.11 138 76.49C137.98 75.87 137.96 75.29 137.96 74.76C137.96 72.68 138.02 70.61 138.14 68.53C138.25 66.46 138.31 64.39 138.31 62.32C138.31 61.66 138.28 60.86 138.22 59.92C138.17 58.97 138 58.02 137.74 57.07C137.48 56.12 137.08 55.32 136.56 54.67C136.03 54.02 135.33 53.69 134.45 53.69C133.34 53.69 132.04 54.35 130.55 55.65C129.06 56.95 127.59 58.46 126.12 60.18C124.66 61.9 123.3 63.65 122.05 65.42C120.79 67.2 119.84 68.57 119.2 69.51C119.43 67.8 119.72 66.08 120.07 64.36C120.42 62.64 120.92 60.95 121.56 59.29C122.09 57.87 122.6 56.32 123.1 54.63C123.6 52.94 123.84 51.33 123.84 49.78C123.84 48.84 123.65 48.1 123.27 47.57C122.89 47.03 122.21 46.76 121.21 46.76C120.1 46.76 119.04 47.21 118.01 48.1C116.99 48.99 116.36 49.96 116.13 51.03C115.84 52.39 115.57 53.78 115.34 55.21C115.1 56.63 114.84 58.02 114.55 59.38C114.11 61.51 113.67 63.69 113.23 65.91C113.18 65.96 113.13 66.03 113.08 66.09C112.67 66.66 112.32 67.14 112.03 67.56C111.5 68.39 110.65 69.5 109.48 70.89C108.31 72.28 107.03 73.65 105.63 74.98C104.22 76.31 102.82 77.47 101.42 78.44C100.01 79.42 98.78 79.88 97.73 79.82C98.43 78.82 98.95 77.72 99.27 76.53C99.59 75.35 99.75 74.16 99.75 72.98C99.75 71.08 99.46 69.22 98.87 67.38C98.29 65.55 97.56 63.75 96.68 62C95.8 60.26 94.9 58.52 93.96 56.81C93.03 55.09 92.21 53.37 91.51 51.65C92.03 50.29 92.5 48.85 92.91 47.34C93.32 45.83 93.52 44.33 93.52 42.85C93.52 42.38 93.48 41.88 93.39 41.34C93.3 40.81 93.16 40.29 92.95 39.79C92.75 39.28 92.46 38.87 92.08 38.55C91.7 38.22 91.24 38.05 90.72 38.05C89.67 38.05 88.73 38.44 87.91 39.21C87.09 39.98 86.42 40.9 85.9 41.96C85.37 43.03 84.96 44.16 84.67 45.34C84.38 46.53 84.23 47.57 84.23 48.45C84.23 50.05 84.49 51.62 85.02 53.16C82.86 61.12 78.13 67.6 73.46 73.51C72.29 75 71.01 76.31 69.61 77.47C68.2 78.62 66.68 79.57 65.05 80.31C63.41 81.05 61.66 81.42 59.78 81.42C57.74 81.42 56.28 80.84 55.4 79.69C54.52 78.52 54.09 76.93 54.09 74.92C54.09 73.8 54.23 72.53 54.52 71.17C55.87 70.7 57.33 69.81 58.91 68.51C60.49 67.19 61.96 65.69 63.34 64C64.71 62.3 65.85 60.55 66.76 58.75C67.66 56.94 68.11 55.28 68.11 53.8C68.11 52.26 67.69 50.97 66.84 49.96C66 48.96 64.78 48.45 63.2 48.45C60.87 48.45 58.72 49.37 56.76 51.21C54.8 53.05 53.12 55.28 51.72 57.92C50.31 60.55 49.23 63.29 48.47 66.14C47.71 68.98 47.33 71.41 47.33 73.42C47.33 75.02 47.51 76.55 47.86 78C48.21 79.45 48.78 80.73 49.57 81.82C50.36 82.92 51.37 83.81 52.59 84.49C53.82 85.17 55.31 85.51 57.07 85.51C59.46 85.51 61.77 85.11 63.99 84.3C66.21 83.48 68.29 82.39 70.22 81.01C72.15 79.63 73.92 78.01 75.52 76.18C79.56 71.57 83.18 66.27 85.59 60.58C86.2 59.13 86.71 57.81 87.12 56.63C87.82 57.69 88.54 58.95 89.27 60.41C90 61.85 90.66 63.35 91.24 64.89C91.83 66.43 92.31 67.97 92.69 69.51C93.07 71.05 93.26 72.51 93.26 73.87C93.26 76.12 92.66 77.97 91.46 79.42C90.26 80.87 88.5 81.6 86.16 81.6C84.99 81.6 83.91 81.48 82.91 81.25C81.92 81.01 80.93 80.56 79.93 79.91C79.64 79.73 79.39 79.58 79.19 79.47C78.98 79.35 78.71 79.29 78.35 79.29C77.42 79.29 76.95 79.73 76.95 80.62C76.95 81.04 77.04 81.39 77.21 81.69C77.39 81.98 77.62 82.28 77.92 82.58C79.2 83.82 80.82 84.62 82.78 84.98C84.74 85.33 86.57 85.51 88.26 85.51C91.42 85.51 94.3 85.14 96.9 84.4C99.5 83.66 101.87 82.58 104 81.16C106.14 79.73 108.11 77.99 109.92 75.91C110.51 75.23 111.1 74.53 111.67 73.79C110.9 78.03 110.52 82.18 110.52 86.22C110.52 86.81 110.66 87.33 110.95 87.78C111.25 88.22 111.71 88.44 112.36 88.44C113.18 88.44 113.89 88.15 114.51 87.55C115.12 86.96 115.6 86.31 115.95 85.6C116.95 83.35 117.97 81.14 119.02 78.98C120.07 76.82 121.24 74.7 122.53 72.62C123.58 70.91 124.75 69.1 126.04 67.2C127.32 65.31 128.7 63.65 130.16 62.23C130.39 61.99 130.71 61.69 131.12 61.34C131.53 60.98 131.88 60.8 132.17 60.8C132.53 60.8 132.74 61.04 132.83 61.51C132.92 61.99 132.96 62.35 132.96 62.58C132.96 64.3 132.91 65.99 132.79 67.65C132.67 69.31 132.61 71 132.61 72.71C132.61 73.84 132.66 75.08 132.74 76.44C132.83 77.81 133.1 79.08 133.53 80.26C133.97 81.45 134.61 82.44 135.46 83.25C136.31 84.04 137.49 84.44 139.01 84.44C140.65 84.44 142.33 83.91 144.06 82.84C145.78 81.78 147.42 80.47 148.97 78.93C150.12 77.79 151.17 76.58 152.13 75.32C152.17 75.81 152.23 76.33 152.3 76.89C152.45 77.96 152.71 78.96 153.09 79.91C153.47 80.86 154.01 81.66 154.71 82.31C155.42 82.96 156.29 83.29 157.35 83.29C158.51 83.29 159.7 82.84 160.9 81.96C162.09 81.07 163.25 80 164.36 78.76C165.47 77.51 166.48 76.22 167.39 74.89C168.29 73.56 169.04 72.45 169.62 71.56C169.56 72.62 169.59 73.94 169.71 75.51C169.83 77.08 170.12 78.59 170.59 80.05C171.05 81.5 171.73 82.74 172.6 83.78C173.48 84.81 174.65 85.33 176.11 85.33C177.63 85.33 179.16 84.89 180.71 84C182.26 83.11 183.72 82.01 185.1 80.71C186.47 79.41 187.74 78.01 188.91 76.53C190.08 75.05 191.07 73.75 191.89 72.62C192.19 72.15 192.58 71.56 193.08 70.85C193.57 70.14 193.82 69.51 193.82 68.98ZM62.77 52.54C63.35 52.54 63.75 52.76 63.95 53.21C64.15 53.65 64.26 54.12 64.26 54.6C64.26 55.78 63.93 57.03 63.29 58.3C62.65 59.59 61.86 60.83 60.92 62.07C59.99 63.28 58.97 64.39 57.86 65.37C56.75 66.34 55.72 67.14 54.79 67.74C54.9 66.97 55.23 65.72 55.75 64.03C56.28 62.33 56.92 60.63 57.68 58.94C58.44 57.24 59.26 55.74 60.14 54.46C61.01 53.18 61.89 52.54 62.77 52.54Z" fill="#FFFFFF" fill-opacity="1.000000" fill-rule="evenodd"/>
</svg>
