<svg width="50" height="50" viewBox="0 0 50 50" fill="none" xmlns="http://www.w3.org/2000/svg">
<g clip-path="url(#clip0_6802_2704)">
<path d="M25 50C38.8071 50 50 38.8071 50 25C50 11.1929 38.8071 0 25 0C11.1929 0 0 11.1929 0 25C0 38.8071 11.1929 50 25 50Z" fill="#63533E"/>
<g clip-path="url(#clip1_6802_2704)">
<path d="M24.5035 20.1094C21.5259 20.1094 19.1152 22.5226 19.1152 25.4976C19.1152 28.4753 21.5285 30.8859 24.5035 30.8859C27.4811 30.8859 29.8917 28.4726 29.8917 25.4976C29.8917 22.52 27.4785 20.1094 24.5035 20.1094ZM24.5035 28.995C22.5706 28.995 21.0061 27.4296 21.0061 25.4976C21.0061 23.5656 22.5715 22.0003 24.5035 22.0003C26.4355 22.0003 28.0009 23.5656 28.0009 25.4976C28.0017 27.4296 26.4364 28.995 24.5035 28.995Z" fill="white"/>
<path d="M28.8297 15.066C26.8977 14.9758 22.1123 14.9802 20.1786 15.066C18.4793 15.1456 16.9804 15.556 15.7721 16.7643C13.7526 18.7838 14.0107 21.5051 14.0107 25.496C14.0107 29.5805 13.7832 32.2387 15.7721 34.2276C17.7994 36.2541 20.5601 35.989 24.5037 35.989C28.5497 35.989 29.9462 35.9916 31.3768 35.4377C33.3219 34.6826 34.7902 32.944 34.9337 29.8211C35.0247 27.8882 35.0194 23.1037 34.9337 21.17C34.7604 17.4836 32.7821 15.248 28.8297 15.066ZM31.8878 32.8915C30.5639 34.2153 28.7273 34.0972 24.4783 34.0972C20.1033 34.0972 18.3489 34.162 17.0688 32.8783C15.5944 31.411 15.8613 29.0546 15.8613 25.482C15.8613 20.6476 15.3652 17.166 20.2171 16.9175C21.3318 16.8781 21.6599 16.865 24.4661 16.865L24.5054 16.8912C29.1683 16.8912 32.8267 16.403 33.0463 21.254C33.0962 22.3608 33.1076 22.6933 33.1076 25.4951C33.1067 29.8193 33.1889 31.5842 31.8878 32.8915Z" fill="white"/>
<path d="M30.1048 21.155C30.8002 21.155 31.364 20.5912 31.364 19.8958C31.364 19.2004 30.8002 18.6367 30.1048 18.6367C29.4094 18.6367 28.8457 19.2004 28.8457 19.8958C28.8457 20.5912 29.4094 21.155 30.1048 21.155Z" fill="white"/>
</g>
</g>
<defs>
<clipPath id="clip0_6802_2704">
<rect width="50" height="50" fill="white"/>
</clipPath>
<clipPath id="clip1_6802_2704">
<rect width="21" height="21" fill="white" transform="translate(14 15)"/>
</clipPath>
</defs>
</svg>
