<svg width="83" height="83" viewBox="0 0 83 83" fill="none" xmlns="http://www.w3.org/2000/svg">
<circle cx="41.5" cy="41.5" r="41.5" fill="#63533E"/>
<path d="M54.5002 58.25H54.2877C29.7252 56.8375 26.2377 36.1125 25.7502 29.7875C25.7109 29.2957 25.769 28.801 25.9213 28.3318C26.0735 27.8625 26.3168 27.4279 26.6373 27.0528C26.9578 26.6778 27.3492 26.3696 27.789 26.146C28.2287 25.9225 28.7083 25.7879 29.2002 25.75H36.0877C36.5884 25.7495 37.0777 25.8994 37.4922 26.1802C37.9068 26.461 38.2274 26.8598 38.4127 27.325L40.3127 32C40.4956 32.4544 40.541 32.9526 40.4432 33.4326C40.3455 33.9126 40.1088 34.3533 39.7627 34.7L37.1002 37.3875C37.5161 39.7509 38.6479 41.9296 40.3426 43.6287C42.0372 45.3278 44.2129 46.4654 46.5752 46.8875L49.2877 44.2C49.6396 43.8577 50.0844 43.6266 50.5668 43.5354C51.0492 43.4443 51.5477 43.4972 52.0002 43.6875L56.7127 45.575C57.1708 45.7661 57.5617 46.0893 57.8355 46.5033C58.1094 46.9174 58.2537 47.4036 58.2502 47.9V54.5C58.2502 55.4946 57.8551 56.4484 57.1518 57.1517C56.4486 57.8549 55.4948 58.25 54.5002 58.25ZM29.5002 28.25C29.1687 28.25 28.8507 28.3817 28.6163 28.6161C28.3819 28.8505 28.2502 29.1685 28.2502 29.5V29.6C28.8252 37 32.5127 54.5 54.4252 55.75C54.5894 55.7601 54.754 55.7378 54.9096 55.6842C55.0651 55.6306 55.2086 55.5468 55.3317 55.4376C55.4548 55.3285 55.5551 55.1961 55.6269 55.048C55.6987 54.9 55.7406 54.7393 55.7502 54.575V47.9L51.0377 46.0125L47.4502 49.575L46.8502 49.5C35.9752 48.1375 34.5002 37.2625 34.5002 37.15L34.4252 36.55L37.9752 32.9625L36.1002 28.25H29.5002Z" fill="white"/>
</svg>
