<svg width="129" height="60" viewBox="0 0 129 60" fill="none" xmlns="http://www.w3.org/2000/svg">
<path d="M2.41136 32.8468H126.035C127.366 32.8468 128.446 31.6578 128.446 30.1929C128.446 28.728 127.366 27.5391 126.035 27.5391H2.41136C1.08037 27.5391 0.000137329 28.728 0.000137329 30.1929C0.000137329 31.6578 1.08037 32.8468 2.41136 32.8468Z" fill="white"/>
<path d="M97.9073 59.3846C98.2085 59.3846 98.5096 59.2749 98.7401 59.0576L128.233 30.9787C128.452 30.7681 128.577 30.4837 128.577 30.1859C128.577 29.888 128.452 29.6036 128.233 29.3931L98.7378 1.32753C98.279 0.890824 97.5333 0.890824 97.0746 1.32753C96.6158 1.76423 96.6158 2.47416 97.0746 2.91086L125.737 30.1859L97.0746 57.4721C96.6158 57.9088 96.6158 58.6187 97.0746 59.0554C97.3051 59.2749 97.6062 59.3846 97.9073 59.3846Z" fill="white" stroke="white" stroke-width="0.681818"/>
</svg>
