<svg width="131" height="63" viewBox="0 0 131 63" fill="none" xmlns="http://www.w3.org/2000/svg">
<path d="M2.41136 35H126.035C127.366 35 128.446 33.208 128.446 31C128.446 28.792 127.366 27 126.035 27H2.41136C1.08037 27 0.000137329 28.792 0.000137329 31C0.000137329 33.208 1.08037 35 2.41136 35Z" fill="white"/>
<path d="M97.9073 60.3846C98.2085 60.3846 98.5096 60.2749 98.7401 60.0576L128.233 31.9787C128.452 31.7681 128.577 31.4837 128.577 31.1859C128.577 30.888 128.452 30.6036 128.233 30.3931L98.7378 2.32753C98.279 1.89082 97.5333 1.89082 97.0746 2.32753C96.6158 2.76423 96.6158 3.47416 97.0746 3.91086L125.737 31.1859L97.0746 58.4721C96.6158 58.9088 96.6158 59.6187 97.0746 60.0554C97.3051 60.2749 97.6062 60.3846 97.9073 60.3846Z" fill="white" stroke="white" stroke-width="4"/>
</svg>
