<svg width="130" height="60" viewBox="0 0 130 60" fill="none" xmlns="http://www.w3.org/2000/svg">
<path d="M127.165 32.8468H3.5416C2.2106 32.8468 1.13037 31.6578 1.13037 30.1929C1.13037 28.728 2.2106 27.5391 3.5416 27.5391H127.165C128.496 27.5391 129.577 28.728 129.577 30.1929C129.577 31.6578 128.496 32.8468 127.165 32.8468Z" fill="white"/>
<path d="M31.6693 59.3846C31.3682 59.3846 31.0671 59.2749 30.8365 59.0576L1.34346 30.9787C1.12468 30.7681 1 30.4837 1 30.1859C1 29.888 1.12468 29.6036 1.34346 29.3931L30.8389 1.32753C31.2976 0.890824 32.0434 0.890824 32.5021 1.32753C32.9608 1.76423 32.9608 2.47416 32.5021 2.91086L3.83945 30.1859L32.5021 57.4721C32.9608 57.9088 32.9608 58.6187 32.5021 59.0554C32.2716 59.2749 31.9704 59.3846 31.6693 59.3846Z" fill="white" stroke="white" stroke-width="0.681818"/>
</svg>
