<svg width="54" height="54" viewBox="0 0 54 54" fill="none" xmlns="http://www.w3.org/2000/svg">
<g id="fluent:arrow-expand-24-regular">
<rect width="54" height="54" fill="#5B6460"/>
<g id="Group">
<path id="Vector" d="M17.091 34.5375C17.4109 34.2394 17.834 34.0771 18.2712 34.0849C18.7084 34.0926 19.1255 34.2697 19.4346 34.5789C19.7438 34.888 19.9209 35.3051 19.9286 35.7423C19.9364 36.1795 19.7741 36.6026 19.476 36.9225L12.5122 43.884H17.4375C17.8453 43.884 18.2393 44.0317 18.5466 44.2997C18.8539 44.5678 19.0538 44.938 19.1093 45.342L19.125 45.5715C19.125 46.0191 18.9472 46.4483 18.6307 46.7647C18.3143 47.0812 17.8851 47.259 17.4375 47.259H8.4375C7.98995 47.259 7.56072 47.0812 7.24426 46.7647C6.92779 46.4483 6.75 46.0191 6.75 45.5715V36.5715C6.75 36.1239 6.92779 35.6947 7.24426 35.3783C7.56072 35.0618 7.98995 34.884 8.4375 34.884C8.88505 34.884 9.31428 35.0618 9.63074 35.3783C9.94721 35.6947 10.125 36.1239 10.125 36.5715V41.499L17.091 34.5375ZM36.5737 47.259C36.1262 47.259 35.697 47.0812 35.3805 46.7647C35.064 46.4483 34.8862 46.0191 34.8862 45.5715C34.8862 45.1239 35.064 44.6947 35.3805 44.3783C35.697 44.0618 36.1262 43.884 36.5737 43.884H41.4922L34.5375 36.9225C34.2517 36.6368 34.0779 36.258 34.0478 35.855C34.0177 35.452 34.1331 35.0516 34.3733 34.7265L34.5375 34.5375C34.8539 34.2215 35.2828 34.044 35.73 34.044C36.1772 34.044 36.6061 34.2215 36.9225 34.5375L43.8862 41.5035V36.5715C43.8863 36.1637 44.0339 35.7697 44.302 35.4624C44.57 35.1551 44.9403 34.9552 45.3442 34.8997L45.5737 34.884C46.0213 34.884 46.4505 35.0618 46.767 35.3783C47.0835 35.6947 47.2612 36.1239 47.2612 36.5715V45.5715C47.2612 46.0191 47.0835 46.4483 46.767 46.7647C46.4505 47.0812 46.0213 47.259 45.5737 47.259H36.5737ZM17.4375 6.75C17.8851 6.75 18.3143 6.92779 18.6307 7.24426C18.9472 7.56072 19.125 7.98995 19.125 8.4375C19.125 8.88505 18.9472 9.31428 18.6307 9.63074C18.3143 9.94721 17.8851 10.125 17.4375 10.125H12.5168L19.476 17.0887C19.7615 17.3748 19.9348 17.7537 19.9645 18.1567C19.9943 18.5597 19.8784 18.96 19.638 19.2847L19.4737 19.476C19.1573 19.792 18.7284 19.9695 18.2812 19.9695C17.8341 19.9695 17.4052 19.792 17.0887 19.476L10.125 12.5033V17.4375C10.125 17.8453 9.9773 18.2393 9.70927 18.5466C9.44124 18.8539 9.071 19.0538 8.667 19.1093L8.4375 19.125C7.98995 19.125 7.56072 18.9472 7.24426 18.6307C6.92779 18.3143 6.75 17.8851 6.75 17.4375V8.4375C6.75 7.98995 6.92779 7.56072 7.24426 7.24426C7.56072 6.92779 7.98995 6.75 8.4375 6.75H17.4375ZM45.5737 6.75C46.0213 6.75 46.4505 6.92779 46.767 7.24426C47.0835 7.56072 47.2612 7.98995 47.2612 8.4375V17.4375C47.2612 17.8851 47.0835 18.3143 46.767 18.6307C46.4505 18.9472 46.0213 19.125 45.5737 19.125C45.1262 19.125 44.697 18.9472 44.3805 18.6307C44.064 18.3143 43.8862 17.8851 43.8862 17.4375V12.5078L36.9225 19.4737C36.6368 19.7595 36.258 19.9333 35.855 19.9634C35.452 19.9936 35.0516 19.8781 34.7265 19.638L34.5375 19.4737C34.2215 19.1573 34.044 18.7284 34.044 18.2812C34.044 17.8341 34.2215 17.4052 34.5375 17.0887L41.4945 10.125H36.5737C36.166 10.125 35.772 9.9773 35.4647 9.70927C35.1573 9.44124 34.9575 9.071 34.902 8.667L34.8862 8.4375C34.8862 7.98995 35.064 7.56072 35.3805 7.24426C35.697 6.92779 36.1262 6.75 36.5737 6.75H45.5737Z" fill="white"/>
</g>
</g>
</svg>
