<svg width="131" height="62" viewBox="0 0 131 62" fill="none" xmlns="http://www.w3.org/2000/svg">
<path d="M128.165 34.7832H4.5416C3.2106 34.7832 2.13037 33.003 2.13037 30.8096C2.13037 28.6161 3.2106 26.8359 4.5416 26.8359H128.165C129.496 26.8359 130.577 28.6161 130.577 30.8096C130.577 33.003 129.496 34.7832 128.165 34.7832Z" fill="white"/>
<path d="M32.6693 60C32.3682 60 32.0671 59.891 31.8365 59.6752L2.34346 31.7812C2.12468 31.572 2 31.2895 2 30.9936C2 30.6977 2.12468 30.4152 2.34346 30.206L31.8389 2.32537C32.2976 1.89154 33.0434 1.89154 33.5021 2.32537C33.9608 2.7592 33.9608 3.46445 33.5021 3.89827L4.83945 30.9936L33.5021 58.1001C33.9608 58.5339 33.9608 59.2391 33.5021 59.673C33.2716 59.891 32.9704 60 32.6693 60Z" fill="white" stroke="white" stroke-width="4"/>
</svg>
