<svg width="54" height="54" viewBox="0 0 54 54" fill="none" xmlns="http://www.w3.org/2000/svg">
<path d="M44.1053 11.5567C43.8785 11.4522 43.6993 11.2665 43.603 11.0362C42.23 7.76599 39.9219 4.9741 36.9682 3.01074C34.0145 1.04738 30.5467 0 27 0C23.4533 0 19.9856 1.04738 17.0318 3.01074C14.0781 4.9741 11.77 7.76599 10.397 11.0362C10.3006 11.2665 10.1213 11.4523 9.8945 11.5567C6.95329 12.9181 4.46069 15.0892 2.70842 17.8157C0.956143 20.5422 0.0166906 23.7114 1.87335e-06 26.9524C-0.0249981 36.1174 7.4045 43.7624 16.5615 43.9944C19.8927 44.0838 23.1762 43.1876 26 41.4182V52.9999C26 53.2651 26.1054 53.5195 26.2929 53.707C26.4804 53.8946 26.7348 53.9999 27 53.9999C27.2652 53.9999 27.5196 53.8946 27.7071 53.707C27.8946 53.5195 28 53.2651 28 52.9999V41.4187C30.6965 43.1105 33.8165 44.0053 36.9997 43.9999C37.1457 43.9999 37.2928 43.9982 37.4393 43.9947C46.5963 43.7627 54.0255 36.1172 54 26.9519C53.9831 23.711 53.0436 20.5419 51.2913 17.8155C49.539 15.0891 47.0464 12.9181 44.1053 11.5567ZM37.3887 41.9949C34.2926 42.0833 31.2462 41.2024 28.675 39.4754C28.4649 39.3354 28.2382 39.2222 28 39.1384V27.6182L39.4475 21.8944C39.6847 21.7757 39.8651 21.5677 39.9489 21.316C40.0328 21.0643 40.0132 20.7897 39.8945 20.5524C39.7758 20.3152 39.5678 20.1348 39.3161 20.051C39.0644 19.9672 38.7897 19.9867 38.5525 20.1054L28 25.3817V16.9999C28 16.7347 27.8946 16.4804 27.7071 16.2928C27.5196 16.1053 27.2652 15.9999 27 15.9999C26.7348 15.9999 26.4804 16.1053 26.2929 16.2928C26.1054 16.4804 26 16.7347 26 16.9999V31.3817L15.4475 26.1054C15.2103 25.9867 14.9356 25.9672 14.6839 26.051C14.4323 26.1348 14.2242 26.3152 14.1055 26.5524C13.9868 26.7897 13.9672 27.0643 14.0511 27.316C14.1349 27.5677 14.3153 27.7757 14.5525 27.8944L26 33.6182V39.1382C25.7618 39.222 25.535 39.3354 25.325 39.4757C22.7545 41.2038 19.7078 42.0846 16.6118 41.9949C8.53275 41.7909 1.978 35.0449 2 26.9579C2.01482 24.098 2.8439 21.3015 4.39021 18.8957C5.93652 16.4898 8.13609 14.5742 10.7315 13.3729C11.4127 13.0597 11.9514 12.502 12.241 11.8104C13.4615 8.90342 15.5133 6.42158 18.1389 4.67626C20.7646 2.93094 23.8472 1.99987 27 1.99987C30.1528 1.99987 33.2354 2.93094 35.8611 4.67626C38.4867 6.42158 40.5385 8.90342 41.759 11.8104C42.0486 12.502 42.5873 13.0597 43.2685 13.3729C45.8638 14.5741 48.0634 16.4897 49.6097 18.8955C51.156 21.3012 51.9851 24.0976 52 26.9574C52.0225 35.0449 45.4678 41.7909 37.3887 41.9952V41.9949Z" fill="#5B6460"/>
</svg>
